<svg xmlns="http://www.w3.org/2000/svg" xmlns:xlink="http://www.w3.org/1999/xlink" width="1080" zoomAndPan="magnify" viewBox="0 0 810 809.999993" height="1080" preserveAspectRatio="xMidYMid meet" version="1.2"><defs><clipPath id="c3766dd273"><path d="M 243 409 L 567 409 L 567 563 L 243 563 Z M 243 409 "/></clipPath></defs><g id="060fda72ec"><g clip-rule="nonzero" clip-path="url(#c3766dd273)"><path style=" stroke:none;fill-rule:nonzero;fill:#fa5719;fill-opacity:1;" d="M 327.867188 502.097656 L 452.421875 548.019531 C 453.257812 548.324219 454.148438 548.179688 455.039062 548.179688 L 502.488281 548.179688 L 502.488281 555.640625 C 502.488281 559.796875 504.53125 562.515625 508.6875 562.515625 L 541.921875 562.515625 C 546.078125 562.515625 549.449219 559.503906 549.449219 555.347656 C 549.449219 551.1875 546.082031 548.179688 541.921875 548.179688 L 516.824219 548.179688 L 516.824219 458.578125 L 559.542969 458.578125 C 563.699219 458.578125 567.066406 455.566406 567.066406 451.410156 C 567.066406 447.25 563.703125 444.238281 559.542969 444.238281 L 508.6875 444.238281 C 504.53125 444.238281 502.488281 446.570312 502.488281 450.730469 L 502.488281 465.746094 L 493.617188 465.746094 L 461.542969 436.441406 C 460.164062 435.230469 458.398438 433.488281 456.566406 433.488281 L 368.085938 433.488281 C 364.234375 433.488281 361.003906 437.039062 360.601562 440.871094 L 360.273438 444.488281 C 360.257812 444.664062 360.246094 445.308594 360.238281 445.480469 C 360.054688 452.203125 362.058594 458.578125 365.820312 465.746094 L 364.261719 465.746094 L 342.363281 431.84375 C 334.742188 417.367188 318.277344 405.542969 301.382812 411.058594 L 293.472656 413.539062 C 292.90625 413.742188 292.453125 413.898438 291.863281 414.167969 C 289.984375 415.046875 288.542969 416.644531 287.894531 418.613281 C 287.433594 420.003906 287.417969 421.46875 287.78125 422.863281 C 275.6875 418.179688 261.542969 418.59375 251.800781 428.324219 L 246.0625 434.039062 C 245.714844 434.390625 245.421875 434.726562 245.058594 435.167969 C 243.636719 436.785156 242.980469 438.933594 243.246094 441.066406 C 243.511719 443.195312 244.675781 445.113281 246.453125 446.332031 L 326.222656 501.238281 C 326.730469 501.59375 327.28125 501.878906 327.867188 502.097656 Z M 306.03125 425.222656 C 315.027344 422.285156 324.65625 430.03125 329.175781 438.785156 C 329.289062 439.011719 329.417969 439.234375 329.558594 439.449219 L 336.964844 450.8125 L 311.898438 436.335938 C 311.8125 436.148438 311.761719 435.953125 311.660156 435.765625 L 305.945312 425.25 Z M 262.433594 438.972656 C 269.113281 432.300781 281.21875 434.8125 289.21875 440.578125 C 289.429688 440.726562 355.949219 479.113281 355.949219 479.113281 C 357.09375 479.78125 358.402344 480.082031 359.734375 480.082031 L 439.742188 480.082031 C 443.898438 480.082031 447.265625 477.070312 447.265625 472.914062 C 447.265625 468.753906 443.902344 465.746094 439.742188 465.746094 L 389.128906 465.746094 C 385.878906 465.746094 382.601562 463.601562 379.976562 460.242188 C 377.824219 457.492188 376.320312 451.410156 375.660156 451.410156 L 453.730469 451.410156 L 485.804688 478.917969 C 487.179688 480.132812 488.949219 480.082031 490.777344 480.082031 L 502.488281 480.082031 L 502.488281 533.84375 L 456.390625 533.84375 L 333.980469 488.363281 L 262.382812 439.050781 Z M 262.433594 438.972656 "/></g><path style=" stroke:none;fill-rule:nonzero;fill:#fa5719;fill-opacity:1;" d="M 306.375 380.367188 L 382.503906 416.945312 C 383.539062 417.445312 384.738281 417.6875 385.855469 417.6875 C 386.941406 417.6875 388.035156 417.386719 389.035156 416.921875 C 389.078125 416.9375 389.140625 416.964844 389.183594 416.945312 L 465.554688 380.367188 C 468.160156 379.113281 470.230469 376.480469 470.230469 373.585938 L 470.230469 291.835938 C 470.230469 289.242188 468.496094 286.839844 466.300781 285.460938 C 466.167969 285.375 465.808594 285.335938 465.667969 285.257812 C 465.59375 285.195312 465.414062 285.136719 465.292969 285.078125 L 389.289062 248.511719 C 387.226562 247.523438 384.800781 247.519531 382.738281 248.511719 L 306.730469 284.996094 C 306.59375 285.0625 306.539062 285.167969 306.4375 285.246094 C 306.292969 285.324219 305.78125 285.367188 305.640625 285.460938 C 303.449219 286.84375 301.777344 289.246094 301.777344 291.839844 L 301.777344 373.589844 C 301.777344 376.480469 303.769531 379.113281 306.375 380.367188 Z M 455.894531 368.859375 L 394.964844 398.183594 L 394.964844 333.140625 L 455.894531 303.839844 Z M 444.539062 291.84375 L 385.941406 320.003906 L 365.332031 310.078125 L 423.949219 281.929688 Z M 385.96875 263.640625 L 406.589844 273.574219 L 347.972656 301.722656 L 327.347656 291.792969 Z M 316.113281 303.8125 L 377.042969 333.140625 L 377.042969 398.183594 L 316.113281 368.855469 Z M 316.113281 303.8125 "/><path style=" stroke:none;fill-rule:nonzero;fill:#fa5719;fill-opacity:1;" d="M 361.398438 339.167969 L 338.964844 328.367188 C 335.199219 326.566406 330.714844 328.140625 328.914062 331.882812 C 327.109375 335.628906 328.6875 340.125 332.429688 341.933594 L 354.867188 352.734375 C 355.917969 353.242188 357.03125 353.480469 358.125 353.480469 C 360.925781 353.480469 363.613281 351.910156 364.914062 349.21875 C 366.71875 345.46875 365.144531 340.976562 361.398438 339.167969 Z M 361.398438 339.167969 "/></g></svg>