<svg xmlns="http://www.w3.org/2000/svg" xmlns:xlink="http://www.w3.org/1999/xlink" width="1080" zoomAndPan="magnify" viewBox="0 0 810 809.999993" height="1080" preserveAspectRatio="xMidYMid meet" version="1.2"><defs><clipPath id="9fb8860d4a"><path d="M 243 263.25 L 567 263.25 L 567 546.75 L 243 546.75 Z M 243 263.25 "/></clipPath></defs><g id="65cd3e728c"><g clip-rule="nonzero" clip-path="url(#9fb8860d4a)"><path style=" stroke:none;fill-rule:nonzero;fill:#fa5719;fill-opacity:1;" d="M 415.078125 541.632812 C 415.078125 544.4375 412.804688 546.710938 409.996094 546.710938 C 402.4375 546.710938 398.800781 542.761719 396.144531 539.875 C 393.964844 537.507812 392.871094 536.320312 389.769531 536.320312 C 386.667969 536.320312 385.570312 537.507812 383.390625 539.875 C 380.734375 542.761719 377.097656 546.710938 369.539062 546.710938 C 361.980469 546.710938 358.34375 542.761719 355.691406 539.875 C 353.507812 537.507812 352.414062 536.320312 349.3125 536.320312 C 346.210938 536.320312 345.117188 537.507812 342.9375 539.875 C 340.28125 542.761719 336.640625 546.710938 329.085938 546.710938 C 321.527344 546.710938 317.890625 542.761719 315.234375 539.875 C 313.054688 537.507812 311.957031 536.320312 308.855469 536.320312 C 305.753906 536.320312 304.660156 537.507812 302.480469 539.875 C 299.824219 542.761719 296.1875 546.710938 288.628906 546.710938 C 281.070312 546.710938 277.433594 542.761719 274.777344 539.875 C 272.597656 537.507812 271.503906 536.320312 268.398438 536.320312 C 265.296875 536.320312 264.203125 537.507812 262.023438 539.875 C 259.367188 542.761719 255.730469 546.710938 248.171875 546.710938 C 245.367188 546.710938 243.09375 544.4375 243.09375 541.632812 C 243.09375 538.828125 245.367188 536.554688 248.171875 536.554688 C 251.273438 536.554688 252.367188 535.363281 254.546875 532.996094 C 257.203125 530.113281 260.839844 526.160156 268.398438 526.160156 C 275.957031 526.160156 279.59375 530.113281 282.25 532.996094 C 284.429688 535.363281 285.527344 536.554688 288.628906 536.554688 C 291.730469 536.554688 292.824219 535.363281 295.003906 532.996094 C 297.660156 530.113281 301.296875 526.160156 308.855469 526.160156 C 316.414062 526.160156 320.050781 530.113281 322.707031 532.996094 C 324.886719 535.363281 325.984375 536.554688 329.085938 536.554688 C 332.1875 536.554688 333.28125 535.363281 335.460938 532.996094 C 338.117188 530.113281 341.753906 526.160156 349.3125 526.160156 C 356.871094 526.160156 360.507812 530.113281 363.164062 532.996094 C 365.34375 535.363281 366.441406 536.554688 369.542969 536.554688 C 372.644531 536.554688 373.738281 535.363281 375.917969 532.996094 C 378.574219 530.113281 382.210938 526.160156 389.769531 526.160156 C 397.328125 526.160156 400.964844 530.113281 403.621094 532.996094 C 405.800781 535.363281 406.894531 536.554688 410 536.554688 C 412.804688 536.554688 415.078125 538.828125 415.078125 541.632812 Z M 566.910156 493.960938 L 566.910156 526.050781 C 566.910156 531.675781 562.332031 536.253906 556.707031 536.253906 L 552.933594 536.253906 C 550.824219 542.335938 545.042969 546.710938 538.253906 546.710938 C 531.464844 546.710938 525.683594 542.335938 523.574219 536.253906 L 495.960938 536.253906 C 493.847656 542.335938 488.066406 546.710938 481.277344 546.710938 C 475.539062 546.710938 470.519531 543.582031 467.828125 538.9375 C 465.136719 543.582031 460.117188 546.710938 454.375 546.710938 C 447.585938 546.710938 441.808594 542.335938 439.695312 536.253906 L 438.84375 536.253906 C 433.21875 536.253906 428.640625 531.679688 428.640625 526.050781 L 428.640625 492.21875 C 420.886719 494.113281 412.90625 495.074219 404.835938 495.074219 C 400.339844 495.074219 395.835938 494.773438 391.398438 494.179688 L 388.882812 502.289062 C 389.175781 502.277344 389.464844 502.261719 389.769531 502.261719 C 397.328125 502.261719 400.964844 506.210938 403.621094 509.09375 C 405.800781 511.464844 406.894531 512.652344 410 512.652344 C 412.804688 512.652344 415.078125 514.925781 415.078125 517.734375 C 415.078125 520.539062 412.804688 522.8125 410 522.8125 C 402.441406 522.8125 398.804688 518.859375 396.148438 515.976562 C 393.964844 513.609375 392.871094 512.417969 389.769531 512.417969 C 386.667969 512.417969 385.574219 513.609375 383.390625 515.976562 C 380.738281 518.859375 377.097656 522.8125 369.542969 522.8125 C 361.984375 522.8125 358.347656 518.859375 355.691406 515.976562 C 353.507812 513.609375 352.414062 512.417969 349.3125 512.417969 C 346.210938 512.417969 345.117188 513.609375 342.9375 515.976562 C 340.28125 518.859375 336.644531 522.8125 329.085938 522.8125 C 321.527344 522.8125 317.890625 518.859375 315.234375 515.976562 C 313.054688 513.609375 311.960938 512.417969 308.859375 512.417969 C 305.757812 512.417969 304.660156 513.609375 302.480469 515.976562 C 299.824219 518.859375 296.1875 522.8125 288.628906 522.8125 C 281.070312 522.8125 277.433594 518.859375 274.777344 515.976562 C 272.597656 513.609375 271.503906 512.417969 268.402344 512.417969 C 265.296875 512.417969 264.203125 513.609375 262.023438 515.976562 C 259.367188 518.859375 255.730469 522.8125 248.171875 522.8125 C 245.367188 522.8125 243.09375 520.539062 243.09375 517.734375 C 243.09375 514.925781 245.367188 512.652344 248.171875 512.652344 C 251.273438 512.652344 252.367188 511.464844 254.550781 509.09375 C 256.789062 506.664062 259.738281 503.480469 265.140625 502.539062 L 258.640625 481.582031 C 258.164062 480.039062 258.445312 478.363281 259.402344 477.0625 C 260.359375 475.765625 261.878906 474.996094 263.492188 474.996094 L 270.328125 474.996094 L 270.328125 463.773438 C 270.328125 459.613281 273.578125 456.207031 277.671875 455.9375 L 277.671875 447.0625 C 277.671875 443.214844 280.804688 440.082031 284.652344 440.082031 L 288.085938 440.082031 L 288.085938 429.675781 C 288.085938 426.871094 290.359375 424.597656 293.164062 424.597656 C 295.96875 424.597656 298.246094 426.871094 298.246094 429.675781 L 298.246094 440.082031 L 301.675781 440.082031 C 305.527344 440.082031 308.65625 443.214844 308.65625 447.0625 L 308.65625 455.9375 C 312.75 456.207031 316 459.613281 316 463.773438 L 316 474.996094 L 344.75 474.996094 C 333.972656 466.878906 324.875 456.621094 318.128906 444.902344 C 309.449219 429.820312 304.859375 412.597656 304.859375 395.097656 C 304.859375 339.96875 349.710938 295.117188 404.839844 295.117188 C 415.984375 295.117188 427.066406 296.996094 437.535156 300.605469 L 434.769531 295.820312 C 429.765625 287.152344 432.746094 276.027344 441.414062 271.023438 C 441.414062 271.023438 441.414062 271.023438 441.414062 271.019531 C 450.085938 266.015625 461.210938 268.996094 466.214844 277.667969 L 475.339844 293.46875 L 493.253906 292.574219 C 491.792969 287.207031 494.035156 281.3125 499.074219 278.40625 C 501.972656 276.730469 505.351562 276.289062 508.597656 277.160156 C 511.84375 278.027344 514.550781 280.101562 516.222656 283 L 520.957031 291.195312 L 537.523438 290.371094 C 539.867188 290.246094 541.984375 291.757812 542.648438 294.007812 C 543.308594 296.257812 542.347656 298.667969 540.316406 299.839844 L 494.34375 326.382812 L 515.355469 362.777344 L 537.300781 362.777344 C 539.117188 362.777344 540.792969 363.746094 541.699219 365.316406 L 550.191406 380.027344 C 551.066406 381.542969 551.101562 383.402344 550.28125 384.949219 C 549.460938 386.492188 547.902344 387.507812 546.15625 387.632812 L 510.21875 390.191406 L 504.765625 398.253906 C 504.214844 416.1875 499.007812 433.25 489.535156 448.253906 L 513.402344 448.253906 C 519.03125 448.253906 523.605469 452.832031 523.605469 458.457031 L 523.605469 460.914062 L 535.589844 460.914062 C 539.316406 460.914062 542.613281 462.371094 545.128906 465.121094 L 563.523438 485.242188 C 565.738281 487.664062 566.910156 490.679688 566.910156 493.960938 Z M 535.589844 471.074219 L 523.605469 471.074219 L 523.605469 492.203125 L 556.113281 492.203125 C 556.082031 492.167969 556.058594 492.132812 556.027344 492.097656 L 537.628906 471.972656 C 537.050781 471.34375 536.441406 471.074219 535.589844 471.074219 Z M 438.84375 458.414062 L 438.8125 503.75 L 513.449219 503.75 L 513.449219 458.457031 Z M 491.9375 417.214844 L 490.03125 420.035156 C 489.085938 421.433594 487.507812 422.269531 485.824219 422.269531 C 485.765625 422.269531 485.707031 422.265625 485.644531 422.265625 C 483.894531 422.203125 482.300781 421.246094 481.425781 419.726562 L 472.933594 405.019531 C 472.027344 403.449219 472.027344 401.511719 472.933594 399.941406 L 483.910156 380.933594 L 462.894531 344.539062 L 437.375 359.273438 C 437.992188 360.527344 438.789062 361.835938 439.746094 363.167969 C 444.136719 369.277344 448.421875 371.695312 452.5625 374.03125 C 457.644531 376.898438 462.902344 379.863281 466.433594 388.191406 C 469.972656 396.535156 465.539062 403.070312 461.976562 408.324219 C 458.957031 412.769531 456.105469 416.972656 456.441406 422.683594 C 456.84375 429.519531 461.859375 438.117188 471.332031 448.253906 L 477.242188 448.253906 C 484.183594 438.828125 489.132812 428.34375 491.9375 417.214844 Z M 425.308594 340.402344 L 428.230469 335.878906 L 427.328125 334.320312 C 426.902344 333.582031 426.234375 333.3125 425.875 333.214844 C 425.511719 333.117188 424.796875 333.019531 424.058594 333.445312 C 422.933594 334.09375 422.53125 335.59375 423.183594 336.714844 Z M 504.175781 292.03125 L 509.550781 291.761719 L 507.421875 288.078125 C 507 287.339844 506.328125 287.066406 505.96875 286.972656 C 505.605469 286.875 504.890625 286.773438 504.152344 287.203125 C 503.027344 287.851562 502.625 289.347656 503.277344 290.472656 Z M 443.566406 290.742188 L 454.242188 309.230469 C 455.195312 310.882812 455.144531 312.925781 454.109375 314.527344 L 430.0625 351.761719 L 462.214844 333.203125 C 463.382812 332.527344 464.769531 332.34375 466.070312 332.691406 C 467.371094 333.042969 468.480469 333.894531 469.152344 335.058594 L 494.171875 378.394531 C 495.078125 379.964844 495.078125 381.902344 494.171875 383.472656 L 483.199219 402.480469 L 486.164062 407.617188 L 503.183594 382.453125 C 504.058594 381.164062 505.476562 380.34375 507.03125 380.234375 L 537.335938 378.074219 L 534.367188 372.9375 L 512.421875 372.9375 C 510.605469 372.9375 508.929688 371.96875 508.023438 370.398438 L 483.003906 327.066406 C 481.601562 324.636719 482.433594 321.527344 484.863281 320.125 L 517.015625 301.5625 L 472.742188 303.769531 C 470.839844 303.867188 469.042969 302.886719 468.089844 301.234375 L 457.417969 282.746094 C 455.210938 278.929688 450.3125 277.617188 446.492188 279.820312 C 442.675781 282.023438 441.363281 286.921875 443.566406 290.742188 Z M 317.175781 375.503906 C 329.40625 375.402344 334.3125 380.46875 340.285156 386.652344 C 344.261719 390.769531 348.769531 395.433594 357.074219 400.234375 C 366.101562 405.453125 366.160156 412.230469 366.199219 417.179688 C 366.226562 420.777344 366.253906 423.882812 369.097656 427.605469 C 376.992188 437.101562 378.003906 445.035156 378.746094 450.835938 C 379.269531 454.953125 379.601562 457.011719 381.378906 458.753906 C 381.800781 458.523438 382.375 457.957031 382.542969 457.425781 C 383.886719 450.808594 385.851562 448.285156 388.277344 445.679688 C 389.796875 444.050781 391.230469 442.511719 392.691406 436.167969 C 392.863281 420.105469 403.082031 416.925781 408.605469 415.210938 C 409.171875 415.03125 409.859375 414.820312 410.421875 414.617188 C 409.964844 413.488281 408.808594 411.269531 405.871094 407.269531 C 404.40625 405.277344 403.171875 403.3125 401.972656 401.410156 C 398.65625 396.144531 396.625 393.152344 393.449219 392.847656 C 385.265625 392.0625 380.789062 389.296875 377.515625 387.277344 C 373.890625 385.039062 372.535156 384.199219 366.464844 386.550781 C 354.378906 391.226562 348.300781 386.171875 341.890625 375.863281 C 337.464844 368.746094 339.507812 363.472656 341.117188 360.960938 C 344.496094 355.695312 351.992188 352.96875 360.222656 354.011719 C 360.375 354.027344 360.621094 354.070312 360.957031 354.132812 C 371.621094 356.082031 382.046875 352.378906 390.339844 343.707031 C 393.90625 339.273438 394.582031 334.746094 392.402344 329.871094 C 388.78125 321.769531 377.488281 314.273438 367.730469 313.304688 C 342.421875 324.828125 323.367188 347.769531 317.175781 375.503906 Z M 354.539062 469.511719 L 359.335938 463.34375 C 360.300781 462.105469 361.777344 461.378906 363.347656 461.378906 L 370.929688 461.378906 C 369.472656 458.367188 369.0625 455.210938 368.667969 452.121094 C 367.988281 446.792969 367.285156 441.285156 361.230469 434.035156 C 361.191406 433.984375 361.152344 433.933594 361.113281 433.882812 C 356.121094 427.425781 356.074219 421.550781 356.039062 417.261719 C 356.003906 412.832031 355.992188 411.34375 351.992188 409.03125 C 342.453125 403.515625 337.203125 398.078125 332.980469 393.710938 C 327.539062 388.078125 324.710938 385.160156 315.507812 385.707031 C 315.183594 388.792969 315.015625 391.925781 315.015625 395.09375 C 315.015625 425.265625 329.710938 452.753906 354.539062 469.511719 Z M 287.828125 450.238281 L 287.828125 455.910156 L 298.496094 455.910156 L 298.496094 450.238281 Z M 280.484375 474.996094 L 305.839844 474.996094 L 305.839844 466.070312 L 280.484375 466.070312 Z M 375.917969 509.09375 C 376.023438 508.980469 376.132812 508.859375 376.242188 508.742188 L 387.78125 471.539062 L 365.832031 471.539062 L 356.769531 483.195312 C 355.804688 484.433594 354.328125 485.15625 352.757812 485.15625 L 270.382812 485.15625 L 276.25 504.078125 C 278.921875 505.484375 280.746094 507.460938 282.25 509.09375 C 284.429688 511.464844 285.523438 512.652344 288.628906 512.652344 C 291.730469 512.652344 292.824219 511.464844 295.003906 509.09375 C 297.660156 506.210938 301.296875 502.257812 308.855469 502.257812 C 316.414062 502.257812 320.050781 506.210938 322.707031 509.09375 C 324.886719 511.464844 325.980469 512.652344 329.082031 512.652344 C 332.1875 512.652344 333.28125 511.464844 335.460938 509.09375 C 338.117188 506.210938 341.753906 502.257812 349.3125 502.257812 C 356.871094 502.257812 360.507812 506.210938 363.164062 509.09375 C 365.34375 511.464844 366.4375 512.652344 369.539062 512.652344 C 372.640625 512.652344 373.738281 511.464844 375.917969 509.09375 Z M 428.640625 481.726562 L 428.640625 458.457031 C 428.640625 452.832031 433.21875 448.253906 438.84375 448.253906 L 457.898438 448.253906 C 450.566406 439.046875 446.746094 430.8125 446.300781 423.277344 C 445.765625 414.121094 450.09375 407.742188 453.570312 402.617188 C 457.121094 397.386719 458.34375 395.128906 457.082031 392.15625 C 454.898438 387.011719 451.984375 385.367188 447.574219 382.878906 C 442.949219 380.273438 437.195312 377.027344 431.5 369.097656 C 430.351562 367.5 429.382812 365.921875 428.570312 364.355469 L 416.925781 371.082031 C 414.890625 372.253906 412.320312 371.882812 410.703125 370.183594 C 409.085938 368.484375 408.84375 365.898438 410.117188 363.925781 L 419.117188 349.992188 L 414.382812 341.796875 C 412.710938 338.898438 412.269531 335.515625 413.136719 332.273438 C 414.007812 329.027344 416.082031 326.320312 418.980469 324.648438 C 421.875 322.972656 425.257812 322.53125 428.503906 323.402344 C 430.6875 323.984375 432.617188 325.128906 434.164062 326.6875 L 442.621094 313.589844 C 430.855469 308.140625 417.898438 305.273438 404.835938 305.273438 C 397.5 305.273438 390.371094 306.164062 383.539062 307.832031 C 391.554688 312.03125 398.480469 318.5625 401.679688 325.726562 C 405.4375 334.136719 404.164062 342.855469 398.085938 350.277344 C 398.007812 350.375 397.929688 350.464844 397.84375 350.554688 C 387.089844 361.902344 373.34375 366.722656 359.128906 364.121094 L 358.890625 364.082031 C 354.421875 363.527344 350.695312 364.84375 349.667969 366.445312 C 348.96875 367.539062 349.746094 369.253906 350.519531 370.5 C 356.195312 379.628906 357.859375 378.984375 362.796875 377.074219 C 372.804688 373.199219 377.421875 375.277344 382.855469 378.632812 C 385.675781 380.375 388.59375 382.175781 394.421875 382.734375 C 402.71875 383.53125 406.890625 390.152344 410.570312 395.996094 C 411.671875 397.746094 412.8125 399.554688 414.0625 401.257812 C 419.03125 408.03125 422.019531 413.515625 420.453125 418.269531 C 419.027344 422.605469 414.921875 423.882812 411.621094 424.910156 C 406.503906 426.5 402.808594 427.648438 402.847656 436.71875 C 402.851562 437.097656 402.808594 437.472656 402.730469 437.839844 C 400.789062 446.613281 398.402344 449.71875 395.710938 452.605469 C 394.296875 454.125 393.359375 455.128906 392.472656 459.582031 C 392.457031 459.660156 392.441406 459.742188 392.421875 459.824219 C 392.289062 460.351562 392.113281 460.875 391.902344 461.382812 L 394.675781 461.382812 C 396.292969 461.382812 397.808594 462.148438 398.765625 463.449219 C 399.722656 464.746094 400.007812 466.425781 399.527344 467.964844 L 394.457031 484.320312 C 397.894531 484.714844 401.367188 484.917969 404.835938 484.917969 C 412.929688 484.914062 420.921875 483.839844 428.640625 481.726562 Z M 438.800781 526.050781 L 439.707031 526.058594 C 441.828125 520 447.601562 515.636719 454.375 515.636719 C 460.117188 515.636719 465.136719 518.769531 467.828125 523.414062 C 470.515625 518.769531 475.539062 515.636719 481.277344 515.636719 C 488.066406 515.636719 493.847656 520.015625 495.960938 526.09375 L 513.449219 526.09375 L 513.449219 513.910156 L 438.808594 513.910156 Z M 459.753906 531.175781 C 459.753906 528.210938 457.339844 525.796875 454.375 525.796875 C 451.410156 525.796875 448.996094 528.210938 448.996094 531.175781 C 448.996094 534.140625 451.410156 536.554688 454.375 536.554688 C 457.339844 536.554688 459.753906 534.140625 459.753906 531.175781 Z M 486.65625 531.175781 C 486.65625 528.210938 484.242188 525.796875 481.277344 525.796875 C 478.3125 525.796875 475.898438 528.210938 475.898438 531.175781 C 475.898438 534.140625 478.3125 536.554688 481.277344 536.554688 C 484.242188 536.554688 486.65625 534.140625 486.65625 531.175781 Z M 543.632812 531.175781 C 543.632812 528.210938 541.21875 525.796875 538.253906 525.796875 C 535.285156 525.796875 532.875 528.210938 532.875 531.175781 C 532.875 534.140625 535.285156 536.554688 538.253906 536.554688 C 541.21875 536.554688 543.632812 534.140625 543.632812 531.175781 Z M 556.707031 526.097656 L 556.738281 502.363281 L 523.605469 502.363281 L 523.605469 525.996094 C 525.746094 519.96875 531.5 515.636719 538.253906 515.636719 C 545.042969 515.636719 550.824219 520.015625 552.933594 526.097656 Z M 278.042969 400.175781 C 280.851562 400.175781 283.125 397.898438 283.125 395.09375 C 283.125 327.984375 337.722656 273.382812 404.835938 273.382812 C 407.640625 273.382812 409.917969 271.109375 409.917969 268.304688 C 409.917969 265.5 407.640625 263.222656 404.835938 263.222656 C 332.121094 263.222656 272.964844 322.382812 272.964844 395.09375 C 272.964844 397.898438 275.238281 400.175781 278.042969 400.175781 Z M 278.042969 400.175781 "/></g></g></svg>