<svg xmlns="http://www.w3.org/2000/svg" xmlns:xlink="http://www.w3.org/1999/xlink" width="1080" zoomAndPan="magnify" viewBox="0 0 810 809.999993" height="1080" preserveAspectRatio="xMidYMid meet" version="1.2"><defs><clipPath id="1480d00b22"><path d="M 243 255.757812 L 567 255.757812 L 567 554.257812 L 243 554.257812 Z M 243 255.757812 "/></clipPath><clipPath id="21e1e44363"><path d="M 243 270.007812 L 243 539.992188 C 243 547.863281 249.378906 554.242188 257.25 554.242188 L 552.75 554.242188 C 560.621094 554.242188 567 547.863281 567 539.992188 L 567 270.007812 C 567 262.136719 560.621094 255.757812 552.75 255.757812 L 257.25 255.757812 C 249.378906 255.757812 243 262.136719 243 270.007812 Z M 243 270.007812 "/></clipPath></defs><g id="b2ac158980"><g clip-rule="nonzero" clip-path="url(#1480d00b22)"><g clip-rule="nonzero" clip-path="url(#21e1e44363)"><path style=" stroke:none;fill-rule:nonzero;fill:#fa5719;fill-opacity:1;" d="M 565.609375 439.234375 L 506.117188 352.796875 C 504.859375 350.96875 502.355469 350.507812 500.535156 351.765625 L 488.8125 359.832031 C 490.117188 353.847656 490.773438 347.722656 490.773438 341.519531 C 490.773438 294.21875 452.292969 255.738281 404.992188 255.738281 C 357.695312 255.738281 319.21875 294.21875 319.21875 341.519531 C 319.21875 347.34375 319.808594 353.097656 320.960938 358.734375 L 309.460938 350.824219 C 307.632812 349.5625 305.136719 350.027344 303.875 351.855469 L 244.390625 438.289062 C 243.128906 440.117188 243.59375 442.621094 245.417969 443.875 L 277.289062 465.808594 C 277.964844 466.269531 278.761719 466.519531 279.566406 466.519531 C 279.804688 466.519531 280.054688 466.5 280.292969 466.453125 C 281.339844 466.257812 282.269531 465.65625 282.871094 464.777344 L 286.136719 460.03125 C 290.035156 466.472656 295.28125 472.695312 302.023438 478.875 L 299.738281 482.15625 C 294.621094 489.511719 296.441406 499.660156 303.796875 504.78125 C 306.257812 506.492188 309.03125 507.425781 311.824219 507.636719 L 311.621094 507.925781 C 306.5 515.28125 308.320312 525.429688 315.679688 530.550781 C 318.421875 532.460938 321.621094 533.457031 324.910156 533.457031 C 325.878906 533.457031 326.855469 533.371094 327.828125 533.195312 C 331.199219 532.59375 334.214844 530.972656 336.554688 528.582031 C 337.742188 531.308594 339.640625 533.65625 342.132812 535.390625 C 344.875 537.296875 348.074219 538.296875 351.363281 538.296875 C 352.332031 538.296875 353.308594 538.210938 354.28125 538.035156 C 356.027344 537.71875 357.667969 537.132812 359.179688 536.308594 C 360.21875 539.636719 362.320312 542.660156 365.398438 544.800781 C 368.144531 546.710938 371.34375 547.707031 374.628906 547.707031 C 375.601562 547.707031 376.578125 547.621094 377.546875 547.445312 C 381.832031 546.675781 385.554688 544.300781 388.023438 540.746094 L 390.394531 537.339844 L 412.863281 551.488281 C 415.703125 553.277344 418.921875 554.195312 422.210938 554.195312 C 423.527344 554.195312 424.859375 554.046875 426.179688 553.746094 C 430.785156 552.699219 434.699219 549.929688 437.203125 545.953125 C 439.078125 542.980469 439.996094 539.582031 439.902344 536.132812 C 442.222656 537.230469 444.734375 537.792969 447.292969 537.792969 C 448.589844 537.792969 449.894531 537.652344 451.195312 537.359375 C 455.832031 536.320312 459.773438 533.542969 462.300781 529.539062 C 464.347656 526.289062 465.191406 522.621094 464.96875 519.050781 C 466.542969 519.507812 468.175781 519.742188 469.824219 519.742188 C 471.140625 519.742188 472.472656 519.59375 473.792969 519.292969 C 478.398438 518.25 482.3125 515.476562 484.816406 511.5 C 487.21875 507.683594 488.050781 503.179688 487.191406 498.753906 C 487.359375 498.761719 487.527344 498.777344 487.695312 498.777344 C 489.015625 498.777344 490.347656 498.628906 491.664062 498.328125 C 496.269531 497.28125 500.1875 494.511719 502.6875 490.535156 C 505.191406 486.558594 505.996094 481.832031 504.953125 477.226562 C 504.523438 475.347656 503.808594 473.585938 502.84375 471.988281 C 510.253906 469.699219 517.222656 465.441406 522.957031 459.664062 L 527.128906 465.722656 C 527.90625 466.851562 529.164062 467.460938 530.441406 467.460938 C 531.226562 467.460938 532.019531 467.234375 532.71875 466.753906 L 564.585938 444.816406 C 566.40625 443.566406 566.871094 441.0625 565.609375 439.234375 Z M 327.25 341.519531 C 327.25 298.652344 362.125 263.769531 405 263.769531 C 447.875 263.769531 482.75 298.644531 482.75 341.519531 C 482.75 350.246094 481.300781 358.796875 478.476562 366.949219 L 468.671875 373.703125 C 467.792969 374.304688 467.191406 375.234375 466.996094 376.28125 C 466.804688 377.324219 467.039062 378.40625 467.640625 379.285156 L 473.074219 387.175781 C 460.867188 388.976562 450.054688 387.570312 440.878906 382.964844 C 434.460938 379.746094 427.644531 379.097656 419.445312 380.925781 C 403.9375 384.386719 390.949219 388.027344 378.136719 392.550781 C 365.097656 393.273438 348.390625 391.496094 338.015625 384.679688 L 342.378906 378.335938 C 342.980469 377.457031 343.214844 376.375 343.023438 375.328125 C 342.828125 374.285156 342.226562 373.355469 341.347656 372.75 L 331.128906 365.714844 C 328.5625 357.933594 327.25 349.796875 327.25 341.519531 Z M 278.535156 456.917969 L 253.277344 439.535156 L 308.214844 359.710938 L 333.46875 377.097656 Z M 319.835938 496.136719 C 317.246094 499.859375 312.109375 500.785156 308.386719 498.195312 C 304.667969 495.601562 303.75 490.46875 306.332031 486.746094 L 318.132812 469.785156 C 319.378906 467.992188 321.261719 466.792969 323.4375 466.40625 C 325.605469 466.015625 327.785156 466.484375 329.582031 467.738281 C 331.375 468.980469 332.574219 470.863281 332.960938 473.039062 C 333.347656 475.207031 332.882812 477.390625 331.628906 479.183594 Z M 326.421875 525.289062 C 324.246094 525.679688 322.070312 525.210938 320.277344 523.957031 C 316.554688 521.367188 315.636719 516.234375 318.222656 512.511719 L 346.429688 471.972656 C 347.675781 470.179688 349.554688 468.980469 351.730469 468.59375 C 352.226562 468.507812 352.722656 468.460938 353.214844 468.460938 C 354.875 468.460938 356.496094 468.960938 357.875 469.917969 C 361.597656 472.507812 362.515625 477.644531 359.929688 481.367188 L 353.578125 490.496094 C 353.578125 490.503906 353.570312 490.503906 353.570312 490.507812 L 331.722656 521.902344 C 330.472656 523.695312 328.589844 524.894531 326.421875 525.289062 Z M 352.867188 530.121094 C 350.699219 530.511719 348.519531 530.042969 346.722656 528.789062 C 344.929688 527.546875 343.730469 525.664062 343.34375 523.488281 C 342.957031 521.320312 343.421875 519.136719 344.675781 517.34375 L 360.164062 495.085938 C 362.753906 491.371094 367.882812 490.457031 371.605469 493.039062 C 375.328125 495.628906 376.242188 500.765625 373.660156 504.484375 L 370.488281 509.042969 C 370.488281 509.050781 370.480469 509.050781 370.480469 509.058594 L 361.355469 522.171875 C 361.355469 522.171875 361.355469 522.171875 361.355469 522.175781 L 358.175781 526.742188 C 356.925781 528.535156 355.042969 529.734375 352.867188 530.121094 Z M 381.4375 536.152344 C 380.191406 537.949219 378.3125 539.144531 376.136719 539.535156 C 373.960938 539.921875 371.785156 539.453125 369.992188 538.203125 C 366.269531 535.613281 365.351562 530.484375 367.9375 526.761719 L 377.066406 513.644531 C 379.65625 509.929688 384.785156 509.011719 388.507812 511.59375 C 390.300781 512.839844 391.5 514.71875 391.886719 516.894531 C 392.273438 519.066406 391.804688 521.246094 390.554688 523.039062 Z M 495.894531 486.257812 C 494.535156 488.421875 492.402344 489.925781 489.882812 490.496094 C 487.367188 491.066406 484.796875 490.636719 482.632812 489.269531 L 479.292969 487.167969 L 436.046875 459.9375 C 434.171875 458.753906 431.6875 459.324219 430.511719 461.195312 C 429.324219 463.070312 429.894531 465.554688 431.769531 466.734375 L 475.015625 493.964844 C 477.179688 495.320312 478.679688 497.457031 479.253906 499.972656 C 479.824219 502.492188 479.394531 505.0625 478.03125 507.222656 C 476.671875 509.386719 474.535156 510.890625 472.019531 511.460938 C 469.5 512.03125 466.929688 511.601562 464.769531 510.234375 L 421.976562 483.292969 C 420.101562 482.109375 417.617188 482.675781 416.441406 484.550781 C 415.253906 486.425781 415.824219 488.910156 417.699219 490.085938 L 452.507812 512.003906 C 456.992188 514.828125 458.335938 520.773438 455.511719 525.257812 C 454.140625 527.4375 451.984375 528.953125 449.445312 529.519531 C 446.949219 530.082031 444.398438 529.640625 442.269531 528.289062 L 413.003906 509.605469 C 411.136719 508.414062 408.65625 508.964844 407.457031 510.832031 C 406.265625 512.699219 406.8125 515.183594 408.679688 516.378906 L 427.4375 528.355469 L 427.398438 528.421875 C 429.558594 529.78125 431.058594 531.917969 431.632812 534.433594 C 432.203125 536.949219 431.773438 539.519531 430.410156 541.683594 C 429.042969 543.84375 426.914062 545.351562 424.398438 545.921875 C 421.882812 546.488281 419.3125 546.054688 417.148438 544.695312 L 394.984375 530.738281 L 397.148438 527.632812 C 399.617188 524.078125 400.5625 519.769531 399.792969 515.484375 C 399.023438 511.199219 396.644531 507.476562 393.089844 505.007812 C 390.019531 502.867188 386.457031 501.949219 382.976562 502.128906 C 383.820312 496.238281 381.390625 490.085938 376.183594 486.460938 C 373.640625 484.691406 370.769531 483.753906 367.882812 483.582031 C 371.191406 476.546875 369.046875 467.925781 362.453125 463.339844 C 358.898438 460.867188 354.589844 459.925781 350.304688 460.695312 C 346.019531 461.464844 342.300781 463.839844 339.828125 467.394531 L 339.621094 467.695312 C 338.429688 465.085938 336.574219 462.824219 334.167969 461.144531 C 330.613281 458.671875 326.300781 457.734375 322.015625 458.5 C 317.734375 459.269531 314.011719 461.644531 311.542969 465.199219 L 306.648438 472.226562 C 299.746094 465.78125 294.667969 459.335938 291.207031 452.675781 L 333.4375 391.3125 C 341.902344 396.941406 352.835938 399.300781 362.078125 400.214844 C 359.617188 402.125 357.5625 404.3125 355.800781 406.882812 L 341.300781 428.027344 C 340.390625 429.355469 340.082031 430.949219 340.417969 432.507812 C 340.753906 434.082031 341.695312 435.398438 343.070312 436.230469 C 361.390625 447.355469 379.710938 443.199219 397.507812 423.867188 C 397.683594 423.679688 397.789062 423.632812 398.050781 423.652344 L 416.472656 424.894531 L 492.875 473.003906 C 495.039062 474.363281 496.539062 476.5 497.113281 479.015625 C 497.6875 481.527344 497.253906 484.101562 495.894531 486.257812 Z M 495.894531 465.40625 L 419.898438 417.558594 C 419.339844 417.207031 418.695312 416.996094 418.03125 416.949219 L 398.601562 415.640625 C 395.902344 415.457031 393.433594 416.449219 391.605469 418.429688 C 377.253906 434.011719 363.398438 437.988281 349.3125 430.546875 L 362.425781 411.421875 C 365.324219 407.191406 369.25 404.386719 375.546875 402.039062 C 389.796875 396.722656 403.875 392.632812 421.179688 388.769531 C 427.566406 387.351562 432.523438 387.773438 437.265625 390.148438 C 448.929688 396 462.652344 397.433594 478.078125 394.460938 L 518.304688 452.910156 C 512.160156 459.558594 504.1875 464.023438 495.894531 465.40625 Z M 531.464844 457.863281 L 476.53125 378.039062 L 501.785156 360.65625 L 556.722656 440.480469 Z M 370.371094 344.355469 C 368.804688 342.789062 368.804688 340.246094 370.371094 338.671875 C 371.9375 337.105469 374.484375 337.105469 376.050781 338.671875 L 394.402344 357.027344 L 433.945312 317.488281 C 435.511719 315.921875 438.054688 315.921875 439.621094 317.488281 C 441.1875 319.054688 441.1875 321.597656 439.621094 323.171875 L 397.234375 365.554688 C 396.453125 366.339844 395.421875 366.734375 394.398438 366.734375 C 393.371094 366.734375 392.34375 366.339844 391.558594 365.554688 Z M 370.371094 344.355469 "/></g></g></g></svg>