<svg xmlns="http://www.w3.org/2000/svg" xmlns:xlink="http://www.w3.org/1999/xlink" width="1080" zoomAndPan="magnify" viewBox="0 0 810 809.999993" height="1080" preserveAspectRatio="xMidYMid meet" version="1.2"><g id="d34643e1ba"><path style=" stroke:none;fill-rule:nonzero;fill:#fa5719;fill-opacity:1;" d="M 405 341.703125 C 403.945312 341.703125 402.894531 341.726562 401.839844 341.78125 C 400.789062 341.832031 399.738281 341.910156 398.691406 342.011719 C 397.640625 342.113281 396.597656 342.242188 395.554688 342.398438 C 394.511719 342.554688 393.476562 342.734375 392.441406 342.9375 C 391.410156 343.144531 390.382812 343.375 389.359375 343.632812 C 388.335938 343.886719 387.320312 344.167969 386.3125 344.472656 C 385.304688 344.78125 384.304688 345.109375 383.3125 345.464844 C 382.320312 345.820312 381.339844 346.199219 380.367188 346.601562 C 379.394531 347.003906 378.429688 347.433594 377.476562 347.882812 C 376.527344 348.332031 375.585938 348.804688 374.65625 349.304688 C 373.726562 349.800781 372.808594 350.320312 371.90625 350.859375 C 371.003906 351.402344 370.113281 351.964844 369.238281 352.550781 C 368.363281 353.136719 367.5 353.742188 366.652344 354.371094 C 365.808594 354.996094 364.976562 355.644531 364.164062 356.3125 C 363.347656 356.980469 362.550781 357.667969 361.769531 358.378906 C 360.992188 359.085938 360.226562 359.8125 359.484375 360.554688 C 358.738281 361.300781 358.011719 362.0625 357.304688 362.84375 C 356.597656 363.625 355.910156 364.421875 355.242188 365.238281 C 354.574219 366.050781 353.925781 366.882812 353.296875 367.726562 C 352.667969 368.574219 352.0625 369.433594 351.476562 370.308594 C 350.890625 371.1875 350.328125 372.074219 349.789062 372.980469 C 349.246094 373.882812 348.726562 374.800781 348.230469 375.730469 C 347.734375 376.65625 347.261719 377.597656 346.808594 378.550781 C 346.359375 379.503906 345.933594 380.464844 345.527344 381.4375 C 345.125 382.414062 344.746094 383.394531 344.390625 384.386719 C 344.035156 385.378906 343.707031 386.378906 343.402344 387.386719 C 343.09375 388.394531 342.8125 389.410156 342.558594 390.433594 C 342.300781 391.453125 342.070312 392.480469 341.867188 393.515625 C 341.660156 394.546875 341.480469 395.585938 341.324219 396.628906 C 341.171875 397.667969 341.042969 398.714844 340.9375 399.761719 C 340.835938 400.8125 340.757812 401.863281 340.707031 402.914062 C 340.65625 403.964844 340.628906 405.019531 340.628906 406.074219 C 340.628906 407.125 340.65625 408.179688 340.707031 409.230469 C 340.757812 410.285156 340.835938 411.332031 340.9375 412.382812 C 341.042969 413.429688 341.171875 414.476562 341.324219 415.519531 C 341.480469 416.558594 341.660156 417.597656 341.867188 418.632812 C 342.070312 419.664062 342.300781 420.691406 342.558594 421.714844 C 342.8125 422.734375 343.09375 423.75 343.402344 424.757812 C 343.707031 425.765625 344.035156 426.765625 344.390625 427.757812 C 344.746094 428.75 345.125 429.734375 345.527344 430.707031 C 345.933594 431.679688 346.359375 432.640625 346.808594 433.59375 C 347.261719 434.546875 347.734375 435.488281 348.230469 436.417969 C 348.726562 437.347656 349.246094 438.261719 349.789062 439.167969 C 350.328125 440.070312 350.890625 440.960938 351.476562 441.835938 C 352.0625 442.710938 352.667969 443.574219 353.296875 444.417969 C 353.925781 445.265625 354.574219 446.09375 355.242188 446.910156 C 355.910156 447.722656 356.597656 448.519531 357.304688 449.300781 C 358.011719 450.082031 358.738281 450.84375 359.484375 451.589844 C 360.226562 452.335938 360.992188 453.0625 361.769531 453.769531 C 362.550781 454.476562 363.347656 455.164062 364.164062 455.832031 C 364.976562 456.5 365.808594 457.148438 366.652344 457.777344 C 367.5 458.402344 368.363281 459.011719 369.238281 459.59375 C 370.113281 460.179688 371.003906 460.742188 371.90625 461.285156 C 372.808594 461.828125 373.726562 462.347656 374.65625 462.84375 C 375.585938 463.339844 376.527344 463.8125 377.476562 464.261719 C 378.429688 464.714844 379.394531 465.140625 380.367188 465.542969 C 381.339844 465.945312 382.320312 466.324219 383.3125 466.679688 C 384.304688 467.035156 385.304688 467.367188 386.3125 467.671875 C 387.320312 467.976562 388.335938 468.257812 389.359375 468.515625 C 390.382812 468.769531 391.410156 469 392.441406 469.207031 C 393.476562 469.414062 394.511719 469.59375 395.554688 469.746094 C 396.597656 469.902344 397.640625 470.03125 398.691406 470.132812 C 399.738281 470.238281 400.789062 470.316406 401.839844 470.367188 C 402.894531 470.417969 403.945312 470.445312 405 470.445312 C 406.054688 470.445312 407.105469 470.417969 408.160156 470.367188 C 409.210938 470.316406 410.261719 470.238281 411.308594 470.132812 C 412.359375 470.03125 413.402344 469.902344 414.445312 469.746094 C 415.488281 469.59375 416.523438 469.414062 417.558594 469.207031 C 418.589844 469 419.617188 468.769531 420.640625 468.515625 C 421.664062 468.257812 422.675781 467.976562 423.6875 467.671875 C 424.695312 467.367188 425.695312 467.035156 426.6875 466.679688 C 427.675781 466.324219 428.660156 465.945312 429.632812 465.542969 C 430.605469 465.140625 431.570312 464.714844 432.523438 464.261719 C 433.472656 463.8125 434.414062 463.339844 435.34375 462.84375 C 436.273438 462.347656 437.191406 461.828125 438.09375 461.285156 C 438.996094 460.742188 439.886719 460.179688 440.761719 459.59375 C 441.636719 459.011719 442.5 458.402344 443.34375 457.777344 C 444.191406 457.148438 445.023438 456.5 445.835938 455.832031 C 446.652344 455.164062 447.449219 454.476562 448.230469 453.769531 C 449.007812 453.0625 449.773438 452.335938 450.515625 451.589844 C 451.261719 450.84375 451.988281 450.082031 452.695312 449.300781 C 453.402344 448.519531 454.089844 447.722656 454.757812 446.910156 C 455.425781 446.09375 456.074219 445.265625 456.703125 444.417969 C 457.332031 443.574219 457.9375 442.710938 458.523438 441.835938 C 459.109375 440.960938 459.671875 440.070312 460.210938 439.167969 C 460.753906 438.261719 461.273438 437.347656 461.769531 436.417969 C 462.265625 435.488281 462.738281 434.546875 463.191406 433.59375 C 463.640625 432.640625 464.066406 431.679688 464.472656 430.707031 C 464.875 429.734375 465.253906 428.75 465.609375 427.757812 C 465.960938 426.765625 466.292969 425.765625 466.597656 424.757812 C 466.90625 423.75 467.1875 422.734375 467.441406 421.714844 C 467.699219 420.691406 467.929688 419.664062 468.132812 418.632812 C 468.339844 417.597656 468.519531 416.558594 468.675781 415.519531 C 468.828125 414.476562 468.957031 413.429688 469.0625 412.382812 C 469.164062 411.332031 469.242188 410.285156 469.292969 409.230469 C 469.34375 408.179688 469.371094 407.125 469.371094 406.074219 C 469.371094 405.019531 469.34375 403.96875 469.289062 402.914062 C 469.238281 401.863281 469.160156 400.8125 469.054688 399.765625 C 468.949219 398.71875 468.820312 397.671875 468.664062 396.632812 C 468.507812 395.589844 468.328125 394.550781 468.121094 393.519531 C 467.917969 392.488281 467.683594 391.460938 467.429688 390.4375 C 467.171875 389.417969 466.890625 388.402344 466.582031 387.394531 C 466.277344 386.386719 465.945312 385.386719 465.589844 384.394531 C 465.234375 383.40625 464.855469 382.421875 464.453125 381.449219 C 464.046875 380.476562 463.621094 379.515625 463.171875 378.5625 C 462.71875 377.609375 462.246094 376.671875 461.75 375.742188 C 461.253906 374.8125 460.734375 373.898438 460.191406 372.996094 C 459.648438 372.089844 459.085938 371.203125 458.5 370.328125 C 457.914062 369.453125 457.308594 368.589844 456.679688 367.746094 C 456.054688 366.898438 455.40625 366.070312 454.738281 365.253906 C 454.070312 364.441406 453.382812 363.644531 452.675781 362.863281 C 451.96875 362.082031 451.242188 361.320312 450.496094 360.574219 C 449.75 359.832031 448.988281 359.105469 448.210938 358.398438 C 447.429688 357.691406 446.632812 357.003906 445.816406 356.335938 C 445.003906 355.667969 444.171875 355.019531 443.328125 354.390625 C 442.480469 353.761719 441.621094 353.15625 440.746094 352.570312 C 439.871094 351.988281 438.980469 351.421875 438.078125 350.882812 C 437.175781 350.339844 436.257812 349.820312 435.332031 349.324219 C 434.402344 348.828125 433.460938 348.351562 432.507812 347.902344 C 431.558594 347.453125 430.59375 347.023438 429.621094 346.621094 C 428.648438 346.21875 427.667969 345.835938 426.675781 345.480469 C 425.683594 345.125 424.6875 344.796875 423.679688 344.488281 C 422.671875 344.183594 421.65625 343.902344 420.632812 343.644531 C 419.613281 343.386719 418.585938 343.15625 417.554688 342.949219 C 416.519531 342.742188 415.484375 342.5625 414.441406 342.40625 C 413.398438 342.253906 412.355469 342.121094 411.308594 342.019531 C 410.257812 341.914062 409.210938 341.835938 408.15625 341.78125 C 407.105469 341.730469 406.054688 341.703125 405 341.703125 Z M 431.34375 400.707031 C 431.164062 394.570312 430.628906 388.464844 429.734375 382.390625 C 432.949219 381.480469 435.9375 380.09375 438.703125 378.21875 C 441.46875 376.347656 443.871094 374.089844 445.90625 371.441406 C 449.425781 375.574219 452.246094 380.132812 454.371094 385.125 C 456.496094 390.117188 457.828125 395.3125 458.367188 400.707031 Z M 405 459.714844 C 401.625 459.714844 396.234375 452.109375 392.726562 437.722656 C 400.910156 436.367188 409.089844 436.367188 417.273438 437.722656 C 413.765625 452.109375 408.375 459.714844 405 459.714844 Z M 427.664062 440.429688 C 433.90625 442.785156 437.566406 445.796875 437.566406 448.21875 L 438.074219 448.21875 C 433.148438 452.101562 427.707031 455.027344 421.753906 457 C 424.378906 451.710938 426.347656 446.1875 427.664062 440.429688 Z M 388.246094 457 C 382.292969 455.027344 376.851562 452.101562 371.925781 448.21875 L 372.433594 448.21875 C 372.433594 445.816406 376.09375 442.785156 382.335938 440.429688 C 383.652344 446.1875 385.621094 451.710938 388.246094 457 Z M 405 425.996094 C 400.210938 425.988281 395.453125 426.378906 390.730469 427.164062 C 389.996094 421.945312 389.546875 416.703125 389.390625 411.4375 L 420.609375 411.4375 C 420.453125 416.703125 420.003906 421.945312 419.269531 427.164062 C 414.546875 426.378906 409.789062 425.988281 405 425.996094 Z M 389.390625 400.707031 C 389.546875 395.441406 389.996094 390.199219 390.730469 384.980469 C 400.242188 386.550781 409.757812 386.550781 419.269531 384.980469 C 420.003906 390.199219 420.453125 395.441406 420.609375 400.707031 Z M 405 352.429688 C 408.375 352.429688 413.765625 360.035156 417.273438 374.425781 C 409.089844 375.777344 400.910156 375.777344 392.726562 374.425781 C 396.234375 360.035156 401.625 352.429688 405 352.429688 Z M 382.335938 371.742188 C 376.09375 369.386719 372.433594 366.378906 372.433594 363.953125 L 371.925781 363.953125 C 376.851562 360.070312 382.292969 357.144531 388.246094 355.171875 C 385.621094 360.460938 383.652344 365.984375 382.335938 371.742188 Z M 421.753906 355.171875 C 427.707031 357.144531 433.148438 360.070312 438.074219 363.953125 L 437.566406 363.953125 C 437.566406 366.355469 433.90625 369.386719 427.664062 371.742188 C 426.351562 365.976562 424.378906 360.441406 421.753906 355.144531 Z M 364.101562 371.441406 C 366.140625 374.089844 368.539062 376.347656 371.304688 378.21875 C 374.070312 380.09375 377.0625 381.480469 380.277344 382.390625 C 379.382812 388.464844 378.847656 394.570312 378.667969 400.707031 L 351.632812 400.707031 C 352.171875 395.308594 353.507812 390.117188 355.636719 385.125 C 357.761719 380.132812 360.585938 375.570312 364.101562 371.441406 Z M 351.632812 411.4375 L 378.65625 411.4375 C 378.835938 417.574219 379.371094 423.679688 380.265625 429.757812 C 377.050781 430.664062 374.0625 432.054688 371.296875 433.925781 C 368.53125 435.796875 366.128906 438.058594 364.09375 440.703125 C 360.574219 436.574219 357.753906 432.011719 355.628906 427.019531 C 353.503906 422.03125 352.171875 416.835938 351.632812 411.4375 Z M 445.898438 440.703125 C 443.859375 438.058594 441.460938 435.796875 438.695312 433.925781 C 435.929688 432.054688 432.9375 430.664062 429.722656 429.757812 C 430.617188 423.679688 431.152344 417.574219 431.332031 411.4375 L 458.359375 411.4375 C 457.816406 416.835938 456.484375 422.03125 454.359375 427.019531 C 452.234375 432.011719 449.414062 436.574219 445.898438 440.703125 Z M 445.898438 440.703125 "/><path style=" stroke:none;fill-rule:nonzero;fill:#fa5719;fill-opacity:1;" d="M 545.65625 324.492188 C 546.378906 323.882812 547.066406 323.238281 547.722656 322.554688 C 548.378906 321.875 548.992188 321.160156 549.574219 320.410156 C 550.152344 319.664062 550.6875 318.886719 551.1875 318.082031 C 551.683594 317.277344 552.132812 316.449219 552.542969 315.597656 C 552.953125 314.746094 553.3125 313.871094 553.628906 312.980469 C 553.945312 312.089844 554.214844 311.183594 554.433594 310.265625 C 554.652344 309.347656 554.824219 308.417969 554.945312 307.480469 C 555.066406 306.542969 555.136719 305.601562 555.160156 304.65625 C 555.179688 303.710938 555.152344 302.765625 555.074219 301.824219 C 554.996094 300.882812 554.867188 299.945312 554.6875 299.015625 C 554.511719 298.089844 554.285156 297.171875 554.007812 296.269531 C 553.734375 295.363281 553.410156 294.476562 553.042969 293.605469 C 552.671875 292.734375 552.257812 291.886719 551.796875 291.058594 C 551.339844 290.234375 550.835938 289.433594 550.292969 288.660156 C 549.75 287.886719 549.164062 287.144531 548.542969 286.433594 C 547.917969 285.722656 547.261719 285.046875 546.566406 284.40625 C 545.871094 283.765625 545.144531 283.160156 544.386719 282.597656 C 543.625 282.035156 542.839844 281.511719 542.027344 281.03125 C 541.210938 280.550781 540.375 280.113281 539.511719 279.722656 C 538.652344 279.328125 537.773438 278.984375 536.878906 278.6875 C 535.980469 278.386719 535.070312 278.136719 534.144531 277.933594 C 533.222656 277.734375 532.289062 277.582031 531.351562 277.476562 C 530.410156 277.375 529.46875 277.320312 528.523438 277.320312 C 527.578125 277.316406 526.632812 277.363281 525.691406 277.460938 C 524.753906 277.558594 523.820312 277.703125 522.894531 277.898438 C 521.96875 278.09375 521.058594 278.339844 520.160156 278.632812 C 519.261719 278.925781 518.378906 279.265625 517.515625 279.652344 C 516.652344 280.039062 515.8125 280.46875 514.996094 280.945312 C 514.179688 281.417969 513.386719 281.9375 512.625 282.496094 C 511.863281 283.054688 511.132812 283.652344 510.433594 284.289062 C 509.734375 284.925781 509.070312 285.597656 508.445312 286.304688 C 507.816406 287.011719 507.226562 287.75 506.679688 288.519531 C 500.78125 283.375 494.53125 278.703125 487.921875 274.511719 C 481.3125 270.320312 474.421875 266.65625 467.253906 263.519531 C 460.082031 260.378906 452.71875 257.804688 445.15625 255.789062 C 437.589844 253.777344 429.917969 252.347656 422.140625 251.507812 C 421.550781 251 420.9375 250.519531 420.304688 250.0625 C 419.671875 249.609375 419.019531 249.183594 418.351562 248.789062 C 417.679688 248.394531 416.992188 248.027344 416.289062 247.691406 C 415.589844 247.355469 414.871094 247.054688 414.140625 246.78125 C 413.410156 246.511719 412.671875 246.273438 411.921875 246.066406 C 411.167969 245.863281 410.410156 245.691406 409.644531 245.554688 C 408.878906 245.414062 408.105469 245.3125 407.332031 245.242188 C 406.554688 245.175781 405.777344 245.140625 405 245.140625 C 404.222656 245.140625 403.445312 245.175781 402.667969 245.242188 C 401.894531 245.3125 401.121094 245.414062 400.355469 245.554688 C 399.589844 245.691406 398.832031 245.863281 398.078125 246.066406 C 397.328125 246.273438 396.589844 246.511719 395.859375 246.78125 C 395.128906 247.054688 394.410156 247.355469 393.710938 247.691406 C 393.007812 248.027344 392.320312 248.394531 391.648438 248.789062 C 390.980469 249.183594 390.328125 249.609375 389.695312 250.0625 C 389.0625 250.519531 388.449219 251 387.859375 251.507812 C 380.082031 252.347656 372.410156 253.777344 364.84375 255.789062 C 357.28125 257.804688 349.917969 260.378906 342.746094 263.519531 C 335.578125 266.65625 328.6875 270.320312 322.078125 274.511719 C 315.46875 278.703125 309.21875 283.375 303.320312 288.519531 C 302.773438 287.75 302.183594 287.007812 301.558594 286.300781 C 300.929688 285.589844 300.265625 284.917969 299.566406 284.28125 C 298.867188 283.640625 298.136719 283.042969 297.375 282.480469 C 296.613281 281.917969 295.824219 281.402344 295.003906 280.921875 C 294.1875 280.445312 293.347656 280.015625 292.484375 279.625 C 291.621094 279.238281 290.738281 278.898438 289.839844 278.605469 C 288.9375 278.308594 288.027344 278.066406 287.101562 277.867188 C 286.175781 277.671875 285.242188 277.523438 284.300781 277.425781 C 283.359375 277.328125 282.414062 277.28125 281.46875 277.28125 C 280.519531 277.285156 279.578125 277.335938 278.636719 277.441406 C 277.695312 277.542969 276.761719 277.695312 275.835938 277.894531 C 274.914062 278.097656 274 278.347656 273.101562 278.648438 C 272.203125 278.945312 271.324219 279.289062 270.460938 279.683594 C 269.601562 280.074219 268.761719 280.511719 267.949219 280.992188 C 267.132812 281.472656 266.34375 281.996094 265.585938 282.5625 C 264.824219 283.125 264.097656 283.730469 263.402344 284.371094 C 262.707031 285.011719 262.046875 285.691406 261.421875 286.402344 C 260.800781 287.113281 260.214844 287.855469 259.671875 288.632812 C 259.125 289.40625 258.625 290.207031 258.164062 291.035156 C 257.703125 291.859375 257.289062 292.710938 256.921875 293.582031 C 256.550781 294.453125 256.226562 295.34375 255.953125 296.246094 C 255.679688 297.152344 255.453125 298.070312 255.273438 299 C 255.097656 299.929688 254.96875 300.867188 254.890625 301.808594 C 254.8125 302.753906 254.785156 303.699219 254.804688 304.644531 C 254.828125 305.589844 254.902344 306.535156 255.023438 307.472656 C 255.144531 308.410156 255.316406 309.339844 255.539062 310.261719 C 255.757812 311.179688 256.027344 312.085938 256.347656 312.980469 C 256.664062 313.871094 257.027344 314.742188 257.4375 315.597656 C 257.847656 316.449219 258.300781 317.277344 258.800781 318.085938 C 259.296875 318.890625 259.835938 319.664062 260.417969 320.414062 C 260.996094 321.160156 261.617188 321.875 262.273438 322.558594 C 262.929688 323.238281 263.621094 323.886719 264.34375 324.492188 C 262.824219 325.28125 261.367188 326.167969 259.96875 327.152344 C 258.570312 328.140625 257.25 329.21875 255.996094 330.382812 C 254.746094 331.550781 253.582031 332.800781 252.503906 334.125 C 251.421875 335.453125 250.4375 336.847656 249.546875 338.308594 C 248.660156 339.769531 247.871094 341.285156 247.191406 342.851562 C 246.507812 344.421875 245.933594 346.027344 245.472656 347.675781 C 245.011719 349.320312 244.660156 350.992188 244.425781 352.6875 C 244.191406 354.382812 244.074219 356.085938 244.074219 357.792969 L 244.074219 379.25 C 244.074219 379.605469 244.105469 379.953125 244.175781 380.296875 C 244.246094 380.644531 244.347656 380.980469 244.480469 381.304688 C 244.617188 381.628906 244.78125 381.9375 244.976562 382.230469 C 245.171875 382.523438 245.394531 382.796875 245.644531 383.042969 C 245.894531 383.292969 246.164062 383.515625 246.457031 383.710938 C 246.75 383.90625 247.058594 384.074219 247.382812 384.207031 C 247.710938 384.34375 248.046875 384.445312 248.390625 384.511719 C 248.734375 384.582031 249.085938 384.617188 249.4375 384.617188 L 250.921875 384.617188 C 249.289062 396.296875 249 408.007812 250.054688 419.753906 C 251.109375 431.5 253.484375 442.972656 257.171875 454.175781 C 256.578125 455.484375 256.089844 456.832031 255.714844 458.222656 C 255.339844 459.609375 255.078125 461.019531 254.933594 462.453125 C 254.789062 463.882812 254.761719 465.316406 254.851562 466.753906 C 254.941406 468.191406 255.148438 469.609375 255.46875 471.011719 C 255.792969 472.414062 256.226562 473.78125 256.769531 475.113281 C 257.316406 476.441406 257.964844 477.722656 258.722656 478.945312 C 259.476562 480.171875 260.324219 481.328125 261.269531 482.414062 C 262.210938 483.5 263.238281 484.503906 264.34375 485.421875 C 262.824219 486.207031 261.367188 487.09375 259.96875 488.082031 C 258.570312 489.066406 257.25 490.144531 255.996094 491.3125 C 254.746094 492.480469 253.582031 493.726562 252.503906 495.050781 C 251.421875 496.378906 250.4375 497.773438 249.546875 499.234375 C 248.660156 500.695312 247.871094 502.210938 247.191406 503.777344 C 246.507812 505.347656 245.933594 506.957031 245.472656 508.601562 C 245.011719 510.25 244.660156 511.917969 244.425781 513.613281 C 244.191406 515.308594 244.074219 517.011719 244.074219 518.722656 L 244.074219 540.179688 C 244.074219 540.53125 244.105469 540.878906 244.175781 541.226562 C 244.246094 541.570312 244.347656 541.90625 244.480469 542.230469 C 244.617188 542.558594 244.78125 542.867188 244.976562 543.160156 C 245.171875 543.453125 245.394531 543.722656 245.644531 543.972656 C 245.894531 544.222656 246.164062 544.441406 246.457031 544.640625 C 246.75 544.835938 247.058594 545 247.382812 545.132812 C 247.710938 545.269531 248.046875 545.371094 248.390625 545.441406 C 248.734375 545.507812 249.085938 545.542969 249.4375 545.542969 L 313.808594 545.542969 C 314.160156 545.542969 314.507812 545.507812 314.855469 545.441406 C 315.199219 545.371094 315.535156 545.269531 315.859375 545.132812 C 316.1875 545 316.496094 544.835938 316.789062 544.640625 C 317.082031 544.441406 317.351562 544.222656 317.601562 543.972656 C 317.851562 543.722656 318.074219 543.453125 318.269531 543.160156 C 318.464844 542.867188 318.628906 542.558594 318.765625 542.230469 C 318.898438 541.90625 319 541.570312 319.070312 541.226562 C 319.136719 540.878906 319.171875 540.53125 319.171875 540.179688 L 319.171875 535.746094 C 326.597656 540.667969 334.390625 544.917969 342.546875 548.5 C 350.703125 552.078125 359.105469 554.9375 367.757812 557.070312 C 367.5625 558.585938 367.460938 560.109375 367.449219 561.636719 C 367.449219 561.988281 367.484375 562.335938 367.554688 562.683594 C 367.621094 563.027344 367.722656 563.363281 367.859375 563.6875 C 367.992188 564.015625 368.160156 564.324219 368.355469 564.617188 C 368.550781 564.910156 368.773438 565.179688 369.019531 565.429688 C 369.269531 565.679688 369.542969 565.898438 369.835938 566.097656 C 370.128906 566.292969 370.4375 566.457031 370.761719 566.589844 C 371.085938 566.726562 371.421875 566.828125 371.769531 566.898438 C 372.113281 566.964844 372.460938 567 372.816406 567 L 437.183594 567 C 437.539062 567 437.886719 566.964844 438.230469 566.898438 C 438.578125 566.828125 438.914062 566.726562 439.238281 566.589844 C 439.5625 566.457031 439.871094 566.292969 440.164062 566.097656 C 440.457031 565.898438 440.730469 565.679688 440.976562 565.429688 C 441.226562 565.179688 441.449219 564.910156 441.644531 564.617188 C 441.839844 564.324219 442.007812 564.015625 442.140625 563.6875 C 442.277344 563.363281 442.378906 563.027344 442.445312 562.683594 C 442.515625 562.335938 442.550781 561.988281 442.550781 561.636719 C 442.539062 560.109375 442.4375 558.585938 442.242188 557.070312 C 450.894531 554.9375 459.296875 552.078125 467.453125 548.5 C 475.609375 544.917969 483.402344 540.667969 490.828125 535.746094 L 490.828125 540.179688 C 490.828125 540.53125 490.863281 540.878906 490.929688 541.226562 C 491 541.570312 491.101562 541.90625 491.234375 542.230469 C 491.371094 542.558594 491.535156 542.867188 491.730469 543.160156 C 491.925781 543.453125 492.148438 543.722656 492.398438 543.972656 C 492.648438 544.222656 492.917969 544.441406 493.210938 544.640625 C 493.503906 544.835938 493.8125 545 494.140625 545.132812 C 494.464844 545.269531 494.800781 545.371094 495.144531 545.441406 C 495.492188 545.507812 495.839844 545.542969 496.191406 545.542969 L 560.5625 545.542969 C 560.914062 545.542969 561.265625 545.507812 561.609375 545.441406 C 561.953125 545.371094 562.289062 545.269531 562.617188 545.132812 C 562.941406 545 563.25 544.835938 563.542969 544.640625 C 563.835938 544.441406 564.105469 544.222656 564.355469 543.972656 C 564.605469 543.722656 564.828125 543.453125 565.023438 543.160156 C 565.21875 542.867188 565.382812 542.558594 565.519531 542.230469 C 565.652344 541.90625 565.753906 541.570312 565.824219 541.226562 C 565.894531 540.878906 565.925781 540.53125 565.925781 540.179688 L 565.925781 518.722656 C 565.925781 517.011719 565.808594 515.308594 565.574219 513.613281 C 565.339844 511.917969 564.988281 510.25 564.527344 508.601562 C 564.066406 506.957031 563.492188 505.347656 562.808594 503.777344 C 562.128906 502.210938 561.339844 500.695312 560.453125 499.234375 C 559.5625 497.773438 558.578125 496.378906 557.496094 495.050781 C 556.417969 493.726562 555.253906 492.480469 554.003906 491.3125 C 552.75 490.144531 551.425781 489.066406 550.03125 488.082031 C 548.632812 487.09375 547.175781 486.207031 545.65625 485.421875 C 546.761719 484.503906 547.789062 483.5 548.730469 482.414062 C 549.675781 481.328125 550.523438 480.171875 551.277344 478.945312 C 552.035156 477.722656 552.683594 476.441406 553.230469 475.113281 C 553.773438 473.78125 554.207031 472.414062 554.53125 471.011719 C 554.851562 469.609375 555.058594 468.191406 555.148438 466.753906 C 555.238281 465.316406 555.210938 463.882812 555.066406 462.453125 C 554.921875 461.019531 554.660156 459.609375 554.285156 458.222656 C 553.910156 456.832031 553.421875 455.484375 552.828125 454.175781 C 556.515625 442.972656 558.890625 431.5 559.945312 419.753906 C 561 408.007812 560.710938 396.296875 559.078125 384.617188 L 560.5625 384.617188 C 560.914062 384.617188 561.265625 384.582031 561.609375 384.511719 C 561.953125 384.445312 562.289062 384.34375 562.617188 384.207031 C 562.941406 384.074219 563.25 383.90625 563.542969 383.710938 C 563.835938 383.515625 564.105469 383.292969 564.355469 383.042969 C 564.605469 382.796875 564.828125 382.523438 565.023438 382.230469 C 565.21875 381.9375 565.382812 381.628906 565.519531 381.304688 C 565.652344 380.980469 565.753906 380.644531 565.824219 380.296875 C 565.894531 379.953125 565.925781 379.605469 565.925781 379.25 L 565.925781 357.792969 C 565.925781 356.085938 565.808594 354.382812 565.574219 352.6875 C 565.339844 350.992188 564.988281 349.320312 564.527344 347.675781 C 564.066406 346.027344 563.492188 344.421875 562.808594 342.851562 C 562.128906 341.285156 561.339844 339.769531 560.453125 338.308594 C 559.5625 336.847656 558.578125 335.453125 557.496094 334.125 C 556.417969 332.800781 555.253906 331.550781 554.003906 330.382812 C 552.75 329.21875 551.425781 328.140625 550.03125 327.152344 C 548.632812 326.167969 547.175781 325.28125 545.65625 324.492188 Z M 528.378906 288.058594 C 528.90625 288.058594 529.429688 288.085938 529.953125 288.136719 C 530.480469 288.1875 531 288.265625 531.515625 288.367188 C 532.035156 288.472656 532.542969 288.597656 533.050781 288.753906 C 533.554688 288.90625 534.050781 289.082031 534.535156 289.285156 C 535.023438 289.484375 535.5 289.710938 535.964844 289.960938 C 536.429688 290.207031 536.878906 290.480469 537.316406 290.773438 C 537.757812 291.066406 538.179688 291.378906 538.585938 291.710938 C 538.992188 292.046875 539.382812 292.398438 539.757812 292.773438 C 540.128906 293.144531 540.484375 293.535156 540.816406 293.941406 C 541.152344 294.351562 541.464844 294.773438 541.757812 295.210938 C 542.050781 295.648438 542.320312 296.101562 542.570312 296.566406 C 542.820312 297.03125 543.042969 297.507812 543.246094 297.992188 C 543.445312 298.480469 543.625 298.976562 543.777344 299.480469 C 543.929688 299.984375 544.058594 300.496094 544.160156 301.011719 C 544.265625 301.53125 544.339844 302.050781 544.394531 302.574219 C 544.445312 303.097656 544.46875 303.625 544.46875 304.152344 C 544.46875 304.679688 544.445312 305.207031 544.394531 305.730469 C 544.339844 306.253906 544.265625 306.773438 544.160156 307.292969 C 544.058594 307.808594 543.929688 308.320312 543.777344 308.824219 C 543.625 309.328125 543.445312 309.824219 543.246094 310.3125 C 543.042969 310.796875 542.820312 311.273438 542.570312 311.738281 C 542.320312 312.203125 542.050781 312.65625 541.757812 313.09375 C 541.464844 313.53125 541.152344 313.953125 540.816406 314.363281 C 540.484375 314.769531 540.128906 315.160156 539.757812 315.53125 C 539.382812 315.902344 538.992188 316.257812 538.585938 316.59375 C 538.179688 316.925781 537.757812 317.238281 537.316406 317.53125 C 536.878906 317.824219 536.429688 318.097656 535.964844 318.34375 C 535.5 318.59375 535.023438 318.816406 534.535156 319.019531 C 534.050781 319.222656 533.554688 319.398438 533.050781 319.550781 C 532.542969 319.703125 532.035156 319.832031 531.515625 319.9375 C 531 320.039062 530.480469 320.117188 529.953125 320.167969 C 529.429688 320.21875 528.90625 320.246094 528.378906 320.246094 C 527.851562 320.246094 527.324219 320.21875 526.800781 320.167969 C 526.277344 320.117188 525.753906 320.039062 525.238281 319.9375 C 524.722656 319.832031 524.210938 319.703125 523.707031 319.550781 C 523.203125 319.398438 522.707031 319.222656 522.21875 319.019531 C 521.730469 318.816406 521.257812 318.59375 520.792969 318.34375 C 520.328125 318.097656 519.875 317.824219 519.4375 317.53125 C 519 317.238281 518.574219 316.925781 518.167969 316.59375 C 517.761719 316.257812 517.371094 315.902344 517 315.53125 C 516.625 315.160156 516.273438 314.769531 515.9375 314.363281 C 515.601562 313.953125 515.289062 313.53125 514.996094 313.09375 C 514.703125 312.65625 514.433594 312.203125 514.183594 311.738281 C 513.9375 311.273438 513.710938 310.796875 513.507812 310.3125 C 513.308594 309.824219 513.128906 309.328125 512.976562 308.824219 C 512.824219 308.320312 512.695312 307.808594 512.59375 307.292969 C 512.492188 306.773438 512.414062 306.253906 512.363281 305.730469 C 512.3125 305.207031 512.285156 304.679688 512.285156 304.152344 C 512.285156 303.625 512.3125 303.097656 512.363281 302.574219 C 512.414062 302.050781 512.492188 301.53125 512.59375 301.011719 C 512.695312 300.496094 512.824219 299.984375 512.976562 299.480469 C 513.128906 298.976562 513.308594 298.480469 513.507812 297.992188 C 513.710938 297.507812 513.9375 297.03125 514.183594 296.566406 C 514.433594 296.101562 514.703125 295.648438 514.996094 295.210938 C 515.289062 294.773438 515.601562 294.351562 515.9375 293.941406 C 516.273438 293.535156 516.625 293.144531 517 292.773438 C 517.371094 292.398438 517.761719 292.046875 518.167969 291.710938 C 518.574219 291.378906 519 291.066406 519.4375 290.773438 C 519.875 290.480469 520.328125 290.207031 520.792969 289.960938 C 521.257812 289.710938 521.730469 289.484375 522.21875 289.285156 C 522.707031 289.082031 523.203125 288.90625 523.707031 288.753906 C 524.210938 288.597656 524.722656 288.472656 525.238281 288.367188 C 525.753906 288.265625 526.277344 288.1875 526.800781 288.136719 C 527.324219 288.085938 527.851562 288.058594 528.378906 288.058594 Z M 405 255.875 C 405.527344 255.875 406.054688 255.898438 406.578125 255.953125 C 407.101562 256.003906 407.621094 256.082031 408.140625 256.183594 C 408.65625 256.285156 409.167969 256.414062 409.671875 256.566406 C 410.175781 256.71875 410.671875 256.898438 411.160156 257.097656 C 411.644531 257.300781 412.121094 257.527344 412.585938 257.773438 C 413.050781 258.023438 413.503906 258.292969 413.941406 258.585938 C 414.378906 258.878906 414.800781 259.191406 415.210938 259.527344 C 415.617188 259.863281 416.007812 260.214844 416.378906 260.585938 C 416.75 260.960938 417.105469 261.351562 417.441406 261.757812 C 417.773438 262.164062 418.085938 262.589844 418.378906 263.027344 C 418.671875 263.464844 418.945312 263.914062 419.191406 264.378906 C 419.441406 264.84375 419.664062 265.320312 419.867188 265.808594 C 420.070312 266.296875 420.246094 266.792969 420.398438 267.296875 C 420.550781 267.800781 420.679688 268.308594 420.785156 268.828125 C 420.886719 269.34375 420.964844 269.863281 421.015625 270.390625 C 421.066406 270.914062 421.09375 271.441406 421.09375 271.96875 C 421.09375 272.492188 421.066406 273.019531 421.015625 273.542969 C 420.964844 274.070312 420.886719 274.589844 420.785156 275.105469 C 420.679688 275.625 420.550781 276.132812 420.398438 276.636719 C 420.246094 277.144531 420.070312 277.636719 419.867188 278.125 C 419.664062 278.613281 419.441406 279.089844 419.191406 279.554688 C 418.945312 280.019531 418.671875 280.46875 418.378906 280.90625 C 418.085938 281.347656 417.773438 281.769531 417.441406 282.175781 C 417.105469 282.582031 416.75 282.972656 416.378906 283.347656 C 416.007812 283.71875 415.617188 284.074219 415.210938 284.40625 C 414.800781 284.742188 414.378906 285.054688 413.941406 285.347656 C 413.503906 285.640625 413.050781 285.910156 412.585938 286.160156 C 412.121094 286.40625 411.644531 286.632812 411.160156 286.835938 C 410.671875 287.035156 410.175781 287.214844 409.671875 287.367188 C 409.167969 287.519531 408.65625 287.648438 408.140625 287.75 C 407.621094 287.851562 407.101562 287.929688 406.578125 287.980469 C 406.054688 288.035156 405.527344 288.058594 405 288.058594 C 404.472656 288.058594 403.945312 288.035156 403.421875 287.980469 C 402.898438 287.929688 402.378906 287.851562 401.859375 287.75 C 401.34375 287.648438 400.832031 287.519531 400.328125 287.367188 C 399.824219 287.214844 399.328125 287.035156 398.839844 286.835938 C 398.355469 286.632812 397.878906 286.40625 397.414062 286.160156 C 396.949219 285.910156 396.496094 285.640625 396.058594 285.347656 C 395.621094 285.054688 395.199219 284.742188 394.789062 284.40625 C 394.382812 284.074219 393.992188 283.71875 393.621094 283.347656 C 393.246094 282.972656 392.894531 282.582031 392.558594 282.175781 C 392.226562 281.769531 391.914062 281.347656 391.621094 280.90625 C 391.328125 280.46875 391.054688 280.019531 390.808594 279.554688 C 390.558594 279.089844 390.332031 278.613281 390.132812 278.125 C 389.929688 277.636719 389.753906 277.144531 389.601562 276.636719 C 389.445312 276.132812 389.320312 275.625 389.214844 275.105469 C 389.113281 274.589844 389.035156 274.070312 388.984375 273.542969 C 388.933594 273.019531 388.90625 272.492188 388.90625 271.96875 C 388.90625 271.441406 388.933594 270.914062 388.984375 270.390625 C 389.035156 269.863281 389.113281 269.34375 389.214844 268.828125 C 389.320312 268.308594 389.445312 267.800781 389.601562 267.296875 C 389.753906 266.792969 389.929688 266.296875 390.132812 265.808594 C 390.332031 265.320312 390.558594 264.84375 390.808594 264.378906 C 391.054688 263.914062 391.328125 263.464844 391.621094 263.027344 C 391.914062 262.589844 392.226562 262.164062 392.558594 261.757812 C 392.894531 261.351562 393.246094 260.960938 393.621094 260.585938 C 393.992188 260.214844 394.382812 259.863281 394.789062 259.527344 C 395.199219 259.191406 395.621094 258.878906 396.058594 258.585938 C 396.496094 258.292969 396.949219 258.023438 397.414062 257.773438 C 397.878906 257.527344 398.355469 257.300781 398.839844 257.097656 C 399.328125 256.898438 399.824219 256.71875 400.328125 256.566406 C 400.832031 256.414062 401.34375 256.285156 401.859375 256.183594 C 402.378906 256.082031 402.898438 256.003906 403.421875 255.953125 C 403.945312 255.898438 404.472656 255.875 405 255.875 Z M 265.53125 304.152344 C 265.53125 303.625 265.554688 303.097656 265.605469 302.574219 C 265.660156 302.050781 265.734375 301.53125 265.839844 301.011719 C 265.941406 300.496094 266.070312 299.984375 266.222656 299.480469 C 266.375 298.976562 266.554688 298.480469 266.753906 297.992188 C 266.957031 297.507812 267.179688 297.03125 267.429688 296.566406 C 267.679688 296.101562 267.949219 295.648438 268.242188 295.210938 C 268.535156 294.773438 268.847656 294.351562 269.183594 293.941406 C 269.515625 293.535156 269.871094 293.144531 270.242188 292.773438 C 270.617188 292.398438 271.007812 292.046875 271.414062 291.710938 C 271.820312 291.378906 272.242188 291.066406 272.683594 290.773438 C 273.121094 290.480469 273.570312 290.207031 274.035156 289.960938 C 274.5 289.710938 274.976562 289.484375 275.464844 289.285156 C 275.949219 289.082031 276.445312 288.90625 276.949219 288.753906 C 277.457031 288.597656 277.964844 288.472656 278.484375 288.367188 C 279 288.265625 279.519531 288.1875 280.046875 288.136719 C 280.570312 288.085938 281.09375 288.058594 281.621094 288.058594 C 282.148438 288.058594 282.675781 288.085938 283.199219 288.136719 C 283.722656 288.1875 284.246094 288.265625 284.761719 288.367188 C 285.277344 288.472656 285.789062 288.597656 286.292969 288.753906 C 286.796875 288.90625 287.292969 289.082031 287.78125 289.285156 C 288.269531 289.484375 288.742188 289.710938 289.207031 289.960938 C 289.671875 290.207031 290.125 290.480469 290.5625 290.773438 C 291 291.066406 291.425781 291.378906 291.832031 291.710938 C 292.238281 292.046875 292.628906 292.398438 293 292.773438 C 293.375 293.144531 293.726562 293.535156 294.0625 293.941406 C 294.398438 294.351562 294.710938 294.773438 295.003906 295.210938 C 295.296875 295.648438 295.566406 296.101562 295.816406 296.566406 C 296.0625 297.03125 296.289062 297.507812 296.488281 297.992188 C 296.691406 298.480469 296.871094 298.976562 297.023438 299.480469 C 297.175781 299.984375 297.304688 300.496094 297.40625 301.011719 C 297.507812 301.53125 297.585938 302.050781 297.636719 302.574219 C 297.6875 303.097656 297.714844 303.625 297.714844 304.152344 C 297.714844 304.679688 297.6875 305.207031 297.636719 305.730469 C 297.585938 306.253906 297.507812 306.773438 297.40625 307.292969 C 297.304688 307.808594 297.175781 308.320312 297.023438 308.824219 C 296.871094 309.328125 296.691406 309.824219 296.488281 310.3125 C 296.289062 310.796875 296.0625 311.273438 295.816406 311.738281 C 295.566406 312.203125 295.296875 312.65625 295.003906 313.09375 C 294.710938 313.53125 294.398438 313.953125 294.0625 314.363281 C 293.726562 314.769531 293.375 315.160156 293 315.53125 C 292.628906 315.902344 292.238281 316.257812 291.832031 316.59375 C 291.425781 316.925781 291 317.238281 290.5625 317.53125 C 290.125 317.824219 289.671875 318.097656 289.207031 318.34375 C 288.742188 318.59375 288.269531 318.816406 287.78125 319.019531 C 287.292969 319.222656 286.796875 319.398438 286.292969 319.550781 C 285.789062 319.703125 285.277344 319.832031 284.761719 319.9375 C 284.246094 320.039062 283.722656 320.117188 283.199219 320.167969 C 282.675781 320.21875 282.148438 320.246094 281.621094 320.246094 C 281.09375 320.246094 280.570312 320.21875 280.046875 320.167969 C 279.519531 320.117188 279 320.039062 278.484375 319.9375 C 277.964844 319.832031 277.457031 319.703125 276.949219 319.550781 C 276.445312 319.398438 275.949219 319.222656 275.464844 319.019531 C 274.976562 318.816406 274.5 318.59375 274.035156 318.34375 C 273.570312 318.097656 273.121094 317.824219 272.683594 317.53125 C 272.242188 317.238281 271.820312 316.925781 271.414062 316.59375 C 271.007812 316.257812 270.617188 315.902344 270.242188 315.53125 C 269.871094 315.160156 269.515625 314.769531 269.183594 314.363281 C 268.847656 313.953125 268.535156 313.53125 268.242188 313.09375 C 267.949219 312.65625 267.679688 312.203125 267.429688 311.738281 C 267.179688 311.273438 266.957031 310.796875 266.753906 310.3125 C 266.554688 309.824219 266.375 309.328125 266.222656 308.824219 C 266.070312 308.320312 265.941406 307.808594 265.839844 307.292969 C 265.734375 306.773438 265.660156 306.253906 265.605469 305.730469 C 265.554688 305.207031 265.53125 304.679688 265.53125 304.152344 Z M 254.800781 357.792969 C 254.800781 356.917969 254.84375 356.039062 254.929688 355.164062 C 255.015625 354.292969 255.144531 353.421875 255.316406 352.5625 C 255.488281 351.699219 255.703125 350.847656 255.957031 350.007812 C 256.210938 349.167969 256.507812 348.34375 256.84375 347.53125 C 257.179688 346.71875 257.554688 345.925781 257.96875 345.152344 C 258.382812 344.375 258.832031 343.625 259.320312 342.894531 C 259.808594 342.164062 260.332031 341.457031 260.890625 340.78125 C 261.445312 340.101562 262.035156 339.449219 262.65625 338.828125 C 263.277344 338.207031 263.929688 337.617188 264.605469 337.0625 C 265.285156 336.503906 265.992188 335.980469 266.722656 335.492188 C 267.453125 335.003906 268.203125 334.554688 268.980469 334.140625 C 269.753906 333.726562 270.546875 333.351562 271.359375 333.015625 C 272.171875 332.679688 272.996094 332.382812 273.835938 332.128906 C 274.675781 331.875 275.527344 331.660156 276.390625 331.488281 C 277.25 331.316406 278.121094 331.1875 278.992188 331.101562 C 279.867188 331.015625 280.742188 330.972656 281.621094 330.972656 C 282.5 330.972656 283.378906 331.015625 284.25 331.101562 C 285.125 331.1875 285.992188 331.316406 286.855469 331.488281 C 287.714844 331.660156 288.566406 331.875 289.410156 332.128906 C 290.25 332.382812 291.074219 332.679688 291.886719 333.015625 C 292.699219 333.351562 293.492188 333.726562 294.265625 334.140625 C 295.039062 334.554688 295.792969 335.003906 296.523438 335.492188 C 297.253906 335.980469 297.957031 336.503906 298.636719 337.0625 C 299.316406 337.617188 299.96875 338.207031 300.589844 338.828125 C 301.210938 339.449219 301.796875 340.101562 302.355469 340.78125 C 302.914062 341.457031 303.433594 342.164062 303.921875 342.894531 C 304.410156 343.625 304.863281 344.375 305.277344 345.152344 C 305.691406 345.925781 306.066406 346.71875 306.402344 347.53125 C 306.738281 348.34375 307.035156 349.167969 307.289062 350.007812 C 307.542969 350.847656 307.757812 351.699219 307.929688 352.5625 C 308.101562 353.421875 308.226562 354.292969 308.316406 355.164062 C 308.402344 356.039062 308.445312 356.917969 308.445312 357.792969 L 308.445312 373.886719 L 254.800781 373.886719 Z M 265.53125 465.078125 C 265.53125 464.550781 265.554688 464.027344 265.605469 463.503906 C 265.660156 462.976562 265.734375 462.457031 265.839844 461.941406 C 265.941406 461.421875 266.070312 460.914062 266.222656 460.40625 C 266.375 459.902344 266.554688 459.40625 266.753906 458.921875 C 266.957031 458.433594 267.179688 457.957031 267.429688 457.492188 C 267.679688 457.027344 267.949219 456.578125 268.242188 456.140625 C 268.535156 455.699219 268.847656 455.277344 269.183594 454.871094 C 269.515625 454.464844 269.871094 454.074219 270.242188 453.699219 C 270.617188 453.328125 271.007812 452.972656 271.414062 452.640625 C 271.820312 452.304688 272.242188 451.992188 272.683594 451.699219 C 273.121094 451.40625 273.570312 451.136719 274.035156 450.886719 C 274.5 450.636719 274.976562 450.414062 275.464844 450.210938 C 275.949219 450.011719 276.445312 449.832031 276.949219 449.679688 C 277.457031 449.527344 277.964844 449.398438 278.484375 449.296875 C 279 449.191406 279.519531 449.117188 280.046875 449.0625 C 280.570312 449.011719 281.09375 448.988281 281.621094 448.988281 C 282.148438 448.988281 282.675781 449.011719 283.199219 449.0625 C 283.722656 449.117188 284.246094 449.191406 284.761719 449.296875 C 285.277344 449.398438 285.789062 449.527344 286.292969 449.679688 C 286.796875 449.832031 287.292969 450.011719 287.78125 450.210938 C 288.269531 450.414062 288.742188 450.636719 289.207031 450.886719 C 289.671875 451.136719 290.125 451.40625 290.5625 451.699219 C 291 451.992188 291.425781 452.304688 291.832031 452.640625 C 292.238281 452.972656 292.628906 453.328125 293 453.699219 C 293.375 454.074219 293.726562 454.464844 294.0625 454.871094 C 294.398438 455.277344 294.710938 455.699219 295.003906 456.140625 C 295.296875 456.578125 295.566406 457.027344 295.816406 457.492188 C 296.0625 457.957031 296.289062 458.433594 296.488281 458.921875 C 296.691406 459.40625 296.871094 459.902344 297.023438 460.40625 C 297.175781 460.914062 297.304688 461.421875 297.40625 461.941406 C 297.507812 462.457031 297.585938 462.976562 297.636719 463.503906 C 297.6875 464.027344 297.714844 464.550781 297.714844 465.078125 C 297.714844 465.605469 297.6875 466.132812 297.636719 466.65625 C 297.585938 467.179688 297.507812 467.703125 297.40625 468.21875 C 297.304688 468.734375 297.175781 469.246094 297.023438 469.75 C 296.871094 470.253906 296.691406 470.75 296.488281 471.238281 C 296.289062 471.726562 296.0625 472.199219 295.816406 472.664062 C 295.566406 473.128906 295.296875 473.582031 295.003906 474.019531 C 294.710938 474.457031 294.398438 474.882812 294.0625 475.289062 C 293.726562 475.695312 293.375 476.085938 293 476.457031 C 292.628906 476.832031 292.238281 477.183594 291.832031 477.519531 C 291.425781 477.855469 291 478.167969 290.5625 478.460938 C 290.125 478.753906 289.671875 479.023438 289.207031 479.273438 C 288.742188 479.519531 288.269531 479.746094 287.78125 479.945312 C 287.292969 480.148438 286.796875 480.328125 286.292969 480.480469 C 285.789062 480.632812 285.277344 480.761719 284.761719 480.863281 C 284.246094 480.964844 283.722656 481.042969 283.199219 481.09375 C 282.675781 481.144531 282.148438 481.171875 281.621094 481.171875 C 281.09375 481.171875 280.570312 481.144531 280.046875 481.09375 C 279.519531 481.042969 279 480.964844 278.484375 480.863281 C 277.964844 480.761719 277.457031 480.632812 276.949219 480.480469 C 276.445312 480.328125 275.949219 480.148438 275.464844 479.945312 C 274.976562 479.746094 274.5 479.519531 274.035156 479.273438 C 273.570312 479.023438 273.121094 478.753906 272.683594 478.460938 C 272.242188 478.167969 271.820312 477.855469 271.414062 477.519531 C 271.007812 477.183594 270.617188 476.832031 270.242188 476.457031 C 269.871094 476.085938 269.515625 475.695312 269.183594 475.289062 C 268.847656 474.882812 268.535156 474.457031 268.242188 474.019531 C 267.949219 473.582031 267.679688 473.128906 267.429688 472.664062 C 267.179688 472.199219 266.957031 471.726562 266.753906 471.238281 C 266.554688 470.75 266.375 470.253906 266.222656 469.75 C 266.070312 469.246094 265.941406 468.734375 265.839844 468.21875 C 265.734375 467.703125 265.660156 467.179688 265.605469 466.65625 C 265.554688 466.132812 265.53125 465.605469 265.53125 465.078125 Z M 308.445312 534.816406 L 254.800781 534.816406 L 254.800781 518.722656 C 254.800781 517.84375 254.84375 516.96875 254.929688 516.09375 C 255.015625 515.21875 255.144531 514.351562 255.316406 513.488281 C 255.488281 512.628906 255.703125 511.777344 255.957031 510.9375 C 256.210938 510.09375 256.507812 509.269531 256.84375 508.457031 C 257.179688 507.644531 257.554688 506.851562 257.96875 506.078125 C 258.382812 505.304688 258.832031 504.550781 259.320312 503.820312 C 259.808594 503.089844 260.332031 502.386719 260.890625 501.707031 C 261.445312 501.027344 262.035156 500.378906 262.65625 499.757812 C 263.277344 499.136719 263.929688 498.546875 264.605469 497.988281 C 265.285156 497.429688 265.992188 496.910156 266.722656 496.421875 C 267.453125 495.933594 268.203125 495.480469 268.980469 495.066406 C 269.753906 494.652344 270.546875 494.277344 271.359375 493.941406 C 272.171875 493.605469 272.996094 493.308594 273.835938 493.054688 C 274.675781 492.800781 275.527344 492.585938 276.390625 492.414062 C 277.25 492.246094 278.121094 492.117188 278.992188 492.03125 C 279.867188 491.945312 280.742188 491.902344 281.621094 491.902344 C 282.5 491.902344 283.378906 491.945312 284.25 492.03125 C 285.125 492.117188 285.992188 492.246094 286.855469 492.414062 C 287.714844 492.585938 288.566406 492.800781 289.410156 493.054688 C 290.25 493.3125 291.074219 493.605469 291.886719 493.941406 C 292.699219 494.277344 293.492188 494.652344 294.265625 495.066406 C 295.039062 495.480469 295.792969 495.933594 296.523438 496.421875 C 297.253906 496.910156 297.957031 497.429688 298.636719 497.988281 C 299.316406 498.546875 299.96875 499.136719 300.589844 499.757812 C 301.210938 500.378906 301.796875 501.027344 302.355469 501.707031 C 302.914062 502.386719 303.433594 503.089844 303.921875 503.820312 C 304.410156 504.550781 304.863281 505.304688 305.277344 506.078125 C 305.691406 506.851562 306.066406 507.644531 306.402344 508.457031 C 306.738281 509.269531 307.035156 510.09375 307.289062 510.9375 C 307.542969 511.777344 307.757812 512.628906 307.929688 513.488281 C 308.101562 514.351562 308.226562 515.21875 308.316406 516.09375 C 308.402344 516.96875 308.445312 517.84375 308.445312 518.722656 Z M 378.714844 556.273438 C 379.019531 554.765625 379.453125 553.300781 380.011719 551.867188 C 380.566406 550.4375 381.242188 549.066406 382.035156 547.75 C 382.828125 546.4375 383.730469 545.199219 384.734375 544.039062 C 385.738281 542.878906 386.835938 541.8125 388.027344 540.84375 C 389.214844 539.871094 390.476562 539.007812 391.816406 538.253906 C 393.152344 537.496094 394.542969 536.863281 395.988281 536.347656 C 397.433594 535.832031 398.914062 535.441406 400.429688 535.179688 C 401.941406 534.917969 403.464844 534.789062 405 534.789062 C 406.535156 534.789062 408.058594 534.917969 409.570312 535.179688 C 411.085938 535.441406 412.566406 535.832031 414.011719 536.347656 C 415.457031 536.863281 416.847656 537.496094 418.183594 538.253906 C 419.523438 539.007812 420.785156 539.871094 421.972656 540.84375 C 423.164062 541.8125 424.261719 542.878906 425.265625 544.039062 C 426.269531 545.199219 427.171875 546.4375 427.964844 547.75 C 428.757812 549.066406 429.433594 550.4375 429.988281 551.867188 C 430.546875 553.300781 430.980469 554.765625 431.285156 556.273438 Z M 388.90625 507.992188 C 388.90625 507.464844 388.933594 506.941406 388.984375 506.414062 C 389.035156 505.890625 389.113281 505.371094 389.214844 504.855469 C 389.320312 504.335938 389.445312 503.828125 389.601562 503.320312 C 389.753906 502.816406 389.929688 502.320312 390.132812 501.835938 C 390.332031 501.347656 390.558594 500.871094 390.808594 500.40625 C 391.054688 499.941406 391.328125 499.492188 391.621094 499.050781 C 391.914062 498.613281 392.226562 498.191406 392.558594 497.785156 C 392.894531 497.375 393.246094 496.988281 393.621094 496.613281 C 393.992188 496.242188 394.382812 495.886719 394.789062 495.554688 C 395.199219 495.21875 395.621094 494.90625 396.058594 494.613281 C 396.496094 494.320312 396.949219 494.050781 397.414062 493.800781 C 397.878906 493.550781 398.355469 493.328125 398.839844 493.125 C 399.328125 492.925781 399.824219 492.746094 400.328125 492.59375 C 400.832031 492.441406 401.34375 492.3125 401.859375 492.210938 C 402.378906 492.105469 402.898438 492.03125 403.421875 491.976562 C 403.945312 491.925781 404.472656 491.902344 405 491.902344 C 405.527344 491.902344 406.054688 491.925781 406.578125 491.976562 C 407.101562 492.03125 407.621094 492.105469 408.140625 492.210938 C 408.65625 492.3125 409.167969 492.441406 409.671875 492.59375 C 410.175781 492.746094 410.671875 492.925781 411.160156 493.125 C 411.644531 493.328125 412.121094 493.550781 412.585938 493.800781 C 413.050781 494.050781 413.503906 494.320312 413.941406 494.613281 C 414.378906 494.90625 414.800781 495.21875 415.210938 495.554688 C 415.617188 495.886719 416.007812 496.242188 416.378906 496.613281 C 416.75 496.988281 417.105469 497.375 417.441406 497.785156 C 417.773438 498.191406 418.085938 498.613281 418.378906 499.050781 C 418.671875 499.492188 418.945312 499.941406 419.191406 500.40625 C 419.441406 500.871094 419.664062 501.347656 419.867188 501.835938 C 420.070312 502.320312 420.246094 502.816406 420.398438 503.320312 C 420.550781 503.828125 420.679688 504.335938 420.785156 504.855469 C 420.886719 505.371094 420.964844 505.890625 421.015625 506.414062 C 421.066406 506.941406 421.09375 507.464844 421.09375 507.992188 C 421.09375 508.519531 421.066406 509.046875 421.015625 509.570312 C 420.964844 510.09375 420.886719 510.617188 420.785156 511.132812 C 420.679688 511.648438 420.550781 512.160156 420.398438 512.664062 C 420.246094 513.167969 420.070312 513.664062 419.867188 514.152344 C 419.664062 514.640625 419.441406 515.113281 419.191406 515.578125 C 418.945312 516.042969 418.671875 516.496094 418.378906 516.933594 C 418.085938 517.371094 417.773438 517.796875 417.441406 518.203125 C 417.105469 518.609375 416.75 519 416.378906 519.371094 C 416.007812 519.746094 415.617188 520.097656 415.210938 520.433594 C 414.800781 520.765625 414.378906 521.082031 413.941406 521.375 C 413.503906 521.667969 413.050781 521.9375 412.585938 522.1875 C 412.121094 522.433594 411.644531 522.660156 411.160156 522.859375 C 410.671875 523.0625 410.175781 523.238281 409.671875 523.394531 C 409.167969 523.546875 408.65625 523.675781 408.140625 523.777344 C 407.621094 523.878906 407.101562 523.957031 406.578125 524.007812 C 406.054688 524.058594 405.527344 524.085938 405 524.085938 C 404.472656 524.085938 403.945312 524.058594 403.421875 524.007812 C 402.898438 523.957031 402.378906 523.878906 401.859375 523.777344 C 401.34375 523.675781 400.832031 523.546875 400.328125 523.394531 C 399.824219 523.238281 399.328125 523.0625 398.839844 522.859375 C 398.355469 522.660156 397.878906 522.433594 397.414062 522.1875 C 396.949219 521.9375 396.496094 521.667969 396.058594 521.375 C 395.621094 521.082031 395.199219 520.765625 394.789062 520.433594 C 394.382812 520.097656 393.992188 519.746094 393.621094 519.371094 C 393.246094 519 392.894531 518.609375 392.558594 518.203125 C 392.226562 517.796875 391.914062 517.371094 391.621094 516.933594 C 391.328125 516.496094 391.054688 516.042969 390.808594 515.578125 C 390.558594 515.113281 390.332031 514.640625 390.132812 514.152344 C 389.929688 513.664062 389.753906 513.167969 389.601562 512.664062 C 389.445312 512.160156 389.320312 511.648438 389.214844 511.132812 C 389.113281 510.617188 389.035156 510.09375 388.984375 509.570312 C 388.933594 509.046875 388.90625 508.519531 388.90625 507.992188 Z M 555.199219 518.722656 L 555.199219 534.816406 L 501.554688 534.816406 L 501.554688 518.722656 C 501.554688 517.84375 501.597656 516.96875 501.683594 516.09375 C 501.773438 515.21875 501.898438 514.351562 502.070312 513.488281 C 502.242188 512.628906 502.457031 511.777344 502.710938 510.9375 C 502.964844 510.09375 503.261719 509.269531 503.597656 508.457031 C 503.933594 507.644531 504.308594 506.851562 504.722656 506.078125 C 505.136719 505.304688 505.589844 504.550781 506.078125 503.820312 C 506.566406 503.089844 507.085938 502.386719 507.644531 501.707031 C 508.203125 501.027344 508.789062 500.378906 509.410156 499.757812 C 510.03125 499.136719 510.683594 498.546875 511.363281 497.988281 C 512.042969 497.429688 512.746094 496.910156 513.476562 496.421875 C 514.207031 495.933594 514.960938 495.480469 515.734375 495.066406 C 516.507812 494.652344 517.300781 494.277344 518.113281 493.941406 C 518.925781 493.605469 519.75 493.308594 520.589844 493.054688 C 521.433594 492.800781 522.285156 492.585938 523.144531 492.414062 C 524.007812 492.246094 524.875 492.117188 525.75 492.03125 C 526.621094 491.945312 527.5 491.902344 528.378906 491.902344 C 529.257812 491.902344 530.132812 491.945312 531.007812 492.03125 C 531.878906 492.117188 532.75 492.246094 533.609375 492.414062 C 534.472656 492.585938 535.324219 492.800781 536.164062 493.054688 C 537.003906 493.3125 537.828125 493.605469 538.640625 493.941406 C 539.453125 494.277344 540.246094 494.652344 541.019531 495.066406 C 541.796875 495.480469 542.546875 495.933594 543.277344 496.421875 C 544.007812 496.910156 544.714844 497.429688 545.394531 497.988281 C 546.070312 498.546875 546.722656 499.136719 547.34375 499.757812 C 547.964844 500.378906 548.554688 501.027344 549.109375 501.707031 C 549.667969 502.386719 550.191406 503.089844 550.679688 503.820312 C 551.167969 504.550781 551.617188 505.304688 552.03125 506.078125 C 552.445312 506.851562 552.820312 507.644531 553.15625 508.457031 C 553.492188 509.269531 553.789062 510.09375 554.042969 510.9375 C 554.296875 511.777344 554.511719 512.628906 554.683594 513.488281 C 554.855469 514.351562 554.984375 515.21875 555.070312 516.09375 C 555.15625 516.96875 555.199219 517.84375 555.199219 518.722656 Z M 512.285156 465.078125 C 512.285156 464.550781 512.3125 464.027344 512.363281 463.503906 C 512.414062 462.976562 512.492188 462.457031 512.59375 461.941406 C 512.695312 461.421875 512.824219 460.914062 512.976562 460.40625 C 513.128906 459.902344 513.308594 459.40625 513.507812 458.921875 C 513.710938 458.433594 513.9375 457.957031 514.183594 457.492188 C 514.433594 457.027344 514.703125 456.578125 514.996094 456.140625 C 515.289062 455.699219 515.601562 455.277344 515.9375 454.871094 C 516.273438 454.464844 516.625 454.074219 517 453.699219 C 517.371094 453.328125 517.761719 452.972656 518.167969 452.640625 C 518.574219 452.304688 519 451.992188 519.4375 451.699219 C 519.875 451.40625 520.328125 451.136719 520.792969 450.886719 C 521.257812 450.636719 521.730469 450.414062 522.21875 450.210938 C 522.707031 450.011719 523.203125 449.832031 523.707031 449.679688 C 524.210938 449.527344 524.722656 449.398438 525.238281 449.296875 C 525.753906 449.191406 526.277344 449.117188 526.800781 449.0625 C 527.324219 449.011719 527.851562 448.988281 528.378906 448.988281 C 528.90625 448.988281 529.429688 449.011719 529.953125 449.0625 C 530.480469 449.117188 531 449.191406 531.515625 449.296875 C 532.035156 449.398438 532.542969 449.527344 533.050781 449.679688 C 533.554688 449.832031 534.050781 450.011719 534.535156 450.210938 C 535.023438 450.414062 535.5 450.636719 535.964844 450.886719 C 536.429688 451.136719 536.878906 451.40625 537.316406 451.699219 C 537.757812 451.992188 538.179688 452.304688 538.585938 452.640625 C 538.992188 452.972656 539.382812 453.328125 539.757812 453.699219 C 540.128906 454.074219 540.484375 454.464844 540.816406 454.871094 C 541.152344 455.277344 541.464844 455.699219 541.757812 456.140625 C 542.050781 456.578125 542.320312 457.027344 542.570312 457.492188 C 542.820312 457.957031 543.042969 458.433594 543.246094 458.921875 C 543.445312 459.40625 543.625 459.902344 543.777344 460.40625 C 543.929688 460.914062 544.058594 461.421875 544.160156 461.941406 C 544.265625 462.457031 544.339844 462.976562 544.394531 463.503906 C 544.445312 464.027344 544.46875 464.550781 544.46875 465.078125 C 544.46875 465.605469 544.445312 466.132812 544.394531 466.65625 C 544.339844 467.179688 544.265625 467.703125 544.160156 468.21875 C 544.058594 468.734375 543.929688 469.246094 543.777344 469.75 C 543.625 470.253906 543.445312 470.75 543.246094 471.238281 C 543.042969 471.726562 542.820312 472.199219 542.570312 472.664062 C 542.320312 473.128906 542.050781 473.582031 541.757812 474.019531 C 541.464844 474.457031 541.152344 474.882812 540.816406 475.289062 C 540.484375 475.695312 540.128906 476.085938 539.757812 476.457031 C 539.382812 476.832031 538.992188 477.183594 538.585938 477.519531 C 538.179688 477.855469 537.757812 478.167969 537.316406 478.460938 C 536.878906 478.753906 536.429688 479.023438 535.964844 479.273438 C 535.5 479.519531 535.023438 479.746094 534.535156 479.945312 C 534.050781 480.148438 533.554688 480.328125 533.050781 480.480469 C 532.542969 480.632812 532.035156 480.761719 531.515625 480.863281 C 531 480.964844 530.480469 481.042969 529.953125 481.09375 C 529.429688 481.144531 528.90625 481.171875 528.378906 481.171875 C 527.851562 481.171875 527.324219 481.144531 526.800781 481.09375 C 526.277344 481.042969 525.753906 480.964844 525.238281 480.863281 C 524.722656 480.761719 524.210938 480.632812 523.707031 480.480469 C 523.203125 480.328125 522.707031 480.148438 522.21875 479.945312 C 521.730469 479.746094 521.257812 479.519531 520.792969 479.273438 C 520.328125 479.023438 519.875 478.753906 519.4375 478.460938 C 519 478.167969 518.574219 477.855469 518.167969 477.519531 C 517.761719 477.183594 517.371094 476.832031 517 476.457031 C 516.625 476.085938 516.273438 475.695312 515.9375 475.289062 C 515.601562 474.882812 515.289062 474.457031 514.996094 474.019531 C 514.703125 473.582031 514.433594 473.128906 514.183594 472.664062 C 513.9375 472.199219 513.710938 471.726562 513.507812 471.238281 C 513.308594 470.75 513.128906 470.253906 512.976562 469.75 C 512.824219 469.246094 512.695312 468.734375 512.59375 468.21875 C 512.492188 467.703125 512.414062 467.179688 512.363281 466.65625 C 512.3125 466.132812 512.285156 465.605469 512.285156 465.078125 Z M 549.835938 406.074219 C 549.820312 418.925781 548.105469 431.550781 544.695312 443.945312 C 542.367188 442.113281 539.808594 440.710938 537.011719 439.738281 C 534.214844 438.761719 531.339844 438.269531 528.378906 438.257812 C 527.011719 438.253906 525.65625 438.351562 524.304688 438.550781 C 522.957031 438.753906 521.628906 439.058594 520.328125 439.464844 C 519.023438 439.867188 517.761719 440.371094 516.535156 440.96875 C 515.308594 441.570312 514.136719 442.257812 513.015625 443.039062 C 511.894531 443.816406 510.839844 444.675781 509.851562 445.617188 C 508.863281 446.558594 507.953125 447.566406 507.117188 448.648438 C 506.285156 449.730469 505.539062 450.867188 504.878906 452.0625 C 504.21875 453.257812 503.65625 454.492188 503.1875 455.773438 C 502.714844 457.058594 502.347656 458.367188 502.078125 459.703125 C 501.808594 461.042969 501.644531 462.390625 501.582031 463.753906 C 501.523438 465.117188 501.5625 466.480469 501.710938 467.835938 C 501.859375 469.191406 502.109375 470.53125 502.460938 471.847656 C 502.8125 473.167969 503.261719 474.449219 503.8125 475.699219 C 504.359375 476.949219 505 478.148438 505.734375 479.300781 C 506.464844 480.453125 507.28125 481.539062 508.179688 482.566406 C 509.082031 483.59375 510.054688 484.542969 511.097656 485.421875 C 509.582031 486.207031 508.121094 487.09375 506.726562 488.082031 C 505.328125 489.066406 504.003906 490.144531 502.753906 491.3125 C 501.503906 492.480469 500.335938 493.726562 499.257812 495.050781 C 498.175781 496.378906 497.191406 497.773438 496.304688 499.234375 C 495.414062 500.695312 494.628906 502.210938 493.945312 503.777344 C 493.261719 505.347656 492.691406 506.957031 492.226562 508.601562 C 491.765625 510.25 491.417969 511.917969 491.183594 513.613281 C 490.949219 515.308594 490.828125 517.011719 490.828125 518.722656 L 490.828125 522.636719 C 483.144531 528.3125 474.980469 533.175781 466.328125 537.230469 C 457.679688 541.285156 448.714844 544.445312 439.4375 546.71875 C 438.582031 544.753906 437.566406 542.878906 436.390625 541.085938 C 435.214844 539.296875 433.894531 537.621094 432.433594 536.054688 C 430.972656 534.488281 429.386719 533.058594 427.679688 531.761719 C 425.976562 530.464844 424.171875 529.324219 422.273438 528.335938 C 422.96875 527.75 423.632812 527.128906 424.265625 526.472656 C 424.898438 525.820312 425.5 525.136719 426.0625 524.421875 C 426.625 523.703125 427.152344 522.964844 427.636719 522.195312 C 428.125 521.425781 428.574219 520.632812 428.980469 519.820312 C 429.390625 519.007812 429.753906 518.171875 430.074219 517.324219 C 430.398438 516.472656 430.675781 515.605469 430.910156 514.726562 C 431.144531 513.847656 431.335938 512.957031 431.480469 512.058594 C 431.621094 511.160156 431.71875 510.253906 431.773438 509.347656 C 431.824219 508.4375 431.828125 507.527344 431.789062 506.621094 C 431.75 505.710938 431.660156 504.804688 431.527344 503.90625 C 431.394531 503.003906 431.21875 502.113281 430.992188 501.230469 C 430.769531 500.347656 430.5 499.480469 430.191406 498.625 C 429.878906 497.769531 429.523438 496.929688 429.125 496.113281 C 428.726562 495.292969 428.289062 494.496094 427.8125 493.722656 C 427.332031 492.949219 426.816406 492.199219 426.261719 491.476562 C 425.707031 490.757812 425.117188 490.0625 424.492188 489.402344 C 423.867188 488.742188 423.210938 488.113281 422.519531 487.515625 C 421.832031 486.921875 421.113281 486.363281 420.367188 485.84375 C 419.621094 485.320312 418.851562 484.839844 418.058594 484.394531 C 417.261719 483.953125 416.445312 483.550781 415.609375 483.1875 C 414.773438 482.828125 413.921875 482.511719 413.054688 482.238281 C 412.1875 481.964844 411.304688 481.734375 410.414062 481.550781 C 409.523438 481.367188 408.625 481.230469 407.71875 481.136719 C 406.8125 481.046875 405.90625 481 404.996094 481 C 404.085938 481 403.175781 481.046875 402.269531 481.136719 C 401.363281 481.230469 400.464844 481.367188 399.574219 481.550781 C 398.683594 481.734375 397.804688 481.964844 396.933594 482.238281 C 396.066406 482.511719 395.214844 482.828125 394.378906 483.1875 C 393.542969 483.550781 392.726562 483.953125 391.933594 484.394531 C 391.136719 484.839844 390.367188 485.320312 389.621094 485.84375 C 388.875 486.363281 388.15625 486.921875 387.46875 487.515625 C 386.777344 488.113281 386.121094 488.742188 385.496094 489.402344 C 384.871094 490.0625 384.28125 490.757812 383.726562 491.476562 C 383.171875 492.199219 382.65625 492.949219 382.175781 493.722656 C 381.699219 494.496094 381.261719 495.292969 380.863281 496.113281 C 380.464844 496.929688 380.113281 497.769531 379.800781 498.625 C 379.488281 499.480469 379.21875 500.347656 378.996094 501.230469 C 378.773438 502.113281 378.59375 503.003906 378.460938 503.90625 C 378.328125 504.804688 378.242188 505.710938 378.199219 506.621094 C 378.160156 507.527344 378.164062 508.4375 378.21875 509.347656 C 378.269531 510.253906 378.367188 511.160156 378.511719 512.058594 C 378.652344 512.957031 378.84375 513.847656 379.078125 514.726562 C 379.3125 515.605469 379.589844 516.472656 379.914062 517.324219 C 380.234375 518.171875 380.601562 519.007812 381.007812 519.820312 C 381.414062 520.632812 381.863281 521.425781 382.351562 522.195312 C 382.839844 522.964844 383.363281 523.703125 383.925781 524.421875 C 384.492188 525.136719 385.089844 525.820312 385.722656 526.472656 C 386.355469 527.128906 387.019531 527.75 387.714844 528.335938 C 385.816406 529.324219 384.011719 530.464844 382.308594 531.761719 C 380.601562 533.058594 379.019531 534.488281 377.554688 536.054688 C 376.09375 537.617188 374.777344 539.296875 373.597656 541.085938 C 372.421875 542.878906 371.40625 544.753906 370.550781 546.71875 C 361.273438 544.445312 352.3125 541.28125 343.664062 537.230469 C 335.019531 533.175781 326.855469 528.3125 319.171875 522.636719 L 319.171875 518.722656 C 319.171875 517.011719 319.050781 515.308594 318.816406 513.613281 C 318.582031 511.917969 318.234375 510.25 317.773438 508.601562 C 317.308594 506.957031 316.738281 505.347656 316.054688 503.777344 C 315.371094 502.210938 314.585938 500.695312 313.695312 499.234375 C 312.808594 497.773438 311.824219 496.378906 310.742188 495.050781 C 309.664062 493.726562 308.496094 492.480469 307.246094 491.3125 C 305.996094 490.144531 304.671875 489.066406 303.273438 488.082031 C 301.878906 487.09375 300.417969 486.207031 298.902344 485.421875 C 299.5625 484.863281 300.195312 484.277344 300.800781 483.660156 C 301.402344 483.042969 301.976562 482.398438 302.519531 481.722656 C 303.058594 481.050781 303.566406 480.355469 304.042969 479.632812 C 304.515625 478.910156 304.953125 478.164062 305.355469 477.398438 C 305.757812 476.636719 306.121094 475.851562 306.445312 475.050781 C 306.769531 474.253906 307.058594 473.4375 307.304688 472.609375 C 307.550781 471.78125 307.757812 470.945312 307.921875 470.097656 C 308.085938 469.246094 308.210938 468.394531 308.292969 467.535156 C 308.375 466.671875 308.414062 465.8125 308.414062 464.949219 C 308.414062 464.082031 308.371094 463.222656 308.285156 462.363281 C 308.199219 461.503906 308.074219 460.648438 307.90625 459.800781 C 307.738281 458.953125 307.527344 458.117188 307.277344 457.289062 C 307.03125 456.460938 306.742188 455.648438 306.414062 454.847656 C 306.085938 454.050781 305.71875 453.269531 305.3125 452.503906 C 304.910156 451.742188 304.46875 451 303.992188 450.277344 C 303.515625 449.558594 303.007812 448.859375 302.464844 448.191406 C 301.917969 447.519531 301.34375 446.875 300.738281 446.257812 C 300.132812 445.644531 299.496094 445.058594 298.835938 444.503906 C 298.171875 443.953125 297.484375 443.429688 296.769531 442.945312 C 296.054688 442.457031 295.320312 442.003906 294.5625 441.589844 C 293.804688 441.175781 293.03125 440.796875 292.234375 440.457031 C 291.441406 440.117188 290.632812 439.816406 289.808594 439.554688 C 288.984375 439.292969 288.152344 439.070312 287.308594 438.890625 C 286.460938 438.707031 285.609375 438.570312 284.753906 438.472656 C 283.894531 438.371094 283.03125 438.316406 282.167969 438.300781 C 281.304688 438.289062 280.441406 438.316406 279.582031 438.382812 C 278.71875 438.453125 277.863281 438.566406 277.011719 438.71875 C 276.164062 438.871094 275.320312 439.0625 274.492188 439.296875 C 273.660156 439.53125 272.839844 439.804688 272.035156 440.117188 C 271.230469 440.429688 270.441406 440.785156 269.671875 441.171875 C 268.898438 441.5625 268.148438 441.988281 267.421875 442.453125 C 266.691406 442.914062 265.984375 443.414062 265.304688 443.945312 C 262.605469 434.292969 260.96875 424.46875 260.394531 414.464844 C 259.820312 404.460938 260.320312 394.511719 261.894531 384.617188 L 313.808594 384.617188 C 314.160156 384.617188 314.507812 384.582031 314.855469 384.511719 C 315.199219 384.445312 315.535156 384.34375 315.859375 384.207031 C 316.1875 384.074219 316.496094 383.90625 316.789062 383.710938 C 317.082031 383.515625 317.351562 383.292969 317.601562 383.042969 C 317.851562 382.796875 318.074219 382.523438 318.269531 382.230469 C 318.464844 381.9375 318.628906 381.628906 318.765625 381.304688 C 318.898438 380.980469 319 380.644531 319.070312 380.296875 C 319.136719 379.953125 319.171875 379.605469 319.171875 379.25 L 319.171875 357.792969 C 319.171875 356.085938 319.050781 354.382812 318.816406 352.6875 C 318.582031 350.992188 318.234375 349.320312 317.773438 347.675781 C 317.308594 346.027344 316.738281 344.421875 316.054688 342.851562 C 315.371094 341.285156 314.585938 339.769531 313.695312 338.308594 C 312.808594 336.847656 311.824219 335.453125 310.742188 334.125 C 309.664062 332.800781 308.496094 331.550781 307.246094 330.382812 C 305.996094 329.21875 304.671875 328.140625 303.273438 327.152344 C 301.878906 326.167969 300.417969 325.28125 298.902344 324.492188 C 299.820312 323.726562 300.679688 322.90625 301.488281 322.023438 C 302.296875 321.140625 303.039062 320.207031 303.71875 319.226562 C 304.402344 318.242188 305.011719 317.21875 305.554688 316.152344 C 306.097656 315.089844 306.566406 313.992188 306.960938 312.863281 C 307.355469 311.734375 307.671875 310.585938 307.910156 309.414062 C 308.148438 308.242188 308.308594 307.0625 308.386719 305.867188 C 308.464844 304.675781 308.464844 303.484375 308.382812 302.289062 C 308.300781 301.097656 308.136719 299.914062 307.898438 298.746094 C 312.894531 294.179688 318.1875 289.992188 323.78125 286.179688 C 329.371094 282.367188 335.203125 278.964844 341.277344 275.980469 C 347.351562 272.996094 353.605469 270.453125 360.039062 268.351562 C 366.476562 266.253906 373.023438 264.617188 379.691406 263.449219 C 378.71875 266.203125 378.214844 269.042969 378.179688 271.96875 C 378.1875 273.90625 378.402344 275.824219 378.828125 277.71875 C 379.253906 279.609375 379.878906 281.433594 380.703125 283.191406 C 381.527344 284.949219 382.53125 286.597656 383.714844 288.132812 C 384.898438 289.671875 386.234375 291.0625 387.722656 292.308594 C 386.203125 293.09375 384.746094 293.980469 383.347656 294.96875 C 381.949219 295.953125 380.625 297.03125 379.375 298.199219 C 378.125 299.367188 376.960938 300.613281 375.878906 301.941406 C 374.800781 303.265625 373.816406 304.660156 372.925781 306.121094 C 372.035156 307.582031 371.25 309.097656 370.566406 310.667969 C 369.886719 312.234375 369.3125 313.84375 368.851562 315.488281 C 368.386719 317.136719 368.039062 318.808594 367.804688 320.5 C 367.570312 322.195312 367.453125 323.898438 367.449219 325.609375 C 367.449219 325.960938 367.484375 326.308594 367.554688 326.65625 C 367.621094 327 367.722656 327.335938 367.859375 327.660156 C 367.992188 327.988281 368.160156 328.296875 368.355469 328.589844 C 368.550781 328.882812 368.773438 329.152344 369.019531 329.402344 C 369.269531 329.652344 369.542969 329.875 369.835938 330.070312 C 370.128906 330.265625 370.4375 330.429688 370.761719 330.566406 C 371.085938 330.699219 371.421875 330.800781 371.769531 330.871094 C 372.113281 330.9375 372.460938 330.972656 372.816406 330.972656 L 437.183594 330.972656 C 437.539062 330.972656 437.886719 330.9375 438.230469 330.871094 C 438.578125 330.800781 438.914062 330.699219 439.238281 330.566406 C 439.5625 330.429688 439.871094 330.265625 440.164062 330.070312 C 440.457031 329.875 440.730469 329.652344 440.976562 329.402344 C 441.226562 329.152344 441.449219 328.882812 441.644531 328.589844 C 441.839844 328.296875 442.007812 327.988281 442.140625 327.660156 C 442.277344 327.335938 442.378906 327 442.445312 326.65625 C 442.515625 326.308594 442.550781 325.960938 442.550781 325.609375 C 442.546875 323.898438 442.429688 322.195312 442.195312 320.5 C 441.960938 318.808594 441.613281 317.136719 441.148438 315.488281 C 440.6875 313.84375 440.113281 312.234375 439.433594 310.667969 C 438.75 309.097656 437.964844 307.582031 437.074219 306.121094 C 436.183594 304.660156 435.199219 303.265625 434.121094 301.941406 C 433.039062 300.613281 431.875 299.367188 430.625 298.199219 C 429.375 297.03125 428.050781 295.953125 426.652344 294.96875 C 425.253906 293.980469 423.796875 293.09375 422.277344 292.308594 C 423.765625 291.0625 425.101562 289.671875 426.285156 288.132812 C 427.46875 286.597656 428.472656 284.949219 429.296875 283.191406 C 430.121094 281.433594 430.746094 279.609375 431.171875 277.71875 C 431.597656 275.824219 431.8125 273.90625 431.820312 271.96875 C 431.789062 269.058594 431.285156 266.230469 430.3125 263.484375 C 436.976562 264.652344 443.527344 266.285156 449.957031 268.382812 C 456.390625 270.480469 462.644531 273.019531 468.714844 276.003906 C 474.789062 278.984375 480.621094 282.382812 486.210938 286.191406 C 491.800781 290.003906 497.09375 294.1875 502.09375 298.75 C 501.851562 299.921875 501.6875 301.101562 501.605469 302.296875 C 501.523438 303.488281 501.523438 304.679688 501.601562 305.875 C 501.683594 307.066406 501.839844 308.246094 502.078125 309.417969 C 502.320312 310.589844 502.636719 311.742188 503.03125 312.867188 C 503.421875 313.996094 503.890625 315.09375 504.433594 316.160156 C 504.976562 317.222656 505.589844 318.25 506.269531 319.230469 C 506.949219 320.214844 507.695312 321.144531 508.5 322.027344 C 509.308594 322.910156 510.171875 323.734375 511.089844 324.5 C 509.570312 325.285156 508.113281 326.171875 506.714844 327.160156 C 505.320312 328.144531 503.996094 329.222656 502.746094 330.390625 C 501.496094 331.558594 500.332031 332.804688 499.253906 334.132812 C 498.171875 335.457031 497.1875 336.851562 496.300781 338.3125 C 495.410156 339.773438 494.625 341.289062 493.945312 342.855469 C 493.261719 344.425781 492.6875 346.03125 492.226562 347.679688 C 491.765625 349.324219 491.414062 350.996094 491.183594 352.6875 C 490.949219 354.382812 490.828125 356.085938 490.828125 357.792969 L 490.828125 379.25 C 490.828125 379.605469 490.863281 379.953125 490.929688 380.296875 C 491 380.644531 491.101562 380.980469 491.234375 381.304688 C 491.371094 381.628906 491.535156 381.9375 491.730469 382.230469 C 491.925781 382.523438 492.148438 382.796875 492.398438 383.042969 C 492.648438 383.292969 492.917969 383.515625 493.210938 383.710938 C 493.503906 383.90625 493.8125 384.074219 494.140625 384.207031 C 494.464844 384.34375 494.800781 384.445312 495.144531 384.511719 C 495.492188 384.582031 495.839844 384.617188 496.191406 384.617188 L 548.105469 384.617188 C 549.222656 391.726562 549.800781 398.878906 549.835938 406.074219 Z M 405 298.789062 C 406.535156 298.789062 408.054688 298.921875 409.566406 299.183594 C 411.078125 299.445312 412.558594 299.835938 414 300.351562 C 415.445312 300.867188 416.835938 301.503906 418.171875 302.253906 C 419.507812 303.007812 420.769531 303.871094 421.957031 304.839844 C 423.148438 305.8125 424.242188 306.875 425.25 308.035156 C 426.257812 309.191406 427.15625 310.425781 427.949219 311.738281 C 428.746094 313.050781 429.421875 314.421875 429.980469 315.847656 C 430.542969 317.277344 430.976562 318.742188 431.285156 320.246094 L 378.714844 320.246094 C 379.023438 318.742188 379.457031 317.277344 380.019531 315.847656 C 380.578125 314.421875 381.253906 313.050781 382.050781 311.738281 C 382.84375 310.425781 383.742188 309.191406 384.75 308.035156 C 385.757812 306.875 386.851562 305.8125 388.042969 304.839844 C 389.230469 303.871094 390.492188 303.007812 391.828125 302.253906 C 393.164062 301.503906 394.554688 300.867188 396 300.351562 C 397.441406 299.835938 398.921875 299.445312 400.433594 299.183594 C 401.945312 298.921875 403.464844 298.789062 405 298.789062 Z M 555.199219 373.886719 L 501.554688 373.886719 L 501.554688 357.792969 C 501.554688 356.917969 501.597656 356.039062 501.683594 355.164062 C 501.773438 354.292969 501.898438 353.421875 502.070312 352.5625 C 502.242188 351.699219 502.457031 350.847656 502.710938 350.007812 C 502.964844 349.167969 503.261719 348.34375 503.597656 347.53125 C 503.933594 346.71875 504.308594 345.925781 504.722656 345.152344 C 505.136719 344.375 505.589844 343.625 506.078125 342.894531 C 506.566406 342.164062 507.085938 341.457031 507.644531 340.78125 C 508.203125 340.101562 508.789062 339.449219 509.410156 338.828125 C 510.03125 338.207031 510.683594 337.617188 511.363281 337.0625 C 512.042969 336.503906 512.746094 335.980469 513.476562 335.492188 C 514.207031 335.003906 514.960938 334.554688 515.734375 334.140625 C 516.507812 333.726562 517.300781 333.351562 518.113281 333.015625 C 518.925781 332.679688 519.75 332.382812 520.589844 332.128906 C 521.433594 331.875 522.285156 331.660156 523.144531 331.488281 C 524.007812 331.316406 524.875 331.1875 525.75 331.101562 C 526.621094 331.015625 527.5 330.972656 528.378906 330.972656 C 529.257812 330.972656 530.132812 331.015625 531.007812 331.101562 C 531.878906 331.1875 532.75 331.316406 533.609375 331.488281 C 534.472656 331.660156 535.324219 331.875 536.164062 332.128906 C 537.003906 332.382812 537.828125 332.679688 538.640625 333.015625 C 539.453125 333.351562 540.246094 333.726562 541.019531 334.140625 C 541.796875 334.554688 542.546875 335.003906 543.277344 335.492188 C 544.007812 335.980469 544.714844 336.503906 545.394531 337.0625 C 546.070312 337.617188 546.722656 338.207031 547.34375 338.828125 C 547.964844 339.449219 548.554688 340.101562 549.109375 340.78125 C 549.667969 341.457031 550.191406 342.164062 550.679688 342.894531 C 551.167969 343.625 551.617188 344.375 552.03125 345.152344 C 552.445312 345.925781 552.820312 346.71875 553.15625 347.53125 C 553.492188 348.34375 553.789062 349.167969 554.042969 350.007812 C 554.296875 350.847656 554.511719 351.699219 554.683594 352.5625 C 554.855469 353.421875 554.984375 354.292969 555.070312 355.164062 C 555.15625 356.039062 555.199219 356.917969 555.199219 357.792969 Z M 555.199219 373.886719 "/></g></svg>