<svg xmlns="http://www.w3.org/2000/svg" xmlns:xlink="http://www.w3.org/1999/xlink" width="1080" zoomAndPan="magnify" viewBox="0 0 810 809.999993" height="1080" preserveAspectRatio="xMidYMid meet" version="1.2"><defs><clipPath id="e2a37635ad"><path d="M 250.359375 243 L 559.359375 243 L 559.359375 567 L 250.359375 567 Z M 250.359375 243 "/></clipPath></defs><g id="874ede3407"><g clip-rule="nonzero" clip-path="url(#e2a37635ad)"><path style=" stroke:none;fill-rule:nonzero;fill:#fa5719;fill-opacity:1;" d="M 269.441406 243.761719 C 258.902344 243.761719 250.304688 252.382812 250.304688 262.914062 L 250.304688 432.5625 C 250.304688 443.101562 258.910156 451.699219 269.441406 451.699219 L 318.480469 451.699219 L 318.480469 506.367188 C 318.097656 506.910156 317.710938 507.4375 317.433594 508.050781 L 298.140625 552.136719 C 296.777344 555.230469 297.035156 558.835938 298.90625 561.683594 C 300.757812 564.523438 303.960938 566.242188 307.332031 566.238281 L 523.207031 566.238281 C 526.585938 566.238281 529.800781 564.535156 531.664062 561.683594 C 533.511719 558.863281 533.863281 555.257812 532.492188 552.136719 L 532.492188 552.105469 L 513.222656 508.058594 C 512.953125 507.445312 512.542969 506.929688 512.160156 506.394531 L 512.160156 451.339844 C 539.226562 446.429688 559.683594 422.925781 559.683594 394.394531 C 559.683594 363.605469 535.789062 338.804688 505.515625 336.796875 C 503.976562 336.6875 502.632812 335.703125 502.078125 334.261719 C 502.152344 334.429688 502.105469 334.386719 501.988281 334.09375 C 501.988281 334.078125 501.972656 334.0625 501.972656 334.046875 C 501.675781 333.265625 501.492188 332.640625 501.316406 332.214844 L 501.316406 332.203125 L 501.300781 332.203125 C 501.285156 332.1875 501.285156 332.171875 501.269531 332.15625 C 501.242188 332.089844 500.96875 331.644531 500.582031 330.78125 C 499.660156 328.714844 498.699219 326.734375 497.636719 324.820312 C 497.421875 324.449219 497.144531 324 496.835938 323.488281 C 496.824219 323.472656 496.824219 323.457031 496.808594 323.445312 C 492 315.265625 485.683594 308.066406 478.054688 302.601562 C 466.339844 294.214844 452.070312 289.570312 437.558594 289.589844 C 437.523438 289.589844 437.496094 289.589844 437.472656 289.589844 C 425.175781 289.605469 412.992188 293.253906 402.390625 299.582031 C 401.414062 297.207031 399.964844 295.027344 398.050781 293.253906 C 398.035156 293.242188 398.019531 293.21875 398.007812 293.195312 L 358.855469 251.6875 C 358.832031 251.664062 358.804688 251.640625 358.78125 251.613281 C 355.082031 246.671875 349.210938 243.757812 343.039062 243.757812 C 342.585938 243.757812 342.1875 243.726562 341.851562 243.742188 C 341.835938 243.742188 341.824219 243.742188 341.808594 243.742188 L 269.441406 243.742188 Z M 269.457031 254.367188 L 326.4375 254.367188 C 326.570312 254.367188 326.695312 254.390625 326.8125 254.441406 C 332.941406 254.667969 338.019531 259.328125 338.648438 265.464844 C 338.648438 265.464844 338.648438 265.472656 338.648438 265.472656 C 338.863281 268.015625 338.933594 270.792969 338.847656 273.410156 C 338.78125 275.492188 338.605469 277.734375 338.515625 280.09375 C 338.515625 280.09375 338.515625 280.101562 338.515625 280.101562 C 338.496094 280.5625 338.511719 281.066406 338.503906 281.59375 C 338.503906 297.175781 351.328125 309.847656 366.917969 309.847656 C 369.769531 309.789062 372.472656 309.570312 374.933594 309.488281 C 377.339844 309.410156 379.699219 309.46875 382.035156 309.636719 C 382.042969 309.636719 382.050781 309.636719 382.066406 309.636719 C 388.308594 310.28125 393.089844 315.535156 393.160156 321.800781 C 393.199219 321.898438 393.214844 322 393.21875 322.101562 L 393.21875 336.628906 C 392.816406 337.242188 392.40625 337.851562 392.136719 338.546875 C 392.128906 338.554688 392.121094 338.570312 392.105469 338.578125 C 392.105469 338.59375 392.097656 338.613281 392.09375 338.636719 C 392.078125 338.664062 392.054688 338.738281 391.988281 338.894531 C 391.980469 338.90625 391.972656 338.921875 391.960938 338.9375 C 390.199219 343.261719 389.320312 348.023438 388.523438 353.039062 C 388.332031 354.234375 387.5625 355.257812 386.464844 355.757812 C 386.28125 355.84375 386.039062 355.96875 385.757812 356.101562 C 384.667969 356.621094 383.378906 356.570312 382.335938 355.949219 C 378.019531 353.351562 373.851562 350.964844 369.46875 349.535156 C 369.460938 349.535156 369.445312 349.527344 369.4375 349.519531 C 369.285156 349.492188 369.128906 349.445312 368.976562 349.386719 C 364.976562 348.054688 360.539062 349.109375 357.59375 352.164062 L 357.578125 352.179688 C 357.566406 352.203125 357.542969 352.21875 357.519531 352.238281 C 357.519531 352.238281 357.515625 352.246094 357.507812 352.253906 C 356.914062 352.832031 356.332031 353.417969 355.777344 354.011719 L 355.761719 354.011719 L 355.746094 354.027344 C 355.746094 354.027344 355.734375 354.054688 355.734375 354.054688 C 355.734375 354.054688 355.726562 354.054688 355.726562 354.054688 L 355.710938 354.070312 L 355.679688 354.085938 L 355.667969 354.101562 C 355.667969 354.101562 355.667969 354.109375 355.667969 354.113281 C 355.394531 354.410156 355.058594 354.765625 354.632812 355.230469 C 354.632812 355.230469 354.632812 355.238281 354.632812 355.238281 L 353.671875 356.253906 C 353.667969 356.269531 353.621094 356.34375 353.519531 356.453125 C 353.503906 356.46875 353.484375 356.484375 353.460938 356.496094 L 353.460938 356.511719 C 353.460938 356.511719 353.453125 356.511719 353.445312 356.511719 C 353.445312 356.519531 353.4375 356.527344 353.429688 356.542969 L 353.417969 356.542969 L 353.417969 356.570312 C 353.417969 356.570312 353.410156 356.578125 353.402344 356.585938 L 353.386719 356.601562 C 352.839844 357.230469 352.355469 357.816406 351.855469 358.433594 L 351.839844 358.460938 C 351.828125 358.484375 351.828125 358.496094 351.8125 358.519531 C 351.804688 358.542969 351.78125 358.554688 351.769531 358.578125 C 348.996094 361.773438 348.324219 366.28125 349.996094 370.128906 C 350.039062 370.238281 350.074219 370.355469 350.113281 370.472656 L 350.113281 370.488281 C 351.921875 374.789062 354.699219 378.769531 357.683594 382.882812 C 358.402344 383.863281 358.582031 385.144531 358.152344 386.289062 C 358.078125 386.496094 357.996094 386.707031 357.925781 386.933594 C 357.515625 388.070312 356.5625 388.933594 355.386719 389.226562 C 350.484375 390.460938 345.816406 391.769531 341.691406 393.882812 C 341.660156 393.898438 341.648438 393.910156 341.617188 393.925781 C 341.617188 393.925781 341.609375 393.925781 341.609375 393.925781 C 341.523438 393.96875 341.441406 394.007812 341.390625 394.027344 C 341.359375 394.042969 341.375 394.035156 341.359375 394.042969 C 341.347656 394.050781 341.332031 394.066406 341.316406 394.074219 C 341.300781 394.078125 341.28125 394.078125 341.257812 394.085938 L 341.257812 394.101562 C 337.503906 395.984375 335.117188 399.882812 335.191406 404.105469 L 335.191406 404.121094 C 335.191406 404.148438 335.203125 404.164062 335.203125 404.195312 C 335.203125 404.203125 335.203125 404.207031 335.203125 404.222656 C 335.195312 405.023438 335.167969 405.84375 335.191406 406.730469 C 335.191406 406.746094 335.191406 406.746094 335.191406 406.757812 C 335.203125 407.308594 335.234375 407.871094 335.261719 408.421875 C 335.277344 408.972656 335.308594 409.535156 335.335938 410.085938 C 335.335938 410.101562 335.335938 410.101562 335.335938 410.117188 C 335.386719 410.996094 335.484375 411.800781 335.5625 412.609375 C 335.5625 412.621094 335.5625 412.621094 335.5625 412.636719 C 335.5625 412.667969 335.578125 412.695312 335.578125 412.726562 L 335.578125 412.738281 C 335.871094 416.953125 338.582031 420.640625 342.476562 422.1875 C 342.476562 422.1875 342.480469 422.199219 342.488281 422.199219 C 342.511719 422.199219 342.535156 422.199219 342.5625 422.199219 C 342.5625 422.199219 342.546875 422.257812 342.535156 422.289062 C 342.539062 422.265625 342.554688 422.246094 342.578125 422.230469 C 342.535156 422.214844 342.585938 422.230469 342.636719 422.246094 C 342.679688 422.257812 342.738281 422.289062 342.804688 422.316406 L 342.847656 422.332031 C 342.863281 422.332031 342.863281 422.347656 342.878906 422.347656 C 342.890625 422.347656 342.90625 422.347656 342.921875 422.347656 C 347.222656 424.09375 351.980469 424.980469 356.980469 425.785156 C 358.179688 425.96875 359.207031 426.757812 359.710938 427.859375 C 359.816406 428.078125 359.902344 428.292969 360 428.488281 C 360.519531 429.582031 360.453125 430.855469 359.828125 431.898438 C 357.976562 434.988281 356.363281 438.039062 354.992188 441.117188 L 269.472656 441.117188 C 264.746094 441.117188 260.925781 437.3125 260.925781 432.585938 L 260.925781 262.898438 C 260.925781 258.171875 264.730469 254.375 269.457031 254.367188 Z M 349.6875 257.847656 C 349.703125 257.847656 349.722656 257.847656 349.746094 257.847656 C 350.039062 257.84375 350.316406 257.980469 350.492188 258.207031 C 350.707031 258.480469 350.917969 258.730469 351.152344 258.976562 L 387.480469 297.558594 C 387.820312 297.929688 387.789062 298.511719 387.410156 298.847656 C 387.210938 299.015625 386.953125 299.105469 386.691406 299.074219 C 382.609375 298.539062 378.535156 298.386719 374.554688 298.519531 C 370.917969 298.640625 367.722656 298.824219 364.746094 298.789062 C 364.734375 298.789062 364.710938 298.789062 364.6875 298.789062 C 356.648438 298.179688 350.234375 291.8125 349.5625 283.773438 C 349.5625 283.757812 349.5625 283.734375 349.5625 283.714844 C 349.511719 280.707031 349.703125 277.46875 349.820312 273.789062 C 349.980469 268.910156 349.746094 263.902344 348.859375 258.917969 C 348.769531 258.421875 349.101562 257.953125 349.589844 257.855469 C 349.628906 257.855469 349.65625 257.847656 349.6875 257.847656 Z M 279.042969 269.582031 C 276.105469 269.582031 273.679688 271.929688 273.679688 274.839844 C 273.679688 277.746094 276.105469 280.09375 279.042969 280.09375 L 321.082031 280.09375 C 324.019531 280.09375 326.433594 277.746094 326.433594 274.839844 C 326.433594 271.929688 324.019531 269.582031 321.082031 269.582031 Z M 282.65625 290.683594 L 283.484375 290.917969 C 283.484375 290.886719 283.484375 290.84375 283.484375 290.84375 L 283.5 290.710938 C 283.5 290.710938 282.980469 290.699219 282.65625 290.683594 Z M 437.507812 300.128906 L 437.582031 300.128906 C 455.605469 300.128906 472.8125 309.175781 483.929688 323.046875 C 483.945312 323.070312 483.976562 323.089844 483.988281 323.121094 C 486.847656 326.828125 489.15625 330.933594 491.046875 335.273438 C 491.273438 335.566406 491.457031 335.886719 491.589844 336.234375 L 491.589844 336.246094 C 495.988281 346.925781 496.828125 358.710938 494.636719 369.886719 C 494.636719 369.929688 494.632812 369.976562 494.625 370.019531 C 494.542969 370.363281 494.476562 370.765625 494.476562 371.222656 C 494.476562 374.246094 496.851562 376.628906 499.871094 376.628906 C 502.546875 376.628906 504.773438 374.722656 505.199219 372.078125 C 505.214844 372.042969 505.214844 372.003906 505.230469 371.960938 C 506.476562 365.460938 506.789062 358.777344 506.1875 352.179688 C 505.992188 349.988281 507.589844 348.054688 509.78125 347.847656 C 510.152344 347.820312 510.535156 347.835938 510.894531 347.898438 C 532.859375 352.101562 549.1875 371.132812 549.1875 394.410156 C 549.1875 417.226562 533.46875 435.964844 512.167969 440.675781 L 512.167969 403.804688 C 512.167969 397.046875 506.65625 391.609375 499.914062 391.609375 L 480.246094 391.609375 C 479.0625 390.121094 477.523438 388.90625 475.707031 388.1875 L 475.621094 388.144531 C 475.605469 388.144531 475.605469 388.152344 475.574219 388.144531 C 475.523438 388.128906 475.445312 388.09375 475.363281 388.054688 L 475.355469 388.054688 C 475.328125 388.046875 475.328125 388.027344 475.296875 388.011719 C 470.996094 386.265625 466.222656 385.375 461.226562 384.574219 C 460.046875 384.382812 459.027344 383.628906 458.519531 382.542969 C 458.460938 382.414062 458.34375 382.171875 458.191406 381.855469 C 457.664062 380.757812 457.722656 379.464844 458.34375 378.417969 C 460.941406 374.09375 463.351562 369.921875 464.773438 365.535156 L 464.773438 365.519531 C 464.773438 365.519531 464.773438 365.511719 464.773438 365.511719 C 464.789062 365.476562 464.789062 365.421875 464.800781 365.378906 C 464.824219 365.261719 464.867188 365.152344 464.90625 365.035156 C 466.238281 361.046875 465.175781 356.585938 462.128906 353.652344 C 462.128906 353.652344 462.113281 353.644531 462.113281 353.640625 C 462.082031 353.617188 462.070312 353.582031 462.039062 353.550781 C 461.480469 352.980469 460.910156 352.414062 460.28125 351.820312 L 460.265625 351.804688 C 460.265625 351.800781 460.25 351.792969 460.25 351.777344 L 460.222656 351.746094 L 460.207031 351.734375 C 460.191406 351.734375 460.191406 351.726562 460.175781 351.71875 L 460.175781 351.703125 C 459.820312 351.367188 459.472656 351.058594 459.109375 350.730469 L 459.078125 350.714844 C 459.078125 350.714844 459.078125 350.707031 459.078125 350.699219 L 459.0625 350.683594 C 459.003906 350.65625 458.960938 350.613281 458.933594 350.554688 C 458.925781 350.546875 458.925781 350.53125 458.917969 350.523438 C 458.566406 350.203125 458.183594 349.902344 457.816406 349.5625 C 457.816406 349.554688 457.804688 349.550781 457.804688 349.535156 L 457.789062 349.503906 L 457.773438 349.492188 C 457.757812 349.484375 457.757812 349.476562 457.746094 349.460938 L 457.730469 349.460938 C 457.085938 348.898438 456.503906 348.421875 455.882812 347.914062 L 455.867188 347.898438 C 455.839844 347.886719 455.792969 347.894531 455.765625 347.871094 C 455.742188 347.855469 455.722656 347.835938 455.707031 347.8125 C 452.519531 345.050781 448.019531 344.367188 444.171875 346.039062 C 444.171875 346.039062 444.15625 346.046875 444.15625 346.046875 C 444.132812 346.054688 444.121094 346.054688 444.097656 346.0625 C 444.070312 346.066406 443.929688 346.113281 443.839844 346.148438 C 443.828125 346.148438 443.828125 346.148438 443.8125 346.148438 C 439.511719 347.957031 435.53125 350.730469 431.417969 353.71875 C 430.4375 354.445312 429.152344 354.628906 428.011719 354.203125 C 427.710938 354.085938 427.484375 353.976562 427.351562 353.933594 C 426.222656 353.527344 425.363281 352.597656 425.058594 351.441406 C 423.824219 346.53125 422.523438 341.847656 420.402344 337.714844 C 420.390625 337.691406 420.375 337.683594 420.359375 337.65625 C 420.359375 337.65625 420.359375 337.648438 420.359375 337.648438 C 420.316406 337.550781 420.273438 337.472656 420.257812 337.414062 L 420.257812 337.398438 C 420.242188 337.382812 420.226562 337.367188 420.214844 337.355469 C 420.199219 337.332031 420.199219 337.316406 420.183594 337.296875 C 418.300781 333.542969 414.402344 331.152344 410.179688 331.226562 C 410.144531 331.226562 410.105469 331.242188 410.078125 331.242188 L 410.0625 331.242188 C 409.277344 331.234375 408.464844 331.203125 407.601562 331.226562 L 407.554688 331.226562 C 407.542969 331.234375 407.519531 331.234375 407.496094 331.242188 L 407.484375 331.242188 C 407.476562 331.242188 407.46875 331.234375 407.453125 331.226562 C 407.4375 331.234375 407.425781 331.234375 407.410156 331.242188 C 406.882812 331.257812 406.355469 331.269531 405.832031 331.300781 C 405.828125 331.300781 405.820312 331.300781 405.804688 331.300781 C 405.269531 331.316406 404.726562 331.34375 404.199219 331.375 C 404.183594 331.375 404.167969 331.386719 404.15625 331.386719 C 404.148438 331.386719 404.109375 331.386719 404.097656 331.386719 C 403.980469 331.394531 403.890625 331.410156 403.78125 331.417969 L 403.78125 310.933594 C 413.644531 304.101562 425.453125 300.144531 437.507812 300.128906 Z M 279.042969 301.539062 C 276.105469 301.539062 273.679688 303.882812 273.679688 306.792969 C 273.679688 309.703125 276.105469 312.046875 279.042969 312.046875 L 321.082031 312.046875 C 324.019531 312.046875 326.433594 309.703125 326.433594 306.792969 C 326.433594 303.882812 324.019531 301.539062 321.082031 301.539062 Z M 279.042969 333.484375 C 276.105469 333.484375 273.679688 335.828125 273.679688 338.738281 C 273.679688 341.648438 276.105469 343.992188 279.042969 343.992188 L 344.300781 343.992188 C 347.238281 343.992188 349.664062 341.648438 349.664062 338.738281 C 349.664062 335.828125 347.238281 333.484375 344.300781 333.484375 Z M 407.820312 341.414062 L 407.945312 341.414062 C 407.945312 341.414062 407.953125 341.414062 407.960938 341.414062 C 408.53125 341.40625 409.125 341.40625 409.9375 341.414062 C 410.085938 341.414062 410.222656 341.429688 410.371094 341.429688 C 410.683594 341.421875 410.972656 341.589844 411.117188 341.875 C 411.191406 342.023438 411.265625 342.167969 411.34375 342.308594 C 411.34375 342.308594 411.34375 342.316406 411.34375 342.324219 L 411.34375 342.335938 C 411.359375 342.359375 411.375 342.375 411.390625 342.394531 C 411.390625 342.394531 411.390625 342.402344 411.390625 342.402344 L 411.390625 342.417969 C 412.863281 345.296875 414.003906 349.117188 415.207031 353.910156 C 416.320312 358.367188 419.605469 361.980469 423.921875 363.53125 L 423.820312 363.804688 C 423.886719 363.714844 423.972656 363.589844 423.972656 363.589844 L 423.988281 363.578125 C 424.066406 363.613281 424.222656 363.695312 424.449219 363.773438 C 428.789062 365.378906 433.625 364.691406 437.363281 361.972656 C 441.402344 359.039062 444.792969 356.8125 447.769531 355.558594 C 447.917969 355.5 448.070312 355.433594 448.21875 355.375 C 448.515625 355.242188 448.816406 355.332031 449.03125 355.507812 L 449.046875 355.523438 C 449.164062 355.609375 449.273438 355.707031 449.390625 355.792969 C 449.390625 355.792969 449.402344 355.800781 449.402344 355.800781 C 450.160156 356.417969 450.511719 356.679688 450.847656 356.964844 C 450.898438 356.988281 450.941406 357.023438 450.980469 357.070312 C 450.996094 357.074219 451.039062 357.128906 451.039062 357.128906 C 451.066406 357.148438 451.097656 357.179688 451.113281 357.214844 L 451.113281 357.230469 C 451.417969 357.5 451.734375 357.757812 452.058594 358.058594 L 452.144531 358.132812 L 452.175781 358.160156 L 452.1875 358.175781 C 452.203125 358.191406 452.210938 358.203125 452.21875 358.21875 C 452.234375 358.242188 452.246094 358.257812 452.261719 358.277344 L 452.304688 358.320312 C 452.621094 358.609375 452.945312 358.871094 453.28125 359.179688 L 453.367188 359.265625 C 453.382812 359.273438 453.382812 359.28125 453.398438 359.296875 L 453.414062 359.324219 C 453.429688 359.332031 453.441406 359.339844 453.457031 359.355469 L 453.472656 359.355469 C 453.890625 359.75 454.300781 360.183594 454.804688 360.703125 L 454.804688 360.71875 C 454.910156 360.8125 455.003906 360.910156 455.105469 361.003906 L 455.121094 361.003906 C 455.371094 361.246094 455.378906 361.539062 455.273438 361.832031 L 455.273438 361.847656 C 455.214844 362.023438 455.15625 362.207031 455.121094 362.390625 C 455.121094 362.390625 455.121094 362.398438 455.121094 362.402344 C 454.132812 365.445312 452.226562 368.964844 449.667969 373.230469 C 447.292969 377.195312 447.066406 382.082031 449.050781 386.253906 C 449.183594 386.515625 449.265625 386.675781 449.308594 386.765625 L 449.308594 386.78125 C 449.308594 386.78125 449.324219 386.789062 449.324219 386.796875 C 449.339844 386.816406 449.339844 386.847656 449.351562 386.867188 C 451.289062 391 455.144531 393.917969 459.65625 394.644531 C 464.546875 395.421875 468.453125 396.234375 471.449219 397.453125 L 471.464844 397.453125 C 471.480469 397.457031 471.507812 397.480469 471.539062 397.496094 L 471.550781 397.496094 L 471.566406 397.511719 C 471.574219 397.511719 471.625 397.515625 471.683594 397.539062 L 472.015625 397.671875 C 472.320312 397.796875 472.492188 398.066406 472.511719 398.390625 C 472.527344 398.527344 472.554688 398.667969 472.570312 398.808594 C 472.660156 399.605469 472.703125 400.199219 472.738281 400.769531 C 472.738281 400.769531 472.738281 400.777344 472.738281 400.777344 C 472.738281 400.835938 472.738281 400.894531 472.738281 400.910156 C 472.738281 400.910156 472.738281 400.917969 472.738281 400.925781 C 472.769531 401.378906 472.796875 401.796875 472.8125 402.257812 C 472.8125 402.296875 472.8125 402.332031 472.8125 402.375 L 472.8125 402.480469 C 472.8125 402.515625 472.8125 402.542969 472.8125 402.582031 C 472.84375 403.035156 472.871094 403.476562 472.886719 403.929688 C 472.886719 403.929688 472.886719 403.9375 472.886719 403.945312 C 472.886719 403.960938 472.886719 403.996094 472.886719 404.046875 L 472.886719 404.078125 C 472.886719 404.078125 472.886719 404.082031 472.886719 404.082031 C 472.902344 404.664062 472.902344 405.242188 472.886719 406.046875 C 472.886719 406.195312 472.871094 406.332031 472.871094 406.480469 C 472.878906 406.796875 472.71875 407.089844 472.425781 407.242188 L 472.109375 407.398438 C 472.058594 407.417969 472 407.433594 471.992188 407.441406 L 471.976562 407.457031 C 471.957031 407.46875 471.933594 407.484375 471.902344 407.5 L 471.890625 407.5 C 469.007812 408.972656 465.175781 410.117188 460.382812 411.316406 C 455.925781 412.429688 452.3125 415.699219 450.761719 420.023438 L 450.761719 420.039062 C 450.761719 420.039062 450.761719 420.039062 450.746094 420.070312 C 450.707031 420.164062 450.628906 420.324219 450.53125 420.597656 C 448.90625 424.925781 449.574219 429.792969 452.292969 433.539062 C 455.207031 437.5625 457.429688 440.875 458.675781 443.8125 C 458.675781 443.828125 458.675781 443.828125 458.675781 443.84375 C 458.734375 444.011719 458.820312 444.203125 458.886719 444.371094 L 458.886719 444.386719 C 458.945312 444.53125 458.976562 444.671875 458.960938 444.816406 C 458.945312 444.964844 458.910156 445.105469 458.792969 445.25 L 458.777344 445.25 C 458.683594 445.351562 458.59375 445.449219 458.507812 445.550781 L 458.507812 445.566406 C 458.046875 446.121094 457.679688 446.597656 457.304688 447.023438 C 457.289062 447.03125 457.289062 447.039062 457.277344 447.039062 C 457.277344 447.054688 457.261719 447.054688 457.261719 447.066406 C 457.253906 447.074219 457.261719 447.089844 457.246094 447.097656 C 457.230469 447.105469 457.214844 447.113281 457.203125 447.113281 L 457.203125 447.125 L 457.128906 447.214844 C 456.820312 447.558594 456.527344 447.835938 456.242188 448.144531 C 456.226562 448.160156 456.210938 448.191406 456.199219 448.203125 L 456.183594 448.234375 C 456.152344 448.300781 456.109375 448.351562 456.050781 448.386719 L 456.023438 448.402344 L 456.007812 448.417969 C 455.707031 448.746094 455.414062 449.0625 455.121094 449.375 C 455.105469 449.398438 455.089844 449.421875 455.078125 449.433594 C 455.078125 449.433594 455.03125 449.480469 455.019531 449.492188 L 455.003906 449.492188 C 454.996094 449.492188 454.988281 449.523438 454.988281 449.523438 L 454.972656 449.550781 L 454.972656 449.566406 C 454.660156 449.898438 454.300781 450.210938 453.574219 450.914062 L 453.558594 450.929688 C 453.449219 451.03125 453.347656 451.128906 453.246094 451.230469 L 453.230469 451.246094 C 453.03125 451.4375 452.738281 451.546875 452.429688 451.445312 L 452.417969 451.445312 C 452.261719 451.390625 452.109375 451.339844 451.953125 451.296875 C 448.875 450.308594 445.308594 448.371094 441.035156 445.800781 C 437.078125 443.417969 432.195312 443.160156 428.027344 445.140625 C 427.828125 445.242188 427.6875 445.308594 427.609375 445.351562 C 427.578125 445.382812 427.542969 445.410156 427.503906 445.425781 C 423.34375 447.355469 420.390625 451.222656 419.664062 455.761719 C 418.886719 460.648438 418.085938 464.554688 416.871094 467.550781 L 416.871094 467.566406 C 416.863281 467.609375 416.847656 467.648438 416.828125 467.683594 C 416.753906 467.832031 416.703125 467.96875 416.644531 468.117188 C 416.527344 468.417969 416.242188 468.59375 415.941406 468.617188 C 415.792969 468.628906 415.65625 468.644531 415.507812 468.660156 C 414.707031 468.746094 414.121094 468.804688 413.542969 468.84375 L 413.542969 468.828125 L 413.515625 468.828125 L 413.398438 468.84375 C 412.914062 468.871094 412.453125 468.886719 411.984375 468.902344 C 411.910156 468.902344 411.8125 468.914062 411.742188 468.914062 C 411.273438 468.945312 410.824219 468.960938 410.378906 468.972656 L 410.363281 468.972656 C 410.332031 468.972656 410.289062 468.988281 410.214844 468.988281 C 409.660156 469.003906 409.101562 468.988281 408.296875 468.972656 C 408.140625 468.972656 407.988281 468.972656 407.835938 468.972656 C 407.535156 468.980469 407.246094 468.820312 407.101562 468.527344 C 407.011719 468.351562 406.910156 468.152344 406.816406 467.984375 C 405.351562 465.113281 404.222656 461.308594 403.019531 456.507812 C 401.90625 452.042969 398.621094 448.417969 394.289062 446.878906 C 394.164062 446.832031 393.988281 446.746094 393.691406 446.636719 C 389.359375 445.023438 384.511719 445.691406 380.777344 448.410156 C 376.765625 451.3125 373.445312 453.53125 370.515625 454.777344 L 370.5 454.792969 C 370.5 454.792969 370.484375 454.800781 370.472656 454.808594 L 370.457031 454.808594 C 370.433594 454.820312 370.40625 454.851562 370.398438 454.851562 C 370.382812 454.859375 370.367188 454.867188 370.355469 454.867188 C 370.214844 454.910156 370.074219 454.945312 369.9375 455 C 369.65625 455.121094 369.304688 455.117188 369.078125 454.910156 L 369.078125 454.894531 C 368.984375 454.808594 368.882812 454.726562 368.777344 454.640625 C 368.25 454.207031 367.773438 453.824219 367.320312 453.421875 C 367.320312 453.421875 367.3125 453.421875 367.3125 453.421875 C 367.285156 453.394531 367.253906 453.347656 367.226562 453.320312 L 367.210938 453.320312 L 367.136719 453.246094 L 367.109375 453.152344 C 366.867188 452.9375 366.558594 452.628906 366.132812 452.234375 C 366.132812 452.234375 366.125 452.21875 366.125 452.21875 C 366.042969 452.140625 365.964844 452.066406 365.875 451.992188 C 365.816406 451.941406 365.757812 451.890625 365.707031 451.847656 C 365.707031 451.847656 365.699219 451.832031 365.699219 451.832031 C 365.65625 451.796875 365.640625 451.789062 365.613281 451.757812 L 365.613281 451.742188 C 365.378906 451.53125 365.1875 451.347656 365.011719 451.1875 C 364.976562 451.171875 364.9375 451.144531 364.910156 451.113281 L 364.777344 450.996094 C 364.445312 450.675781 364.160156 450.320312 363.457031 449.609375 C 363.347656 449.507812 363.238281 449.398438 363.128906 449.296875 C 363.128906 449.296875 363.121094 449.296875 363.113281 449.296875 C 362.871094 449.0625 362.820312 448.738281 362.914062 448.46875 C 362.945312 448.367188 362.988281 448.269531 363.019531 448.167969 L 363.019531 448.152344 C 363.03125 448.109375 363.046875 448.058594 363.0625 448.007812 C 364.058594 444.898438 365.992188 441.320312 368.542969 437.070312 C 370.910156 433.121094 371.152344 428.253906 369.1875 424.09375 C 369.128906 423.960938 369.035156 423.804688 368.945312 423.609375 C 367.027344 419.414062 363.140625 416.449219 358.582031 415.722656 C 353.726562 414.953125 349.839844 414.144531 346.84375 412.945312 C 346.792969 412.945312 346.734375 412.929688 346.6875 412.902344 C 346.542969 412.828125 346.386719 412.761719 346.242188 412.703125 C 345.933594 412.578125 345.75 412.3125 345.730469 412 C 345.722656 411.851562 345.707031 411.714844 345.683594 411.566406 C 345.605469 410.78125 345.554688 410.203125 345.515625 409.648438 L 345.515625 409.632812 C 345.515625 409.585938 345.507812 409.558594 345.5 409.515625 C 345.5 409.484375 345.5 409.441406 345.5 409.441406 C 345.480469 408.980469 345.464844 408.523438 345.441406 408.054688 C 345.441406 408.019531 345.429688 407.988281 345.429688 407.953125 C 345.429688 407.925781 345.429688 407.878906 345.429688 407.851562 C 345.40625 407.382812 345.390625 406.925781 345.371094 406.464844 C 345.371094 406.464844 345.371094 406.457031 345.371094 406.449219 C 345.371094 406.449219 345.371094 406.414062 345.371094 406.378906 C 345.371094 406.339844 345.355469 406.3125 345.355469 406.273438 C 345.355469 406.273438 345.355469 406.269531 345.355469 406.261719 C 345.347656 405.703125 345.355469 405.125 345.371094 404.324219 C 345.371094 404.1875 345.371094 404.03125 345.371094 403.894531 C 345.363281 403.578125 345.53125 403.292969 345.832031 403.144531 C 345.976562 403.074219 346.109375 402.992188 346.25 402.917969 C 346.277344 402.902344 346.316406 402.898438 346.351562 402.890625 C 346.351562 402.890625 346.359375 402.882812 346.367188 402.875 C 349.246094 401.410156 353.058594 400.25 357.84375 399.054688 C 362.3125 397.933594 365.933594 394.636719 367.472656 390.296875 C 367.546875 390.085938 367.628906 389.933594 367.671875 389.800781 C 369.269531 385.484375 368.601562 380.644531 365.898438 376.914062 C 362.988281 372.898438 360.753906 369.519531 359.484375 366.507812 C 359.472656 366.472656 359.449219 366.429688 359.425781 366.390625 C 359.417969 366.367188 359.40625 366.347656 359.398438 366.316406 C 359.367188 366.222656 359.332031 366.140625 359.292969 366.046875 C 359.183594 365.789062 359.207031 365.460938 359.425781 365.21875 C 359.53125 365.101562 359.617188 364.992188 359.710938 364.875 C 360.34375 364.097656 360.621094 363.714844 360.914062 363.371094 C 360.914062 363.371094 360.921875 363.371094 360.929688 363.371094 L 361.046875 363.238281 C 361.070312 363.210938 361.097656 363.1875 361.132812 363.167969 C 361.132812 363.167969 361.140625 363.167969 361.148438 363.167969 C 361.304688 362.992188 361.480469 362.785156 361.691406 362.550781 C 361.757812 362.476562 361.773438 362.46875 361.78125 362.460938 L 361.78125 362.449219 C 361.839844 362.390625 361.898438 362.339844 361.949219 362.28125 C 361.949219 362.28125 361.949219 362.273438 361.949219 362.265625 C 362.019531 362.183594 362.09375 362.109375 362.160156 362.039062 C 362.160156 362.039062 362.167969 362.039062 362.167969 362.039062 C 362.554688 361.605469 362.835938 361.246094 363.0625 361.003906 C 363.0625 361.003906 363.082031 360.996094 363.105469 360.976562 C 363.113281 360.96875 363.121094 360.953125 363.136719 360.945312 C 363.148438 360.921875 363.171875 360.894531 363.195312 360.871094 C 363.222656 360.851562 363.253906 360.8125 363.28125 360.785156 C 363.691406 360.359375 364.125 359.933594 364.617188 359.449219 C 364.710938 359.355469 364.792969 359.261719 364.886719 359.164062 C 365.09375 358.960938 365.445312 358.894531 365.746094 358.996094 L 365.757812 358.996094 C 365.90625 359.039062 366.042969 359.0625 366.191406 359.097656 C 366.199219 359.097656 366.207031 359.105469 366.21875 359.113281 C 366.21875 359.113281 366.265625 359.144531 366.292969 359.15625 L 366.308594 359.15625 C 366.316406 359.164062 366.332031 359.164062 366.339844 359.171875 C 369.371094 360.160156 372.859375 362.058594 377.117188 364.609375 C 381.078125 366.992188 385.972656 367.234375 390.140625 365.253906 C 390.433594 365.117188 390.613281 365.019531 390.730469 364.96875 C 394.914062 363.042969 397.867188 359.15625 398.585938 354.605469 C 399.355469 349.71875 400.140625 345.839844 401.347656 342.851562 C 401.347656 342.851562 401.347656 342.84375 401.347656 342.84375 C 401.429688 342.652344 401.503906 342.46875 401.574219 342.277344 C 401.691406 341.984375 401.964844 341.789062 402.277344 341.765625 C 402.433594 341.75 402.585938 341.730469 402.742188 341.707031 C 403.539062 341.625 404.089844 341.574219 404.644531 341.539062 C 404.710938 341.539062 404.777344 341.539062 404.800781 341.539062 C 404.800781 341.539062 404.808594 341.539062 404.816406 341.539062 C 405.261719 341.515625 405.695312 341.488281 406.164062 341.464844 C 406.238281 341.464844 406.332031 341.464844 406.40625 341.464844 C 406.867188 341.464844 407.328125 341.4375 407.820312 341.414062 Z M 424.054688 363.644531 C 424.054688 363.644531 423.871094 363.796875 423.8125 363.839844 L 423.8125 363.855469 C 423.871094 363.8125 424.066406 363.65625 424.066406 363.65625 Z M 423.78125 363.929688 L 423.664062 364.242188 L 423.722656 364.257812 L 423.8125 364.257812 L 423.871094 364.242188 C 423.863281 364.242188 423.796875 364.007812 423.78125 363.929688 Z M 279.042969 366.039062 C 276.105469 366.039062 273.679688 368.382812 273.679688 371.292969 C 273.679688 374.203125 276.105469 376.550781 279.042969 376.550781 L 332.816406 376.550781 C 335.753906 376.550781 338.164062 374.203125 338.164062 371.292969 C 338.164062 368.382812 335.753906 366.039062 332.816406 366.039062 Z M 407.835938 375.832031 C 391.621094 376.542969 379.054688 390.246094 379.765625 406.464844 C 380.46875 422.683594 394.179688 435.246094 410.398438 434.535156 C 426.617188 433.816406 439.1875 420.105469 438.46875 403.886719 C 437.75 387.667969 424.054688 375.121094 407.835938 375.832031 Z M 408.273438 385.945312 C 418.878906 385.476562 427.871094 393.714844 428.339844 404.324219 C 428.800781 414.804688 420.785156 423.726562 410.320312 424.378906 L 410.304688 424.378906 C 410.246094 424.378906 410.203125 424.390625 410.148438 424.390625 C 410.078125 424.390625 410.019531 424.40625 409.953125 424.40625 C 399.332031 424.875 390.347656 416.632812 389.886719 406.011719 C 389.425781 395.398438 397.667969 386.40625 408.273438 385.945312 Z M 279.042969 398.285156 C 276.105469 398.285156 273.679688 400.632812 273.679688 403.542969 C 273.679688 406.449219 276.105469 408.796875 279.042969 408.796875 L 321.082031 408.796875 C 324.019531 408.796875 326.433594 406.449219 326.433594 403.542969 C 326.433594 400.632812 324.019531 398.285156 321.082031 398.285156 Z M 482.941406 401.980469 L 499.972656 401.980469 C 500.496094 401.980469 500.933594 402.1875 501.234375 402.492188 C 501.503906 402.773438 501.71875 403.21875 501.71875 403.796875 L 501.71875 502.066406 L 328.84375 502.066406 L 328.84375 451.707031 L 353.191406 451.707031 C 353.710938 453.53125 354.65625 455.246094 356.070312 456.617188 C 356.085938 456.632812 356.097656 456.65625 356.113281 456.675781 C 356.121094 456.691406 356.121094 456.691406 356.128906 456.707031 L 356.15625 456.734375 C 356.722656 457.320312 357.234375 457.855469 357.859375 458.449219 L 357.871094 458.480469 L 357.871094 458.492188 C 357.886719 458.492188 357.902344 458.5 357.917969 458.507812 L 357.960938 458.550781 C 357.96875 458.558594 357.976562 458.566406 357.992188 458.582031 L 358.003906 458.597656 C 358.019531 458.609375 358.035156 458.625 358.050781 458.640625 C 358.09375 458.683594 358.128906 458.726562 358.167969 458.757812 L 358.179688 458.773438 L 359.230469 459.6875 L 359.230469 459.703125 C 359.683594 460.128906 360.035156 460.464844 360.328125 460.738281 L 360.34375 460.738281 L 360.371094 460.75 C 360.386719 460.765625 360.371094 460.765625 360.386719 460.78125 C 360.410156 460.796875 360.445312 460.808594 360.445312 460.808594 L 360.445312 460.824219 L 360.476562 460.839844 C 361.074219 461.375 361.707031 461.925781 362.335938 462.445312 C 362.335938 462.445312 362.34375 462.445312 362.351562 462.445312 C 362.371094 462.457031 362.402344 462.480469 362.425781 462.503906 L 362.4375 462.515625 C 365.640625 465.300781 370.148438 465.953125 374.019531 464.277344 C 374.171875 464.203125 374.328125 464.128906 374.488281 464.09375 C 378.730469 462.289062 382.679688 459.535156 386.757812 456.582031 C 387.738281 455.871094 389.015625 455.695312 390.148438 456.121094 C 390.429688 456.222656 390.675781 456.316406 390.882812 456.390625 C 392.027344 456.800781 392.875 457.769531 393.175781 458.941406 C 394.402344 463.867188 395.699219 468.527344 397.832031 472.667969 C 397.835938 472.683594 397.851562 472.703125 397.859375 472.726562 C 397.925781 472.859375 397.933594 472.894531 397.949219 472.925781 C 397.949219 472.925781 397.953125 472.9375 397.953125 472.9375 C 397.984375 472.96875 398.011719 472.996094 398.027344 473.027344 C 399.90625 476.792969 403.816406 479.183594 408.046875 479.109375 C 408.082031 479.109375 408.105469 479.109375 408.148438 479.109375 C 408.15625 479.109375 408.164062 479.109375 408.179688 479.109375 C 408.964844 479.125 409.738281 479.148438 410.613281 479.125 C 411.132812 479.109375 411.785156 479.066406 412.3125 479.035156 L 412.328125 479.035156 C 412.824219 479.023438 413.351562 479.007812 413.859375 478.976562 C 413.894531 478.957031 413.933594 478.941406 413.976562 478.933594 L 413.992188 478.933594 C 414.027344 478.933594 414.0625 478.949219 414.09375 478.964844 C 414.109375 478.964844 414.109375 478.964844 414.121094 478.964844 L 414.121094 478.949219 C 414.972656 478.890625 415.785156 478.808594 416.554688 478.738281 L 416.570312 478.722656 C 416.601562 478.722656 416.628906 478.722656 416.660156 478.722656 L 416.671875 478.722656 C 420.894531 478.421875 424.574219 475.703125 426.121094 471.796875 L 426.121094 471.78125 L 426.148438 471.722656 C 426.148438 471.707031 426.164062 471.707031 426.164062 471.695312 L 426.164062 471.679688 C 426.179688 471.621094 426.207031 471.53125 426.253906 471.4375 L 426.253906 471.421875 C 426.265625 471.394531 426.265625 471.378906 426.28125 471.347656 C 428.027344 467.054688 428.925781 462.289062 429.734375 457.292969 C 429.929688 456.105469 430.699219 455.085938 431.792969 454.585938 C 431.917969 454.527344 432.128906 454.417969 432.421875 454.273438 C 433.523438 453.753906 434.8125 453.816406 435.859375 454.457031 C 440.226562 457.070312 444.429688 459.492188 448.871094 460.914062 C 448.875 460.914062 448.890625 460.925781 448.898438 460.925781 C 448.988281 460.941406 449.066406 460.980469 449.15625 461 L 449.183594 461 C 449.199219 461 449.214844 461.015625 449.226562 461.015625 L 449.242188 461.015625 C 453.222656 462.339844 457.632812 461.273438 460.566406 458.238281 C 460.582031 458.222656 460.59375 458.214844 460.609375 458.207031 C 460.640625 458.179688 460.683594 458.148438 460.710938 458.121094 C 461.300781 457.546875 461.847656 457.042969 462.441406 456.421875 L 462.457031 456.421875 L 462.472656 456.40625 C 462.488281 456.375 462.507812 456.347656 462.53125 456.316406 L 462.546875 456.300781 C 462.558594 456.289062 462.574219 456.28125 462.589844 456.273438 C 462.917969 455.921875 463.234375 455.570312 463.550781 455.226562 L 463.5625 455.195312 L 463.578125 455.179688 L 463.59375 455.167969 C 463.601562 455.152344 463.609375 455.136719 463.621094 455.121094 L 463.652344 455.09375 L 463.628906 455.070312 L 463.703125 455.011719 C 464.019531 454.675781 464.3125 454.339844 464.617188 453.992188 C 464.632812 453.972656 464.648438 453.949219 464.664062 453.933594 C 464.675781 453.921875 464.691406 453.90625 464.707031 453.890625 C 464.722656 453.875 464.722656 453.871094 464.734375 453.863281 L 464.75 453.847656 L 464.75 453.832031 C 465.328125 453.171875 465.863281 452.558594 466.371094 451.941406 C 466.386719 451.914062 466.398438 451.882812 466.429688 451.855469 L 466.429688 451.839844 C 469.207031 448.652344 469.882812 444.113281 468.203125 440.257812 C 468.160156 440.140625 468.109375 440.03125 468.070312 439.914062 L 468.054688 439.902344 C 468.054688 439.894531 468.054688 439.878906 468.054688 439.871094 C 468.042969 439.847656 468.042969 439.839844 468.027344 439.8125 C 468.027344 439.8125 468.027344 439.789062 468.027344 439.78125 C 468.027344 439.769531 468.019531 439.753906 468.011719 439.738281 C 468.011719 439.722656 467.996094 439.695312 467.996094 439.695312 C 466.195312 435.472656 463.445312 431.566406 460.5 427.5 C 459.78125 426.511719 459.621094 425.21875 460.054688 424.078125 C 460.183594 423.746094 460.265625 423.503906 460.308594 423.375 C 460.71875 422.246094 461.671875 421.394531 462.832031 421.09375 C 467.742188 419.863281 472.410156 418.558594 476.542969 416.441406 C 476.574219 416.425781 476.574219 416.410156 476.601562 416.398438 L 476.617188 416.398438 C 476.710938 416.351562 476.785156 416.308594 476.84375 416.292969 L 476.871094 416.292969 C 476.886719 416.292969 476.894531 416.277344 476.902344 416.277344 L 476.929688 416.25 L 476.945312 416.25 C 480.714844 414.367188 483.09375 410.4375 483.015625 406.203125 C 483.015625 406.171875 483.015625 406.144531 483.015625 406.113281 L 483.015625 406.097656 C 483.027344 405.324219 483.058594 404.523438 483.042969 403.679688 L 483.042969 403.667969 C 483.027344 403.628906 483.015625 403.578125 483.015625 403.535156 L 483.015625 403.519531 C 483.015625 403.46875 483.015625 403.425781 483.027344 403.371094 C 483.015625 402.941406 482.992188 402.5 482.96875 402.070312 C 482.957031 402.070312 482.941406 402.023438 482.941406 401.980469 Z M 450.035156 419.730469 C 450.035156 419.746094 450.035156 419.761719 450.035156 419.761719 C 450.035156 419.761719 450.101562 419.769531 450.152344 419.773438 L 450.050781 419.730469 Z M 342.703125 422.273438 C 342.703125 422.273438 342.585938 422.398438 342.519531 422.472656 C 342.605469 422.421875 342.777344 422.324219 342.777344 422.324219 C 342.769531 422.3125 342.746094 422.3125 342.746094 422.3125 Z M 326.871094 512.457031 L 503.652344 512.457031 L 522.722656 555.859375 L 308.023438 555.859375 Z M 395.417969 522.292969 C 391.652344 522.308594 388.199219 524.703125 386.945312 528.289062 L 383.429688 538.136719 C 382.460938 540.871094 382.835938 543.980469 384.527344 546.382812 C 386.234375 548.800781 389.058594 550.171875 391.960938 550.179688 L 438.675781 550.179688 C 441.570312 550.171875 444.363281 548.792969 446.0625 546.382812 C 447.761719 543.972656 448.070312 540.886719 447.125 538.167969 L 447.125 538.136719 L 443.671875 528.214844 C 442.417969 524.652344 438.976562 522.300781 435.246094 522.285156 L 395.433594 522.285156 C 395.433594 522.292969 395.425781 522.292969 395.417969 522.292969 Z M 396.320312 532.539062 L 434.3125 532.539062 L 436.878906 539.941406 L 393.691406 539.941406 Z M 396.320312 532.539062 "/></g></g></svg>