<svg width="44" height="44" viewBox="0 0 44 44" fill="none" xmlns="http://www.w3.org/2000/svg">
<g id="company_svgrepo.com">
<path id="Vector" d="M7.04002 1.75977V5.27977H3.52002V42.2398H40.48V12.3198H26.4V5.27977H22.88V1.75977H7.04002ZM8.80002 3.51977H21.12V7.03977H24.64V40.4798H16.72V34.3198H13.2V40.4798H5.28002V7.03977H8.80002V3.51977ZM8.80002 8.79977V10.5598H10.56V8.79977H8.80002ZM12.32 8.79977V10.5598H14.08V8.79977H12.32ZM15.84 8.79977V10.5598H17.6V8.79977H15.84ZM19.36 8.79977V10.5598H21.12V8.79977H19.36ZM8.80002 13.1998V16.7198H10.56V13.1998H8.80002ZM12.32 13.1998V16.7198H14.08V13.1998H12.32ZM15.84 13.1998V16.7198H17.6V13.1998H15.84ZM19.36 13.1998V16.7198H21.12V13.1998H19.36ZM26.4 14.0798H38.72V40.4798H26.4V14.0798ZM28.16 15.8398V17.5998H29.92V15.8398H28.16ZM31.68 15.8398V17.5998H33.44V15.8398H31.68ZM35.2 15.8398V17.5998H36.96V15.8398H35.2ZM8.80002 18.4798V21.9998H10.56V18.4798H8.80002ZM12.32 18.4798V21.9998H14.08V18.4798H12.32ZM15.84 18.4798V21.9998H17.6V18.4798H15.84ZM19.36 18.4798V21.9998H21.12V18.4798H19.36ZM28.16 19.3598V21.1198H29.92V19.3598H28.16ZM31.68 19.3598V21.1198H33.44V19.3598H31.68ZM35.2 19.3598V21.1198H36.96V19.3598H35.2ZM28.16 22.8798V24.6398H29.92V22.8798H28.16ZM31.68 22.8798V24.6398H33.44V22.8798H31.68ZM35.2 22.8798V24.6398H36.96V22.8798H35.2ZM8.80002 23.7598V27.2798H10.56V23.7598H8.80002ZM12.32 23.7598V27.2798H14.08V23.7598H12.32ZM15.84 23.7598V27.2798H17.6V23.7598H15.84ZM19.36 23.7598V27.2798H21.12V23.7598H19.36ZM28.16 26.3998V28.1598H29.92V26.3998H28.16ZM31.68 26.3998V28.1598H33.44V26.3998H31.68ZM35.2 26.3998V28.1598H36.96V26.3998H35.2ZM8.80002 29.0398V32.5598H10.56V29.0398H8.80002ZM12.32 29.0398V32.5598H14.08V29.0398H12.32ZM15.84 29.0398V32.5598H17.6V29.0398H15.84ZM19.36 29.0398V32.5598H21.12V29.0398H19.36ZM28.16 29.9198V31.6798H29.92V29.9198H28.16ZM31.68 29.9198V31.6798H33.44V29.9198H31.68ZM35.2 29.9198V31.6798H36.96V29.9198H35.2ZM28.16 33.4398V35.1998H29.92V33.4398H28.16ZM31.68 33.4398V35.1998H33.44V33.4398H31.68ZM35.2 33.4398V35.1998H36.96V33.4398H35.2ZM8.80002 34.3198V38.7198H10.56V34.3198H8.80002ZM19.36 34.3198V38.7198H21.12V34.3198H19.36ZM28.16 36.9598V38.7198H29.92V36.9598H28.16ZM31.68 36.9598V38.7198H33.44V36.9598H31.68ZM35.2 36.9598V38.7198H36.96V36.9598H35.2Z" fill="black"/>
</g>
</svg>
