<?xml version="1.0" encoding="UTF-8"?>
<svg version="1.1" xmlns="http://www.w3.org/2000/svg" width="233" height="232">
<path d="M0 0 C1.61761734 -0.00810448 1.61761734 -0.00810448 3.26791382 -0.01637268 C6.83570726 -0.0288892 10.40269845 -0.01234974 13.97045898 0.00561523 C16.44620303 0.00546033 18.92194732 0.00397272 21.39768982 0.00120544 C26.5870129 -0.00017983 31.77606001 0.01240234 36.96533203 0.03515625 C43.62612114 0.06355591 50.28624505 0.06080123 56.94709873 0.04806614 C62.05909661 0.04112084 67.17098805 0.04888491 72.28297234 0.06132317 C74.73943613 0.06584778 77.19591132 0.06616569 79.65237617 0.06225777 C83.08099028 0.0593565 86.50896639 0.07580079 89.9375 0.09765625 C91.46879295 0.09090378 91.46879295 0.09090378 93.03102112 0.08401489 C94.4294928 0.09887184 94.4294928 0.09887184 95.85621643 0.11402893 C97.07210371 0.11767377 97.07210371 0.11767377 98.31255436 0.12139225 C100.91927983 0.59539755 101.81337814 1.41728761 103.40405273 3.50170898 C103.69702148 5.76342773 103.69702148 5.76342773 103.59155273 8.18920898 C103.55094727 9.40157227 103.55094727 9.40157227 103.50952148 10.63842773 C103.4747168 11.25331055 103.43991211 11.86819336 103.40405273 12.50170898 C104.13519287 12.48599854 104.86633301 12.47028809 105.61962891 12.45410156 C108.94352433 12.39160547 112.26729594 12.35267146 115.59155273 12.31420898 C117.31728516 12.27650391 117.31728516 12.27650391 119.07788086 12.23803711 C120.74560547 12.22353516 120.74560547 12.22353516 122.44702148 12.20874023 C123.46820068 12.19302979 124.48937988 12.17731934 125.54150391 12.16113281 C128.88451059 12.5588722 130.70938961 13.51337111 133.40405273 15.50170898 C136.31994696 19.92582437 136.78503674 23.26317897 136.40405273 28.50170898 C136.11594727 29.62319336 136.11594727 29.62319336 135.82202148 30.76733398 C135.28038898 34.31072419 135.78887943 37.17493596 136.46655273 40.68920898 C136.6844043 41.92026367 136.90225586 43.15131836 137.12670898 44.41967773 C137.54823242 45.43674805 137.96975586 46.45381836 138.40405273 47.50170898 C140.38768949 48.21559248 142.39093129 48.87578047 144.40405273 49.50170898 C147.43349504 51.97428942 149.96602667 54.74757512 150.92765808 58.59855652 C151.0950538 60.92132822 151.08062278 63.17087471 150.98999023 65.49780273 C150.98150055 66.33134781 150.97301086 67.16489288 150.96426392 68.0236969 C150.93090609 70.66356438 150.85566917 73.30027872 150.77905273 75.93920898 C150.74892995 77.73799272 150.7215582 79.53682476 150.69702148 81.33569336 C150.63117381 85.72556417 150.52778266 90.11310367 150.40405273 94.50170898 C146.77405273 94.50170898 143.14405273 94.50170898 139.40405273 94.50170898 C139.06374023 96.54358398 139.06374023 96.54358398 138.71655273 98.62670898 C137.35652204 104.67551685 134.85740795 107.79006581 129.71655273 111.37670898 C124.07514639 113.29265831 118.81557916 113.29009262 113.15405273 111.43920898 C109.60861621 108.9412878 106.49326295 106.34667241 104.40405273 102.50170898 C104.07405273 99.86170898 103.74405273 97.22170898 103.40405273 94.50170898 C83.27405273 94.50170898 63.14405273 94.50170898 42.40405273 94.50170898 C41.74405273 97.47170898 41.08405273 100.44170898 40.40405273 103.50170898 C37.38274074 108.03367698 34.58320749 110.74275076 29.40405273 112.50170898 C23.43920976 113.20231044 18.44341215 113.05216675 13.40405273 109.50170898 C8.12302761 104.8047031 7.01743123 101.45092652 6.40405273 94.50170898 C5.13948242 94.54811523 3.87491211 94.59452148 2.57202148 94.64233398 C0.91188882 94.67985111 -0.74826934 94.71625133 -2.40844727 94.75170898 C-3.24182617 94.78522461 -4.07520508 94.81874023 -4.93383789 94.85327148 C-11.07465135 94.95191909 -11.07465135 94.95191909 -13.65844727 92.72045898 C-14.97807885 89.59733091 -14.78903902 86.84863275 -14.59594727 83.50170898 C-15.22243164 83.51331055 -15.84891602 83.52491211 -16.49438477 83.53686523 C-17.31165039 83.54588867 -18.12891602 83.55491211 -18.97094727 83.56420898 C-19.78305664 83.57581055 -20.59516602 83.58741211 -21.43188477 83.59936523 C-23.59594727 83.50170898 -23.59594727 83.50170898 -25.59594727 82.50170898 C-25.63866827 80.83558993 -25.63658559 79.16788014 -25.59594727 77.50170898 C-23.74308094 75.64884266 -20.70194278 76.37123069 -18.22485352 76.36889648 C-16.92870117 76.36760742 -15.63254883 76.36631836 -14.29711914 76.36499023 C-13.27896118 76.36813232 -13.27896118 76.36813232 -12.24023438 76.37133789 C-10.17057938 76.37667768 -8.10114227 76.37139705 -6.03149414 76.36499023 C-4.08533203 76.36692383 -4.08533203 76.36692383 -2.09985352 76.36889648 C-0.30269897 76.37058838 -0.30269897 76.37058838 1.53076172 76.37231445 C4.40405273 76.50170898 4.40405273 76.50170898 6.40405273 77.50170898 C6.44677374 79.16782804 6.44469106 80.83553783 6.40405273 82.50170898 C5.40405273 83.50170898 5.40405273 83.50170898 2.46264648 83.59936523 C1.26768555 83.58776367 0.07272461 83.57616211 -1.15844727 83.56420898 C-2.35598633 83.55518555 -3.55352539 83.54616211 -4.78735352 83.53686523 C-6.17760742 83.51946289 -6.17760742 83.51946289 -7.59594727 83.50170898 C-7.59594727 85.15170898 -7.59594727 86.80170898 -7.59594727 88.50170898 C-5.17443313 88.49568532 -2.76567514 88.4482721 -0.34594727 88.37670898 C0.3359668 88.37928711 1.01788086 88.38186523 1.72045898 88.38452148 C4.03044728 88.35391308 4.03044728 88.35391308 7.40405273 87.50170898 C9.78908113 84.67706026 9.78908113 84.67706026 11.40405273 81.50170898 C16.04554088 77.50787034 20.38346784 76.25638804 26.40405273 76.50170898 C32.61365915 77.67802787 36.41511357 80.71498199 40.40405273 85.50170898 C40.40405273 86.49170898 40.40405273 87.48170898 40.40405273 88.50170898 C59.21405273 88.50170898 78.02405273 88.50170898 97.40405273 88.50170898 C97.40405273 81.24170898 97.40405273 73.98170898 97.40405273 66.50170898 C97.73405273 66.17170898 98.06405273 65.84170898 98.40405273 65.50170898 C100.05405273 65.50170898 101.70405273 65.50170898 103.40405273 65.50170898 C103.73405273 72.76170898 104.06405273 80.02170898 104.40405273 87.50170898 C105.72405273 85.52170898 107.04405273 83.54170898 108.40405273 81.50170898 C113.04554088 77.50787034 117.38346784 76.25638804 123.40405273 76.50170898 C129.61365915 77.67802787 133.41511357 80.71498199 137.40405273 85.50170898 C137.40405273 86.49170898 137.40405273 87.48170898 137.40405273 88.50170898 C139.71405273 88.50170898 142.02405273 88.50170898 144.40405273 88.50170898 C144.40405273 84.87170898 144.40405273 81.24170898 144.40405273 77.50170898 C143.33155273 77.41920898 142.25905273 77.33670898 141.15405273 77.25170898 C137.09684706 76.44026785 135.90945679 75.6816449 133.40405273 72.50170898 C132.22098545 70.13557442 132.27050665 68.63390162 132.27905273 66.00170898 C132.27647461 65.20764648 132.27389648 64.41358398 132.27124023 63.59545898 C132.40405273 61.50170898 132.40405273 61.50170898 133.40405273 59.50170898 C136.70405273 59.50170898 140.00405273 59.50170898 143.40405273 59.50170898 C140.87839438 55.3435951 140.87839438 55.3435951 137.40405273 54.50170898 C134.82075044 54.3484854 132.25913034 54.24464009 129.67358398 54.18530273 C128.9231633 54.16452164 128.17274261 54.14374054 127.39958191 54.12232971 C125.00533089 54.05700972 122.61097135 53.99803106 120.21655273 53.93920898 C118.59219261 53.89600706 116.96784341 53.85239223 115.34350586 53.80834961 C111.36379903 53.70134636 107.38398316 53.60002961 103.40405273 53.50170898 C103.40405273 55.15170898 103.40405273 56.80170898 103.40405273 58.50170898 C101.74790616 58.88389666 100.07948249 59.21566 98.40405273 59.50170898 C98.07405273 59.17170898 97.74405273 58.84170898 97.40405273 58.50170898 C97.40405273 41.34170898 97.40405273 24.18170898 97.40405273 6.50170898 C62.75405273 6.50170898 28.10405273 6.50170898 -7.59594727 6.50170898 C-7.59594727 23.33170898 -7.59594727 40.16170898 -7.59594727 57.50170898 C-7.92594727 58.16170898 -8.25594727 58.82170898 -8.59594727 59.50170898 C-10.24594727 59.50170898 -11.89594727 59.50170898 -13.59594727 59.50170898 C-14.84585593 57.00189166 -14.74317864 55.27036068 -14.77294922 52.47290039 C-14.78578445 51.42486237 -14.79861969 50.37682434 -14.81184387 49.29702759 C-14.8192308 48.16058807 -14.82661774 47.02414856 -14.83422852 45.85327148 C-14.84230026 44.68919769 -14.85037201 43.5251239 -14.85868835 42.32577515 C-14.87253644 39.85936985 -14.88325534 37.39294533 -14.89111328 34.92651367 C-14.90834499 31.14912801 -14.95222838 27.37261305 -14.99633789 23.59545898 C-15.00646279 21.20223627 -15.01497953 18.8090061 -15.02172852 16.41577148 C-15.0392366 15.28338043 -15.05674469 14.15098938 -15.07478333 12.98428345 C-15.07185776 11.9299411 -15.06893219 10.87559875 -15.06591797 9.78930664 C-15.07471733 8.39936996 -15.07471733 8.39936996 -15.08369446 6.98135376 C-14.59594727 4.50170898 -14.59594727 4.50170898 -13.2288208 2.20259094 C-9.03843153 -0.50447319 -4.88491191 -0.04635397 0 0 Z M103.40405273 18.50170898 C103.40405273 20.15170898 103.40405273 21.80170898 103.40405273 23.50170898 C111.98405273 23.50170898 120.56405273 23.50170898 129.40405273 23.50170898 C127.82568976 19.81793675 127.82568976 19.81793675 126.40405273 18.50170898 C124.69632916 18.41457067 122.98506625 18.39470891 121.27514648 18.40405273 C120.24067383 18.40727539 119.20620117 18.41049805 118.14038086 18.41381836 C117.05176758 18.42219727 115.9631543 18.43057617 114.84155273 18.43920898 C113.74907227 18.4437207 112.6565918 18.44823242 111.53100586 18.45288086 C108.82196778 18.46471072 106.11303674 18.48119355 103.40405273 18.50170898 Z M103.40405273 30.50170898 C103.40405273 36.11170898 103.40405273 41.72170898 103.40405273 47.50170898 C112.64405273 47.50170898 121.88405273 47.50170898 131.40405273 47.50170898 C129.80474658 37.23238599 129.80474658 37.23238599 127.40405273 30.50170898 C119.48405273 30.50170898 111.56405273 30.50170898 103.40405273 30.50170898 Z M139.40405273 65.50170898 C139.40405273 67.15170898 139.40405273 68.80170898 139.40405273 70.50170898 C141.05405273 70.50170898 142.70405273 70.50170898 144.40405273 70.50170898 C144.40405273 68.85170898 144.40405273 67.20170898 144.40405273 65.50170898 C142.75405273 65.50170898 141.10405273 65.50170898 139.40405273 65.50170898 Z M15.40405273 86.50170898 C13.0592138 89.94080608 12.39324493 91.88566408 12.46655273 96.06420898 C13.74570635 100.75443892 15.52090838 103.38200153 19.71655273 105.87670898 C23.35412602 106.72265626 25.79444288 106.46856877 29.40405273 105.50170898 C33.48673884 102.0403012 35.24587122 100.08352409 35.77905273 94.75170898 C35.75464049 91.4011283 35.16006627 89.65276366 33.02905273 87.06420898 C29.73069271 83.84438134 29.22478586 83.55552755 24.59155273 83.25170898 C20.72685987 83.32172154 18.41552914 83.92044349 15.40405273 86.50170898 Z M112.40405273 86.50170898 C110.0592138 89.94080608 109.39324493 91.88566408 109.46655273 96.06420898 C110.74570635 100.75443892 112.52090838 103.38200153 116.71655273 105.87670898 C120.35412602 106.72265626 122.79444288 106.46856877 126.40405273 105.50170898 C130.48673884 102.0403012 132.24587122 100.08352409 132.77905273 94.75170898 C132.75464049 91.4011283 132.16006627 89.65276366 130.02905273 87.06420898 C126.73069271 83.84438134 126.22478586 83.55552755 121.59155273 83.25170898 C117.72685987 83.32172154 115.41552914 83.92044349 112.40405273 86.50170898 Z " fill="#FFFFFF" transform="translate(55.595947265625,59.498291015625)"/>
<path d="M0 0 C21.03637752 18.04009823 39.85007277 43.31538583 42.52166748 71.92764282 C42.62370138 74.35579995 42.66807264 76.77677546 42.68359375 79.20703125 C42.69262222 80.1050798 42.7016507 81.00312836 42.71095276 81.9283905 C42.72539518 83.82519233 42.73432696 85.7220433 42.73803711 87.61889648 C42.74981118 90.45452485 42.79895058 93.28788442 42.84960938 96.12304688 C43.00520514 113.67673891 39.45700766 129.11034396 31.3125 144.6875 C30.86261719 145.6053125 30.41273438 146.523125 29.94921875 147.46875 C16.52435957 173.78903729 -7.68402792 192.83176762 -35.25 202.5 C-37.72121955 203.25566218 -40.20036329 203.9859999 -42.6875 204.6875 C-43.7496875 205.0071875 -44.811875 205.326875 -45.90625 205.65625 C-76.36736747 213.3427002 -108.30159629 206.41812468 -134.8984375 190.79248047 C-160.36760895 175.06193052 -177.6319917 150.24793853 -185.6875 121.6875 C-186.0071875 120.6253125 -186.326875 119.563125 -186.65625 118.46875 C-194.3427002 88.00763253 -187.41812468 56.07340371 -171.79248047 29.4765625 C-156.06193052 4.00739105 -131.24793853 -13.2569917 -102.6875 -21.3125 C-101.6253125 -21.6321875 -100.563125 -21.951875 -99.46875 -22.28125 C-65.18748343 -30.93166306 -27.43781789 -21.67587614 0 0 Z M-153.1875 13.75 C-174.3047581 35.40949868 -184.829371 64.67253109 -184.6875 94.6875 C-183.44207675 125.79047852 -169.96716147 153.3295651 -147.81640625 174.92578125 C-126.08186466 194.67998658 -96.56498739 204.76372643 -67.35839844 203.59423828 C-36.72729348 201.56211962 -8.75798035 188.06084889 11.92431641 165.30517578 C31.11634177 142.94035692 41.01669693 113.45235985 39.06640625 84.0546875 C36.42686399 53.73719662 22.52212231 25.60448045 -0.6875 5.6875 C-47.36637452 -31.68380437 -110.38234932 -26.7479227 -153.1875 13.75 Z " fill="#FFFFFF" transform="translate(190.6875,24.3125)"/>
<path d="M0 0 C1.31157326 -0.00956978 1.31157326 -0.00956978 2.64964294 -0.01933289 C4.07615929 -0.02100212 4.07615929 -0.02100212 5.53149414 -0.02270508 C6.98719566 -0.02769768 6.98719566 -0.02769768 8.4723053 -0.03279114 C10.52938359 -0.03786463 12.58647015 -0.04019933 14.64355469 -0.04003906 C17.79969783 -0.04222459 20.9554911 -0.06037324 24.11157227 -0.0793457 C26.10571169 -0.08227966 28.09985278 -0.08426444 30.09399414 -0.08520508 C31.0429808 -0.09239059 31.99196747 -0.09957611 32.9697113 -0.10697937 C33.84724564 -0.10390274 34.72477997 -0.10082611 35.62890625 -0.09765625 C36.4031041 -0.09908127 37.17730194 -0.10050629 37.97496033 -0.10197449 C39.87915039 0.14526367 39.87915039 0.14526367 41.87915039 2.14526367 C41.3434361 5.68097796 41.3434361 5.68097796 39.87915039 7.14526367 C38.50855446 7.24838404 37.13275381 7.2837532 35.75830078 7.29052734 C34.44672752 7.30009712 34.44672752 7.30009712 33.10865784 7.30986023 C31.68214149 7.31152946 31.68214149 7.31152946 30.22680664 7.31323242 C28.77110512 7.31822502 28.77110512 7.31822502 27.28599548 7.32331848 C25.22891719 7.32839197 23.17183064 7.33072668 21.11474609 7.33056641 C17.95860295 7.33275193 14.80280969 7.35090059 11.64672852 7.36987305 C9.65258909 7.372807 7.658448 7.37479178 5.66430664 7.37573242 C4.24082664 7.3865107 4.24082664 7.3865107 2.78858948 7.39750671 C1.91105515 7.39443008 1.03352081 7.39135345 0.12939453 7.38818359 C-0.64480331 7.38960861 -1.41900116 7.39103363 -2.21665955 7.39250183 C-4.12084961 7.14526367 -4.12084961 7.14526367 -6.12084961 5.14526367 C-5.4240149 0.54615459 -4.47897478 0.02207512 0 0 Z " fill="#FFFFFF" transform="translate(106.120849609375,135.854736328125)"/>
<path d="M0 0 C13.2 0 26.4 0 40 0 C40.495 2.475 40.495 2.475 41 5 C40 6 40 6 36.30639648 6.11352539 C34.66128708 6.11336624 33.01617269 6.10766988 31.37109375 6.09765625 C30.07474754 6.09553383 30.07474754 6.09553383 28.75221252 6.09336853 C25.98060708 6.08775239 23.2090812 6.07519719 20.4375 6.0625 C18.5631522 6.05748708 16.68880315 6.05292381 14.81445312 6.04882812 C10.20960456 6.03777772 5.60481579 6.0205023 1 6 C-0.0625 4.125 -0.0625 4.125 -1 2 C-0.67 1.34 -0.34 0.68 0 0 Z " fill="#FFFFFF" transform="translate(36,125)"/>
<path d="M0 0 C2.15502531 3.23253796 2.46856135 4.25150923 2 8 C0.875 9.8125 0.875 9.8125 -1 11 C-5.07794425 11.42478586 -6.53076119 11.31282587 -10 9 C-10.3734761 5.57646906 -10.57873868 3.08939046 -8.9375 0 C-5.77203476 -1.63378851 -3.34979714 -0.85267564 0 0 Z " fill="#FFFFFF" transform="translate(181,149)"/>
<path d="M0 0 C2.15502531 3.23253796 2.46856135 4.25150923 2 8 C0.875 9.8125 0.875 9.8125 -1 11 C-5.07794425 11.42478586 -6.53076119 11.31282587 -10 9 C-10.3734761 5.57646906 -10.57873868 3.08939046 -8.9375 0 C-5.77203476 -1.63378851 -3.34979714 -0.85267564 0 0 Z " fill="#FFFFFF" transform="translate(84,149)"/>
</svg>
