<svg width="59" height="58" viewBox="0 0 59 58" fill="none" xmlns="http://www.w3.org/2000/svg">
<circle cx="29.25" cy="29" r="28.5" stroke="white"/>
<path d="M15.0937 39.0093L13.9433 32.567C13.7809 31.6592 13.9494 30.7232 14.4183 29.9291C14.8872 29.1349 15.6252 28.5352 16.4986 28.2388L16.8281 28.127M16.8281 28.127L27.7315 24.427C28.5339 24.1551 29.4035 24.1551 30.2059 24.427L41.1093 28.127M16.8281 28.127V20.8041C16.8281 19.7819 17.2342 18.8016 17.957 18.0788C18.6797 17.356 19.6601 16.9499 20.6823 16.9499H25.5M41.1093 28.127L41.4389 28.2388C42.3122 28.5352 43.0503 29.1349 43.5191 29.9291C43.988 30.7232 44.1565 31.6592 43.9942 32.567L42.8437 39.0073M41.1093 28.127V20.8041C41.1093 19.7819 40.7033 18.8016 39.9805 18.0788C39.2577 17.356 38.2774 16.9499 37.2552 16.9499H32.4375M25.5 16.9499H32.4375M25.5 16.9499V15.125C25.5 14.205 25.8654 13.3227 26.5159 12.6722C27.1665 12.0217 28.0487 11.6562 28.9687 11.6562C29.8887 11.6562 30.771 12.0217 31.4215 12.6722C32.072 13.3227 32.4375 14.205 32.4375 15.125V16.9499M11.625 45.1856C12.8718 46.4517 15.9069 46.8101 18.8034 45.6018C20.7921 44.7732 23.305 44.752 25.3381 45.465C27.6918 46.2687 30.2456 46.2687 32.5993 45.465C34.6324 44.752 37.1453 44.7712 39.1321 45.5999C42.0305 46.8101 45.0676 46.4517 46.3125 45.1836" stroke="white" stroke-width="1.73437" stroke-linecap="round" stroke-linejoin="round"/>
</svg>
