<svg width="58" height="58" viewBox="0 0 58 58" fill="none" xmlns="http://www.w3.org/2000/svg">
<circle cx="29" cy="29" r="28.4219" stroke="white" stroke-width="1.15625"/>
<path d="M35.9565 28.6052C35.9565 28.6051 35.9565 28.6051 35.9566 28.6051C37.3904 27.1716 38.7279 25.737 39.9414 24.3428L22.8198 38.2052C26.0066 36.6477 30.7641 32.9811 35.5477 28.1963L35.9565 28.6052ZM35.9565 28.6052C35.0613 29.5005 34.1656 30.3584 33.2794 31.1721M35.9565 28.6052L33.2794 31.1721M33.2794 31.1721L33.2781 31.1692L32.6973 31.6918C30.4779 33.6891 28.1955 35.5258 26.1181 36.927C25.0417 37.651 24.0449 38.2432 23.1576 38.6832C22.9317 38.7948 22.7112 38.8973 22.4966 38.9903C22.3916 39.0358 22.2879 39.079 22.1858 39.1199L21.7774 39.2832L21.7796 39.3034L21.778 39.3041L21.6918 38.5248L21.5525 37.2644L21.5224 36.9922L21.714 36.7964C22.8901 35.595 23.8693 34.4595 24.5069 33.5912C24.5938 33.4729 24.6732 33.3611 24.7452 33.256M33.2794 31.1721L22.1271 37.2009C24.5042 34.7726 26.122 32.5745 25.7772 32.2249M24.7452 33.256C25.0293 33.0614 25.2639 32.9214 25.4428 32.8359C25.5687 32.7758 25.635 32.7584 25.6536 32.7554C25.6936 32.749 25.526 32.7902 25.3698 32.6351L25.7772 32.2249M24.7452 33.256C24.6403 33.3278 24.5286 33.4071 24.4105 33.4938C23.542 34.1314 22.4062 35.1111 21.2045 36.2875L21.0086 36.4793L20.7361 36.449L19.4679 36.3078L18.6884 36.221L18.6887 36.2204M24.7452 33.256C24.9395 32.9722 25.0796 32.7377 25.1652 32.5588C25.2254 32.4329 25.2431 32.3664 25.2461 32.3473C25.2528 32.3064 25.2109 32.474 25.3656 32.6309L25.7772 32.2249M25.7772 32.2249L18.6887 36.2204M18.6887 36.2204L18.7368 36.2257L18.8989 35.8142C18.9383 35.7143 18.9798 35.6134 19.0233 35.5114C19.6792 33.9764 20.8035 32.2133 22.0974 30.4614C23.4718 28.6006 25.014 26.7836 26.3311 25.312L26.8507 24.7316L26.8282 24.7211M18.6887 36.2204L42.0957 12.0147C39.8402 13.1545 36.9333 15.2348 33.8562 17.8948L33.6652 18.0599L33.6584 18.0591M18.6887 36.2204L18.8707 35.803L19.002 35.5021C20.1239 32.9298 22.7639 29.2261 26.3089 25.2921C26.4799 25.1023 26.6531 24.9119 26.8282 24.7211M18.6887 36.2204L18.2972 36.1769L12.7026 35.5554M26.8282 24.7211C27.6424 23.8345 28.5005 22.9385 29.3958 22.0432L29.3958 22.0432C30.8295 20.6097 32.2641 19.2724 33.6584 18.0591M26.8282 24.7211L26.1446 24.4025L12.4063 17.9986L11.7414 15.0418C10.5592 14.9103 10.7875 17.8815 12.162 18.5225L25.3531 24.6713C25.3921 24.6276 25.4309 24.5841 25.4696 24.5409L25.9004 24.9265L25.6561 25.4504L25.4994 25.3774C22.9031 28.3165 19.6147 32.4195 18.361 35.6023L12.3362 34.933M33.6584 18.0591L33.4143 18.032L27.1389 17.3345L25.9439 17.2017L26.7939 16.3513L27.5226 15.6221L27.193 15.2924M12.7026 35.5554C12.6782 35.5046 12.6596 35.439 12.6532 35.3745C12.6477 35.3196 12.6534 35.2943 12.6529 35.2942C12.6527 35.2941 12.651 35.2999 12.6458 35.3111C12.6357 35.3333 12.6035 35.3922 12.528 35.4428C12.4437 35.4993 12.3492 35.516 12.2735 35.5078L12.7026 35.5554ZM12.7026 35.5554C12.7051 35.5607 12.7077 35.5657 12.7103 35.5707C12.7228 35.594 12.7326 35.6065 12.7375 35.612C12.733 35.6099 12.7284 35.6078 12.7239 35.6057L12.4797 36.1297C12.007 35.9093 11.9289 34.8886 12.3362 34.933M12.3362 34.933L12.2723 35.5076L12.2734 35.5078L12.3362 34.933Z" stroke="white" stroke-width="1.15625"/>
</svg>
