<svg width="59" height="58" viewBox="0 0 59 58" fill="none" xmlns="http://www.w3.org/2000/svg">
<circle cx="29.5" cy="29" r="28.4219" stroke="white" stroke-width="1.15625"/>
<g clip-path="url(#clip0_359_7305)">
<path d="M48.3499 26.8828L47.1846 22.3251C47.5032 22.2589 47.7422 21.9826 47.7422 21.6514V20.9166C47.7422 19.3211 46.4147 18.0231 44.783 18.0231H39.4751V16.5073C39.4751 15.7222 38.8219 15.0835 38.0189 15.0835H10.9625C10.1595 15.0835 9.5063 15.7222 9.5063 16.5073V29C9.5063 29.3805 9.82174 29.689 10.2109 29.689C10.6 29.689 10.9155 29.3806 10.9155 29V16.5073C10.9155 16.482 10.9365 16.4614 10.9625 16.4614H38.0188C38.0447 16.4614 38.0657 16.482 38.0657 16.5073V29.0002C38.0657 29.3807 38.3812 29.6892 38.7704 29.6892C39.1595 29.6892 39.475 29.3807 39.475 29.0002V28.2192H47.7867C47.7874 28.2192 47.7879 28.2194 47.7886 28.2194C47.7893 28.2194 47.7899 28.2193 47.7905 28.2193C48.8133 28.22 49.6817 28.8764 49.98 29.7809H47.7891C47.4 29.7809 47.0845 30.0893 47.0845 30.4698V31.9395C47.0845 33.1299 48.0748 34.0982 49.2922 34.0982H50.0908V37.1295H48.2484C47.6432 35.4208 45.982 34.19 44.0312 34.19C42.0805 34.19 40.4192 35.4208 39.8141 37.1295H39.4748V31.9395C39.4748 31.559 39.1594 31.2505 38.7702 31.2505C38.3811 31.2505 38.0656 31.5589 38.0656 31.9395V37.1293H23.4469C22.8417 35.4206 21.1805 34.1898 19.2297 34.1898C17.279 34.1898 15.6177 35.4206 15.0126 37.1293H10.9625C10.9365 37.1293 10.9155 37.1088 10.9155 37.0834V35.5677H13.9688C14.3579 35.5677 14.6734 35.2593 14.6734 34.8788C14.6734 34.4982 14.358 34.1898 13.9688 34.1898H7.20471C6.81562 34.1898 6.50009 34.4982 6.50009 34.8788C6.50009 35.2593 6.81553 35.5677 7.20471 35.5677H9.50639V37.0834C9.50639 37.8685 10.1596 38.5072 10.9626 38.5072H14.7686C14.7684 38.5225 14.7673 38.5377 14.7673 38.5531C14.7673 40.959 16.7692 42.9163 19.2297 42.9163C21.6902 42.9163 23.6921 40.959 23.6921 38.5531C23.6921 38.5376 23.6911 38.5225 23.6909 38.5072H39.5701C39.5699 38.5225 39.5689 38.5377 39.5689 38.5531C39.5689 40.959 41.5707 42.9163 44.0312 42.9163C46.4917 42.9163 48.4936 40.959 48.4936 38.5531C48.4936 38.5376 48.4926 38.5225 48.4924 38.5072H50.7954C51.1845 38.5072 51.5 38.1988 51.5 37.8183V30.4697C51.5001 28.6554 50.131 27.1479 48.3499 26.8828ZM39.4751 19.4009H44.783C45.6377 19.4009 46.3331 20.0808 46.3331 20.9166V20.9625H39.4751V19.4009ZM39.4751 26.8414V22.3403H45.736L46.8868 26.8414H39.4751ZM19.2297 41.5387C17.5462 41.5387 16.1765 40.1995 16.1765 38.5533C16.1765 36.9071 17.5462 35.5679 19.2297 35.5679C20.9133 35.5679 22.283 36.9071 22.283 38.5533C22.283 40.1995 20.9133 41.5387 19.2297 41.5387ZM44.0314 41.5387C42.3479 41.5387 40.9782 40.1995 40.9782 38.5533C40.9782 36.9071 42.3479 35.5679 44.0314 35.5679C45.715 35.5679 47.0846 36.9071 47.0846 38.5533C47.0846 40.1995 45.715 41.5387 44.0314 41.5387ZM50.0909 32.7203H49.2924C48.852 32.7203 48.4938 32.37 48.4938 31.9395V31.1586H50.0909V32.7203H50.0909Z" fill="white"/>
<path d="M19.2297 37.1294C18.4267 37.1294 17.7735 37.7681 17.7735 38.5532C17.7735 39.3383 18.4267 39.977 19.2297 39.977C20.0327 39.977 20.6859 39.3383 20.6859 38.5532C20.6859 37.7681 20.0327 37.1294 19.2297 37.1294Z" fill="white"/>
<path d="M44.0315 37.1294C43.2285 37.1294 42.5753 37.7681 42.5753 38.5532C42.5753 39.3383 43.2285 39.977 44.0315 39.977C44.8344 39.977 45.4876 39.3383 45.4876 38.5532C45.4876 37.7681 44.8344 37.1294 44.0315 37.1294Z" fill="white"/>
<path d="M35.7641 34.1902H25.2422C24.8531 34.1902 24.5376 34.4986 24.5376 34.8791C24.5376 35.2597 24.853 35.5681 25.2422 35.5681H35.7641C36.1532 35.5681 36.4687 35.2597 36.4687 34.8791C36.4687 34.4986 36.1533 34.1902 35.7641 34.1902Z" fill="white"/>
<path d="M17.7266 31.2505H8.70776C8.31867 31.2505 8.00314 31.5589 8.00314 31.9394C8.00314 32.32 8.31858 32.6284 8.70776 32.6284H17.7266C18.1157 32.6284 18.4312 32.32 18.4312 31.9394C18.4312 31.5589 18.1157 31.2505 17.7266 31.2505Z" fill="white"/>
</g>
<defs>
<clipPath id="clip0_359_7305">
<rect width="45" height="44" fill="white" transform="translate(6.50006 7)"/>
</clipPath>
</defs>
</svg>
