<?xml version="1.0" encoding="UTF-8"?>
<svg version="1.1" xmlns="http://www.w3.org/2000/svg" width="233" height="232">
<path d="M0 0 C19.75333047 16.93979972 33.20379381 36.48390532 40.3125 61.6875 C40.6321875 62.7496875 40.951875 63.811875 41.28125 64.90625 C48.55387705 93.72740166 42.99768037 126.22436317 27.9375 151.625 C11.56069342 178.10303196 -12.82910954 196.26590269 -42.6875 204.6875 C-43.7496875 205.0071875 -44.811875 205.326875 -45.90625 205.65625 C-76.36736747 213.3427002 -108.30159629 206.41812468 -134.8984375 190.79248047 C-160.36760895 175.06193052 -177.6319917 150.24793853 -185.6875 121.6875 C-186.0071875 120.6253125 -186.326875 119.563125 -186.65625 118.46875 C-194.3427002 88.00763253 -187.41812468 56.07340371 -171.79248047 29.4765625 C-156.06193052 4.00739105 -131.24793853 -13.2569917 -102.6875 -21.3125 C-101.6253125 -21.6321875 -100.563125 -21.951875 -99.46875 -22.28125 C-65.18748343 -30.93166306 -27.43781789 -21.67587614 0 0 Z M-153.1875 13.75 C-174.3047581 35.40949868 -184.829371 64.67253109 -184.6875 94.6875 C-183.44207675 125.79047852 -169.96716147 153.3295651 -147.81640625 174.92578125 C-126.08186466 194.67998658 -96.56498739 204.76372643 -67.35839844 203.59423828 C-36.72729348 201.56211962 -8.75798035 188.06084889 11.92431641 165.30517578 C31.11634177 142.94035692 41.01669693 113.45235985 39.06640625 84.0546875 C36.42686399 53.73719662 22.52212231 25.60448045 -0.6875 5.6875 C-47.36637452 -31.68380437 -110.38234932 -26.7479227 -153.1875 13.75 Z " fill="#FFFFFF" transform="translate(189.6875,24.3125)"/>
<path d="M0 0 C4.52904055 3.08981211 6.47931903 6.97870373 7.7578125 12.19921875 C7.7871851 14.19900305 7.79118755 16.19949724 7.7578125 18.19921875 C9.0365625 18.1528125 10.3153125 18.10640625 11.6328125 18.05859375 C13.34112229 18.02104848 15.04945758 17.9846513 16.7578125 17.94921875 C17.59699219 17.91570313 18.43617188 17.8821875 19.30078125 17.84765625 C26.33948093 17.73852912 31.49221182 19.31780639 36.81640625 24.015625 C37.27144531 24.59183594 37.72648437 25.16804688 38.1953125 25.76171875 C38.66839844 26.34050781 39.14148438 26.91929688 39.62890625 27.515625 C42.16567056 31.29882714 41.88835444 35.13096816 41.85546875 39.4921875 C41.8540538 40.19821609 41.85263885 40.90424469 41.85118103 41.63166809 C41.84559014 43.88339501 41.83303938 46.13502196 41.8203125 48.38671875 C41.81529632 49.9147121 41.81073362 51.44270702 41.80664062 52.97070312 C41.7956237 56.7135801 41.77836537 60.45638248 41.7578125 64.19921875 C42.52738281 64.47121094 43.29695313 64.74320312 44.08984375 65.0234375 C48.45565608 66.94746314 50.75891168 70.43925064 53.0703125 74.51171875 C55.2004959 82.8387993 53.01727659 91.40471281 51.3828125 99.63671875 C51.16109375 100.81943359 50.939375 102.00214844 50.7109375 103.22070312 C49.01325959 111.94377166 49.01325959 111.94377166 46.7578125 114.19921875 C44.1328125 113.82421875 44.1328125 113.82421875 41.7578125 113.19921875 C40.83896604 109.53732732 40.78016304 106.86947481 41.53515625 103.1796875 C41.71884766 102.23931641 41.90253906 101.29894531 42.09179688 100.33007812 C42.29095703 99.35876953 42.49011719 98.38746094 42.6953125 97.38671875 C45.31170139 86.32268489 45.31170139 86.32268489 43.64453125 75.36328125 C41.1698221 72.52479497 39.13736063 71.80150501 35.5703125 70.57421875 C34.90974854 70.34331543 34.24918457 70.11241211 33.56860352 69.87451172 C31.96983396 69.31846309 30.36820191 68.77061381 28.76464844 68.22851562 C25.81362127 67.21832315 22.87591678 66.17611133 19.93922424 65.12521362 C17.08338249 64.1050593 14.22365584 63.09610429 11.36312866 62.08917236 C9.92492616 61.58167628 8.48775557 61.07124572 7.05166626 60.55780029 C4.99772766 59.82578988 2.93915487 59.10855904 0.87890625 58.39453125 C-0.3232251 57.97187988 -1.52535645 57.54922852 -2.76391602 57.11376953 C-10.47070383 55.08740418 -16.29321854 56.87995202 -23.59375 59.375 C-24.57080902 59.70082565 -25.54786804 60.02665131 -26.55453491 60.36235046 C-28.61193153 61.0509343 -30.66762453 61.74462691 -32.72167969 62.44311523 C-35.85983685 63.50922156 -39.0035072 64.5575806 -42.1484375 65.60351562 C-44.15139163 66.27630278 -46.15400782 66.95009701 -48.15625 67.625 C-49.56108139 68.09393425 -49.56108139 68.09393425 -50.99429321 68.57234192 C-58.5755214 70.94546662 -58.5755214 70.94546662 -64.5546875 75.88671875 C-66.90894691 83.80559132 -64.18200146 92.49841088 -62.57617188 100.33007812 C-62.30063477 101.74063477 -62.30063477 101.74063477 -62.01953125 103.1796875 C-61.76030884 104.44655396 -61.76030884 104.44655396 -61.49584961 105.73901367 C-61.21664734 108.44692637 -61.58270775 110.57098504 -62.2421875 113.19921875 C-64.6171875 113.82421875 -64.6171875 113.82421875 -67.2421875 114.19921875 C-70.92677792 110.51462833 -70.93201525 104.62521024 -71.8671875 99.63671875 C-72.21136719 97.90325195 -72.21136719 97.90325195 -72.5625 96.13476562 C-75.87599269 78.76851374 -75.87599269 78.76851374 -71.5234375 70.99609375 C-69.44624689 68.08296058 -67.17991728 66.24285686 -64.2421875 64.19921875 C-63.5821875 64.19921875 -62.9221875 64.19921875 -62.2421875 64.19921875 C-62.25789795 63.26126465 -62.2736084 62.32331055 -62.28979492 61.35693359 C-62.34110715 57.8568767 -62.37862622 54.35722305 -62.40698242 50.85693359 C-62.42201293 49.34580148 -62.44244314 47.83471257 -62.46850586 46.32373047 C-62.50514439 44.14409688 -62.52197088 41.965043 -62.53515625 39.78515625 C-62.5508667 38.47595215 -62.56657715 37.16674805 -62.58276367 35.81787109 C-62.14481433 31.16462013 -60.72476266 27.84340163 -57.59375 24.37109375 C-57.02398437 23.901875 -56.45421875 23.43265625 -55.8671875 22.94921875 C-55.30257812 22.4696875 -54.73796875 21.99015625 -54.15625 21.49609375 C-48.71668441 17.81051054 -43.78934236 17.95091448 -37.4296875 18.07421875 C-36.54603516 18.08324219 -35.66238281 18.09226562 -34.75195312 18.1015625 C-32.58191391 18.12502238 -30.41201503 18.1608901 -28.2421875 18.19921875 C-28.21995117 17.17066772 -28.21995117 17.17066772 -28.19726562 16.12133789 C-27.97233053 9.31773692 -26.23710954 4.89039553 -21.2421875 0.19921875 C-13.92569316 -4.1364816 -7.24507767 -4.04871987 0 0 Z M-18.2421875 8.19921875 C-20.80446591 11.73760322 -20.2421875 13.38718264 -20.2421875 18.19921875 C-13.6421875 18.19921875 -7.0421875 18.19921875 -0.2421875 18.19921875 C-0.14813295 11.94935516 -0.14813295 11.94935516 -3.2421875 7.19921875 C-8.22643581 3.58993549 -13.59205481 4.58244888 -18.2421875 8.19921875 Z M-52.2421875 30.19921875 C-54.63330959 33.78590188 -54.47599777 35.36318444 -54.4375 39.6171875 C-54.43105469 40.87080078 -54.42460938 42.12441406 -54.41796875 43.41601562 C-54.40121094 44.72634766 -54.38445312 46.03667969 -54.3671875 47.38671875 C-54.35715389 48.72199862 -54.3480287 50.05728564 -54.33984375 51.39257812 C-54.31624042 54.6616389 -54.28331344 57.93033903 -54.2421875 61.19921875 C-53.17258789 60.84093994 -52.10298828 60.48266113 -51.00097656 60.11352539 C-47.02817953 58.78322114 -43.05471837 57.45491034 -39.08105469 56.12719727 C-37.36212305 55.552545 -35.64337139 54.97735405 -33.92480469 54.40161133 C-31.45294693 53.57361042 -28.98044598 52.74755606 -26.5078125 51.921875 C-25.35759613 51.5358889 -25.35759613 51.5358889 -24.18414307 51.1421051 C-14.05334651 47.76481888 -7.02792336 47.50431992 3.03515625 51.04296875 C3.88711075 51.33151733 4.73906525 51.62006592 5.61683655 51.9173584 C8.31368667 52.83331941 11.00448522 53.76573036 13.6953125 54.69921875 C16.41230057 55.62896098 19.13040987 56.55535767 21.84877014 57.4810791 C23.53477112 58.05663536 25.21973142 58.6352507 26.90354919 59.21716309 C30.25861895 60.59040089 30.25861895 60.59040089 33.7578125 61.19921875 C33.9033966 56.65789078 33.99198583 52.11716534 34.0703125 47.57421875 C34.11220703 46.28902344 34.15410156 45.00382812 34.19726562 43.6796875 C34.54385284 36.04189638 34.54385284 36.04189638 31.42578125 29.36328125 C27.26299705 25.98673301 24.11906452 26.06315336 18.90307617 26.0222168 C18.21001877 26.0156456 17.51696136 26.0090744 16.80290222 26.00230408 C14.51052742 25.9826023 12.21821802 25.97091561 9.92578125 25.9609375 C8.7496247 25.95482421 8.7496247 25.95482421 7.54970741 25.94858742 C3.39959604 25.92774014 -0.75048239 25.91343255 -4.90063477 25.90405273 C-9.18130208 25.89299 -13.46144933 25.85858831 -17.74193287 25.81888103 C-21.03884328 25.7927045 -24.33562993 25.78436002 -27.63263512 25.78077126 C-29.21025798 25.77590808 -30.78787542 25.76430166 -32.3653965 25.74573326 C-34.57710334 25.72131788 -36.78746652 25.7223103 -38.99926758 25.72924805 C-40.25596756 25.72338181 -41.51266754 25.71751556 -42.80744934 25.71147156 C-46.90882615 26.29388423 -49.04073267 27.6137679 -52.2421875 30.19921875 Z " fill="#FFFFFF" transform="translate(127.2421875,45.80078125)"/>
<path d="M0 0 C1.50399038 0.58570271 2.97971229 1.24475928 4.4375 1.9375 C12.43390464 5.22541996 18.97874914 4.84353045 27.0625 2 C38.30775615 -1.76180593 49.94992517 -0.93700512 61.2109375 2.3203125 C68.17308781 4.01697098 74.80059329 3.47400194 81.625 1.5 C93.28130792 -1.6928812 104.7276423 -0.89516392 116.0390625 3.09375 C121.40944058 4.73745411 127.02891102 5.26969614 132.28515625 3.0234375 C133.62511887 2.28708421 134.95571474 1.53326252 136.2734375 0.7578125 C138 0 138 0 141 0.75 C141.99 1.36875 141.99 1.36875 143 2 C142.9375 4.75 142.9375 4.75 142 8 C134.92632746 13.03319007 127.54478765 13.90901996 119 13 C115.82341297 12.25176904 112.69705162 11.34398759 109.5625 10.4375 C99.55758794 7.59567197 92.0557878 7.87663152 82 10.5625 C72.45248184 13.05422955 64.39231056 12.22652857 54.9375 9.9375 C44.97910954 7.55122865 37.84320415 8.09036368 28 11.0625 C18.61542131 13.87274542 9.99231585 14.35652569 1 10 C-1.625 8.125 -1.625 8.125 -3 6 C-2.875 3.3125 -2.875 3.3125 -2 1 C-1.34 0.67 -0.68 0.34 0 0 Z " fill="#FFFFFF" transform="translate(47,176)"/>
</svg>
