<svg width="375" height="576" viewBox="0 0 375 576" fill="none" xmlns="http://www.w3.org/2000/svg">
<g filter="url(#filter0_f_1910_9150)">
<circle cx="311" cy="426" r="100" fill="white" fill-opacity="0.1"/>
</g>
<g filter="url(#filter1_f_1910_9150)">
<circle cx="8" cy="334" r="100" fill="white" fill-opacity="0.1"/>
</g>
<g filter="url(#filter2_f_1910_9150)">
<circle cx="368" cy="199" r="100" fill="white" fill-opacity="0.1"/>
</g>
<g filter="url(#filter3_f_1910_9150)">
<circle cx="-6" cy="150" r="100" fill="white" fill-opacity="0.1"/>
</g>
<path d="M486 325C486 325 461.91 287.226 422.306 282.583C382.703 277.94 358.13 312.292 332.98 313.576C307.83 314.859 295.171 293.515 274.607 296.65C254.043 299.785 243.98 324.752 226.113 318.39C208.246 312.027 220.336 294.084 229.584 303.514C238.833 312.944 213.328 345.366 213.328 345.366" stroke="url(#paint0_linear_1910_9150)" stroke-width="2"/>
<defs>
<filter id="filter0_f_1910_9150" x="161" y="276" width="300" height="300" filterUnits="userSpaceOnUse" color-interpolation-filters="sRGB">
<feFlood flood-opacity="0" result="BackgroundImageFix"/>
<feBlend mode="normal" in="SourceGraphic" in2="BackgroundImageFix" result="shape"/>
<feGaussianBlur stdDeviation="25" result="effect1_foregroundBlur_1910_9150"/>
</filter>
<filter id="filter1_f_1910_9150" x="-142" y="184" width="300" height="300" filterUnits="userSpaceOnUse" color-interpolation-filters="sRGB">
<feFlood flood-opacity="0" result="BackgroundImageFix"/>
<feBlend mode="normal" in="SourceGraphic" in2="BackgroundImageFix" result="shape"/>
<feGaussianBlur stdDeviation="25" result="effect1_foregroundBlur_1910_9150"/>
</filter>
<filter id="filter2_f_1910_9150" x="218" y="49" width="300" height="300" filterUnits="userSpaceOnUse" color-interpolation-filters="sRGB">
<feFlood flood-opacity="0" result="BackgroundImageFix"/>
<feBlend mode="normal" in="SourceGraphic" in2="BackgroundImageFix" result="shape"/>
<feGaussianBlur stdDeviation="25" result="effect1_foregroundBlur_1910_9150"/>
</filter>
<filter id="filter3_f_1910_9150" x="-156" y="0" width="300" height="300" filterUnits="userSpaceOnUse" color-interpolation-filters="sRGB">
<feFlood flood-opacity="0" result="BackgroundImageFix"/>
<feBlend mode="normal" in="SourceGraphic" in2="BackgroundImageFix" result="shape"/>
<feGaussianBlur stdDeviation="25" result="effect1_foregroundBlur_1910_9150"/>
</filter>
<linearGradient id="paint0_linear_1910_9150" x1="168.33" y1="344.128" x2="481.218" y2="293.632" gradientUnits="userSpaceOnUse">
<stop stop-color="white" stop-opacity="0"/>
<stop offset="0.467564" stop-color="white"/>
<stop offset="0.88" stop-color="white" stop-opacity="0"/>
</linearGradient>
</defs>
</svg>
