<svg width="40" height="41" viewBox="0 0 40 41" fill="none" xmlns="http://www.w3.org/2000/svg">
<rect y="0.535156" width="40" height="40" rx="20" fill="white"/>
<g clip-path="url(#clip0_125_10923)">
<path d="M20 24.9102C22.4162 24.9102 24.375 22.9514 24.375 20.5352C24.375 18.1189 22.4162 16.1602 20 16.1602C17.5838 16.1602 15.625 18.1189 15.625 20.5352C15.625 22.9514 17.5838 24.9102 20 24.9102Z" stroke="#FF6720" stroke-width="2" stroke-miterlimit="10"/>
<path d="M25.25 10.0352H14.75C11.8505 10.0352 9.5 12.3857 9.5 15.2852V25.7852C9.5 28.6847 11.8505 31.0352 14.75 31.0352H25.25C28.1495 31.0352 30.5 28.6847 30.5 25.7852V15.2852C30.5 12.3857 28.1495 10.0352 25.25 10.0352Z" stroke="#FF6720" stroke-width="2" stroke-linecap="round" stroke-linejoin="round"/>
<path d="M25.6875 16.1602C26.4124 16.1602 27 15.5725 27 14.8477C27 14.1228 26.4124 13.5352 25.6875 13.5352C24.9626 13.5352 24.375 14.1228 24.375 14.8477C24.375 15.5725 24.9626 16.1602 25.6875 16.1602Z" fill="#FF6720"/>
</g>
<defs>
<clipPath id="clip0_125_10923">
<rect width="28" height="28" fill="white" transform="translate(6 6.53516)"/>
</clipPath>
</defs>
</svg>
