<svg width="110" height="110" viewBox="0 0 110 110" fill="none" xmlns="http://www.w3.org/2000/svg">
<circle cx="55" cy="55" r="53.5" stroke="white" stroke-width="3"/>
<circle cx="55" cy="55" r="50" fill="url(#paint0_linear_125_10777)"/>
<circle cx="55" cy="55" r="50" fill="white"/>
<path d="M72.5 65V62.5H69.8738C69.7128 61.7175 69.4021 60.9734 68.9587 60.3088L70.8212 58.4462L69.0537 56.6788L67.1912 58.5413C66.5266 58.0979 65.7825 57.7872 65 57.6262V55H62.5V57.6262C61.7175 57.7872 60.9734 58.0979 60.3088 58.5413L58.4462 56.6788L56.6788 58.4462L58.5413 60.3088C58.0979 60.9734 57.7872 61.7175 57.6262 62.5H55V65H57.6262C57.7887 65.7962 58.1062 66.5363 58.5413 67.1912L56.6788 69.0537L58.4462 70.8212L60.3088 68.9587C60.9734 69.4021 61.7175 69.7128 62.5 69.8738V72.5H65V69.8738C65.7825 69.7128 66.5266 69.4021 67.1912 68.9587L69.0537 70.8212L70.8212 69.0537L68.9587 67.1912C69.4021 66.5266 69.7128 65.7825 69.8738 65H72.5ZM63.75 67.5C61.6825 67.5 60 65.8175 60 63.75C60 61.6825 61.6825 60 63.75 60C65.8175 60 67.5 61.6825 67.5 63.75C67.5 65.8175 65.8175 67.5 63.75 67.5ZM50 42.5H55V45H50V42.5Z" fill="url(#paint1_linear_125_10777)"/>
<path d="M42.5 70V40H62.5V51.25H65V40C65 38.6212 63.8787 37.5 62.5 37.5H42.5C41.1212 37.5 40 38.6212 40 40V70C40 71.3787 41.1212 72.5 42.5 72.5H52.5V70H42.5Z" fill="url(#paint2_linear_125_10777)"/>
<defs>
<linearGradient id="paint0_linear_125_10777" x1="106.076" y1="10.5798" x2="0.440955" y2="19.2442" gradientUnits="userSpaceOnUse">
<stop stop-color="#FF3EB5"/>
<stop offset="1" stop-color="#FF6720"/>
</linearGradient>
<linearGradient id="paint1_linear_125_10777" x1="72.7422" y1="44.174" x2="48.9045" y2="45.6403" gradientUnits="userSpaceOnUse">
<stop stop-color="#FF3EB5"/>
<stop offset="1" stop-color="#FF6720"/>
</linearGradient>
<linearGradient id="paint2_linear_125_10777" x1="65.2691" y1="39.4529" x2="38.7735" y2="41.0052" gradientUnits="userSpaceOnUse">
<stop stop-color="#FF3EB5"/>
<stop offset="1" stop-color="#FF6720"/>
</linearGradient>
</defs>
</svg>
