<svg width="110" height="110" viewBox="0 0 110 110" fill="none" xmlns="http://www.w3.org/2000/svg">
<circle cx="55" cy="55" r="53.5" stroke="white" stroke-width="3"/>
<circle cx="55" cy="55" r="50" fill="url(#paint0_linear_125_10788)"/>
<circle cx="55" cy="55" r="50" fill="white"/>
<path d="M43.75 47.435V70H66.25V47.435L56.5825 39.525C56.1359 39.1598 55.5768 38.9604 55 38.9604C54.4232 38.9604 53.8641 39.1598 53.4175 39.525L43.75 47.435ZM58.165 37.59L68.29 45.875C68.4336 45.9921 68.5493 46.1396 68.6289 46.307C68.7085 46.4743 68.7498 46.6572 68.75 46.8425V71.25C68.75 71.5815 68.6183 71.8994 68.3839 72.1339C68.1495 72.3683 67.8315 72.5 67.5 72.5H42.5C42.1685 72.5 41.8505 72.3683 41.6161 72.1339C41.3817 71.8994 41.25 71.5815 41.25 71.25V46.8425C41.2499 46.6574 41.2909 46.4746 41.37 46.3073C41.4491 46.14 41.5644 45.9923 41.7075 45.875L51.8325 37.59C52.7258 36.8591 53.8445 36.4597 54.9987 36.4597C56.153 36.4597 57.2717 36.8591 58.165 37.59Z" fill="url(#paint1_linear_125_10788)"/>
<path d="M55 52.5C55.663 52.5 56.2989 52.2366 56.7678 51.7678C57.2366 51.2989 57.5 50.663 57.5 50C57.5 49.337 57.2366 48.7011 56.7678 48.2322C56.2989 47.7634 55.663 47.5 55 47.5C54.337 47.5 53.7011 47.7634 53.2322 48.2322C52.7634 48.7011 52.5 49.337 52.5 50C52.5 50.663 52.7634 51.2989 53.2322 51.7678C53.7011 52.2366 54.337 52.5 55 52.5ZM55 55C53.6739 55 52.4021 54.4732 51.4645 53.5355C50.5268 52.5979 50 51.3261 50 50C50 48.6739 50.5268 47.4021 51.4645 46.4645C52.4021 45.5268 53.6739 45 55 45C56.3261 45 57.5979 45.5268 58.5355 46.4645C59.4732 47.4021 60 48.6739 60 50C60 51.3261 59.4732 52.5979 58.5355 53.5355C57.5979 54.4732 56.3261 55 55 55Z" fill="url(#paint2_linear_125_10788)"/>
<defs>
<linearGradient id="paint0_linear_125_10788" x1="106.076" y1="10.5798" x2="0.440955" y2="19.2442" gradientUnits="userSpaceOnUse">
<stop stop-color="#FF3EB5"/>
<stop offset="1" stop-color="#FF6720"/>
</linearGradient>
<linearGradient id="paint1_linear_125_10788" x1="69.046" y1="38.4707" x2="39.9149" y2="40.2939" gradientUnits="userSpaceOnUse">
<stop stop-color="#FF3EB5"/>
<stop offset="1" stop-color="#FF6720"/>
</linearGradient>
<linearGradient id="paint2_linear_125_10788" x1="60.1076" y1="45.558" x2="49.5441" y2="46.4244" gradientUnits="userSpaceOnUse">
<stop stop-color="#FF3EB5"/>
<stop offset="1" stop-color="#FF6720"/>
</linearGradient>
</defs>
</svg>
