<svg width="110" height="110" viewBox="0 0 110 110" fill="none" xmlns="http://www.w3.org/2000/svg">
<circle cx="55" cy="55" r="53.5" stroke="white" stroke-width="3"/>
<circle cx="55" cy="55" r="50" fill="url(#paint0_linear_125_10766)"/>
<circle cx="55" cy="55" r="50" fill="white"/>
<path d="M55 57.5C53.7639 57.5 52.5555 57.1334 51.5277 56.4467C50.4999 55.7599 49.6988 54.7838 49.2258 53.6418C48.7527 52.4997 48.6289 51.2431 48.8701 50.0307C49.1113 48.8183 49.7065 47.7047 50.5806 46.8306C51.4547 45.9565 52.5683 45.3613 53.7807 45.1201C54.9931 44.8789 56.2497 45.0027 57.3918 45.4758C58.5338 45.9488 59.5099 46.7499 60.1967 47.7777C60.8834 48.8055 61.25 50.0139 61.25 51.25C61.248 52.907 60.5889 54.4956 59.4172 55.6672C58.2456 56.8389 56.657 57.498 55 57.5ZM55 47.5C54.2583 47.5 53.5333 47.7199 52.9166 48.132C52.2999 48.544 51.8193 49.1297 51.5355 49.8149C51.2516 50.5002 51.1774 51.2542 51.3221 51.9816C51.4668 52.709 51.8239 53.3772 52.3484 53.9017C52.8728 54.4261 53.541 54.7833 54.2684 54.9279C54.9958 55.0726 55.7498 54.9984 56.4351 54.7146C57.1203 54.4307 57.706 53.9501 58.118 53.3334C58.5301 52.7167 58.75 51.9917 58.75 51.25C58.749 50.2557 58.3536 49.3025 57.6506 48.5994C56.9475 47.8964 55.9943 47.501 55 47.5Z" fill="url(#paint1_linear_125_10766)"/>
<path d="M55 72.5L44.455 60.0638C44.3085 59.877 44.1635 59.6891 44.02 59.5C42.2187 57.1272 41.2456 54.229 41.25 51.25C41.25 47.6033 42.6987 44.1059 45.2773 41.5273C47.8559 38.9487 51.3533 37.5 55 37.5C58.6467 37.5 62.1441 38.9487 64.7227 41.5273C67.3013 44.1059 68.75 47.6033 68.75 51.25C68.7544 54.2277 67.7817 57.1246 65.9812 59.4963L65.98 59.5C65.98 59.5 65.605 59.9925 65.5487 60.0588L55 72.5ZM46.015 57.9938C46.0175 57.9938 46.3075 58.3787 46.3737 58.4612L55 68.635L63.6375 58.4475C63.6925 58.3787 63.985 57.9913 63.9862 57.99C65.4577 56.0514 66.2529 53.6838 66.25 51.25C66.25 48.2663 65.0647 45.4048 62.9549 43.295C60.8452 41.1853 57.9837 40 55 40C52.0163 40 49.1548 41.1853 47.045 43.295C44.9353 45.4048 43.75 48.2663 43.75 51.25C43.7474 53.6853 44.5422 56.0543 46.015 57.9938Z" fill="url(#paint2_linear_125_10766)"/>
<defs>
<linearGradient id="paint0_linear_125_10766" x1="106.076" y1="10.5798" x2="0.440955" y2="19.2442" gradientUnits="userSpaceOnUse">
<stop stop-color="#FF3EB5"/>
<stop offset="1" stop-color="#FF6720"/>
</linearGradient>
<linearGradient id="paint1_linear_125_10766" x1="61.3846" y1="45.6975" x2="48.1801" y2="46.7805" gradientUnits="userSpaceOnUse">
<stop stop-color="#FF3EB5"/>
<stop offset="1" stop-color="#FF6720"/>
</linearGradient>
<linearGradient id="paint2_linear_125_10766" x1="69.046" y1="39.4529" x2="39.9218" y2="41.3299" gradientUnits="userSpaceOnUse">
<stop stop-color="#FF3EB5"/>
<stop offset="1" stop-color="#FF6720"/>
</linearGradient>
</defs>
</svg>
