<svg width="41" height="40" viewBox="0 0 41 40" fill="none" xmlns="http://www.w3.org/2000/svg">
<g clip-path="url(#clip0_4436_6260)">
<g clip-path="url(#clip1_4436_6260)">
<path d="M36.6647 17.9864L35.6568 14.0446C35.9324 13.9874 36.1391 13.7484 36.1391 13.462V12.8265C36.1391 11.4466 34.9909 10.324 33.5797 10.324H28.9891V9.01302C28.9891 8.33399 28.4242 7.78162 27.7297 7.78162H4.32957C3.63511 7.78162 3.07018 8.33399 3.07018 9.01302V19.8176C3.07018 20.1466 3.34299 20.4134 3.67958 20.4134C4.01609 20.4134 4.28898 20.1467 4.28898 19.8176V9.01302C4.28898 8.9911 4.30715 8.97333 4.32957 8.97333H27.7297C27.7521 8.97333 27.7702 8.9911 27.7702 9.01302V19.8177C27.7702 20.1467 28.0431 20.4136 28.3796 20.4136C28.7162 20.4136 28.989 20.1468 28.989 19.8177V19.1422H36.1776C36.1782 19.1422 36.1786 19.1424 36.1792 19.1424C36.1798 19.1424 36.1803 19.1423 36.1808 19.1423C37.0654 19.1429 37.8165 19.7106 38.0745 20.4929H36.1796C35.8431 20.4929 35.5702 20.7596 35.5702 21.0887V22.3598C35.5702 23.3893 36.4267 24.2268 37.4796 24.2268H38.1703V26.8484H36.5769C36.0534 25.3706 34.6167 24.3062 32.9296 24.3062C31.2425 24.3062 29.8057 25.3706 29.2823 26.8484H28.9889V22.3597C28.9889 22.0307 28.7161 21.7639 28.3795 21.7639C28.043 21.7639 27.7701 22.0306 27.7701 22.3597V26.8483H15.1269C14.6035 25.3705 13.1668 24.306 11.4796 24.306C9.79252 24.306 8.35571 25.3705 7.83235 26.8483H4.32957C4.30715 26.8483 4.28898 26.8305 4.28898 26.8086V25.4977H6.92962C7.26613 25.4977 7.53902 25.231 7.53902 24.9019C7.53902 24.5728 7.2662 24.306 6.92962 24.306H1.07962C0.743103 24.306 0.470215 24.5728 0.470215 24.9019C0.470215 25.231 0.743027 25.4977 1.07962 25.4977H3.07026V26.8086C3.07026 27.4876 3.63519 28.04 4.32965 28.04H7.62134C7.62119 28.0532 7.62028 28.0664 7.62028 28.0797C7.62028 30.1605 9.35164 31.8533 11.4796 31.8533C13.6076 31.8533 15.339 30.1605 15.339 28.0797C15.339 28.0663 15.3381 28.0532 15.3379 28.04H29.0713C29.0711 28.0532 29.0702 28.0664 29.0702 28.0797C29.0702 30.1605 30.8016 31.8533 32.9296 31.8533C35.0576 31.8533 36.7889 30.1605 36.7889 28.0797C36.7889 28.0663 36.788 28.0532 36.7879 28.04H38.7797C39.1162 28.04 39.3891 27.7732 39.3891 27.4441V21.0886C39.3891 19.5194 38.2051 18.2157 36.6647 17.9864ZM28.9891 11.5156H33.5797C34.319 11.5156 34.9204 12.1037 34.9204 12.8265V12.8661H28.9891V11.5156ZM28.9891 17.9506V14.0578H34.4039L35.3993 17.9506H28.9891ZM11.4796 30.6618C10.0236 30.6618 8.839 29.5036 8.839 28.0798C8.839 26.6561 10.0236 25.4979 11.4796 25.4979C12.9357 25.4979 14.1203 26.6561 14.1203 28.0798C14.1203 29.5036 12.9357 30.6618 11.4796 30.6618ZM32.9297 30.6618C31.4737 30.6618 30.2891 29.5036 30.2891 28.0798C30.2891 26.6561 31.4737 25.4979 32.9297 25.4979C34.3858 25.4979 35.5704 26.6561 35.5704 28.0798C35.5704 29.5036 34.3858 30.6618 32.9297 30.6618ZM38.1704 23.0351H37.4798C37.0989 23.0351 36.7891 22.7321 36.7891 22.3597V21.6844H38.1703V23.0351H38.1704Z" fill="#FF6720"/>
<path d="M11.4796 26.8484C10.7851 26.8484 10.2202 27.4008 10.2202 28.0798C10.2202 28.7588 10.7851 29.3112 11.4796 29.3112C12.1741 29.3112 12.739 28.7588 12.739 28.0798C12.739 27.4008 12.1741 26.8484 11.4796 26.8484Z" fill="#FF6720"/>
<path d="M32.9298 26.8484C32.2353 26.8484 31.6704 27.4008 31.6704 28.0798C31.6704 28.7588 32.2353 29.3112 32.9298 29.3112C33.6243 29.3112 34.1892 28.7588 34.1892 28.0798C34.1892 27.4008 33.6243 26.8484 32.9298 26.8484Z" fill="#FF6720"/>
<path d="M25.7796 24.3063H16.6796C16.3431 24.3063 16.0702 24.573 16.0702 24.9021C16.0702 25.2312 16.343 25.498 16.6796 25.498H25.7796C26.1161 25.498 26.389 25.2312 26.389 24.9021C26.389 24.573 26.1162 24.3063 25.7796 24.3063Z" fill="#FF6720"/>
<path d="M10.1796 21.7639H2.37954C2.04303 21.7639 1.77014 22.0307 1.77014 22.3598C1.77014 22.6889 2.04295 22.9556 2.37954 22.9556H10.1796C10.5161 22.9556 10.789 22.6889 10.789 22.3598C10.789 22.0307 10.5161 21.7639 10.1796 21.7639Z" fill="#FF6720"/>
</g>
</g>
<defs>
<clipPath id="clip0_4436_6260">
<rect width="40" height="40" fill="white" transform="translate(0.5)"/>
</clipPath>
<clipPath id="clip1_4436_6260">
<rect width="38.9189" height="38.0541" fill="white" transform="translate(0.470215 0.790527)"/>
</clipPath>
</defs>
</svg>
