<svg width="31" height="30" viewBox="0 0 31 30" fill="none" xmlns="http://www.w3.org/2000/svg">
<mask id="path-1-inside-1_4454_12884" fill="white">
<path d="M26.9377 3.95481C26.5641 3.3476 25.9133 3 25.1513 3C24.7081 3 24.2521 3.1168 23.7961 3.3468C22.2541 4.12601 20.2914 5.53402 18.2318 7.31444L14.0534 6.85004L14.8106 6.09243L14.047 5.32842L12.6782 6.69683L8.32181 6.21323L9.2298 5.30522L8.46541 4.54081L6.94661 6.06043L3.75863 5.70603C2.97143 5.61842 3.12343 7.59684 4.03863 8.02365L13.1862 12.2877C11.423 14.2577 9.04461 17.1661 8.16621 19.3962L4.15463 18.9506C3.88343 18.921 3.93543 19.6006 4.25023 19.7474C6.27462 20.6906 7.33701 21.1862 7.89541 21.4466C7.90821 21.4886 7.92541 21.5286 7.94181 21.5686C7.17221 22.4978 6.73982 23.2026 6.89622 23.3578C7.05061 23.5118 7.75141 23.0818 8.67661 22.3146C8.71821 22.3322 8.76141 22.3494 8.80781 22.3642L10.5022 26.0006C10.6494 26.3158 11.3294 26.3666 11.2994 26.0962L10.8558 22.0958C12.8002 21.3182 15.4642 19.333 17.9694 17.0785L22.2249 26.2106C22.6521 27.1278 24.6313 27.2782 24.5437 26.4902L24.1893 23.3018L25.7081 21.7834L24.9437 21.019L24.0365 21.9266L23.5529 17.5697L24.9205 16.2025L24.1561 15.4377L23.3997 16.1945L22.9357 12.0181C24.7169 9.95847 26.1249 7.99565 26.9033 6.45363C27.3533 5.56042 27.3657 4.64962 26.9377 3.95481ZM26.2181 6.10803C25.1477 8.22885 22.7353 11.3401 19.6098 14.4649C16.2346 17.8409 12.879 20.381 10.7666 21.2998L10.6738 20.4606C12.2566 18.8438 13.3338 17.3801 13.1042 17.1473C12.8714 16.9161 11.4074 17.9941 9.7902 19.5774L8.94581 19.4834C9.867 17.3713 12.4126 14.0133 15.7858 10.6401C18.911 7.51524 22.0217 5.10282 24.1421 4.03161C24.5037 3.84961 24.8461 3.76721 25.1517 3.76721C26.2437 3.76681 26.8689 4.81722 26.2181 6.10803Z"/>
</mask>
<path d="M26.9377 3.95481C26.5641 3.3476 25.9133 3 25.1513 3C24.7081 3 24.2521 3.1168 23.7961 3.3468C22.2541 4.12601 20.2914 5.53402 18.2318 7.31444L14.0534 6.85004L14.8106 6.09243L14.047 5.32842L12.6782 6.69683L8.32181 6.21323L9.2298 5.30522L8.46541 4.54081L6.94661 6.06043L3.75863 5.70603C2.97143 5.61842 3.12343 7.59684 4.03863 8.02365L13.1862 12.2877C11.423 14.2577 9.04461 17.1661 8.16621 19.3962L4.15463 18.9506C3.88343 18.921 3.93543 19.6006 4.25023 19.7474C6.27462 20.6906 7.33701 21.1862 7.89541 21.4466C7.90821 21.4886 7.92541 21.5286 7.94181 21.5686C7.17221 22.4978 6.73982 23.2026 6.89622 23.3578C7.05061 23.5118 7.75141 23.0818 8.67661 22.3146C8.71821 22.3322 8.76141 22.3494 8.80781 22.3642L10.5022 26.0006C10.6494 26.3158 11.3294 26.3666 11.2994 26.0962L10.8558 22.0958C12.8002 21.3182 15.4642 19.333 17.9694 17.0785L22.2249 26.2106C22.6521 27.1278 24.6313 27.2782 24.5437 26.4902L24.1893 23.3018L25.7081 21.7834L24.9437 21.019L24.0365 21.9266L23.5529 17.5697L24.9205 16.2025L24.1561 15.4377L23.3997 16.1945L22.9357 12.0181C24.7169 9.95847 26.1249 7.99565 26.9033 6.45363C27.3533 5.56042 27.3657 4.64962 26.9377 3.95481ZM26.2181 6.10803C25.1477 8.22885 22.7353 11.3401 19.6098 14.4649C16.2346 17.8409 12.879 20.381 10.7666 21.2998L10.6738 20.4606C12.2566 18.8438 13.3338 17.3801 13.1042 17.1473C12.8714 16.9161 11.4074 17.9941 9.7902 19.5774L8.94581 19.4834C9.867 17.3713 12.4126 14.0133 15.7858 10.6401C18.911 7.51524 22.0217 5.10282 24.1421 4.03161C24.5037 3.84961 24.8461 3.76721 25.1517 3.76721C26.2437 3.76681 26.8689 4.81722 26.2181 6.10803Z" stroke="#FF6720" stroke-width="2" mask="url(#path-1-inside-1_4454_12884)"/>
</svg>
