<svg width="1440" height="757" viewBox="0 0 1440 757" fill="none" xmlns="http://www.w3.org/2000/svg">
    <path
        d="M1860 123.862C1860 123.862 1776.48 8.83759 1650.16 1.7068C1523.85 -5.42399 1452.59 108.072 1373.19 116.946C1293.78 125.821 1249.61 60.6447 1185.08 74.5058C1120.55 88.367 1093.46 169.363 1035.65 152.63C977.85 135.897 1012.71 76.757 1043.8 104.853C1074.9 132.95 1000.32 240.51 1000.32 240.51"
        stroke="#FF6720" stroke-width="2" />
    <path
        d="M171.159 946.471C171.159 946.471 246.413 794.357 207.311 738.991C168.21 683.625 59.7175 757.889 41.24 645.849C22.7625 533.808 -153 544.413 -153 544.413"
        stroke="#FF6720" stroke-width="2" />
</svg>
    