<svg width="28" height="28" viewBox="0 0 28 28" fill="none" xmlns="http://www.w3.org/2000/svg">
<path d="M11.667 24.5H16.3337C16.3337 25.1189 16.0878 25.7124 15.6503 26.15C15.2127 26.5875 14.6192 26.8334 14.0003 26.8334C13.3815 26.8334 12.788 26.5875 12.3504 26.15C11.9128 25.7124 11.667 25.1189 11.667 24.5ZM24.5003 22.1667V23.3334H3.50035V22.1667L5.83368 19.8334V12.8334C5.83368 9.21671 8.20201 6.03171 11.667 5.00504V4.66671C11.667 4.04787 11.9128 3.45438 12.3504 3.01679C12.788 2.57921 13.3815 2.33337 14.0003 2.33337C14.6192 2.33337 15.2127 2.57921 15.6503 3.01679C16.0878 3.45438 16.3337 4.04787 16.3337 4.66671V5.00504C19.7987 6.03171 22.167 9.21671 22.167 12.8334V19.8334L24.5003 22.1667ZM19.8337 12.8334C19.8337 11.2863 19.2191 9.80255 18.1251 8.70858C17.0312 7.61462 15.5474 7.00004 14.0003 7.00004C12.4533 7.00004 10.9695 7.61462 9.87556 8.70858C8.7816 9.80255 8.16701 11.2863 8.16701 12.8334V21H19.8337V12.8334ZM23.042 3.72171L21.3853 5.37837C22.3721 6.35303 23.1555 7.51387 23.6902 8.79358C24.225 10.0733 24.5003 11.4464 24.5003 12.8334H26.8337C26.8337 9.41504 25.4803 6.12504 23.042 3.72171ZM1.16701 12.8334H3.50035C3.50035 10.0334 4.62035 7.35004 6.61535 5.37837L4.95868 3.72171C3.75454 4.91354 2.79926 6.33279 2.14835 7.89699C1.49743 9.46119 1.16386 11.1391 1.16701 12.8334Z" fill="white"/>
</svg>
