<svg width="375" height="52" viewBox="0 0 375 52" fill="none" xmlns="http://www.w3.org/2000/svg">
<path d="M564.893 -27C564.893 -27 542.851 22.9408 495.922 35.8821C448.993 48.8234 412.946 12.0354 382.356 15.1596C351.766 18.2839 340.462 46.3257 315.062 46.37C289.662 46.4143 272.872 18.2296 252.495 29.2053C232.117 40.181 250.046 59.5348 259.452 46.467C268.858 33.3993 232.045 -0.892351 232.045 -0.892351" stroke="#FF6720" stroke-width="1.56891"/>
<path d="M-292.865 -27C-292.865 -27 -270.824 22.9408 -223.895 35.8821C-176.966 48.8234 -140.919 12.0354 -110.329 15.1596C-79.7389 18.2839 -68.4348 46.3257 -43.035 46.37C-17.6351 46.4143 -0.845116 18.2296 19.5326 29.2053C39.9104 40.181 21.9812 59.5348 12.5753 46.467C3.16931 33.3993 39.982 -0.892351 39.982 -0.892351" stroke="#FF6720" stroke-width="1.56891"/>
</svg>
