<svg width="40" height="40" viewBox="0 0 40 40" fill="none" xmlns="http://www.w3.org/2000/svg">
<path d="M20.2219 25.6733C20.9582 25.6733 21.6872 25.5283 22.3675 25.2465C23.0477 24.9648 23.6658 24.5518 24.1864 24.0311C24.707 23.5105 25.12 22.8924 25.4018 22.2122C25.6835 21.532 25.8286 20.8029 25.8286 20.0666C25.8286 19.3304 25.6835 18.6013 25.4018 17.9211C25.12 17.2408 24.707 16.6227 24.1864 16.1021C23.6658 15.5815 23.0477 15.1685 22.3675 14.8867C21.6872 14.605 20.9582 14.46 20.2219 14.46C18.7349 14.46 17.3088 15.0507 16.2574 16.1021C15.2059 17.1536 14.6152 18.5796 14.6152 20.0666C14.6152 21.5536 15.2059 22.9797 16.2574 24.0311C17.3088 25.0826 18.7349 25.6733 20.2219 25.6733Z" stroke="#FF6720" stroke-width="2" stroke-linecap="round" stroke-linejoin="round"/>
<path d="M34.9726 25.1567C34.3112 27.0552 33.2916 28.8091 31.9693 30.3234L28.4293 29.52C27.0869 30.7245 25.4917 31.6129 23.761 32.12L22.8043 35.585C21.9076 35.7461 20.9987 35.8292 20.0876 35.8334C18.9479 35.833 17.8119 35.7044 16.701 35.45L15.686 31.8734C14.1728 31.3167 12.7821 30.4716 11.591 29.385L8.09096 30.285C6.70124 28.6641 5.65917 26.7751 5.0293 24.735L7.61263 21.865C7.37631 20.3973 7.41531 18.8985 7.72763 17.445L5.1793 14.7867C5.91806 12.7006 7.09241 10.7956 8.6243 9.19837L12.241 10.0984C13.2366 9.29948 14.3461 8.654 15.5326 8.18337L16.4893 4.64337C17.6705 4.33549 18.8853 4.17482 20.106 4.16504C21.081 4.16504 22.056 4.25504 23.0143 4.43171L23.9326 7.95337C25.316 8.40171 26.6126 9.08671 27.7593 9.98171L31.396 9.04337C32.8643 10.5212 34.022 12.2779 34.801 14.21L32.3343 16.8884C32.8018 18.7238 32.8406 20.6422 32.4476 22.495L34.9726 25.1567Z" stroke="#FF6720" stroke-width="2" stroke-linecap="round" stroke-linejoin="round"/>
</svg>
