<svg width="41" height="40" viewBox="0 0 41 40" fill="none" xmlns="http://www.w3.org/2000/svg">
<path d="M8.5 28.6567L7.505 23.085C7.36458 22.2998 7.51035 21.4904 7.91585 20.8035C8.32136 20.1167 8.9597 19.598 9.715 19.3417L10 19.245M10 19.245L19.43 16.045C20.1239 15.8098 20.8761 15.8098 21.57 16.045L31 19.245M10 19.245V12.9117C10 12.0276 10.3512 11.1798 10.9763 10.5546C11.6014 9.92952 12.4493 9.57833 13.3333 9.57833H17.5M31 19.245L31.285 19.3417C32.0403 19.598 32.6786 20.1167 33.0841 20.8035C33.4896 21.4904 33.6354 22.2998 33.495 23.085L32.5 28.655M31 19.245V12.9117C31 12.0276 30.6488 11.1798 30.0237 10.5546C29.3986 9.92952 28.5507 9.57833 27.6667 9.57833H23.5M17.5 9.57833H23.5M17.5 9.57833V8C17.5 7.20435 17.8161 6.44129 18.3787 5.87868C18.9413 5.31607 19.7044 5 20.5 5C21.2956 5 22.0587 5.31607 22.6213 5.87868C23.1839 6.44129 23.5 7.20435 23.5 8V9.57833M5.5 33.9983C6.57833 35.0933 9.20333 35.4033 11.7083 34.3583C13.4283 33.6417 15.6017 33.6233 17.36 34.24C19.3956 34.9351 21.6044 34.9351 23.64 34.24C25.3983 33.6233 27.5717 33.64 29.29 34.3567C31.7967 35.4033 34.4233 35.0933 35.5 33.9967" stroke="white" stroke-width="1.73437" stroke-linecap="round" stroke-linejoin="round"/>
</svg>
