<svg width="16" height="17" viewBox="0 0 16 17" fill="none" xmlns="http://www.w3.org/2000/svg">
<path d="M3.3453 1.77966C3.29169 1.77962 3.23893 1.79305 3.19186 1.81872C3.1448 1.84438 3.10493 1.88145 3.07592 1.92654L1.3303 4.64654C1.29717 4.6982 1.2796 4.75829 1.27967 4.81966V4.92591C1.27396 4.96047 1.27396 4.99573 1.27967 5.03029V14.8997C1.27968 14.9845 1.3134 15.0659 1.37341 15.1259C1.43342 15.1859 1.51481 15.2197 1.59967 15.2197H14.3997C14.4845 15.2197 14.5659 15.1859 14.6259 15.1259C14.6859 15.0659 14.7197 14.9845 14.7197 14.8997V5.03341C14.7254 4.99886 14.7254 4.9636 14.7197 4.92904V4.81966C14.7197 4.75829 14.7022 4.6982 14.669 4.64654L12.9234 1.92654C12.8944 1.88145 12.8546 1.84438 12.8075 1.81872C12.7604 1.79305 12.7077 1.77962 12.654 1.77966H3.3453ZM3.5203 2.41966H12.479L13.9165 4.65966H9.59967C9.51481 4.65967 9.43342 4.69339 9.37341 4.7534C9.3134 4.81341 9.27968 4.8948 9.27967 4.97966C9.27967 5.69018 8.71019 6.25966 7.99967 6.25966C7.28915 6.25966 6.71967 5.69018 6.71967 4.97966C6.71967 4.8948 6.68595 4.81341 6.62594 4.7534C6.56593 4.69339 6.48454 4.65967 6.39967 4.65966H2.0828L3.5203 2.41966ZM1.91967 5.29966H6.14467C6.3032 6.19895 7.05652 6.89966 7.99967 6.89966C8.94283 6.89966 9.69615 6.19895 9.85467 5.29966H14.0797V14.5797H1.91967V5.29966ZM7.99467 7.85529C7.90991 7.85661 7.82914 7.89151 7.77009 7.95233C7.71103 8.01314 7.67851 8.0949 7.67967 8.17966V12.2072L6.30592 10.8334C6.2761 10.8028 6.24044 10.7784 6.20104 10.7618C6.16165 10.7451 6.11932 10.7365 6.07655 10.7365C6.01289 10.7366 5.95068 10.7556 5.89788 10.7911C5.84508 10.8267 5.80408 10.8772 5.78012 10.9361C5.75617 10.9951 5.75035 11.0599 5.76341 11.1222C5.77646 11.1845 5.80781 11.2415 5.85342 11.2859L7.7278 13.1603C7.75757 13.2054 7.79829 13.2423 7.84616 13.2674C7.89403 13.2926 7.94749 13.3052 8.00155 13.304C8.00197 13.304 8.00238 13.304 8.0028 13.304C8.00322 13.304 8.00363 13.304 8.00405 13.304C8.05738 13.3042 8.1099 13.291 8.15683 13.2657C8.20377 13.2403 8.24363 13.2037 8.2728 13.159L10.1459 11.2859C10.1922 11.241 10.2237 11.1831 10.2365 11.1199C10.2493 11.0567 10.2427 10.9911 10.2176 10.9317C10.1925 10.8723 10.15 10.8219 10.0957 10.7871C10.0414 10.7523 9.97788 10.7346 9.91342 10.7365C9.83029 10.739 9.75138 10.7738 9.69342 10.8334L8.31967 12.2072V8.17966C8.32026 8.13685 8.31225 8.09436 8.29612 8.05469C8.27998 8.01503 8.25606 7.97901 8.22575 7.94877C8.19545 7.91852 8.15938 7.89466 8.11969 7.8786C8.08 7.86255 8.03749 7.85462 7.99467 7.85529Z" fill="black"/>
</svg>
