<svg width="38" height="42" viewBox="0 0 38 42" fill="white" xmlns="http://www.w3.org/2000/svg">
<path d="M4.04002 0.759766V4.27977H0.52002V41.2398H37.48V11.3198H23.4V4.27977H19.88V0.759766H4.04002ZM5.80002 2.51977H18.12V6.03977H21.64V39.4798H13.72V33.3198H10.2V39.4798H2.28002V6.03977H5.80002V2.51977ZM5.80002 7.79977V9.55977H7.56002V7.79977H5.80002ZM9.32002 7.79977V9.55977H11.08V7.79977H9.32002ZM12.84 7.79977V9.55977H14.6V7.79977H12.84ZM16.36 7.79977V9.55977H18.12V7.79977H16.36ZM5.80002 12.1998V15.7198H7.56002V12.1998H5.80002ZM9.32002 12.1998V15.7198H11.08V12.1998H9.32002ZM12.84 12.1998V15.7198H14.6V12.1998H12.84ZM16.36 12.1998V15.7198H18.12V12.1998H16.36ZM23.4 13.0798H35.72V39.4798H23.4V13.0798ZM25.16 14.8398V16.5998H26.92V14.8398H25.16ZM28.68 14.8398V16.5998H30.44V14.8398H28.68ZM32.2 14.8398V16.5998H33.96V14.8398H32.2ZM5.80002 17.4798V20.9998H7.56002V17.4798H5.80002ZM9.32002 17.4798V20.9998H11.08V17.4798H9.32002ZM12.84 17.4798V20.9998H14.6V17.4798H12.84ZM16.36 17.4798V20.9998H18.12V17.4798H16.36ZM25.16 18.3598V20.1198H26.92V18.3598H25.16ZM28.68 18.3598V20.1198H30.44V18.3598H28.68ZM32.2 18.3598V20.1198H33.96V18.3598H32.2ZM25.16 21.8798V23.6398H26.92V21.8798H25.16ZM28.68 21.8798V23.6398H30.44V21.8798H28.68ZM32.2 21.8798V23.6398H33.96V21.8798H32.2ZM5.80002 22.7598V26.2798H7.56002V22.7598H5.80002ZM9.32002 22.7598V26.2798H11.08V22.7598H9.32002ZM12.84 22.7598V26.2798H14.6V22.7598H12.84ZM16.36 22.7598V26.2798H18.12V22.7598H16.36ZM25.16 25.3998V27.1598H26.92V25.3998H25.16ZM28.68 25.3998V27.1598H30.44V25.3998H28.68ZM32.2 25.3998V27.1598H33.96V25.3998H32.2ZM5.80002 28.0398V31.5598H7.56002V28.0398H5.80002ZM9.32002 28.0398V31.5598H11.08V28.0398H9.32002ZM12.84 28.0398V31.5598H14.6V28.0398H12.84ZM16.36 28.0398V31.5598H18.12V28.0398H16.36ZM25.16 28.9198V30.6798H26.92V28.9198H25.16ZM28.68 28.9198V30.6798H30.44V28.9198H28.68ZM32.2 28.9198V30.6798H33.96V28.9198H32.2ZM25.16 32.4398V34.1998H26.92V32.4398H25.16ZM28.68 32.4398V34.1998H30.44V32.4398H28.68ZM32.2 32.4398V34.1998H33.96V32.4398H32.2ZM5.80002 33.3198V37.7198H7.56002V33.3198H5.80002ZM16.36 33.3198V37.7198H18.12V33.3198H16.36ZM25.16 35.9598V37.7198H26.92V35.9598H25.16ZM28.68 35.9598V37.7198H30.44V35.9598H28.68ZM32.2 35.9598V37.7198H33.96V35.9598H32.2Z" fill="whi"/>
</svg>
