<svg width="27" height="14" viewBox="0 0 27 14" fill="none" xmlns="http://www.w3.org/2000/svg">
    <path fill-rule="evenodd" clip-rule="evenodd" d="M26.5682 6.7427C26.7065 6.88117 26.7842 7.06886 26.7842 7.26455C26.7842 7.46024 26.7065 7.64793 26.5682 7.7864L20.6605 13.6941C20.5929 13.7666 20.5114 13.8248 20.4208 13.8652C20.3302 13.9056 20.2324 13.9273 20.1333 13.929C20.0341 13.9308 19.9356 13.9125 19.8437 13.8754C19.7517 13.8382 19.6682 13.783 19.5981 13.7128C19.528 13.6427 19.4727 13.5592 19.4355 13.4672C19.3984 13.3753 19.3802 13.2768 19.3819 13.1776C19.3837 13.0785 19.4054 12.9807 19.4457 12.8901C19.4861 12.7995 19.5443 12.718 19.6168 12.6504L24.2642 8.00301L1.43098 8.00301C1.23513 8.00301 1.0473 7.92521 0.908813 7.78672C0.770325 7.64823 0.692524 7.4604 0.692524 7.26455C0.692524 7.0687 0.770325 6.88087 0.908813 6.74238C1.0473 6.60389 1.23513 6.52609 1.43098 6.52609L24.2642 6.52609L19.6168 1.8787C19.5443 1.8111 19.4861 1.72957 19.4457 1.63899C19.4054 1.5484 19.3837 1.45062 19.3819 1.35146C19.3802 1.25231 19.3984 1.15382 19.4355 1.06187C19.4727 0.969918 19.528 0.886389 19.5981 0.816266C19.6682 0.746143 19.7517 0.690862 19.8437 0.653721C19.9356 0.61658 20.0341 0.598341 20.1333 0.600091C20.2324 0.60184 20.3302 0.623542 20.4208 0.663904C20.5114 0.704265 20.5929 0.762458 20.6605 0.835011L26.5682 6.7427Z" fill="white"/>
</svg>
