<svg width="34" height="36" viewBox="0 0 34 36" fill="none" xmlns="http://www.w3.org/2000/svg">
<path d="M3.64286 0V3.13043H0.5V36H33.5V9.3913H20.9286V3.13043H17.7857V0H3.64286ZM5.21429 1.56522H16.2143V4.69565H19.3571V34.4348H12.2857V28.9565H9.14286V34.4348H2.07143V4.69565H5.21429V1.56522ZM5.21429 6.26087V7.82609H6.78571V6.26087H5.21429ZM8.35714 6.26087V7.82609H9.92857V6.26087H8.35714ZM11.5 6.26087V7.82609H13.0714V6.26087H11.5ZM14.6429 6.26087V7.82609H16.2143V6.26087H14.6429ZM5.21429 10.1739V13.3043H6.78571V10.1739H5.21429ZM8.35714 10.1739V13.3043H9.92857V10.1739H8.35714ZM11.5 10.1739V13.3043H13.0714V10.1739H11.5ZM14.6429 10.1739V13.3043H16.2143V10.1739H14.6429ZM20.9286 10.9565H31.9286V34.4348H20.9286V10.9565ZM22.5 12.5217V14.087H24.0714V12.5217H22.5ZM25.6429 12.5217V14.087H27.2143V12.5217H25.6429ZM28.7857 12.5217V14.087H30.3571V12.5217H28.7857ZM5.21429 14.8696V18H6.78571V14.8696H5.21429ZM8.35714 14.8696V18H9.92857V14.8696H8.35714ZM11.5 14.8696V18H13.0714V14.8696H11.5ZM14.6429 14.8696V18H16.2143V14.8696H14.6429ZM22.5 15.6522V17.2174H24.0714V15.6522H22.5ZM25.6429 15.6522V17.2174H27.2143V15.6522H25.6429ZM28.7857 15.6522V17.2174H30.3571V15.6522H28.7857ZM22.5 18.7826V20.3478H24.0714V18.7826H22.5ZM25.6429 18.7826V20.3478H27.2143V18.7826H25.6429ZM28.7857 18.7826V20.3478H30.3571V18.7826H28.7857ZM5.21429 19.5652V22.6957H6.78571V19.5652H5.21429ZM8.35714 19.5652V22.6957H9.92857V19.5652H8.35714ZM11.5 19.5652V22.6957H13.0714V19.5652H11.5ZM14.6429 19.5652V22.6957H16.2143V19.5652H14.6429ZM22.5 21.913V23.4783H24.0714V21.913H22.5ZM25.6429 21.913V23.4783H27.2143V21.913H25.6429ZM28.7857 21.913V23.4783H30.3571V21.913H28.7857ZM5.21429 24.2609V27.3913H6.78571V24.2609H5.21429ZM8.35714 24.2609V27.3913H9.92857V24.2609H8.35714ZM11.5 24.2609V27.3913H13.0714V24.2609H11.5ZM14.6429 24.2609V27.3913H16.2143V24.2609H14.6429ZM22.5 25.0435V26.6087H24.0714V25.0435H22.5ZM25.6429 25.0435V26.6087H27.2143V25.0435H25.6429ZM28.7857 25.0435V26.6087H30.3571V25.0435H28.7857ZM22.5 28.1739V29.7391H24.0714V28.1739H22.5ZM25.6429 28.1739V29.7391H27.2143V28.1739H25.6429ZM28.7857 28.1739V29.7391H30.3571V28.1739H28.7857ZM5.21429 28.9565V32.8696H6.78571V28.9565H5.21429ZM14.6429 28.9565V32.8696H16.2143V28.9565H14.6429ZM22.5 31.3043V32.8696H24.0714V31.3043H22.5ZM25.6429 31.3043V32.8696H27.2143V31.3043H25.6429ZM28.7857 31.3043V32.8696H30.3571V31.3043H28.7857Z" fill="black"/>
</svg>
