<svg width="16" height="13" viewBox="0 0 16 13" fill="none" xmlns="http://www.w3.org/2000/svg">
<mask id="mask0_5118_6647" style="mask-type:luminance" maskUnits="userSpaceOnUse" x="0" y="0" width="16" height="13">
<path d="M0 0.5H16V12.5H0V0.5Z" fill="white"/>
</mask>
<g mask="url(#mask0_5118_6647)">
<path d="M0 0.5H16V12.5H0V0.5Z" fill="white"/>
<path fill-rule="evenodd" clip-rule="evenodd" d="M0 0.5V12.5H16V0.5H0Z" fill="#2E42A5"/>
<mask id="mask1_5118_6647" style="mask-type:luminance" maskUnits="userSpaceOnUse" x="0" y="0" width="16" height="13">
<path fill-rule="evenodd" clip-rule="evenodd" d="M0 0.5V12.5H16V0.5H0Z" fill="white"/>
</mask>
<g mask="url(#mask1_5118_6647)">
<path d="M-1.78125 11.6424L1.73975 13.1319L16.0798 2.11895L17.9373 -0.0940527L14.1722 -0.591553L8.32325 4.15395L3.61525 7.35195L-1.78125 11.6424Z" fill="white"/>
<path d="M-1.29883 12.6859L0.495672 13.5499L17.2712 -0.299561H14.7527L-1.29833 12.6854L-1.29883 12.6859Z" fill="#46474C"/>
<path d="M17.781 11.6424L14.26 13.1319L-0.0799999 2.11895L-1.9375 -0.0940527L1.8275 -0.591553L7.6765 4.15395L12.3845 7.35195L17.781 11.6424Z" fill="white"/>
<path d="M17.6623 12.3913L15.8683 13.2553L8.72527 7.32533L6.60727 6.66333L-2.11523 -0.0866699H0.403766L9.12077 6.50333L11.4363 7.29733L17.6623 12.3913Z" fill="#46474C"/>
<path fill-rule="evenodd" clip-rule="evenodd" d="M9.89062 -0.5H6.11263V4.5H-0.984375V8.5H6.11263V13.5H9.89062V8.5H17.0156V4.5H9.89062V-0.5Z" fill="#46474C"/>
<mask id="mask2_5118_6647" style="mask-type:luminance" maskUnits="userSpaceOnUse" x="-1" y="-1" width="19" height="15">
<path fill-rule="evenodd" clip-rule="evenodd" d="M9.89062 -0.5H6.11263V4.5H-0.984375V8.5H6.11263V13.5H9.89062V8.5H17.0156V4.5H9.89062V-0.5Z" fill="white"/>
</mask>
<g mask="url(#mask2_5118_6647)">
<path d="M6.11263 -0.5V-1.5H5.11263V-0.5H6.11263ZM9.89062 -0.5H10.8906V-1.5H9.89062V-0.5ZM6.11263 4.5V5.5H7.11263V4.5H6.11263ZM-0.984375 4.5V3.5H-1.98438V4.5H-0.984375ZM-0.984375 8.5H-1.98438V9.5H-0.984375V8.5ZM6.11263 8.5H7.11263V7.5H6.11263V8.5ZM6.11263 13.5H5.11263V14.5H6.11263V13.5ZM9.89062 13.5V14.5H10.8906V13.5H9.89062ZM9.89062 8.5V7.5H8.89062V8.5H9.89062ZM17.0156 8.5V9.5H18.0156V8.5H17.0156ZM17.0156 4.5H18.0156V3.5H17.0156V4.5ZM9.89062 4.5H8.89062V5.5H9.89062V4.5ZM6.11263 0.5H9.89062V-1.5H6.11263V0.5ZM7.11263 4.5V-0.5H5.11263V4.5H7.11263ZM-0.984375 5.5H6.11263V3.5H-0.984375V5.5ZM0.015625 8.5V4.5H-1.98438V8.5H0.015625ZM6.11263 7.5H-0.984375V9.5H6.11263V7.5ZM7.11263 13.5V8.5H5.11263V13.5H7.11263ZM9.89062 12.5H6.11263V14.5H9.89062V12.5ZM8.89062 8.5V13.5H10.8906V8.5H8.89062ZM17.0156 7.5H9.89062V9.5H17.0156V7.5ZM16.0156 4.5V8.5H18.0156V4.5H16.0156ZM9.89062 5.5H17.0156V3.5H9.89062V5.5ZM8.89062 -0.5V4.5H10.8906V-0.5H8.89062Z" fill="white"/>
</g>
</g>
</g>
</svg>
