<svg width="21" height="21" viewBox="0 0 21 21" fill="none" xmlns="http://www.w3.org/2000/svg">
<path d="M4.68288 5.41836L5.24988 7.83336L4.68288 10.2379L6.79338 11.5399L8.08488 13.6504L10.4999 13.0834L12.9149 13.6504L14.2064 11.5399L16.3169 10.2379L15.7499 7.83336L16.3169 5.41836L14.2169 4.11636L12.9149 2.00586L10.4999 2.58336L8.09538 2.01636L6.78288 4.11636L4.68288 5.41836ZM10.5104 12.0754C9.39647 12.0754 8.32819 11.6329 7.54053 10.8452C6.75288 10.0576 6.31038 8.98927 6.31038 7.87536C6.31038 6.76145 6.75288 5.69316 7.54053 4.90551C8.32819 4.11786 9.39647 3.67536 10.5104 3.67536C12.8204 3.67536 14.6999 5.55486 14.6999 7.86486C14.6999 10.1959 12.8204 12.0754 10.5104 12.0754ZM10.4894 11.0254C8.74638 11.0254 7.34988 9.61836 7.34988 7.87536C7.34988 6.14286 8.74638 4.72536 10.4894 4.72536C12.2324 4.72536 13.6499 6.14286 13.6499 7.87536C13.6499 9.61836 12.2324 11.0254 10.4894 11.0254ZM14.5214 12.1804L13.1774 14.5324L10.9934 14.0389L13.6499 20.1604L15.1199 17.8504H17.7449L14.5214 12.1804ZM6.43638 12.2539L7.74888 14.6164L9.98538 14.0809L7.34988 20.1604L5.87988 17.8504H3.25488L6.43638 12.2539Z" fill="#417FAE"/>
</svg>
