<svg width="20" height="20" viewBox="0 0 20 20" fill="none" xmlns="http://www.w3.org/2000/svg">
<path d="M9.39904 16.161L16.795 8.76503C15.5507 8.2455 14.4206 7.48645 13.469 6.53103C12.5132 5.57924 11.7538 4.4488 11.234 3.20403L3.83804 10.6C3.26104 11.177 2.97204 11.466 2.72404 11.784C2.43115 12.1593 2.18 12.5654 1.97504 12.995C1.80204 13.359 1.67304 13.747 1.41504 14.521L0.0530424 18.604C-0.00964388 18.791 -0.0189443 18.9917 0.0261862 19.1836C0.0713167 19.3756 0.169089 19.5511 0.308514 19.6906C0.447938 19.83 0.623488 19.9278 0.815429 19.9729C1.00737 20.018 1.2081 20.0087 1.39504 19.946L5.47804 18.584C6.25304 18.326 6.64004 18.197 7.00404 18.024C7.43404 17.819 7.84004 17.568 8.21504 17.275C8.53304 17.027 8.82204 16.738 9.39904 16.161ZM18.847 6.71303C19.5845 5.97559 19.9988 4.97542 19.9988 3.93253C19.9988 2.88964 19.5845 1.88946 18.847 1.15203C18.1096 0.414591 17.1094 0.000305184 16.0665 0.000305176C15.0237 0.000305168 14.0235 0.414591 13.286 1.15203L12.399 2.03903L12.437 2.15003C12.8742 3.40074 13.5895 4.53593 14.529 5.47003C15.4911 6.43773 16.666 7.16713 17.96 7.60003L18.847 6.71303Z" fill="#FF6720"/>
</svg>
