<svg width="43" height="43" viewBox="0 0 43 43" fill="none" xmlns="http://www.w3.org/2000/svg">
<g clip-path="url(#clip0_6404_2229)">
<path d="M36.677 12.2011C36.677 5.47182 31.1999 0 24.4654 0H4.25122V6.76963H23.5043C26.5524 6.76963 29.0761 9.1653 29.1322 12.1082C29.1481 12.8317 29.0184 13.551 28.7509 14.2235C28.4834 14.8959 28.0834 15.5077 27.5749 16.0226C27.0699 16.5407 26.4659 16.952 25.7989 17.2321C25.1319 17.5123 24.4154 17.6557 23.692 17.6536H16.191C16.0632 17.6541 15.9408 17.7051 15.8505 17.7954C15.7601 17.8858 15.7092 18.0082 15.7087 18.1359V24.1532C15.7087 24.2584 15.7391 24.3531 15.7999 24.4373L28.5254 42.0909H37.8398L25.0845 24.3882C31.5086 24.0655 36.677 18.6708 36.677 12.2011ZM12.0907 10.3877H4.25122V42.0909H12.0907V10.3877Z" fill="white"/>
</g>
<defs>
<clipPath id="clip0_6404_2229">
<rect width="42.0909" height="42.0909" fill="white"/>
</clipPath>
</defs>
</svg>
