<svg width="19" height="18" viewBox="0 0 19 18" fill="#FF6720" xmlns="http://www.w3.org/2000/svg">
<path d="M1 9C1 4.30558 4.80558 0.5 9.5 0.5C14.1944 0.5 18 4.30558 18 9C18 13.6944 14.1944 17.5 9.5 17.5C4.80558 17.5 1 13.6944 1 9Z" stroke="#fff"/>
<path d="M6.58337 12.75V6.08333C6.58337 5.86232 6.67117 5.65036 6.82745 5.49408C6.98373 5.3378 7.19569 5.25 7.41671 5.25H11.5834C11.8044 5.25 12.0163 5.3378 12.1726 5.49408C12.3289 5.65036 12.4167 5.86232 12.4167 6.08333V12.75L9.95087 11.1646C9.81642 11.0781 9.65992 11.0321 9.50004 11.0321C9.34017 11.0321 9.18367 11.0781 9.04921 11.1646L6.58337 12.75Z" stroke="#fff" stroke-width="0.75" stroke-linecap="round" stroke-linejoin="round"/>
</svg>
