<svg width="150" height="22" viewBox="0 0 150 22" fill="none" xmlns="http://www.w3.org/2000/svg">
    <path d="M12.501 1.02899L15.0569 6.94863C15.1187 7.09229 15.2198 7.21681 15.3491 7.30877C15.4784 7.40072 15.6311 7.45662 15.7908 7.47044L22.3329 8.02006C22.5065 8.03362 22.672 8.09692 22.8086 8.20194C22.9452 8.30696 23.0466 8.44899 23.1001 8.61006C23.1535 8.77113 23.1567 8.94399 23.109 9.10678C23.0614 9.26956 22.9651 9.41496 22.8324 9.52456L17.8691 13.7322C17.7485 13.8352 17.6588 13.9681 17.6096 14.1166C17.5604 14.2652 17.5535 14.4239 17.5897 14.5759L19.0772 20.8356C19.1165 20.9991 19.1055 21.1702 19.0454 21.3276C18.9854 21.4851 18.879 21.6218 18.7395 21.7209C18.6 21.82 18.4336 21.877 18.2611 21.8848C18.0885 21.8926 17.9174 21.8509 17.769 21.7648L12.1467 18.45C12.0101 18.3693 11.8533 18.3266 11.6934 18.3266C11.5335 18.3266 11.3767 18.3693 11.2401 18.45L5.61772 21.7648C5.46937 21.8509 5.29825 21.8926 5.12568 21.8848C4.95311 21.877 4.78672 21.82 4.64724 21.7209C4.50777 21.6218 4.40137 21.4851 4.34131 21.3276C4.28126 21.1702 4.2702 20.9991 4.30951 20.8356L5.79706 14.5759C5.83322 14.4239 5.82633 14.2652 5.77713 14.1166C5.72792 13.9681 5.63824 13.8352 5.5176 13.7322L0.55431 9.52456C0.421618 9.41496 0.325362 9.26956 0.27772 9.10678C0.230078 8.94399 0.233193 8.77113 0.28667 8.61006C0.340146 8.44899 0.441582 8.30696 0.578141 8.20194C0.7147 8.09692 0.880245 8.03362 1.05383 8.02006L7.59599 7.47044C7.75561 7.45662 7.90831 7.40072 8.03763 7.30877C8.16696 7.21681 8.268 7.09229 8.32987 6.94863L10.8858 1.02899C10.954 0.875947 11.0669 0.745637 11.2104 0.6541C11.3538 0.562563 11.5217 0.513794 11.6934 0.513794C11.865 0.513794 12.0329 0.562563 12.1764 0.6541C12.3199 0.745637 12.4327 0.875947 12.501 1.02899Z" fill="#F9C23B"/>
    <path d="M44.1758 1.02887L46.7317 6.9485C46.7935 7.09216 46.8946 7.21669 47.0239 7.30865C47.1532 7.4006 47.3059 7.4565 47.4656 7.47032L54.0077 8.01994C54.1813 8.0335 54.3468 8.0968 54.4834 8.20182C54.62 8.30684 54.7214 8.44887 54.7749 8.60994C54.8284 8.771 54.8315 8.94387 54.7838 9.10666C54.7362 9.26944 54.6399 9.41484 54.5072 9.52444L49.544 13.7321C49.4233 13.8351 49.3336 13.9679 49.2844 14.1165C49.2352 14.265 49.2283 14.4238 49.2645 14.5758L50.752 20.8355C50.7914 20.999 50.7803 21.1701 50.7202 21.3275C50.6602 21.4849 50.5538 21.6217 50.4143 21.7208C50.2748 21.8198 50.1084 21.8768 49.9359 21.8846C49.7633 21.8925 49.5922 21.8507 49.4438 21.7647L43.8215 18.4499C43.6849 18.3691 43.5281 18.3264 43.3682 18.3264C43.2083 18.3264 43.0515 18.3691 42.9149 18.4499L37.2925 21.7647C37.1442 21.8507 36.9731 21.8925 36.8005 21.8846C36.6279 21.8768 36.4615 21.8198 36.322 21.7208C36.1826 21.6217 36.0762 21.4849 36.0161 21.3275C35.9561 21.1701 35.945 20.999 35.9843 20.8355L37.4719 14.5758C37.508 14.4238 37.5011 14.265 37.4519 14.1165C37.4027 13.9679 37.313 13.8351 37.1924 13.7321L32.2291 9.52444C32.0964 9.41484 32.0002 9.26944 31.9525 9.10666C31.9049 8.94387 31.908 8.771 31.9615 8.60994C32.015 8.44887 32.1164 8.30684 32.2529 8.20182C32.3895 8.0968 32.555 8.0335 32.7286 8.01994L39.2708 7.47032C39.4304 7.4565 39.5831 7.4006 39.7124 7.30865C39.8418 7.21669 39.9428 7.09216 40.0047 6.9485L42.5606 1.02887C42.6289 0.875825 42.7417 0.745515 42.8852 0.653978C43.0286 0.562441 43.1965 0.513672 43.3682 0.513672C43.5398 0.513672 43.7077 0.562441 43.8512 0.653978C43.9947 0.745515 44.1075 0.875825 44.1758 1.02887Z" fill="#F9C23B"/>
    <path d="M75.8506 1.02887L78.4065 6.9485C78.4683 7.09216 78.5694 7.21669 78.6987 7.30865C78.828 7.4006 78.9807 7.4565 79.1404 7.47032L85.6825 8.01994C85.8561 8.0335 86.0217 8.0968 86.1582 8.20182C86.2948 8.30684 86.3962 8.44887 86.4497 8.60994C86.5032 8.771 86.5063 8.94387 86.4586 9.10666C86.411 9.26944 86.3147 9.41484 86.182 9.52444L81.2188 13.7321C81.0981 13.8351 81.0084 13.9679 80.9592 14.1165C80.91 14.265 80.9031 14.4238 80.9393 14.5758L82.4268 20.8355C82.4662 20.999 82.4551 21.1701 82.395 21.3275C82.335 21.4849 82.2286 21.6217 82.0891 21.7208C81.9496 21.8198 81.7832 21.8768 81.6107 21.8846C81.4381 21.8925 81.267 21.8507 81.1186 21.7647L75.4963 18.4499C75.3597 18.3691 75.2029 18.3264 75.043 18.3264C74.8831 18.3264 74.7263 18.3691 74.5897 18.4499L68.9673 21.7647C68.819 21.8507 68.6479 21.8925 68.4753 21.8846C68.3027 21.8768 68.1363 21.8198 67.9969 21.7208C67.8574 21.6217 67.751 21.4849 67.6909 21.3275C67.6309 21.1701 67.6198 20.999 67.6591 20.8355L69.1467 14.5758C69.1828 14.4238 69.1759 14.265 69.1267 14.1165C69.0775 13.9679 68.9878 13.8351 68.8672 13.7321L63.9039 9.52444C63.7712 9.41484 63.675 9.26944 63.6273 9.10666C63.5797 8.94387 63.5828 8.771 63.6363 8.60994C63.6898 8.44887 63.7912 8.30684 63.9278 8.20182C64.0643 8.0968 64.2299 8.0335 64.4034 8.01994L70.9456 7.47032C71.1052 7.4565 71.2579 7.4006 71.3872 7.30865C71.5166 7.21669 71.6176 7.09216 71.6795 6.9485L74.2354 1.02887C74.3037 0.875825 74.4165 0.745515 74.56 0.653978C74.7034 0.562441 74.8713 0.513672 75.043 0.513672C75.2146 0.513672 75.3825 0.562441 75.526 0.653978C75.6695 0.745515 75.7823 0.875825 75.8506 1.02887Z" fill="#F9C23B"/>
    <path d="M107.525 1.02887L110.081 6.9485C110.143 7.09216 110.244 7.21669 110.374 7.30865C110.503 7.4006 110.656 7.4565 110.815 7.47032L117.357 8.01994C117.531 8.0335 117.696 8.0968 117.833 8.20182C117.97 8.30684 118.071 8.44887 118.124 8.60994C118.178 8.771 118.181 8.94387 118.133 9.10666C118.086 9.26944 117.99 9.41484 117.857 9.52444L112.894 13.7321C112.773 13.8351 112.683 13.9679 112.634 14.1165C112.585 14.265 112.578 14.4238 112.614 14.5758L114.102 20.8355C114.141 20.999 114.13 21.1701 114.07 21.3275C114.01 21.4849 113.903 21.6217 113.764 21.7208C113.624 21.8198 113.458 21.8768 113.285 21.8846C113.113 21.8925 112.942 21.8507 112.793 21.7647L107.171 18.4499C107.034 18.3691 106.878 18.3264 106.718 18.3264C106.558 18.3264 106.401 18.3691 106.264 18.4499L100.642 21.7647C100.494 21.8507 100.323 21.8925 100.15 21.8846C99.9775 21.8768 99.8111 21.8198 99.6717 21.7208C99.5322 21.6217 99.4258 21.4849 99.3657 21.3275C99.3057 21.1701 99.2946 20.999 99.3339 20.8355L100.821 14.5758C100.858 14.4238 100.851 14.265 100.802 14.1165C100.752 13.9679 100.663 13.8351 100.542 13.7321L95.5787 9.52444C95.446 9.41484 95.3498 9.26944 95.3021 9.10666C95.2545 8.94387 95.2576 8.771 95.3111 8.60994C95.3646 8.44887 95.466 8.30684 95.6026 8.20182C95.7391 8.0968 95.9047 8.0335 96.0782 8.01994L102.62 7.47032C102.78 7.4565 102.933 7.4006 103.062 7.30865C103.191 7.21669 103.292 7.09216 103.354 6.9485L105.91 1.02887C105.978 0.875825 106.091 0.745515 106.235 0.653978C106.378 0.562441 106.546 0.513672 106.718 0.513672C106.889 0.513672 107.057 0.562441 107.201 0.653978C107.344 0.745515 107.457 0.875825 107.525 1.02887Z" fill="#F9C23B"/>
    <path d="M139.2 1.02887L141.756 6.9485C141.818 7.09216 141.919 7.21669 142.048 7.30865C142.178 7.4006 142.33 7.4565 142.49 7.47032L149.032 8.01994C149.206 8.0335 149.371 8.0968 149.508 8.20182C149.644 8.30684 149.746 8.44887 149.799 8.60994C149.853 8.771 149.856 8.94387 149.808 9.10666C149.761 9.26944 149.664 9.41484 149.532 9.52444L144.568 13.7321C144.448 13.8351 144.358 13.9679 144.309 14.1165C144.26 14.265 144.253 14.4238 144.289 14.5758L145.776 20.8355C145.816 20.999 145.805 21.1701 145.745 21.3275C145.685 21.4849 145.578 21.6217 145.439 21.7208C145.299 21.8198 145.133 21.8768 144.96 21.8846C144.788 21.8925 144.617 21.8507 144.468 21.7647L138.846 18.4499C138.709 18.3691 138.552 18.3264 138.393 18.3264C138.233 18.3264 138.076 18.3691 137.939 18.4499L132.317 21.7647C132.169 21.8507 131.997 21.8925 131.825 21.8846C131.652 21.8768 131.486 21.8198 131.346 21.7208C131.207 21.6217 131.101 21.4849 131.041 21.3275C130.98 21.1701 130.969 20.999 131.009 20.8355L132.496 14.5758C132.532 14.4238 132.526 14.265 132.476 14.1165C132.427 13.9679 132.337 13.8351 132.217 13.7321L127.254 9.52444C127.121 9.41484 127.025 9.26944 126.977 9.10666C126.929 8.94387 126.932 8.771 126.986 8.60994C127.039 8.44887 127.141 8.30684 127.277 8.20182C127.414 8.0968 127.579 8.0335 127.753 8.01994L134.295 7.47032C134.455 7.4565 134.608 7.4006 134.737 7.30865C134.866 7.21669 134.967 7.09216 135.029 6.9485L137.585 1.02887C137.653 0.875825 137.766 0.745515 137.91 0.653978C138.053 0.562441 138.221 0.513672 138.393 0.513672C138.564 0.513672 138.732 0.562441 138.876 0.653978C139.019 0.745515 139.132 0.875825 139.2 1.02887Z" fill="#F9C23B"/>
</svg>
