<svg width="16" height="16" viewBox="0 0 16 16" fill="none" xmlns="http://www.w3.org/2000/svg">
<path d="M7.25713 1.82435C7.65432 1.3836 8.34568 1.3836 8.74287 1.82435L9.01142 2.12236C9.27561 2.41553 9.68752 2.5259 10.0629 2.4041L10.4445 2.28029C11.0088 2.09719 11.6076 2.44287 11.7312 3.02316L11.8147 3.41552C11.897 3.80151 12.1985 4.10305 12.5845 4.18526L12.9768 4.26883C13.5571 4.39243 13.9028 4.99117 13.7197 5.55551L13.5959 5.93709C13.4741 6.31248 13.5845 6.72439 13.8776 6.98858L14.1757 7.25713C14.6164 7.65432 14.6164 8.34568 14.1757 8.74287L13.8776 9.01142C13.5845 9.27561 13.4741 9.68752 13.5959 10.0629L13.7197 10.4445C13.9028 11.0088 13.5571 11.6076 12.9768 11.7312L12.5845 11.8147C12.1985 11.897 11.897 12.1985 11.8147 12.5845L11.7312 12.9768C11.6076 13.5571 11.0088 13.9028 10.4445 13.7197L10.0629 13.5959C9.68752 13.4741 9.27561 13.5845 9.01142 13.8776L8.74287 14.1757C8.34568 14.6164 7.65432 14.6164 7.25713 14.1757L6.98858 13.8776C6.72439 13.5845 6.31248 13.4741 5.93709 13.5959L5.55551 13.7197C4.99117 13.9028 4.39243 13.5571 4.26883 12.9768L4.18526 12.5845C4.10305 12.1985 3.80151 11.897 3.41552 11.8147L3.02316 11.7312C2.44287 11.6076 2.09719 11.0088 2.28029 10.4445L2.4041 10.0629C2.5259 9.68752 2.41553 9.27561 2.12236 9.01142L1.82435 8.74287C1.3836 8.34568 1.3836 7.65432 1.82435 7.25713L2.12236 6.98858C2.41553 6.72439 2.5259 6.31248 2.4041 5.93709L2.28029 5.55551C2.09719 4.99117 2.44287 4.39243 3.02316 4.26883L3.41552 4.18526C3.80151 4.10305 4.10305 3.80151 4.18526 3.41552L4.26883 3.02316C4.39243 2.44287 4.99117 2.09719 5.55551 2.28029L5.93709 2.4041C6.31248 2.5259 6.72439 2.41553 6.98858 2.12236L7.25713 1.82435Z" fill="#197BFF"/>
<path d="M6 8.54087L7.2126 9.94222C7.27927 10.0193 7.3874 10.0193 7.45407 9.94222L10 7" stroke="white" stroke-linecap="round" stroke-linejoin="round"/>
</svg>
