<svg width="87" height="88" viewBox="0 0 87 88" fill="none" xmlns="http://www.w3.org/2000/svg">
    <path d="M56.3863 0.531262C58.2264 1.71726 59.2005 3.61901 60.2374 5.48281C60.5728 6.08571 60.9123 6.68628 61.2516 7.28704C61.4255 7.59521 61.5993 7.9035 61.7728 8.21191C62.5713 9.62999 63.3905 11.0356 64.2144 12.439C65.4325 14.5187 66.6341 16.6074 67.8273 18.7015C69.1617 21.043 70.5091 23.3764 71.8699 25.7027C73.3522 28.2375 74.8181 30.7818 76.2838 33.3263C77.0372 34.6339 77.7916 35.941 78.5458 37.2481C79.4605 38.8334 80.3751 40.4188 81.2894 42.0042C81.5208 42.4054 81.5208 42.4054 81.7569 42.8147C82.0616 43.343 82.3662 43.8714 82.6708 44.3998C83.3687 45.6103 84.0683 46.8199 84.7726 48.0268C84.8962 48.239 85.0199 48.4513 85.1473 48.6699C85.3761 49.0624 85.6055 49.4546 85.8355 49.8464C85.9356 50.0181 86.0356 50.1898 86.1387 50.3668C86.2255 50.5148 86.3122 50.6629 86.4016 50.8155C87.1783 52.2827 87.11 54.3368 86.6995 55.9123C85.7171 58.0743 83.5051 59.1479 81.5278 60.248C80.9249 60.5834 80.3243 60.9229 79.7235 61.2621C79.4154 61.4361 79.1071 61.6098 78.7987 61.7834C77.3806 62.5819 75.975 63.4011 74.5716 64.225C72.4919 65.4431 70.4031 66.6447 68.3091 67.8379C65.9676 69.1723 63.6341 70.5197 61.3079 71.8805C58.773 73.3628 56.2288 74.8287 53.6843 76.2944C52.3767 77.0478 51.0696 77.8022 49.7625 78.5564C48.1772 79.4711 46.5918 80.3857 45.0063 81.3C44.6051 81.5314 44.6051 81.5314 44.1958 81.7675C43.6675 82.0722 43.1392 82.3768 42.6108 82.6813C41.4003 83.3793 40.1907 84.0789 38.9838 84.7832C38.7715 84.9068 38.5593 85.0305 38.3406 85.1579C37.9482 85.3867 37.556 85.6161 37.1642 85.8461C36.9925 85.9462 36.8207 86.0462 36.6438 86.1493C36.4957 86.2361 36.3477 86.3228 36.1951 86.4122C34.7279 87.1889 32.6737 87.1206 31.0983 86.7101C28.8009 85.6662 27.6991 83.2234 26.5341 81.1307C26.3648 80.83 26.1953 80.5294 26.0256 80.2289C25.6771 79.6118 25.3293 78.9942 24.9819 78.3764C24.2151 77.0153 23.4326 75.6633 22.6501 74.3112C22.3515 73.7943 22.053 73.2775 21.7544 72.7606C21.6069 72.5054 21.4595 72.2502 21.3075 71.9872C20.8538 71.2016 20.4008 70.4155 19.9479 69.6294C18.4972 67.1112 17.0421 64.5958 15.5747 62.0873C14.2688 59.8545 12.9819 57.6112 11.7012 55.3639C10.4491 53.1674 9.18302 50.9795 7.90628 48.7972C6.70982 46.7514 5.52398 44.6996 4.34141 42.6457C3.63922 41.4263 2.93573 40.2078 2.22649 38.9925C2.10297 38.7805 1.97945 38.5685 1.8522 38.3502C1.62353 37.9581 1.39434 37.5663 1.16453 37.1749C1.06446 37.0031 0.964381 36.8314 0.861274 36.6544C0.774531 36.5063 0.687788 36.3582 0.598416 36.2057C-0.178333 34.7385 -0.110051 32.6843 0.30051 31.1089C1.34436 28.8115 3.78723 27.7097 5.87992 26.5447C6.18061 26.3754 6.48118 26.2059 6.78163 26.0362C7.39882 25.6877 8.0164 25.3398 8.63422 24.9925C9.99533 24.2257 11.3473 23.4431 12.6994 22.6607C13.2162 22.3621 13.7331 22.0635 14.25 21.765C14.6328 21.5438 14.6328 21.5438 15.0234 21.3181C15.809 20.8644 16.5951 20.4113 17.3812 19.9585C19.8994 18.5078 22.4148 17.0527 24.9233 15.5853C27.1563 14.2793 29.3996 12.9922 31.6472 11.7115C33.8323 10.4661 36.0081 9.20538 38.1785 7.93433C40.2041 6.74991 42.2407 5.58532 44.2798 4.42426C46.2077 3.32639 48.1293 2.2192 50.0315 1.07721C51.898 -0.0356436 54.3346 -0.400945 56.3863 0.531262ZM49.5066 3.85821C49.2406 4.01301 48.9747 4.16781 48.7006 4.32729C47.9277 4.77844 47.1588 5.23591 46.3904 5.6948C46.03 5.90636 45.6694 6.1175 45.3084 6.32801C44.6665 6.70296 44.0263 7.08051 43.3871 7.45989C42.031 8.26243 40.6652 9.04798 39.2999 9.83467C39.0372 9.98607 38.7746 10.1375 38.5039 10.2935C37.3867 10.9372 36.2692 11.5806 35.1516 12.2238C34.4253 12.6418 33.6992 13.0599 32.9731 13.4783C32.5631 13.7143 32.153 13.9501 31.7428 14.1859C31.4947 14.3289 31.2466 14.4718 30.991 14.619C30.7723 14.7449 30.5536 14.8707 30.3282 15.0004C29.8932 15.2571 29.4684 15.531 29.0481 15.8111C29.2069 16.6228 29.519 17.2319 29.9363 17.9432C30.1291 18.2808 30.1291 18.2808 30.3258 18.6253C30.5956 19.0934 30.8678 19.5601 31.1425 20.0253C32.051 21.6294 32.7102 23.1672 32.2987 25.0336C31.9106 26.2604 31.2384 27.4663 30.0633 28.0783C29.3897 28.3381 28.7043 28.537 28.0113 28.7379C26.5599 29.1801 25.432 29.6627 24.6429 31.0496C24.022 32.4267 23.8469 33.376 24.2308 34.8394C24.8059 36.218 25.6395 37.0552 26.9255 37.79C28.535 38.2192 30.0409 38.1534 31.5038 37.3309C32.1227 36.87 32.5629 36.3097 33.0421 35.7098C33.9303 34.6992 35.1391 34.448 36.4255 34.3417C38.0089 34.3861 39.1996 35.0116 40.3688 36.0438C40.815 36.6838 40.815 36.6838 41.224 37.4024C41.4464 37.789 41.4464 37.789 41.6733 38.1833C41.824 38.451 41.9748 38.7186 42.1301 38.9944C42.2855 39.2657 42.4409 39.5371 42.601 39.8167C42.9831 40.4848 43.363 41.154 43.7409 41.8245C44.8951 41.5804 45.834 41.0082 46.8571 40.4396C47.1456 40.284 47.1456 40.284 47.4399 40.1253C48.8204 39.3613 49.9436 38.6472 50.6055 37.1578C50.7588 36.0467 50.5726 35.5592 50.0034 34.5986C49.6515 34.3079 49.299 34.0176 48.9336 33.7443C47.8843 32.766 47.1665 31.1867 47.0556 29.7719C47.0041 27.2842 47.3828 25.4942 49.0992 23.6402C50.5098 22.4306 52.2767 22.0535 54.0981 22.0736C56.0026 22.2246 57.574 23.0531 58.857 24.4672C59.7907 25.7434 60.1978 27.0686 60.5647 28.5967C60.9028 29.4529 61.284 29.7635 62.0466 30.263C62.9334 30.5888 63.4879 30.5963 64.3734 30.2621C66.2434 29.3579 68.003 28.2447 69.7543 27.1318C69.5929 26.3149 69.2784 25.6839 68.8708 24.9602C68.6698 24.6021 68.6698 24.6021 68.4649 24.2367C68.3191 23.98 68.1733 23.7232 68.023 23.4586C67.8718 23.1905 67.7206 22.9223 67.5648 22.6461C66.2743 20.365 64.9564 18.1002 63.631 15.8394C62.7194 14.2835 61.818 12.7218 60.9175 11.1594C60.7669 10.8987 60.6162 10.6381 60.4609 10.3695C59.7612 9.15832 59.0656 7.94532 58.3819 6.72506C58.2627 6.51418 58.1435 6.3033 58.0208 6.08603C57.802 5.69856 57.5852 5.31001 57.3707 4.92017C56.7098 3.75477 56.0496 2.93716 54.8206 2.32269C52.7012 1.97451 51.2808 2.78791 49.5066 3.85821ZM25.2837 17.8669C24.9444 18.0672 24.9444 18.0672 24.5983 18.2715C24.3529 18.4183 24.1074 18.5652 23.8545 18.7166C23.3267 19.0285 22.7989 19.3402 22.271 19.6518C21.9976 19.8136 21.7243 19.9755 21.4426 20.1422C20.1392 20.9105 18.8281 21.6653 17.5167 22.4199C16.9926 22.7219 16.4686 23.0239 15.9445 23.3259C15.5529 23.5515 15.5529 23.5515 15.1533 23.7817C14.345 24.2474 13.5367 24.7134 12.7286 25.1795C12.3278 25.4105 12.3278 25.4105 11.9189 25.6463C11.3906 25.9512 10.8625 26.2564 10.3345 26.5619C9.13216 27.2573 7.92811 27.9488 6.71636 28.6278C6.39963 28.8067 6.39963 28.8067 6.0765 28.9893C5.68864 29.2082 5.2997 29.4253 4.90946 29.6399C3.74411 30.3008 2.92655 30.9611 2.31211 32.1899C1.96393 34.3094 2.77733 35.7298 3.84762 37.504C4.00242 37.77 4.15722 38.0359 4.31671 38.3099C4.76785 39.0829 5.22532 39.8518 5.68422 40.6202C5.89578 40.9806 6.10692 41.3412 6.31743 41.7022C6.69237 42.3441 7.06992 42.9843 7.4493 43.6235C8.25184 44.9795 9.03739 46.3454 9.82408 47.7107C9.97548 47.9733 10.1269 48.236 10.2829 48.5066C10.9266 49.6239 11.57 50.7414 12.2132 51.859C12.6312 52.5853 13.0494 53.3114 13.4677 54.0375C13.7038 54.4475 13.9396 54.8576 14.1753 55.2677C14.3183 55.5158 14.4612 55.7639 14.6084 56.0196C14.7343 56.2383 14.8601 56.457 14.9898 56.6823C15.2465 57.1173 15.5204 57.5422 15.8005 57.9625C16.6123 57.8036 17.2213 57.4916 17.9326 57.0743C18.1577 56.9457 18.3828 56.8172 18.6147 56.6848C19.0828 56.415 19.5495 56.1428 20.0147 55.8681C21.6188 54.9596 23.1566 54.3004 25.023 54.7119C26.2498 55.1 27.4557 55.7722 28.0677 56.9473C28.3275 57.6209 28.5264 58.3062 28.7273 58.9993C29.1695 60.4506 29.6521 61.5786 31.039 62.3677C32.4161 62.9886 33.3654 63.1636 34.8289 62.7798C36.2074 62.2047 37.0446 61.3711 37.7795 60.0851C38.2087 58.4756 38.1428 56.9697 37.3203 55.5068C36.8595 54.8879 36.2991 54.4476 35.6992 53.9684C34.6886 53.0802 34.4374 51.8714 34.3311 50.585C34.3755 49.0017 35.001 47.811 36.0332 46.6418C36.6732 46.1956 36.6732 46.1956 37.3918 45.7866C37.6495 45.6383 37.9072 45.49 38.1727 45.3373C38.4404 45.1866 38.708 45.0358 38.9838 44.8805C39.2552 44.7251 39.5265 44.5697 39.8061 44.4096C40.4742 44.0274 41.1434 43.6476 41.8139 43.2697C41.5698 42.1155 40.9976 41.1766 40.429 40.1535C40.2734 39.865 40.2734 39.865 40.1147 39.5707C39.3917 38.2642 38.7037 37.1858 37.373 36.4352C36.5816 36.2421 36.0928 36.2974 35.3106 36.5255C34.631 36.9896 34.1008 37.4948 33.5342 38.0911C31.8728 39.6734 30.2255 39.9852 27.984 39.9644C26.1138 39.8196 24.4888 38.9135 23.2674 37.489C22.1811 35.7688 21.8617 33.8099 22.1985 31.8136C22.7143 29.893 23.8431 28.4758 25.5217 27.4366C26.5043 26.9657 27.529 26.6997 28.5861 26.4459C29.4424 26.1077 29.7529 25.7266 30.2524 24.964C30.5782 24.0772 30.5857 23.5227 30.2515 22.6372C29.8793 21.8675 29.4742 21.1288 29.0481 20.3876C28.9666 20.2434 28.8851 20.0993 28.8011 19.9508C28.0192 18.5659 28.0192 18.5659 27.1212 17.2563C26.2802 17.2563 25.9982 17.4413 25.2837 17.8669ZM50.4098 25.2651C49.3709 26.3281 49.0042 27.3371 48.9345 28.8028C48.986 30.2174 49.3716 31.3546 50.4173 32.3386C50.7105 32.5783 51.0049 32.8164 51.3008 33.0527C52.3114 33.9409 52.5626 35.1497 52.6689 36.4361C52.6245 38.0195 51.999 39.2102 50.9668 40.3793C50.3268 40.8256 50.3268 40.8256 49.6082 41.2346C49.3505 41.3829 49.0928 41.5311 48.8273 41.6839C48.5596 41.8346 48.292 41.9854 48.0162 42.1407C47.7448 42.2961 47.4735 42.4515 47.1939 42.6116C46.5258 42.9937 45.8566 43.3736 45.1861 43.7514C45.4302 44.9057 46.0024 45.8446 46.571 46.8676C46.6747 47.06 46.7784 47.2523 46.8853 47.4505C47.6083 48.7569 48.2963 49.8354 49.627 50.586C50.4184 50.779 50.9072 50.7238 51.6894 50.4957C52.3761 50.0267 52.9231 49.5028 53.5109 48.915C54.9088 47.5171 56.1706 47.0549 58.1626 47.0483C60.3494 47.0896 61.7027 47.543 63.3083 49.0477C64.5631 50.4805 64.9577 52.2371 64.937 54.1086C64.786 56.0132 63.9575 57.5846 62.5434 58.8676C61.2672 59.8013 59.9419 60.2083 58.4139 60.5753C57.557 60.9137 57.2457 61.2926 56.7476 62.0572C56.3836 63.1492 56.4746 63.8178 56.9583 64.8271C57.8748 66.5044 58.8813 68.1349 59.8788 69.7649C60.6957 69.6034 61.3267 69.289 62.0504 68.8814C62.4085 68.6804 62.4085 68.6804 62.7738 68.4754C63.0306 68.3296 63.2874 68.1839 63.552 68.0336C63.8201 67.8824 64.0883 67.7312 64.3645 67.5754C66.6455 66.2849 68.9103 64.967 71.1712 63.6416C72.7271 62.73 74.2888 61.8286 75.8512 60.9281C76.1118 60.7774 76.3725 60.6268 76.6411 60.4715C77.8523 59.7718 79.0653 59.0762 80.2855 58.3925C80.4964 58.2733 80.7073 58.1541 80.9246 58.0313C81.312 57.8126 81.7006 57.5958 82.0904 57.3813C83.2558 56.7204 84.0734 56.0602 84.6879 54.8312C85.0183 52.7472 84.2679 51.3694 83.2126 49.6225C83.0603 49.3609 82.908 49.0993 82.751 48.8298C82.4331 48.285 82.1129 47.7416 81.7906 47.1994C81.345 46.4501 80.9053 45.6978 80.468 44.9435C79.9156 43.9912 79.3608 43.0404 78.8036 42.0908C77.9016 40.5515 77.0117 39.0054 76.1221 37.4589C74.503 34.6458 72.8581 31.8486 71.1995 29.0587C70.3877 29.2175 69.7787 29.5296 69.0674 29.9469C68.7298 30.1397 68.7298 30.1397 68.3853 30.3364C67.9172 30.6062 67.4505 30.8784 66.9853 31.1531C65.3812 32.0615 63.8434 32.7207 61.977 32.3092C60.7502 31.9212 59.5442 31.249 58.9323 30.0739C58.6725 29.4003 58.4736 28.7149 58.2727 28.0218C57.8901 26.7662 57.5015 25.8742 56.5067 24.964C54.3068 23.8176 52.4361 23.734 50.4098 25.2651ZM39.887 46.702C39.6436 46.8433 39.4002 46.9846 39.1494 47.1301C38.7991 47.3374 38.7991 47.3374 38.4418 47.5488C38.1214 47.738 38.1214 47.738 37.7945 47.9311C36.9199 48.5541 36.5733 49.066 36.3042 50.1043C36.2685 51.138 36.4212 51.5686 36.9966 52.4226C37.3509 52.7075 37.7055 52.9921 38.0664 53.2684C39.1094 54.2644 39.8416 55.8305 39.936 57.2578C39.9691 59.8134 39.7379 61.4249 37.9629 63.3189C36.5301 64.5737 34.7735 64.9683 32.9019 64.9476C30.9974 64.7966 29.426 63.9681 28.143 62.554C27.2093 61.2778 26.8022 59.9525 26.4353 58.4244C26.0969 57.5676 25.718 57.2563 24.9534 56.7581C23.8614 56.3942 23.1928 56.4852 22.1835 56.9689C20.5062 57.8854 18.8757 58.8918 17.2457 59.8894C17.4736 60.9361 17.9717 61.7948 18.4952 62.7196C18.6544 63.0035 18.6544 63.0035 18.8169 63.2931C19.8313 65.0932 20.8746 66.8764 21.9192 68.6591C22.9411 70.4043 23.9496 72.1567 24.9506 73.9139C25.4339 74.7616 25.9185 75.6084 26.403 76.4554C26.8034 77.1559 27.2029 77.857 27.6004 78.5592C28.0557 79.3625 28.514 80.1639 28.9728 80.9651C29.1087 81.2066 29.2445 81.4482 29.3845 81.6971C30.1851 83.0873 30.8311 84.1688 32.4202 84.6985C34.4573 84.9273 35.6489 84.2562 37.373 83.2232C37.6357 83.0709 37.8984 82.9185 38.169 82.7616C38.9851 82.2873 39.7973 81.807 40.6096 81.3264C41.0954 81.0433 41.5815 80.7607 42.068 80.4786C43.0199 79.9261 43.9704 79.3712 44.9198 78.8142C46.4591 77.9122 48.0052 77.0223 49.5517 76.1327C52.3647 74.5136 55.162 72.8686 57.9519 71.21C57.7931 70.3983 57.481 69.7893 57.0637 69.078C56.9352 68.8529 56.8066 68.6278 56.6742 68.3959C56.4044 67.9278 56.1322 67.4611 55.8575 66.9958C54.949 65.3918 54.2898 63.854 54.7013 61.9876C55.0894 60.7607 55.7616 59.5548 56.9367 58.9429C57.6103 58.6831 58.2957 58.4842 58.9887 58.2833C60.44 57.8411 61.568 57.3585 62.3571 55.9716C62.978 54.5945 63.153 53.6452 62.7692 52.1817C62.1941 50.8031 61.3605 49.966 60.0745 49.2311C58.465 48.8019 56.9591 48.8678 55.4962 49.6903C54.8773 50.1511 54.4371 50.7114 53.9579 51.3114C53.0697 52.3219 51.8609 52.5731 50.5745 52.6794C48.9922 52.6351 47.7986 52.0106 46.6312 50.9774C46.1964 50.3374 46.1964 50.3374 45.8014 49.6188C45.6564 49.3611 45.5114 49.1034 45.362 48.8378C45.062 48.2935 44.7622 47.749 44.4625 47.2045C44.3181 46.948 44.1738 46.6915 44.025 46.4273C43.8952 46.1913 43.7654 45.9552 43.6316 45.712C43.5087 45.5419 43.3858 45.3719 43.2591 45.1966C41.9848 45.1966 40.96 46.0629 39.887 46.702Z" fill="white"/>
</svg>
