<svg width="34" height="43" viewBox="0 0 34 43" fill="none" xmlns="http://www.w3.org/2000/svg">
<path d="M3.70345 8.384L4.99945 13.904L3.70345 19.4L8.52745 22.376L11.4795 27.2L16.9995 25.904L22.5195 27.2L25.4715 22.376L30.2955 19.4L28.9995 13.904L30.2955 8.384L25.4955 5.408L22.5195 0.584L16.9995 1.904L11.5035 0.608L8.50345 5.408L3.70345 8.384ZM17.0235 23.6C14.4774 23.6 12.0356 22.5886 10.2352 20.7882C8.43488 18.9879 7.42345 16.5461 7.42345 14C7.42345 11.4539 8.43488 9.01212 10.2352 7.21177C12.0356 5.41143 14.4774 4.4 17.0235 4.4C22.3035 4.4 26.5995 8.696 26.5995 13.976C26.5995 19.304 22.3035 23.6 17.0235 23.6ZM16.9755 21.2C12.9915 21.2 9.79945 17.984 9.79945 14C9.79945 10.04 12.9915 6.8 16.9755 6.8C20.9595 6.8 24.1995 10.04 24.1995 14C24.1995 17.984 20.9595 21.2 16.9755 21.2ZM26.1915 23.84L23.1195 29.216L18.1275 28.088L24.1995 42.08L27.5595 36.8H33.5595L26.1915 23.84ZM7.71145 24.008L10.7115 29.408L15.8235 28.184L9.79945 42.08L6.43945 36.8H0.439453L7.71145 24.008Z" fill="#FF6720"/>
</svg>
