<?xml version="1.0" encoding="UTF-8" standalone="no"?>
<!DOCTYPE svg PUBLIC "-//W3C//DTD SVG 1.1//EN" "http://www.w3.org/Graphics/SVG/1.1/DTD/svg11.dtd">
<svg xmlns="http://www.w3.org/2000/svg" xmlns:xlink="http://www.w3.org/1999/xlink" version="1.1"
	width="1080" height="1080" viewBox="0 0 1080 1080" xml:space="preserve">
  <g transform="matrix(1 0 0 1 540 540)" id="10c3d012-dae9-4c87-abf3-01872af7b398">
    <rect style="stroke: none; stroke-width: 1; stroke-dasharray: none; stroke-linecap: butt; stroke-dashoffset: 0; stroke-linejoin: miter; stroke-miterlimit: 4; fill: rgb(255,255,255); fill-rule: nonzero; opacity: 1; visibility: hidden;" vector-effect="non-scaling-stroke" x="-540" y="-540" rx="0" ry="0" width="1080" height="1080" />
  </g>
  <g transform="matrix(1 0 0 1 540 540)" id="4f028149-de78-4a39-83e1-94aeffc0180a"></g>
  <g transform="matrix(1 0 0 1 540 514.84)">
    <g style="" vector-effect="non-scaling-stroke">
      <g transform="matrix(1.33 0 0 1.33 0 0)" clip-path="url(#CLIPPATH_3)">
        <clipPath id="CLIPPATH_3">
          <path transform="matrix(1 0 0 1 0.08 0.08) translate(-720.04, -405.04)" id="7" d="M 432.074219 117.074219 L 1008 117.074219 L 1008 693 L 432.074219 693 Z M 432.074219 117.074219" stroke-linecap="round" />
        </clipPath>
        <path style="stroke: none; stroke-width: 1; stroke-dasharray: none; stroke-linecap: butt; stroke-dashoffset: 0; stroke-linejoin: miter; stroke-miterlimit: 4; fill: rgb(254,104,34); fill-rule: evenodd; opacity: 1;" vector-effect="non-scaling-stroke" transform=" translate(-719.96, -404.96)" d="M 500.65625 495.792969 C 497.117188 493.800781 493.699219 491.765625 490.40625 489.679688 C 453.171875 466.101562 432.0625 436.40625 432.0625 404.957031 C 432.0625 373.507812 453.171875 343.808594 490.40625 320.234375 C 493.699219 318.152344 497.117188 316.113281 500.65625 314.121094 C 499.5625 310.210938 498.585938 306.347656 497.730469 302.546875 C 488.074219 259.550781 494.148438 223.621094 516.386719 201.386719 C 538.621094 179.148438 574.550781 173.074219 617.546875 182.734375 C 621.347656 183.585938 625.210938 184.5625 629.121094 185.65625 C 631.113281 182.117188 633.152344 178.699219 635.234375 175.40625 C 658.808594 138.175781 688.507812 117.0625 719.957031 117.0625 C 751.40625 117.0625 781.101562 138.175781 804.679688 175.40625 C 806.765625 178.699219 808.800781 182.117188 810.792969 185.65625 C 814.707031 184.5625 818.5625 183.585938 822.367188 182.734375 C 865.367188 173.074219 901.292969 179.148438 923.527344 201.386719 C 945.765625 223.621094 951.835938 259.550781 942.183594 302.546875 C 941.328125 306.347656 940.351562 310.210938 939.253906 314.121094 C 942.796875 316.113281 946.21875 318.152344 949.507812 320.234375 C 986.742188 343.808594 1007.851562 373.507812 1007.851562 404.957031 C 1007.851562 436.40625 986.742188 466.101562 949.507812 489.679688 C 946.21875 491.765625 942.796875 493.800781 939.253906 495.792969 C 940.351562 499.707031 941.328125 503.566406 942.183594 507.367188 C 951.835938 550.367188 945.765625 586.292969 923.527344 608.527344 C 901.292969 630.765625 865.367188 636.835938 822.367188 627.183594 C 818.5625 626.328125 814.707031 625.351562 810.792969 624.253906 C 808.800781 627.796875 806.765625 631.21875 804.679688 634.507812 C 781.101562 671.742188 751.40625 692.851562 719.957031 692.851562 C 688.507812 692.851562 658.808594 671.742188 635.234375 634.507812 C 633.152344 631.21875 631.113281 627.796875 629.121094 624.253906 C 625.210938 625.351562 621.347656 626.328125 617.546875 627.183594 C 574.550781 636.835938 538.621094 630.765625 516.386719 608.527344 C 494.148438 586.292969 488.074219 550.367188 497.730469 507.367188 C 498.585938 503.566406 499.5625 499.707031 500.65625 495.792969 Z M 507.0625 333.886719 C 505.09375 335.046875 503.167969 336.222656 501.285156 337.414062 C 471.105469 356.523438 452.398438 379.46875 452.398438 404.957031 C 452.398438 430.445312 471.105469 453.390625 501.285156 472.5 C 503.167969 473.691406 505.09375 474.867188 507.0625 476.027344 C 515.359375 453.355469 527.292969 429.339844 542.539062 404.957031 C 527.292969 380.574219 515.359375 356.558594 507.0625 333.886719 Z M 619.671875 204.164062 C 617.460938 203.589844 615.265625 203.058594 613.09375 202.570312 C 578.238281 194.746094 548.789062 197.738281 530.761719 215.761719 C 512.738281 233.789062 509.746094 263.238281 517.570312 298.09375 C 518.058594 300.265625 518.589844 302.460938 519.164062 304.671875 C 541.058594 294.507812 566.480469 285.964844 594.503906 279.503906 C 600.964844 251.480469 609.507812 226.058594 619.671875 204.164062 Z M 791.027344 192.0625 C 789.867188 190.09375 788.691406 188.167969 787.5 186.285156 C 768.390625 156.105469 745.445312 137.398438 719.957031 137.398438 C 694.46875 137.398438 671.523438 156.105469 652.414062 186.285156 C 651.222656 188.167969 650.046875 190.09375 648.886719 192.0625 C 671.558594 200.359375 695.574219 212.292969 719.957031 227.539062 C 744.339844 212.292969 768.355469 200.359375 791.027344 192.0625 Z M 920.75 304.671875 C 921.324219 302.460938 921.855469 300.265625 922.34375 298.09375 C 930.171875 263.238281 927.171875 233.789062 909.152344 215.761719 C 891.128906 197.738281 861.671875 194.746094 826.824219 202.570312 C 824.648438 203.058594 822.453125 203.589844 820.242188 204.164062 C 830.40625 226.058594 838.949219 251.480469 845.410156 279.503906 C 873.433594 285.964844 898.855469 294.507812 920.75 304.671875 Z M 932.851562 476.027344 C 934.820312 474.867188 936.746094 473.691406 938.628906 472.5 C 968.808594 453.390625 987.515625 430.445312 987.515625 404.957031 C 987.515625 379.46875 968.808594 356.523438 938.628906 337.414062 C 936.746094 336.222656 934.820312 335.046875 932.851562 333.886719 C 924.558594 356.558594 912.621094 380.574219 897.375 404.957031 C 912.621094 429.339844 924.558594 453.355469 932.851562 476.027344 Z M 820.242188 605.75 C 822.453125 606.324219 824.648438 606.855469 826.824219 607.34375 C 861.675781 615.171875 891.128906 612.175781 909.152344 594.152344 C 927.175781 576.128906 930.171875 546.675781 922.34375 511.824219 C 921.855469 509.648438 921.324219 507.453125 920.75 505.242188 C 898.855469 515.40625 873.433594 523.949219 845.410156 530.410156 C 838.949219 558.433594 830.40625 583.855469 820.242188 605.75 Z M 648.886719 617.851562 C 650.046875 619.820312 651.222656 621.746094 652.414062 623.628906 C 671.523438 653.808594 694.46875 672.515625 719.957031 672.515625 C 745.445312 672.515625 768.390625 653.808594 787.5 623.628906 C 788.691406 621.746094 789.867188 619.820312 791.027344 617.851562 C 768.355469 609.558594 744.339844 597.621094 719.957031 582.375 C 695.574219 597.621094 671.558594 609.558594 648.886719 617.851562 Z M 519.164062 505.242188 C 518.589844 507.453125 518.058594 509.648438 517.570312 511.824219 C 509.746094 546.675781 512.738281 576.128906 530.761719 594.148438 C 548.789062 612.175781 578.238281 615.171875 613.09375 607.34375 C 615.265625 606.855469 617.460938 606.324219 619.671875 605.75 C 609.507812 583.855469 600.964844 558.433594 594.503906 530.410156 C 566.480469 523.949219 541.058594 515.40625 519.164062 505.242188 Z M 589.972656 301.4375 C 565.929688 307.507812 544.09375 315.226562 525.183594 324.277344 C 532.15625 344.054688 542.136719 364.949219 554.84375 386.242188 C 563.554688 373.625 573.117188 360.972656 583.488281 348.429688 C 585.023438 332.222656 587.207031 316.515625 589.972656 301.4375 Z M 554.84375 423.671875 C 542.136719 444.964844 532.15625 465.859375 525.183594 485.632812 C 544.09375 494.6875 565.929688 502.40625 589.972656 508.476562 C 587.207031 493.394531 585.023438 477.6875 583.488281 461.484375 C 573.117188 448.9375 563.554688 436.289062 554.84375 423.671875 Z M 701.242188 239.84375 C 679.949219 227.136719 659.054688 217.15625 639.277344 210.183594 C 630.226562 229.09375 622.507812 250.929688 616.4375 274.972656 C 631.519531 272.207031 647.222656 270.023438 663.429688 268.488281 C 675.972656 258.117188 688.625 248.554688 701.242188 239.84375 Z M 823.476562 274.972656 C 817.40625 250.929688 809.6875 229.09375 800.632812 210.183594 C 780.859375 217.15625 759.964844 227.136719 738.671875 239.84375 C 751.292969 248.554688 763.9375 258.117188 776.484375 268.488281 C 792.6875 270.023438 808.394531 272.207031 823.476562 274.972656 Z M 885.070312 386.242188 C 897.777344 364.949219 907.761719 344.054688 914.730469 324.277344 C 895.816406 315.226562 873.984375 307.507812 849.941406 301.4375 C 852.707031 316.515625 854.890625 332.222656 856.425781 348.429688 C 866.796875 360.972656 876.359375 373.625 885.070312 386.242188 Z M 849.941406 508.476562 C 873.984375 502.40625 895.816406 494.6875 914.730469 485.632812 C 907.761719 465.859375 897.777344 444.964844 885.070312 423.671875 C 876.359375 436.289062 866.796875 448.9375 856.425781 461.484375 C 854.890625 477.6875 852.707031 493.394531 849.941406 508.476562 Z M 738.671875 570.070312 C 759.964844 582.777344 780.859375 592.761719 800.632812 599.730469 C 809.6875 580.816406 817.40625 558.984375 823.476562 534.941406 C 808.394531 537.707031 792.6875 539.890625 776.484375 541.425781 C 763.9375 551.796875 751.292969 561.359375 738.671875 570.070312 Z M 616.4375 534.941406 C 622.507812 558.984375 630.226562 580.816406 639.277344 599.730469 C 659.054688 592.761719 679.949219 582.777344 701.242188 570.070312 C 688.625 561.359375 675.972656 551.796875 663.429688 541.425781 C 647.222656 539.890625 631.519531 537.707031 616.4375 534.941406 Z M 581.195312 384.261719 C 576.082031 391.164062 571.230469 398.070312 566.652344 404.957031 C 571.230469 411.84375 576.082031 418.75 581.195312 425.652344 C 580.960938 418.816406 580.847656 411.917969 580.847656 404.957031 C 580.847656 397.996094 580.960938 391.097656 581.195312 384.261719 Z M 611.550781 296.550781 C 609.921875 304.660156 608.46875 312.976562 607.203125 321.472656 C 611.871094 316.476562 616.667969 311.511719 621.589844 306.589844 C 626.511719 301.667969 631.476562 296.871094 636.472656 292.203125 C 627.976562 293.46875 619.660156 294.921875 611.550781 296.550781 Z M 607.203125 488.445312 C 608.46875 496.941406 609.921875 505.253906 611.550781 513.359375 C 619.660156 514.992188 627.976562 516.445312 636.472656 517.710938 C 631.476562 513.042969 626.511719 508.246094 621.589844 503.324219 C 616.667969 498.402344 611.871094 493.441406 607.203125 488.445312 Z M 719.957031 251.652344 C 713.070312 256.230469 706.164062 261.078125 699.261719 266.195312 C 706.097656 265.960938 712.996094 265.847656 719.957031 265.847656 C 726.917969 265.847656 733.816406 265.960938 740.652344 266.195312 C 733.75 261.078125 726.84375 256.230469 719.957031 251.652344 Z M 828.359375 296.550781 C 820.253906 294.921875 811.941406 293.46875 803.445312 292.203125 C 808.441406 296.871094 813.402344 301.667969 818.324219 306.589844 C 823.246094 311.511719 828.042969 316.476562 832.710938 321.472656 C 831.445312 312.976562 829.992188 304.660156 828.359375 296.550781 Z M 873.265625 404.957031 C 868.683594 398.070312 863.832031 391.164062 858.71875 384.261719 C 858.949219 391.097656 859.070312 397.996094 859.070312 404.957031 C 859.070312 411.917969 858.949219 418.816406 858.71875 425.652344 C 863.832031 418.75 868.683594 411.84375 873.265625 404.957031 Z M 828.359375 513.359375 C 829.992188 505.253906 831.445312 496.941406 832.710938 488.445312 C 828.042969 493.441406 823.246094 498.402344 818.324219 503.324219 C 813.402344 508.246094 808.441406 513.042969 803.445312 517.710938 C 811.941406 516.445312 820.253906 514.992188 828.359375 513.359375 Z M 719.957031 558.265625 C 726.84375 553.683594 733.75 548.832031 740.652344 543.71875 C 733.816406 543.949219 726.917969 544.070312 719.957031 544.070312 C 712.996094 544.070312 706.097656 543.949219 699.261719 543.71875 C 706.164062 548.832031 713.070312 553.683594 719.957031 558.265625 Z M 676.117188 425.417969 L 660.925781 462.683594 L 642.554688 455.195312 L 686.804688 346.660156 L 705.171875 346.660156 L 749.421875 455.195312 L 731.050781 462.683594 L 715.855469 425.417969 Z M 707.769531 405.578125 L 695.988281 376.679688 L 684.207031 405.578125 Z M 759.632812 345.046875 L 779.46875 345.046875 L 779.46875 460.699219 L 759.632812 460.699219 Z M 759.632812 345.046875" stroke-linecap="round" />
      </g>
      <g transform="matrix(1.33 0 0 1.33 0.06 0.06)">
        <path style="stroke: none; stroke-width: 1; stroke-dasharray: none; stroke-linecap: butt; stroke-dashoffset: 0; stroke-linejoin: miter; stroke-miterlimit: 4; fill: rgb(254,104,34); fill-rule: nonzero; opacity: 1;" vector-effect="non-scaling-stroke" transform=" translate(-720, -405)" d="M 720 243 C 630.507812 243 558 315.574219 558 405 C 558 494.425781 630.507812 567 720 567 C 809.492188 567 882 494.425781 882 405 C 882 315.574219 809.492188 243 720 243 Z M 720 556.746094 C 636.191406 556.746094 568.253906 488.808594 568.253906 405 C 568.253906 321.191406 636.191406 253.253906 720 253.253906 C 803.808594 253.253906 871.746094 321.191406 871.746094 405 C 871.746094 488.808594 803.808594 556.746094 720 556.746094 Z M 720 556.746094" stroke-linecap="round" />
      </g>
    </g>
  </g>
</svg>