<svg width="17" height="140" viewBox="0 0 17 140" fill="none" xmlns="http://www.w3.org/2000/svg">
<path d="M9.52 132.176V137.04L12 137.936V139.472L0.912 135.44V133.76L12 129.744V131.28L9.52 132.176ZM8.336 132.592L2.704 134.608L8.336 136.624V132.592ZM10.656 124.723L3.232 122.003V120.451L12 123.891V125.587L3.232 129.027V127.459L10.656 124.723ZM7.28 111.018C7.55733 111.018 7.85067 111.034 8.16 111.066V118.074C9.024 118.021 9.70133 117.727 10.192 117.194C10.672 116.65 10.912 115.994 10.912 115.226C10.912 114.597 10.768 114.074 10.48 113.658C10.1813 113.231 9.78667 112.933 9.296 112.762V111.194C10.1387 111.429 10.8267 111.898 11.36 112.602C11.8827 113.306 12.144 114.181 12.144 115.226C12.144 116.058 11.9573 116.805 11.584 117.466C11.2107 118.117 10.6827 118.629 10 119.002C9.30667 119.375 8.50667 119.562 7.6 119.562C6.69333 119.562 5.89867 119.381 5.216 119.018C4.53333 118.655 4.01067 118.149 3.648 117.498C3.27467 116.837 3.088 116.079 3.088 115.226C3.088 114.394 3.26933 113.658 3.632 113.018C3.99467 112.378 4.496 111.887 5.136 111.546C5.76533 111.194 6.48 111.018 7.28 111.018ZM6.976 112.522C6.42133 112.522 5.94667 112.645 5.552 112.89C5.14667 113.135 4.84267 113.471 4.64 113.898C4.42667 114.314 4.32 114.778 4.32 115.29C4.32 116.026 4.55467 116.655 5.024 117.178C5.49333 117.69 6.144 117.983 6.976 118.058V112.522ZM4.656 107.64C4.15467 107.384 3.76533 107.021 3.488 106.552C3.21067 106.072 3.072 105.491 3.072 104.808H4.576V105.192C4.576 106.824 5.46133 107.64 7.232 107.64H12V109.096H3.232V107.64H4.656ZM7.584 103.671C6.688 103.671 5.904 103.49 5.232 103.127C4.54933 102.765 4.02133 102.269 3.648 101.639C3.27467 100.999 3.088 100.29 3.088 99.5114C3.088 98.7434 3.25333 98.0767 3.584 97.5114C3.91467 96.946 4.33067 96.5247 4.832 96.2474H3.232V94.7754H12V96.2474H10.368C10.88 96.5354 11.3067 96.9674 11.648 97.5434C11.9787 98.1087 12.144 98.77 12.144 99.5274C12.144 100.306 11.952 101.01 11.568 101.639C11.184 102.269 10.6453 102.765 9.952 103.127C9.25867 103.49 8.46933 103.671 7.584 103.671ZM7.6 96.2474C6.93867 96.2474 6.36267 96.3807 5.872 96.6474C5.38133 96.914 5.008 97.2767 4.752 97.7354C4.48533 98.1834 4.352 98.6794 4.352 99.2234C4.352 99.7674 4.48 100.263 4.736 100.711C4.992 101.159 5.36533 101.517 5.856 101.783C6.34667 102.05 6.92267 102.183 7.584 102.183C8.256 102.183 8.84267 102.05 9.344 101.783C9.83467 101.517 10.2133 101.159 10.48 100.711C10.736 100.263 10.864 99.7674 10.864 99.2234C10.864 98.6794 10.736 98.1834 10.48 97.7354C10.2133 97.2767 9.83467 96.914 9.344 96.6474C8.84267 96.3807 8.26133 96.2474 7.6 96.2474ZM3.088 88.6989C3.088 87.9415 3.25333 87.2802 3.584 86.7149C3.91467 86.1389 4.33067 85.7122 4.832 85.4349H3.232V83.9629H12.192C12.992 83.9629 13.7013 84.1335 14.32 84.4749C14.9493 84.8162 15.44 85.3069 15.792 85.9469C16.144 86.5762 16.32 87.3122 16.32 88.1549C16.32 89.3069 16.048 90.2669 15.504 91.0349C14.96 91.8029 14.2187 92.2562 13.28 92.3949V90.9549C13.8133 90.7949 14.24 90.4642 14.56 89.9629C14.8907 89.4615 15.056 88.8589 15.056 88.1549C15.056 87.3549 14.8053 86.7042 14.304 86.2029C13.8027 85.6909 13.0987 85.4349 12.192 85.4349H10.352C10.864 85.7229 11.2907 86.1495 11.632 86.7149C11.9733 87.2802 12.144 87.9415 12.144 88.6989C12.144 89.4775 11.952 90.1869 11.568 90.8269C11.184 91.4562 10.6453 91.9522 9.952 92.3149C9.25867 92.6775 8.46933 92.8589 7.584 92.8589C6.688 92.8589 5.904 92.6775 5.232 92.3149C4.54933 91.9522 4.02133 91.4562 3.648 90.8269C3.27467 90.1869 3.088 89.4775 3.088 88.6989ZM7.6 85.4349C6.93867 85.4349 6.36267 85.5682 5.872 85.8349C5.38133 86.1015 5.008 86.4642 4.752 86.9229C4.48533 87.3709 4.352 87.8669 4.352 88.4109C4.352 88.9549 4.48 89.4509 4.736 89.8989C4.992 90.3469 5.36533 90.7042 5.856 90.9709C6.34667 91.2375 6.92267 91.3709 7.584 91.3709C8.256 91.3709 8.84267 91.2375 9.344 90.9709C9.83467 90.7042 10.2133 90.3469 10.48 89.8989C10.736 89.4509 10.864 88.9549 10.864 88.4109C10.864 87.8669 10.736 87.3709 10.48 86.9229C10.2133 86.4642 9.83467 86.1015 9.344 85.8349C8.84267 85.5682 8.26133 85.4349 7.6 85.4349ZM7.28 73.5024C7.55733 73.5024 7.85067 73.5184 8.16 73.5504V80.5584C9.024 80.505 9.70133 80.2117 10.192 79.6784C10.672 79.1344 10.912 78.4784 10.912 77.7104C10.912 77.081 10.768 76.5584 10.48 76.1424C10.1813 75.7157 9.78667 75.417 9.296 75.2464V73.6784C10.1387 73.913 10.8267 74.3824 11.36 75.0864C11.8827 75.7904 12.144 76.665 12.144 77.7104C12.144 78.5424 11.9573 79.289 11.584 79.9504C11.2107 80.601 10.6827 81.113 10 81.4864C9.30667 81.8597 8.50667 82.0464 7.6 82.0464C6.69333 82.0464 5.89867 81.865 5.216 81.5024C4.53333 81.1397 4.01067 80.633 3.648 79.9824C3.27467 79.321 3.088 78.5637 3.088 77.7104C3.088 76.8784 3.26933 76.1424 3.632 75.5024C3.99467 74.8624 4.496 74.3717 5.136 74.0304C5.76533 73.6784 6.48 73.5024 7.28 73.5024ZM6.976 75.0064C6.42133 75.0064 5.94667 75.129 5.552 75.3744C5.14667 75.6197 4.84267 75.9557 4.64 76.3824C4.42667 76.7984 4.32 77.2624 4.32 77.7744C4.32 78.5104 4.55467 79.1397 5.024 79.6624C5.49333 80.1744 6.144 80.4677 6.976 80.5424V75.0064ZM7.584 67.8589C6.688 67.8589 5.904 67.6775 5.232 67.3149C4.54933 66.9522 4.02133 66.4562 3.648 65.8269C3.27467 65.1869 3.088 64.4722 3.088 63.6829C3.088 63.0002 3.248 62.3655 3.568 61.7789C3.87733 61.1922 4.288 60.7442 4.8 60.4349H0.16V58.9629H12V60.4349H10.352C10.8747 60.7229 11.3067 61.1495 11.648 61.7149C11.9787 62.2802 12.144 62.9415 12.144 63.6989C12.144 64.4775 11.952 65.1869 11.568 65.8269C11.184 66.4562 10.6453 66.9522 9.952 67.3149C9.25867 67.6775 8.46933 67.8589 7.584 67.8589ZM7.6 60.4349C6.93867 60.4349 6.36267 60.5682 5.872 60.8349C5.38133 61.1015 5.008 61.4642 4.752 61.9229C4.48533 62.3709 4.352 62.8669 4.352 63.4109C4.352 63.9549 4.48 64.4509 4.736 64.8989C4.992 65.3469 5.36533 65.7042 5.856 65.9709C6.34667 66.2375 6.92267 66.3709 7.584 66.3709C8.256 66.3709 8.84267 66.2375 9.344 65.9709C9.83467 65.7042 10.2133 65.3469 10.48 64.8989C10.736 64.4509 10.864 63.9549 10.864 63.4109C10.864 62.8669 10.736 62.3709 10.48 61.9229C10.2133 61.4642 9.83467 61.1015 9.344 60.8349C8.84267 60.5682 8.26133 60.4349 7.6 60.4349ZM7.28 48.5024C7.55733 48.5024 7.85067 48.5184 8.16 48.5504V55.5584C9.024 55.505 9.70133 55.2117 10.192 54.6784C10.672 54.1344 10.912 53.4784 10.912 52.7104C10.912 52.081 10.768 51.5584 10.48 51.1424C10.1813 50.7157 9.78667 50.417 9.296 50.2464V48.6784C10.1387 48.913 10.8267 49.3824 11.36 50.0864C11.8827 50.7904 12.144 51.665 12.144 52.7104C12.144 53.5424 11.9573 54.289 11.584 54.9504C11.2107 55.601 10.6827 56.113 10 56.4864C9.30667 56.8597 8.50667 57.0464 7.6 57.0464C6.69333 57.0464 5.89867 56.865 5.216 56.5024C4.53333 56.1397 4.01067 55.633 3.648 54.9824C3.27467 54.321 3.088 53.5637 3.088 52.7104C3.088 51.8784 3.26933 51.1424 3.632 50.5024C3.99467 49.8624 4.496 49.3717 5.136 49.0304C5.76533 48.6784 6.48 48.5024 7.28 48.5024ZM6.976 50.0064C6.42133 50.0064 5.94667 50.129 5.552 50.3744C5.14667 50.6197 4.84267 50.9557 4.64 51.3824C4.42667 51.7984 4.32 52.2624 4.32 52.7744C4.32 53.5104 4.55467 54.1397 5.024 54.6624C5.49333 55.1744 6.144 55.4677 6.976 55.5424V50.0064ZM3.072 36.0365C3.072 35.3538 3.216 34.7458 3.504 34.2125C3.78133 33.6792 4.20267 33.2578 4.768 32.9485C5.33333 32.6392 6.02133 32.4845 6.832 32.4845H12V33.9245H7.04C6.16533 33.9245 5.49867 34.1432 5.04 34.5805C4.57067 35.0072 4.336 35.5885 4.336 36.3245C4.336 37.0818 4.58133 37.6845 5.072 38.1325C5.552 38.5805 6.25067 38.8045 7.168 38.8045H12V40.2445H7.04C6.16533 40.2445 5.49867 40.4632 5.04 40.9005C4.57067 41.3272 4.336 41.9085 4.336 42.6445C4.336 43.4018 4.58133 44.0045 5.072 44.4525C5.552 44.9005 6.25067 45.1245 7.168 45.1245H12V46.5805H3.232V45.1245H4.496C4.03733 44.8365 3.68533 44.4525 3.44 43.9725C3.19467 43.4818 3.072 42.9432 3.072 42.3565C3.072 41.6205 3.23733 40.9698 3.568 40.4045C3.89867 39.8392 4.384 39.4178 5.024 39.1405C4.40533 38.8952 3.92533 38.4898 3.584 37.9245C3.24267 37.3592 3.072 36.7298 3.072 36.0365ZM7.584 30.6401C6.688 30.6401 5.904 30.4588 5.232 30.0961C4.54933 29.7335 4.02133 29.2375 3.648 28.6081C3.27467 27.9681 3.088 27.2588 3.088 26.4801C3.088 25.7121 3.25333 25.0455 3.584 24.4801C3.91467 23.9148 4.33067 23.4935 4.832 23.2161H3.232V21.7441H12V23.2161H10.368C10.88 23.5041 11.3067 23.9361 11.648 24.5121C11.9787 25.0775 12.144 25.7388 12.144 26.4961C12.144 27.2748 11.952 27.9788 11.568 28.6081C11.184 29.2375 10.6453 29.7335 9.952 30.0961C9.25867 30.4588 8.46933 30.6401 7.584 30.6401ZM7.6 23.2161C6.93867 23.2161 6.36267 23.3495 5.872 23.6161C5.38133 23.8828 5.008 24.2455 4.752 24.7041C4.48533 25.1521 4.352 25.6481 4.352 26.1921C4.352 26.7361 4.48 27.2321 4.736 27.6801C4.992 28.1281 5.36533 28.4855 5.856 28.7521C6.34667 29.0188 6.92267 29.1521 7.584 29.1521C8.256 29.1521 8.84267 29.0188 9.344 28.7521C9.83467 28.4855 10.2133 28.1281 10.48 27.6801C10.736 27.2321 10.864 26.7361 10.864 26.1921C10.864 25.6481 10.736 25.1521 10.48 24.7041C10.2133 24.2455 9.83467 23.8828 9.344 23.6161C8.84267 23.3495 8.26133 23.2161 7.6 23.2161ZM3.072 15.0116C3.072 13.945 3.39733 13.081 4.048 12.4196C4.688 11.7583 5.616 11.4276 6.832 11.4276H12V12.8676H7.04C6.16533 12.8676 5.49867 13.0863 5.04 13.5236C4.57067 13.961 4.336 14.5583 4.336 15.3156C4.336 16.0836 4.576 16.697 5.056 17.1556C5.536 17.6036 6.23467 17.8276 7.152 17.8276H12V19.2836H3.232V17.8276H4.48C4.032 17.5396 3.68533 17.1503 3.44 16.6596C3.19467 16.1583 3.072 15.609 3.072 15.0116ZM7.584 9.59325C6.688 9.59325 5.904 9.41192 5.232 9.04925C4.54933 8.68658 4.02133 8.19058 3.648 7.56125C3.27467 6.92125 3.088 6.20658 3.088 5.41725C3.088 4.73458 3.248 4.09992 3.568 3.51325C3.87733 2.92658 4.288 2.47858 4.8 2.16925H0.16V0.697249H12V2.16925H10.352C10.8747 2.45725 11.3067 2.88392 11.648 3.44925C11.9787 4.01458 12.144 4.67592 12.144 5.43325C12.144 6.21192 11.952 6.92125 11.568 7.56125C11.184 8.19058 10.6453 8.68658 9.952 9.04925C9.25867 9.41192 8.46933 9.59325 7.584 9.59325ZM7.6 2.16925C6.93867 2.16925 6.36267 2.30258 5.872 2.56925C5.38133 2.83592 5.008 3.19858 4.752 3.65725C4.48533 4.10525 4.352 4.60125 4.352 5.14525C4.352 5.68925 4.48 6.18525 4.736 6.63325C4.992 7.08125 5.36533 7.43858 5.856 7.70525C6.34667 7.97192 6.92267 8.10525 7.584 8.10525C8.256 8.10525 8.84267 7.97192 9.344 7.70525C9.83467 7.43858 10.2133 7.08125 10.48 6.63325C10.736 6.18525 10.864 5.68925 10.864 5.14525C10.864 4.60125 10.736 4.10525 10.48 3.65725C10.2133 3.19858 9.83467 2.83592 9.344 2.56925C8.84267 2.30258 8.26133 2.16925 7.6 2.16925Z" fill="#29292A"/>
</svg>
