<svg width="40" height="41" viewBox="0 0 40 41" fill="none" xmlns="http://www.w3.org/2000/svg">
<rect y="0.535156" width="40" height="40" rx="20" fill="white"/>
<g clip-path="url(#clip0_125_10937)">
<path d="M21.6455 32.5372H17.804C17.1624 32.5372 16.6404 32.0153 16.6404 31.3736V22.7089H14.3992C13.7576 22.7089 13.2356 22.1867 13.2356 21.5453V17.8324C13.2356 17.1908 13.7576 16.6688 14.3992 16.6688H16.6404V14.8096C16.6404 12.966 17.2193 11.3976 18.3143 10.2741C19.4142 9.1454 20.9514 8.54895 22.7596 8.54895L25.6893 8.55371C26.3298 8.55481 26.8509 9.07677 26.8509 9.71732V13.1646C26.8509 13.8063 26.3291 14.3282 25.6876 14.3282L23.7151 14.329C23.1135 14.329 22.9603 14.4496 22.9276 14.4865C22.8736 14.5478 22.8093 14.7212 22.8093 15.1997V16.6686H25.5394C25.7449 16.6686 25.944 16.7193 26.1152 16.8149C26.4843 17.0211 26.7138 17.4111 26.7138 17.8326L26.7123 21.5455C26.7123 22.1867 26.1904 22.7087 25.5487 22.7087H22.8093V31.3736C22.8093 32.0153 22.2872 32.5372 21.6455 32.5372ZM18.0467 31.1309H21.4029V22.0793C21.4029 21.6509 21.7515 21.3024 22.1798 21.3024H25.306L25.3073 18.0751H22.1796C21.7513 18.0751 21.4029 17.7266 21.4029 17.2982V15.1997C21.4029 14.6503 21.4587 14.0255 21.8734 13.5559C22.3745 12.9882 23.1642 12.9227 23.7147 12.9227L25.4446 12.9219V9.95964L22.7585 9.95524C19.8525 9.95524 18.0467 11.8154 18.0467 14.8096V17.2982C18.0467 17.7265 17.6983 18.0751 17.27 18.0751H14.6419V21.3024H17.27C17.6983 21.3024 18.0467 21.6509 18.0467 22.0793V31.1309Z" fill="#FF6720"/>
</g>
<defs>
<clipPath id="clip0_125_10937">
<rect width="23.9414" height="23.9883" fill="white" transform="translate(8.05859 8.59583)"/>
</clipPath>
</defs>
</svg>
