<svg width="44" height="44" viewBox="0 0 44 44" fill="none" xmlns="http://www.w3.org/2000/svg">
<rect x="1" y="1" width="42" height="42" rx="7" stroke="#FFEDE4" stroke-width="2"/>
<path d="M18.625 10C17.5777 9.99944 16.5559 10.3288 15.7006 10.9428C14.8453 11.5567 14.1985 12.425 13.8494 13.428H8.5V16.8559H13.8494C14.198 17.8595 14.8446 18.7286 15.6999 19.3433C16.5552 19.958 17.5772 20.2881 18.625 20.2881C19.6728 20.2881 20.6948 19.958 21.5501 19.3433C22.4054 18.7286 23.052 17.8595 23.4006 16.8559H35.5V13.428H23.4006C23.0515 12.425 22.4047 11.5567 21.5494 10.9428C20.6941 10.3288 19.6723 9.99944 18.625 10ZM16.9375 15.142C16.9375 14.6874 17.1153 14.2514 17.4318 13.93C17.7482 13.6086 18.1774 13.428 18.625 13.428C19.0726 13.428 19.5018 13.6086 19.8182 13.93C20.1347 14.2514 20.3125 14.6874 20.3125 15.142C20.3125 15.5965 20.1347 16.0325 19.8182 16.3539C19.5018 16.6754 19.0726 16.8559 18.625 16.8559C18.1774 16.8559 17.7482 16.6754 17.4318 16.3539C17.1153 16.0325 16.9375 15.5965 16.9375 15.142ZM25.375 23.7119C24.3277 23.7113 23.3059 24.0407 22.4506 24.6547C21.5953 25.2686 20.9485 26.1369 20.5994 27.1399H8.5V30.5678H20.5994C20.948 31.5714 21.5946 32.4405 22.4499 33.0552C23.3052 33.6699 24.3272 34 25.375 34C26.4228 34 27.4448 33.6699 28.3001 33.0552C29.1554 32.4405 29.802 31.5714 30.1506 30.5678H35.5V27.1399H30.1506C29.8015 26.1369 29.1547 25.2686 28.2994 24.6547C27.4441 24.0407 26.4223 23.7113 25.375 23.7119ZM23.6875 28.8538C23.6875 28.3993 23.8653 27.9633 24.1818 27.6419C24.4982 27.3204 24.9274 27.1399 25.375 27.1399C25.8226 27.1399 26.2518 27.3204 26.5682 27.6419C26.8847 27.9633 27.0625 28.3993 27.0625 28.8538C27.0625 29.3084 26.8847 29.7444 26.5682 30.0658C26.2518 30.3872 25.8226 30.5678 25.375 30.5678C24.9274 30.5678 24.4982 30.3872 24.1818 30.0658C23.8653 29.7444 23.6875 29.3084 23.6875 28.8538Z" fill="#FF6720"/>
</svg>
