<svg width="58" height="58" viewBox="0 0 58 58" fill="none" xmlns="http://www.w3.org/2000/svg">
<circle cx="29" cy="29" r="29" fill="#FF6720"/>
<path d="M15.2 38.9552L14.0558 32.5477C13.8943 31.6448 14.0619 30.7139 14.5282 29.924C14.9946 29.1342 15.7287 28.5377 16.5972 28.2429L16.925 28.1317M16.925 28.1317L27.7695 24.4517C28.5675 24.1813 29.4325 24.1813 30.2305 24.4517L41.075 28.1317M16.925 28.1317V20.8484C16.925 19.8318 17.3289 18.8567 18.0478 18.1378C18.7666 17.419 19.7417 17.0151 20.7583 17.0151H25.55M41.075 28.1317L41.4028 28.2429C42.2713 28.5377 43.0054 29.1342 43.4718 29.924C43.9381 30.7139 44.1057 31.6448 43.9443 32.5477L42.8 38.9533M41.075 28.1317V20.8484C41.075 19.8318 40.6711 18.8567 39.9522 18.1378C39.2334 17.419 38.2583 17.0151 37.2417 17.0151H32.45M25.55 17.0151H32.45M25.55 17.0151V15.2C25.55 14.285 25.9135 13.4075 26.5605 12.7605C27.2075 12.1135 28.085 11.75 29 11.75C29.915 11.75 30.7925 12.1135 31.4395 12.7605C32.0865 13.4075 32.45 14.285 32.45 15.2V17.0151M11.75 45.0981C12.9901 46.3573 16.0088 46.7138 18.8896 45.5121C20.8676 44.6879 23.3669 44.6668 25.389 45.376C27.73 46.1754 30.27 46.1754 32.611 45.376C34.6331 44.6668 37.1324 44.686 39.1085 45.5102C41.9912 46.7138 45.0118 46.3573 46.25 45.0962" stroke="white" stroke-width="1.73437" stroke-linecap="round" stroke-linejoin="round"/>
</svg>
