<svg width="58" height="58" viewBox="0 0 58 58" fill="none" xmlns="http://www.w3.org/2000/svg">
<circle cx="29" cy="29" r="29" fill="#FF6720"/>
<mask id="path-2-inside-1_3987_13006" fill="white">
<path d="M46.5316 12.4323C45.9712 11.5215 44.995 11.0001 43.852 11.0001C43.1872 11.0001 42.5032 11.1753 41.8192 11.5203C39.5062 12.6891 36.562 14.8011 33.4726 17.4718L27.2051 16.7751L28.3409 15.6387L27.1955 14.4927L25.1423 16.5453L18.6077 15.8199L19.9697 14.4579L18.8231 13.3113L16.5449 15.5907L11.7629 15.0591C10.5822 14.9277 10.8101 17.8954 12.1829 18.5356L25.9043 24.9316C23.2595 27.8867 19.6919 32.2493 18.3743 35.5943L12.3569 34.9259C11.9501 34.8815 12.0281 35.9009 12.5003 36.1211C15.5369 37.5359 17.1305 38.2794 17.9681 38.67C17.9873 38.733 18.0131 38.793 18.0377 38.853C16.8833 40.2468 16.2347 41.304 16.4693 41.5368C16.7009 41.7678 17.7521 41.1228 19.1399 39.972C19.2023 39.9984 19.2671 40.0242 19.3367 40.0464L21.8783 45.501C22.0991 45.9738 23.1191 46.05 23.0741 45.6444L22.4087 39.6438C25.3253 38.4774 29.3213 35.4995 33.079 32.1179L39.4624 45.816C40.1032 47.1918 43.072 47.4174 42.9406 46.2354L42.409 41.4528L44.6872 39.1752L43.5406 38.0285L42.1798 39.39L41.4544 32.8547L43.5058 30.8039L42.3592 29.6567L41.2246 30.7919L40.5286 24.5272C43.2004 21.4378 45.3124 18.4936 46.48 16.1805C47.155 14.8407 47.1736 13.4745 46.5316 12.4323ZM45.4522 15.6621C43.8466 18.8434 40.228 23.5102 35.5396 28.1975C30.4769 33.2615 25.4435 37.0715 22.2749 38.4498L22.1357 37.1909C24.5099 34.7657 26.1257 32.5703 25.7813 32.2211C25.4321 31.8743 23.2361 33.4913 20.8103 35.8661L19.5437 35.7251C20.9255 32.5571 24.7439 27.52 29.8037 22.4602C34.4914 17.773 39.1576 14.1543 42.3382 12.5475C42.8806 12.2745 43.3942 12.1509 43.8526 12.1509C45.4906 12.1503 46.4284 13.7259 45.4522 15.6621Z"/>
</mask>
<path d="M46.5316 12.4323C45.9712 11.5215 44.995 11.0001 43.852 11.0001C43.1872 11.0001 42.5032 11.1753 41.8192 11.5203C39.5062 12.6891 36.562 14.8011 33.4726 17.4718L27.2051 16.7751L28.3409 15.6387L27.1955 14.4927L25.1423 16.5453L18.6077 15.8199L19.9697 14.4579L18.8231 13.3113L16.5449 15.5907L11.7629 15.0591C10.5822 14.9277 10.8101 17.8954 12.1829 18.5356L25.9043 24.9316C23.2595 27.8867 19.6919 32.2493 18.3743 35.5943L12.3569 34.9259C11.9501 34.8815 12.0281 35.9009 12.5003 36.1211C15.5369 37.5359 17.1305 38.2794 17.9681 38.67C17.9873 38.733 18.0131 38.793 18.0377 38.853C16.8833 40.2468 16.2347 41.304 16.4693 41.5368C16.7009 41.7678 17.7521 41.1228 19.1399 39.972C19.2023 39.9984 19.2671 40.0242 19.3367 40.0464L21.8783 45.501C22.0991 45.9738 23.1191 46.05 23.0741 45.6444L22.4087 39.6438C25.3253 38.4774 29.3213 35.4995 33.079 32.1179L39.4624 45.816C40.1032 47.1918 43.072 47.4174 42.9406 46.2354L42.409 41.4528L44.6872 39.1752L43.5406 38.0285L42.1798 39.39L41.4544 32.8547L43.5058 30.8039L42.3592 29.6567L41.2246 30.7919L40.5286 24.5272C43.2004 21.4378 45.3124 18.4936 46.48 16.1805C47.155 14.8407 47.1736 13.4745 46.5316 12.4323ZM45.4522 15.6621C43.8466 18.8434 40.228 23.5102 35.5396 28.1975C30.4769 33.2615 25.4435 37.0715 22.2749 38.4498L22.1357 37.1909C24.5099 34.7657 26.1257 32.5703 25.7813 32.2211C25.4321 31.8743 23.2361 33.4913 20.8103 35.8661L19.5437 35.7251C20.9255 32.5571 24.7439 27.52 29.8037 22.4602C34.4914 17.773 39.1576 14.1543 42.3382 12.5475C42.8806 12.2745 43.3942 12.1509 43.8526 12.1509C45.4906 12.1503 46.4284 13.7259 45.4522 15.6621Z" stroke="white" stroke-width="2.3125" mask="url(#path-2-inside-1_3987_13006)"/>
</svg>
