<svg width="58" height="58" viewBox="0 0 58 58" fill="none" xmlns="http://www.w3.org/2000/svg">
<circle cx="29" cy="29" r="29" fill="#FF6720"/>
<path d="M47.9198 26.8828L46.7804 22.3251C47.0919 22.2589 47.3257 21.9826 47.3257 21.6514V20.9166C47.3257 19.3211 46.0276 18.0231 44.4321 18.0231H39.2422V16.5073C39.2422 15.7222 38.6035 15.0835 37.8184 15.0835H11.3632C10.5781 15.0835 9.93941 15.7222 9.93941 16.5073V29C9.93941 29.3805 10.2478 29.689 10.6284 29.689C11.0088 29.689 11.3173 29.3806 11.3173 29V16.5073C11.3173 16.482 11.3379 16.4614 11.3632 16.4614H37.8183C37.8437 16.4614 37.8642 16.482 37.8642 16.5073V29.0002C37.8642 29.3807 38.1726 29.6892 38.5532 29.6892C38.9336 29.6892 39.2421 29.3807 39.2421 29.0002V28.2192H47.3691C47.3698 28.2192 47.3703 28.2194 47.3709 28.2194C47.3716 28.2194 47.3722 28.2193 47.3728 28.2193C48.3729 28.22 49.222 28.8764 49.5137 29.7809H47.3715C46.991 29.7809 46.6825 30.0893 46.6825 30.4698V31.9395C46.6825 33.1299 47.6508 34.0982 48.8412 34.0982H49.622V37.1295H47.8206C47.2288 35.4208 45.6045 34.19 43.6971 34.19C41.7897 34.19 40.1653 35.4208 39.5737 37.1295H39.2419V31.9395C39.2419 31.559 38.9335 31.2505 38.553 31.2505C38.1725 31.2505 37.864 31.5589 37.864 31.9395V37.1293H23.5702C22.9784 35.4206 21.3541 34.1898 19.4468 34.1898C17.5394 34.1898 15.915 35.4206 15.3233 37.1293H11.3632C11.3379 37.1293 11.3173 37.1088 11.3173 37.0834V35.5677H14.3027C14.6832 35.5677 14.9917 35.2593 14.9917 34.8788C14.9917 34.4982 14.6832 34.1898 14.3027 34.1898H7.68896C7.30852 34.1898 7 34.4982 7 34.8788C7 35.2593 7.30843 35.5677 7.68896 35.5677H9.93949V37.0834C9.93949 37.8685 10.5782 38.5072 11.3633 38.5072H15.0847C15.0846 38.5225 15.0835 38.5377 15.0835 38.5531C15.0835 40.959 17.0409 42.9163 19.4468 42.9163C21.8526 42.9163 23.81 40.959 23.81 38.5531C23.81 38.5376 23.8089 38.5225 23.8088 38.5072H39.3351C39.3349 38.5225 39.3339 38.5377 39.3339 38.5531C39.3339 40.959 41.2913 42.9163 43.6971 42.9163C46.1029 42.9163 48.0603 40.959 48.0603 38.5531C48.0603 38.5376 48.0593 38.5225 48.0591 38.5072H50.311C50.6914 38.5072 50.9999 38.1988 50.9999 37.8183V30.4697C51 28.6554 49.6614 27.1479 47.9198 26.8828ZM39.2422 19.4009H44.4321C45.2679 19.4009 45.9478 20.0808 45.9478 20.9166V20.9625H39.2422V19.4009ZM39.2422 26.8414V22.3403H45.364L46.4892 26.8414H39.2422ZM19.4468 41.5387C17.8006 41.5387 16.4614 40.1995 16.4614 38.5533C16.4614 36.9071 17.8006 35.5679 19.4468 35.5679C21.0929 35.5679 22.4321 36.9071 22.4321 38.5533C22.4321 40.1995 21.0929 41.5387 19.4468 41.5387ZM43.6973 41.5387C42.0512 41.5387 40.7119 40.1995 40.7119 38.5533C40.7119 36.9071 42.0512 35.5679 43.6973 35.5679C45.3434 35.5679 46.6827 36.9071 46.6827 38.5533C46.6827 40.1995 45.3434 41.5387 43.6973 41.5387ZM49.6222 32.7203H48.8413C48.4108 32.7203 48.0605 32.37 48.0605 31.9395V31.1586H49.6221V32.7203H49.6222Z" fill="white"/>
<path d="M19.4473 37.1294C18.6621 37.1294 18.0234 37.7681 18.0234 38.5532C18.0234 39.3383 18.6621 39.977 19.4473 39.977C20.2324 39.977 20.8711 39.3383 20.8711 38.5532C20.8711 37.7681 20.2324 37.1294 19.4473 37.1294Z" fill="white"/>
<path d="M43.6974 37.1294C42.9122 37.1294 42.2736 37.7681 42.2736 38.5532C42.2736 39.3383 42.9122 39.977 43.6974 39.977C44.4825 39.977 45.1212 39.3383 45.1212 38.5532C45.1212 37.7681 44.4825 37.1294 43.6974 37.1294Z" fill="white"/>
<path d="M35.6138 34.1901H25.3257C24.9452 34.1901 24.6367 34.4985 24.6367 34.879C24.6367 35.2596 24.9451 35.568 25.3257 35.568H35.6138C35.9942 35.568 36.3027 35.2596 36.3027 34.879C36.3027 34.4985 35.9943 34.1901 35.6138 34.1901Z" fill="white"/>
<path d="M17.9771 31.2505H9.15869C8.77824 31.2505 8.46973 31.5589 8.46973 31.9394C8.46973 32.32 8.77816 32.6284 9.15869 32.6284H17.9771C18.3575 32.6284 18.666 32.32 18.666 31.9394C18.666 31.5589 18.3575 31.2505 17.9771 31.2505Z" fill="white"/>
</svg>
