<?xml version="1.0" encoding="UTF-8"?>
<svg version="1.1" xmlns="http://www.w3.org/2000/svg" width="232" height="232">
<path d="M0 0 C3.17739189 1.64708129 5.37781742 3.75563484 7 7 C8.84224838 22.15907238 -1.192131 33.61539283 -10 45 C-11.39228084 46.52266165 -12.80293217 48.02930658 -14.25 49.5 C-16.54599333 52.04179311 -17.44193191 53.61679082 -17.5625 57.0625 C-17.42589903 58.7133373 -17.22865 60.35937732 -17 62 C-16.84402344 63.2890625 -16.68804687 64.578125 -16.52734375 65.90625 C-16.06626629 69.611882 -15.54511862 73.3058479 -15 77 C-13.02 75.515 -13.02 75.515 -11 74 C-9.68 75.32 -8.36 76.64 -7 78 C-8.17870129 80.8931759 -9.08539186 82.06566647 -11.62109375 84.015625 C-14.22989523 87.28840716 -14.32194703 87.7795702 -14.0859375 91.72265625 C-13.8767456 93.50608342 -13.63880044 95.28632911 -13.375 97.0625 C-13.26542969 97.96033203 -13.15585938 98.85816406 -13.04296875 99.78320312 C-12.5614498 103.59286772 -11.98762893 107.28607064 -11 111 C-10.01 110.01 -9.02 109.02 -8 108 C-4.52100842 109.39159663 -3.51947499 110.63251488 -2 114 C-2.58910156 114.33386719 -3.17820313 114.66773438 -3.78515625 115.01171875 C-6.73720052 117.18397774 -8.24061056 118.73830086 -10 122 C-10.69223307 128.33993533 -9.8559604 134.77938933 -9.10522461 141.08569336 C-9.07050049 141.71741455 -9.03577637 142.34913574 -9 143 C-10.55985209 144.55985209 -12.08906098 144.24452344 -14.25 144.3125 C-15.40242188 144.36857422 -15.40242188 144.36857422 -16.578125 144.42578125 C-19.97352857 143.8288474 -21.47947281 142.33364262 -24 140 C-25.6940918 137.14111328 -25.6940918 137.14111328 -27.19921875 133.8203125 C-27.47618088 133.21897491 -27.75314301 132.61763733 -28.03849792 131.99807739 C-28.93404953 130.04583404 -29.81094369 128.08583586 -30.6875 126.125 C-31.30177485 124.77520485 -31.91718121 123.42592408 -32.53369141 122.07714844 C-33.77377817 119.35890947 -35.00643531 116.63749278 -36.23291016 113.91308594 C-37.84696494 110.33091006 -39.48762915 106.76151529 -41.13671875 103.1953125 C-42.04989778 101.21373452 -42.96268574 99.23197626 -43.875 97.25 C-44.5086145 95.87739014 -44.5086145 95.87739014 -45.1550293 94.47705078 C-45.5344165 93.64415527 -45.91380371 92.81125977 -46.3046875 91.953125 C-46.63452637 91.23286133 -46.96436523 90.51259766 -47.30419922 89.77050781 C-48 88 -48 88 -48 86 C-48.45246094 86.35449219 -48.90492188 86.70898438 -49.37109375 87.07421875 C-50.88515984 88.25627791 -52.40256684 89.43406114 -53.921875 90.609375 C-56.25448553 92.42099638 -58.57464962 94.24548361 -60.890625 96.078125 C-70.1658209 103.35889685 -79.43123059 109.71561529 -90 115 C-89.01 127.375 -89.01 127.375 -88 140 C-89.65 140 -91.3 140 -93 140 C-96.66666667 132.66666667 -100.33333333 125.33333333 -104 118 C-106.2873727 119.1013276 -108.41458797 120.26290944 -110.5625 121.625 C-113 123 -113 123 -116 123 C-115.49303621 118.56406686 -113.82825762 116.37566232 -111 113 C-111 112.34 -111 111.68 -111 111 C-111.63091553 110.70230713 -112.26183105 110.40461426 -112.91186523 110.09790039 C-115.75479352 108.7549767 -118.59616151 107.40878385 -121.4375 106.0625 C-122.43072266 105.59392578 -123.42394531 105.12535156 -124.44726562 104.64257812 C-125.39150391 104.19462891 -126.33574219 103.74667969 -127.30859375 103.28515625 C-128.18314209 102.87144775 -129.05769043 102.45773926 -129.95874023 102.03149414 C-132 101 -132 101 -133 100 C-133 98.35 -133 96.7 -133 95 C-124.75 95.66 -116.5 96.32 -108 97 C-106.72125 94.628125 -105.4425 92.25625 -104.125 89.8125 C-99.75701873 81.92564337 -94.70484247 74.95972982 -89 68 C-88.13409543 66.94011981 -87.26820994 65.88022404 -86.40234375 64.8203125 C-84.84707279 62.92243827 -83.28541235 61.02976562 -81.71484375 59.14453125 C-79.97191829 57.11826311 -79.97191829 57.11826311 -79 55 C-80.21816406 54.63261719 -81.43632813 54.26523438 -82.69140625 53.88671875 C-89.04336552 51.76691824 -94.94309138 48.7722419 -100.9375 45.8125 C-109.73036998 41.50490907 -118.52744985 37.27407385 -127.61889648 33.62426758 C-131.93227297 31.80813674 -134.57406678 30.04322204 -137 26 C-137.42578125 23.578125 -137.42578125 23.578125 -137.3125 21.25 C-137.28800781 20.47140625 -137.26351562 19.6928125 -137.23828125 18.890625 C-137 17 -137 17 -136 16 C-131.89091414 15.86527587 -128.07504417 15.81707364 -124.015625 16.5078125 C-117.93784897 17.58957261 -117.93784897 17.58957261 -112.45703125 15.28515625 C-110.46655045 13.28058355 -108.68513933 11.26502551 -107 9 C-103.63251488 10.51947499 -102.39159663 11.52100842 -101 15 C-101.99 15.99 -102.98 16.98 -104 18 C-100.8689502 18.51271563 -97.73729619 19.00314452 -94.59765625 19.4609375 C-92.36887907 19.79489108 -90.14509724 20.16771341 -87.93359375 20.6015625 C-82.58320445 21.55152456 -82.58320445 21.55152456 -77.76171875 19.5 C-76.00298572 17.75184052 -74.46166071 16.00042984 -73 14 C-69.83884224 15.36983503 -69.0072908 15.9890638 -67 19 C-67.99 19.99 -68.98 20.98 -70 22 C-65.0067675 22.73681428 -60.01011184 23.38815451 -55 24 C-54.11441406 24.13664062 -53.22882813 24.27328125 -52.31640625 24.4140625 C-48.81479165 24.75111631 -46.83341621 24.5883856 -43.9140625 22.52734375 C-42.4172756 21.1683477 -40.95128536 19.7749367 -39.51171875 18.35546875 C-29.09585696 8.58756103 -14.7777944 -1.93945376 0 0 Z M-81.00390625 66.6015625 C-94.62708865 81.6781764 -94.62708865 81.6781764 -102 99 C-98.93415455 98.92522328 -96.72779427 98.62728935 -94.359375 96.5859375 C-93.21302786 95.36995245 -92.07268838 94.14828388 -90.9375 92.921875 C-87.72709467 89.73736004 -82.7177684 85 -78 85 C-79.30751439 88.66490488 -80.87804794 91.40927914 -83.3125 94.4375 C-83.92867187 95.21351563 -84.54484375 95.98953125 -85.1796875 96.7890625 C-86.72795448 98.66957562 -88.32023523 100.49192194 -89.9375 102.3125 C-92.40587919 104.96425496 -92.40587919 104.96425496 -92 109 C-76.49698163 104.41749016 -62.40427776 90.50666658 -50.78515625 79.59765625 C-48.29702598 77.27702984 -45.75622035 75.04267401 -43.1875 72.8125 C-31.55975385 62.34378964 -21.36550031 50.50013864 -12 38 C-11.26007813 37.03320312 -10.52015625 36.06640625 -9.7578125 35.0703125 C-0.65815212 23.67909558 -0.65815212 23.67909558 2 10 C-0.06285219 7.02041215 -0.06285219 7.02041215 -3 5 C-27.65737136 2.12330667 -67.07861384 49.68799009 -81.00390625 66.6015625 Z M-132 22 C-130.6721532 25.18154608 -129.65093272 26.54588899 -126.52270508 27.99536133 C-125.81048294 28.3328389 -125.0982608 28.67031647 -124.36445618 29.01802063 C-123.59063095 29.36914413 -122.81680573 29.72026764 -122.01953125 30.08203125 C-121.21448654 30.45929855 -120.40944183 30.83656586 -119.58000183 31.2252655 C-116.99614626 32.43282386 -114.40464517 33.62285651 -111.8125 34.8125 C-110.11730381 35.60106504 -108.42263623 36.39076749 -106.72851562 37.18164062 C-103.4074132 38.73027056 -100.0817883 40.26849819 -96.75244141 41.79931641 C-93.67360815 43.21774125 -90.60913293 44.66105313 -87.55615234 46.13427734 C-86.87010422 46.4629631 -86.18405609 46.79164886 -85.47721863 47.1302948 C-83.6407551 48.01224953 -81.80790532 48.90171806 -79.9753418 49.79174805 C-76.91753967 51.25083238 -76.91753967 51.25083238 -73 51 C-71.23154712 49.49707937 -71.23154712 49.49707937 -69.6875 47.4375 C-65.36817957 42.21370648 -60.81131567 37.42508608 -55.5625 33.125 C-54.716875 32.42375 -53.87125 31.7225 -53 31 C-53 30.67 -53 30.34 -53 30 C-62.11848378 28.95162719 -71.23750982 27.90814014 -80.35725403 26.87078857 C-84.59244948 26.38889074 -88.82744328 25.90534805 -93.06201172 25.41796875 C-97.15291819 24.94718687 -101.2443073 24.48082709 -105.33605957 24.01745605 C-106.89263685 23.84040882 -108.44903756 23.6618017 -110.00524902 23.48156738 C-112.19445038 23.22829966 -114.38422892 22.98071885 -116.57421875 22.734375 C-118.43953247 22.52119629 -118.43953247 22.52119629 -120.3425293 22.30371094 C-124.26037843 21.97837856 -128.07087295 21.94899704 -132 22 Z M-25.3034668 61.29760742 C-25.84656494 61.89420166 -26.38966309 62.4907959 -26.94921875 63.10546875 C-27.55056641 63.75966797 -28.15191406 64.41386719 -28.77148438 65.08789062 C-30.03022901 66.46724891 -31.28807007 67.84743241 -32.54492188 69.22851562 C-35.39743421 72.32907251 -38.09900969 75.1420805 -41.51953125 77.61328125 C-42.33808594 78.40089844 -43.15664062 79.18851563 -44 80 C-43.71104659 84.36018887 -42.37058732 87.76418069 -40.4453125 91.6484375 C-39.91800537 92.72552979 -39.39069824 93.80262207 -38.84741211 94.91235352 C-38.27901611 96.05502686 -37.71062012 97.1977002 -37.125 98.375 C-35.93901427 100.78663048 -34.75477499 103.19899994 -33.57421875 105.61328125 C-33.12511894 106.52976692 -33.12511894 106.52976692 -32.66694641 107.46476746 C-30.64019295 111.62267636 -28.71139022 115.81575049 -26.83203125 120.04296875 C-26.09799072 121.69063232 -26.09799072 121.69063232 -25.34912109 123.37158203 C-24.42385354 125.46311557 -23.50843606 127.55904067 -22.60400391 129.65966797 C-22.18683105 130.5982666 -21.7696582 131.53686523 -21.33984375 132.50390625 C-20.98269287 133.32705322 -20.62554199 134.1502002 -20.25756836 134.99829102 C-18.78699968 137.33903895 -17.54388643 138.01333524 -15 139 C-15.56703488 123.28439877 -17.50577119 107.70098079 -19.31359863 92.09185791 C-19.73266706 88.46462442 -20.14635314 84.83677715 -20.56054688 81.20898438 C-21.36855087 74.13872724 -22.18234124 67.06914767 -23 60 C-24.188424 59.88241465 -24.188424 59.88241465 -25.3034668 61.29760742 Z M-112 103 C-109.702779 104.74271938 -107.40133271 106.39911152 -105 108 C-104.67 108.99 -104.34 109.98 -104 111 C-103.38125 111.268125 -102.7625 111.53625 -102.125 111.8125 C-99.07704451 113.51576924 -98.35923152 115.8737675 -97 119 C-96.06173381 115.93312991 -95.98211667 113.54992204 -96.375 110.375 C-96.46523437 109.59898437 -96.55546875 108.82296875 -96.6484375 108.0234375 C-96.91071765 105.93897807 -96.91071765 105.93897807 -98 104 C-101.27555608 103.52998967 -101.27555608 103.52998967 -105.0625 103.375 C-106.99802734 103.26285156 -106.99802734 103.26285156 -108.97265625 103.1484375 C-110.47119141 103.07496094 -110.47119141 103.07496094 -112 103 Z " fill="#FFFFFF" transform="translate(181,44)"/>
<path d="M0 0 C19.75333047 16.93979972 33.20379381 36.48390532 40.3125 61.6875 C40.6321875 62.7496875 40.951875 63.811875 41.28125 64.90625 C48.55387705 93.72740166 42.99768037 126.22436317 27.9375 151.625 C11.56069342 178.10303196 -12.82910954 196.26590269 -42.6875 204.6875 C-43.7496875 205.0071875 -44.811875 205.326875 -45.90625 205.65625 C-76.36736747 213.3427002 -108.30159629 206.41812468 -134.8984375 190.79248047 C-160.36760895 175.06193052 -177.6319917 150.24793853 -185.6875 121.6875 C-186.0071875 120.6253125 -186.326875 119.563125 -186.65625 118.46875 C-194.3427002 88.00763253 -187.41812468 56.07340371 -171.79248047 29.4765625 C-156.06193052 4.00739105 -131.24793853 -13.2569917 -102.6875 -21.3125 C-101.6253125 -21.6321875 -100.563125 -21.951875 -99.46875 -22.28125 C-65.18748343 -30.93166306 -27.43781789 -21.67587614 0 0 Z M-153.1875 13.75 C-174.3047581 35.40949868 -184.829371 64.67253109 -184.6875 94.6875 C-183.44207675 125.79047852 -169.96716147 153.3295651 -147.81640625 174.92578125 C-126.08186466 194.67998658 -96.56498739 204.76372643 -67.35839844 203.59423828 C-36.72729348 201.56211962 -8.75798035 188.06084889 11.92431641 165.30517578 C31.11634177 142.94035692 41.01669693 113.45235985 39.06640625 84.0546875 C36.42686399 53.73719662 22.52212231 25.60448045 -0.6875 5.6875 C-47.36637452 -31.68380437 -110.38234932 -26.7479227 -153.1875 13.75 Z " fill="#FFFFFF" transform="translate(188.6875,24.3125)"/>
</svg>
