<svg width="26" height="25" viewBox="0 0 26 25" fill="none" xmlns="http://www.w3.org/2000/svg">
    <g clip-path="url(#clip0_4662_21664)">
        <path
            d="M13 25C20.1797 25 26 19.4036 26 12.5C26 5.59644 20.1797 0 13 0C5.82031 0 0 5.59644 0 12.5C0 19.4036 5.82031 25 13 25Z"
            fill="white" />
        <mask id="mask0_4662_21664" style="mask-type:luminance" maskUnits="userSpaceOnUse" x="2"
            y="2" width="22" height="22">
            <path
                d="M23.7442 11H13.2558V15.25H19.293C18.7302 17.95 16.3767 19.5 13.2558 19.5C9.57209 19.5 6.60465 16.6 6.60465 13C6.60465 9.4 9.57209 6.5 13.2558 6.5C14.8419 6.5 16.2744 7.05001 17.4 7.95001L20.6744 4.75C18.6791 3.05 16.1209 2 13.2558 2C7.01395 2 2 6.9 2 13C2 19.1 7.01395 24 13.2558 24C18.8837 24 24 20 24 13C24 12.35 23.8977 11.65 23.7442 11Z"
                fill="white" />
        </mask>
        <g mask="url(#mask0_4662_21664)">
            <path d="M1 19V6L10 12.5L1 19Z" fill="#FBBC05" />
        </g>
        <mask id="mask1_4662_21664" style="mask-type:luminance" maskUnits="userSpaceOnUse" x="2"
            y="2" width="22" height="22">
            <path
                d="M23.7442 11H13.2558V15.25H19.293C18.7302 17.95 16.3767 19.5 13.2558 19.5C9.57209 19.5 6.60465 16.6 6.60465 13C6.60465 9.4 9.57209 6.5 13.2558 6.5C14.8419 6.5 16.2744 7.05001 17.4 7.95001L20.6744 4.75C18.6791 3.05 16.1209 2 13.2558 2C7.01395 2 2 6.9 2 13C2 19.1 7.01395 24 13.2558 24C18.8837 24 24 20 24 13C24 12.35 23.8977 11.65 23.7442 11Z"
                fill="white" />
        </mask>
        <g mask="url(#mask1_4662_21664)">
            <path d="M1 6.5L9.85417 13L13.5 9.95001L26 8V1H1V6.5Z" fill="#EA4335" />
        </g>
        <mask id="mask2_4662_21664" style="mask-type:luminance" maskUnits="userSpaceOnUse" x="2"
            y="2" width="22" height="22">
            <path
                d="M23.7442 11H13.2558V15.25H19.293C18.7302 17.95 16.3767 19.5 13.2558 19.5C9.57209 19.5 6.60465 16.6 6.60465 13C6.60465 9.4 9.57209 6.5 13.2558 6.5C14.8419 6.5 16.2744 7.05001 17.4 7.95001L20.6744 4.75C18.6791 3.05 16.1209 2 13.2558 2C7.01395 2 2 6.9 2 13C2 19.1 7.01395 24 13.2558 24C18.8837 24 24 20 24 13C24 12.35 23.8977 11.65 23.7442 11Z"
                fill="white" />
        </mask>
        <g mask="url(#mask2_4662_21664)">
            <path d="M1 19.5L16.625 8L20.7396 8.5L26 1V25H1V19.5Z" fill="#34A853" />
        </g>
        <mask id="mask3_4662_21664" style="mask-type:luminance" maskUnits="userSpaceOnUse" x="2"
            y="2" width="22" height="22">
            <path
                d="M23.7442 11H13.2558V15.25H19.293C18.7302 17.95 16.3767 19.5 13.2558 19.5C9.57209 19.5 6.60465 16.6 6.60465 13C6.60465 9.4 9.57209 6.5 13.2558 6.5C14.8419 6.5 16.2744 7.05001 17.4 7.95001L20.6744 4.75C18.6791 3.05 16.1209 2 13.2558 2C7.01395 2 2 6.9 2 13C2 19.1 7.01395 24 13.2558 24C18.8837 24 24 20 24 13C24 12.35 23.8977 11.65 23.7442 11Z"
                fill="white" />
        </mask>
        <g mask="url(#mask3_4662_21664)">
            <path d="M26 24L10.0571 12.3243L8 10.8649L26 6V24Z" fill="#4285F4" />
        </g>
    </g>
    <defs>
        <clipPath id="clip0_4662_21664">
            <rect width="26" height="25" fill="white" />
        </clipPath>
    </defs>
</svg>