<svg width="195" height="37" viewBox="0 0 195 37" fill="none" xmlns="http://www.w3.org/2000/svg">
<path d="M16.582 29C8.65858 29 2 22.4957 2 14.5C2 6.50537 8.65858 0 16.582 0C20.9631 0 24.0793 1.7302 26.433 3.99108L23.6543 6.79512C21.9768 5.20409 19.6982 3.96616 16.5696 3.96616C10.7869 3.96616 6.26788 8.66448 6.26788 14.5C6.26788 20.3355 10.7869 25.0338 16.5696 25.0338C20.324 25.0338 22.4522 23.5186 23.8292 22.1291C24.9551 20.9929 25.6817 19.3759 25.9699 17.1399H16.582V13.2621H29.787C29.9249 13.9693 30 14.7274 30 15.6497C30 18.6178 29.1983 22.2932 26.5956 24.9206C24.0793 27.5855 20.8499 29 16.582 29Z" fill="#4285F4"/>
<path d="M50 18.9995C50 24.1887 45.962 28 41 28C36.038 28 32 24.1757 32 18.9995C32 13.7873 36.038 10 41 10C45.962 10 50 13.7752 50 18.9995ZM46.06 18.9995C46.06 15.76 43.712 13.5439 41 13.5439C38.288 13.5439 35.941 15.76 35.941 18.9995C35.941 22.2029 38.288 24.4561 41 24.4561C43.712 24.4561 46.06 22.2029 46.06 18.9995Z" fill="#E94235"/>
<path d="M70 18.9995C70 24.1887 65.962 28 61 28C56.037 28 52 24.1757 52 18.9995C52 13.7873 56.037 10 61 10C65.962 10 70 13.7752 70 18.9995ZM66.059 18.9995C66.059 15.76 63.712 13.5439 61 13.5439C58.287 13.5439 55.94 15.76 55.94 18.9995C55.94 22.2029 58.287 24.4561 61 24.4561C63.712 24.4561 66.059 22.2029 66.059 18.9995Z" fill="#FABB05"/>
<path d="M89 10.5545V27.2938C89 34.1768 85.0902 37 80.4636 37C76.1165 37 73.4936 33.9622 72.5102 31.4914L75.9467 30.0041C76.5538 31.5163 78.0594 33.3196 80.4636 33.3196C83.4268 33.3196 85.2609 31.4157 85.2609 27.8483V26.5124H85.1272C84.2406 27.6473 82.5403 28.6298 80.4036 28.6298C75.9108 28.6298 72 24.5711 72 19.3527C72 14.096 75.9108 10 80.4036 10C82.5403 10 84.2406 10.9825 85.1272 12.0791H85.2609V10.5669H89V10.5545ZM85.5275 19.3527C85.5275 16.0755 83.4149 13.6679 80.7311 13.6679C78.0114 13.6679 75.9347 16.0631 75.9347 19.3527C75.9347 22.605 78.0114 24.9619 80.7311 24.9619C83.4269 24.9619 85.5275 22.5926 85.5275 19.3527Z" fill="#4285F4"/>
<path d="M95 1V28H91V1H95Z" fill="#34A853"/>
<path d="M110.685 21.9596L113.826 24.0054C112.815 25.4675 110.373 28 106.148 28C100.914 28 97 24.0425 97 18.9995C97 13.6411 100.938 10 105.687 10C110.473 10 112.803 13.7142 113.576 15.724L114 16.7464L101.686 21.7283C102.633 23.5308 104.091 24.4561 106.148 24.4561C108.204 24.4561 109.638 23.4697 110.685 21.9596ZM101.013 18.7201L109.251 15.3825C108.802 14.2619 107.431 13.4708 105.837 13.4708C103.768 13.4708 100.914 15.2493 101.013 18.7201Z" fill="#E94235"/>
<path opacity="0.8" d="M126.136 26.5V9.7H131.8C132.92 9.7 133.904 9.924 134.752 10.372C135.616 10.804 136.288 11.412 136.768 12.196C137.264 12.964 137.512 13.86 137.512 14.884C137.512 15.892 137.248 16.788 136.72 17.572C136.208 18.356 135.504 18.972 134.608 19.42C133.712 19.852 132.704 20.068 131.584 20.068H128.488V26.5H126.136ZM135.52 26.5L131.536 19.636L133.408 18.388L138.184 26.5H135.52ZM128.488 17.908H132.016C132.592 17.908 133.104 17.78 133.552 17.524C134.016 17.252 134.384 16.892 134.656 16.444C134.944 15.98 135.088 15.46 135.088 14.884C135.088 13.988 134.776 13.26 134.152 12.7C133.528 12.14 132.72 11.86 131.728 11.86H128.488V17.908ZM148.093 26.5L147.997 24.412V20.236C147.997 19.356 147.893 18.62 147.685 18.028C147.493 17.436 147.189 16.988 146.773 16.684C146.373 16.38 145.837 16.228 145.165 16.228C144.541 16.228 143.997 16.356 143.533 16.612C143.085 16.868 142.709 17.268 142.405 17.812L140.389 17.044C140.677 16.5 141.037 16.02 141.469 15.604C141.901 15.172 142.421 14.836 143.029 14.596C143.637 14.34 144.349 14.212 145.165 14.212C146.301 14.212 147.245 14.436 147.997 14.884C148.749 15.332 149.309 15.98 149.677 16.828C150.061 17.676 150.245 18.724 150.229 19.972L150.205 26.5H148.093ZM144.565 26.788C143.141 26.788 142.029 26.468 141.229 25.828C140.445 25.172 140.053 24.268 140.053 23.116C140.053 21.884 140.461 20.948 141.277 20.308C142.109 19.652 143.261 19.324 144.733 19.324H148.069V21.124H145.357C144.253 21.124 143.477 21.3 143.029 21.652C142.581 21.988 142.357 22.46 142.357 23.068C142.357 23.628 142.565 24.068 142.981 24.388C143.413 24.692 144.005 24.844 144.757 24.844C145.413 24.844 145.981 24.708 146.461 24.436C146.941 24.148 147.317 23.748 147.589 23.236C147.861 22.724 147.997 22.14 147.997 21.484H148.789C148.789 23.116 148.437 24.412 147.733 25.372C147.045 26.316 145.989 26.788 144.565 26.788ZM157.732 26.788C156.532 26.788 155.604 26.484 154.948 25.876C154.292 25.252 153.964 24.364 153.964 23.212V10.756H156.244V22.876C156.244 23.468 156.388 23.924 156.676 24.244C156.98 24.548 157.412 24.7 157.972 24.7C158.132 24.7 158.308 24.668 158.5 24.604C158.692 24.54 158.924 24.412 159.196 24.22L160.06 25.996C159.644 26.268 159.244 26.468 158.86 26.596C158.492 26.724 158.116 26.788 157.732 26.788ZM151.924 16.468V14.5H159.652V16.468H151.924ZM162.455 26.5V14.5H164.735V26.5H162.455ZM163.607 11.956C163.239 11.956 162.919 11.82 162.647 11.548C162.375 11.26 162.239 10.932 162.239 10.564C162.239 10.18 162.375 9.86 162.647 9.604C162.919 9.332 163.239 9.196 163.607 9.196C163.991 9.196 164.311 9.332 164.567 9.604C164.839 9.86 164.975 10.18 164.975 10.564C164.975 10.932 164.839 11.26 164.567 11.548C164.311 11.82 163.991 11.956 163.607 11.956ZM168.076 26.5V14.5H170.212L170.356 16.708V26.5H168.076ZM176.38 26.5V20.356H178.66V26.5H176.38ZM176.38 20.356C176.38 19.268 176.252 18.444 175.996 17.884C175.756 17.308 175.412 16.908 174.964 16.684C174.532 16.46 174.028 16.34 173.452 16.324C172.476 16.324 171.716 16.668 171.172 17.356C170.628 18.044 170.356 19.012 170.356 20.26H169.372C169.372 18.996 169.556 17.916 169.924 17.02C170.308 16.108 170.844 15.412 171.532 14.932C172.236 14.452 173.068 14.212 174.028 14.212C174.972 14.212 175.788 14.404 176.476 14.788C177.18 15.172 177.716 15.772 178.084 16.588C178.468 17.388 178.66 18.444 178.66 19.756V20.356H176.38ZM186.497 31.612C185.697 31.612 184.969 31.532 184.313 31.372C183.657 31.228 183.105 31.06 182.657 30.868C182.209 30.676 181.873 30.508 181.649 30.364L182.513 28.516C182.721 28.644 183.017 28.788 183.401 28.948C183.785 29.124 184.233 29.268 184.745 29.38C185.257 29.508 185.825 29.572 186.449 29.572C187.185 29.572 187.841 29.42 188.417 29.116C188.993 28.828 189.441 28.372 189.761 27.748C190.097 27.124 190.265 26.324 190.265 25.348V14.5H192.545V25.3C192.545 26.676 192.281 27.828 191.753 28.756C191.241 29.7 190.529 30.412 189.617 30.892C188.721 31.372 187.681 31.612 186.497 31.612ZM186.281 26.332C185.193 26.332 184.241 26.084 183.425 25.588C182.625 25.076 181.993 24.372 181.529 23.476C181.081 22.564 180.857 21.516 180.857 20.332C180.857 19.1 181.081 18.028 181.529 17.116C181.993 16.204 182.625 15.492 183.425 14.98C184.241 14.468 185.193 14.212 186.281 14.212C187.273 14.212 188.137 14.468 188.873 14.98C189.625 15.492 190.201 16.212 190.601 17.14C191.017 18.052 191.225 19.124 191.225 20.356C191.225 21.54 191.017 22.588 190.601 23.5C190.201 24.396 189.625 25.092 188.873 25.588C188.137 26.084 187.273 26.332 186.281 26.332ZM186.857 24.412C187.529 24.412 188.113 24.236 188.609 23.884C189.105 23.516 189.497 23.028 189.785 22.42C190.073 21.796 190.217 21.084 190.217 20.284C190.217 19.484 190.073 18.78 189.785 18.172C189.497 17.564 189.097 17.092 188.585 16.756C188.089 16.404 187.505 16.228 186.833 16.228C186.129 16.228 185.505 16.404 184.961 16.756C184.433 17.092 184.017 17.564 183.713 18.172C183.409 18.78 183.257 19.484 183.257 20.284C183.257 21.084 183.409 21.796 183.713 22.42C184.033 23.028 184.457 23.516 184.985 23.884C185.529 24.236 186.153 24.412 186.857 24.412Z" fill="#00263E"/>
</svg>
