<svg xmlns="http://www.w3.org/2000/svg" xmlns:xlink="http://www.w3.org/1999/xlink" width="1080" zoomAndPan="magnify" viewBox="0 0 810 809.999993" height="1080" preserveAspectRatio="xMidYMid meet" version="1.2"><defs><clipPath id="3270593ecb"><path d="M 405 0 C 181.324219 0 0 181.324219 0 405 C 0 628.675781 181.324219 810 405 810 C 628.675781 810 810 628.675781 810 405 C 810 181.324219 628.675781 0 405 0 Z M 405 0 "/></clipPath><clipPath id="57190ad253"><path d="M 34.269531 34.269531 L 775.730469 34.269531 L 775.730469 775.730469 L 34.269531 775.730469 Z M 34.269531 34.269531 "/></clipPath><clipPath id="96a532364f"><path d="M 405 34.269531 C 200.25 34.269531 34.269531 200.25 34.269531 405 C 34.269531 609.75 200.25 775.730469 405 775.730469 C 609.75 775.730469 775.730469 609.75 775.730469 405 C 775.730469 200.25 609.75 34.269531 405 34.269531 Z M 405 34.269531 "/></clipPath><clipPath id="02a51866ef"><path d="M 0.269531 0.269531 L 741.730469 0.269531 L 741.730469 741.730469 L 0.269531 741.730469 Z M 0.269531 0.269531 "/></clipPath><clipPath id="d50ec90f5e"><path d="M 371 0.269531 C 166.25 0.269531 0.269531 166.25 0.269531 371 C 0.269531 575.75 166.25 741.730469 371 741.730469 C 575.75 741.730469 741.730469 575.75 741.730469 371 C 741.730469 166.25 575.75 0.269531 371 0.269531 Z M 371 0.269531 "/></clipPath><clipPath id="e550a4a675"><rect x="0" width="742" y="0" height="742"/></clipPath><clipPath id="62dd1017ae"><path d="M 227.8125 238.445312 L 581.8125 238.445312 L 581.8125 571.445312 L 227.8125 571.445312 Z M 227.8125 238.445312 "/></clipPath></defs><g id="8015be3514"><g clip-rule="nonzero" clip-path="url(#3270593ecb)"><path style="fill:none;stroke-width:30;stroke-linecap:butt;stroke-linejoin:miter;stroke:#ffffff;stroke-opacity:1;stroke-miterlimit:4;" d="M 540.000023 -0.0000266667 C 241.765632 -0.0000266667 -0.00000466667 241.76561 -0.00000466667 540.000001 C -0.00000466667 838.234391 241.765632 1080.000028 540.000023 1080.000028 C 838.234413 1080.000028 1080.00005 838.234391 1080.00005 540.000001 C 1080.00005 241.76561 838.234413 -0.0000266667 540.000023 -0.0000266667 Z M 540.000023 -0.0000266667 " transform="matrix(0.75,0,0,0.75,0.0000035,0.00002)"/></g><g clip-rule="nonzero" clip-path="url(#57190ad253)"><g clip-rule="nonzero" clip-path="url(#96a532364f)"><g transform="matrix(1,0,0,1,34,34)"><g clip-path="url(#e550a4a675)"><g clip-rule="nonzero" clip-path="url(#02a51866ef)"><g clip-rule="nonzero" clip-path="url(#d50ec90f5e)"><path style=" stroke:none;fill-rule:nonzero;fill:#ffffff;fill-opacity:1;" d="M 0.269531 0.269531 L 741.730469 0.269531 L 741.730469 741.730469 L 0.269531 741.730469 Z M 0.269531 0.269531 "/></g></g></g></g></g></g><g clip-rule="nonzero" clip-path="url(#62dd1017ae)"><path style=" stroke:none;fill-rule:nonzero;fill:#fa5719;fill-opacity:1;" d="M 370.75 348.902344 C 370.75 345.835938 373.238281 343.347656 376.308594 343.347656 L 483.949219 343.347656 C 487.019531 343.347656 489.507812 345.835938 489.507812 348.902344 C 489.507812 351.972656 487.019531 354.460938 483.949219 354.460938 L 376.308594 354.460938 C 373.238281 354.460938 370.75 351.972656 370.75 348.902344 Z M 376.308594 319.5625 L 483.949219 319.5625 C 487.019531 319.5625 489.507812 317.074219 489.507812 314.003906 C 489.507812 310.9375 487.019531 308.449219 483.949219 308.449219 L 376.308594 308.449219 C 373.238281 308.449219 370.75 310.9375 370.75 314.003906 C 370.75 317.074219 373.238281 319.5625 376.308594 319.5625 Z M 376.308594 284.660156 L 483.949219 284.660156 C 487.019531 284.660156 489.507812 282.175781 489.507812 279.105469 C 489.507812 276.035156 487.019531 273.550781 483.949219 273.550781 L 376.308594 273.550781 C 373.238281 273.550781 370.75 276.035156 370.75 279.105469 C 370.75 282.175781 373.238281 284.660156 376.308594 284.660156 Z M 316.777344 389.359375 L 483.949219 389.359375 C 487.019531 389.359375 489.507812 386.871094 489.507812 383.800781 C 489.507812 380.734375 487.019531 378.246094 483.949219 378.246094 L 316.777344 378.246094 C 313.707031 378.246094 311.21875 380.734375 311.21875 383.800781 C 311.21875 386.871094 313.707031 389.359375 316.777344 389.359375 Z M 316.777344 424.257812 L 483.949219 424.257812 C 487.019531 424.257812 489.507812 421.769531 489.507812 418.699219 C 489.507812 415.632812 487.019531 413.144531 483.949219 413.144531 L 316.777344 413.144531 C 313.707031 413.144531 311.21875 415.632812 311.21875 418.699219 C 311.21875 421.769531 313.707031 424.257812 316.777344 424.257812 Z M 329.226562 320.203125 L 332.011719 320.203125 C 335.8125 320.203125 338.90625 323.296875 338.90625 327.097656 C 338.90625 330.898438 335.8125 333.992188 332.011719 333.992188 L 328.089844 333.992188 C 325.894531 333.992188 323.804688 332.914062 322.5 331.109375 C 320.703125 328.621094 317.226562 328.0625 314.742188 329.863281 C 312.253906 331.660156 311.695312 335.132812 313.496094 337.621094 C 316.28125 341.472656 320.464844 344.050781 325.0625 344.84375 L 325.0625 350.1875 C 325.0625 353.253906 327.550781 355.742188 330.621094 355.742188 C 333.6875 355.742188 336.175781 353.253906 336.175781 350.1875 L 336.175781 344.621094 C 344.105469 342.734375 350.019531 335.59375 350.019531 327.097656 C 350.019531 317.167969 341.941406 309.089844 332.011719 309.089844 L 329.226562 309.089844 C 325.425781 309.089844 322.332031 305.996094 322.332031 302.195312 C 322.332031 298.390625 325.425781 295.300781 329.226562 295.300781 L 333.148438 295.300781 C 335.34375 295.300781 337.433594 296.378906 338.738281 298.183594 C 340.539062 300.667969 344.011719 301.226562 346.496094 299.429688 C 348.984375 297.632812 349.542969 294.160156 347.746094 291.671875 C 344.957031 287.816406 340.773438 285.242188 336.175781 284.445312 L 336.175781 279.105469 C 336.175781 276.035156 333.6875 273.550781 330.617188 273.550781 C 327.550781 273.550781 325.0625 276.035156 325.0625 279.105469 L 325.0625 284.671875 C 317.136719 286.558594 311.21875 293.699219 311.21875 302.195312 C 311.21875 312.125 319.296875 320.203125 329.226562 320.203125 Z M 582.105469 503.820312 C 582.105469 541.171875 551.71875 571.558594 514.367188 571.558594 C 503.222656 571.558594 492.699219 568.855469 483.417969 564.066406 L 288.925781 564.066406 C 283.050781 564.066406 278.273438 559.289062 278.273438 553.417969 L 278.273438 301.417969 L 238.535156 301.417969 C 232.664062 301.417969 227.886719 296.640625 227.886719 290.769531 L 227.886719 269.1875 C 227.886719 252.230469 241.679688 238.433594 258.636719 238.433594 L 491.703125 238.433594 C 508.65625 238.433594 522.453125 252.230469 522.453125 269.1875 L 522.453125 436.566406 C 556.003906 440.574219 582.105469 469.207031 582.105469 503.820312 Z M 278.273438 290.304688 L 278.273438 269.1875 C 278.273438 258.355469 269.464844 249.546875 258.636719 249.546875 C 247.808594 249.546875 239 258.355469 239 269.1875 L 239 290.304688 Z M 467.78125 552.953125 C 458.015625 543.6875 451 531.550781 448.101562 517.90625 C 444.800781 516.4375 442.542969 514.363281 440.78125 512.738281 C 438.414062 510.558594 437.359375 509.671875 434.980469 509.585938 C 431.761719 509.441406 427.570312 513.375 423.519531 517.148438 C 417.578125 522.683594 410.84375 528.953125 401.691406 528.953125 C 388.289062 528.953125 385.667969 516.976562 383.9375 509.050781 C 381.863281 499.574219 380.648438 497.660156 376.726562 497.660156 C 371.59375 497.660156 369.234375 499.792969 364.800781 504.234375 C 358.988281 510.046875 351.03125 518.011719 331.933594 518.011719 C 328.863281 518.011719 326.375 515.523438 326.375 512.457031 C 326.375 509.386719 328.863281 506.898438 331.933594 506.898438 C 346.425781 506.898438 351.53125 501.789062 356.9375 496.378906 C 361.542969 491.769531 366.761719 486.546875 376.726562 486.546875 C 390.386719 486.546875 393.039062 498.660156 394.792969 506.675781 C 396.824219 515.964844 397.984375 517.84375 401.691406 517.84375 C 406.46875 517.84375 411.074219 513.554688 415.945312 509.019531 C 421.65625 503.699219 427.574219 498.214844 435.378906 498.480469 C 440.691406 498.671875 444.109375 500.914062 446.636719 503.066406 C 446.820312 486.265625 453.152344 470.914062 463.484375 459.15625 L 316.777344 459.15625 C 313.707031 459.15625 311.21875 456.667969 311.21875 453.601562 C 311.21875 450.53125 313.707031 448.042969 316.777344 448.042969 L 475.976562 448.042969 C 486.117188 441.042969 498.25 436.730469 511.339844 436.152344 L 511.339844 269.1875 C 511.339844 258.355469 502.53125 249.546875 491.703125 249.546875 L 282.28125 249.546875 C 286.71875 254.878906 289.386719 261.726562 289.386719 269.1875 L 289.386719 552.953125 Z M 570.992188 503.820312 C 570.992188 472.597656 545.589844 447.195312 514.367188 447.195312 C 483.140625 447.195312 457.738281 472.597656 457.738281 503.820312 C 457.738281 535.046875 483.140625 560.449219 514.367188 560.449219 C 545.589844 560.449219 570.992188 535.046875 570.992188 503.820312 Z M 548.824219 477.230469 C 551.644531 480.035156 553.203125 483.769531 553.214844 487.75 C 553.226562 491.726562 551.6875 495.46875 548.882812 498.292969 L 517.125 530.347656 C 514.222656 533.261719 510.386719 534.726562 506.550781 534.726562 C 502.800781 534.726562 499.050781 533.328125 496.171875 530.527344 L 480.023438 514.789062 C 477.175781 512.019531 475.574219 508.300781 475.519531 504.320312 C 475.464844 500.34375 476.960938 496.582031 479.734375 493.730469 C 482.507812 490.878906 486.226562 489.28125 490.203125 489.222656 C 494.191406 489.171875 497.945312 490.664062 500.796875 493.441406 L 506.375 498.878906 L 527.753906 477.296875 C 527.757812 477.292969 527.757812 477.292969 527.761719 477.289062 C 530.566406 474.46875 534.300781 472.90625 538.28125 472.898438 C 538.292969 472.898438 538.308594 472.898438 538.324219 472.898438 C 542.285156 472.898438 546.011719 474.433594 548.824219 477.230469 Z M 542.101562 487.777344 C 542.097656 486.769531 541.703125 485.820312 540.988281 485.109375 C 540.273438 484.398438 539.328125 484.007812 538.324219 484.007812 C 538.320312 484.007812 538.316406 484.007812 538.3125 484.007812 C 537.304688 484.011719 536.359375 484.40625 535.644531 485.121094 L 510.390625 510.613281 C 508.242188 512.78125 504.75 512.8125 502.5625 510.683594 L 493.042969 501.402344 C 492.335938 500.714844 491.402344 500.335938 490.414062 500.335938 C 490.394531 500.335938 490.375 500.335938 490.359375 500.335938 C 489.347656 500.347656 488.40625 500.753906 487.699219 501.480469 C 486.996094 502.203125 486.617188 503.15625 486.628906 504.167969 C 486.644531 505.175781 487.050781 506.121094 487.773438 506.824219 L 503.925781 522.566406 C 505.398438 524 507.78125 523.980469 509.234375 522.519531 L 540.992188 490.460938 C 541.714844 489.738281 542.105469 488.789062 542.101562 487.777344 Z M 542.101562 487.777344 "/></g></g></svg>