<svg xmlns="http://www.w3.org/2000/svg" xmlns:xlink="http://www.w3.org/1999/xlink" width="1080" zoomAndPan="magnify" viewBox="0 0 810 809.999993" height="1080" preserveAspectRatio="xMidYMid meet" version="1.2"><defs><clipPath id="7461ec5913"><path d="M 405 0 C 181.324219 0 0 181.324219 0 405 C 0 628.675781 181.324219 810 405 810 C 628.675781 810 810 628.675781 810 405 C 810 181.324219 628.675781 0 405 0 Z M 405 0 "/></clipPath><clipPath id="9b75252150"><path d="M 34.269531 34.269531 L 775.730469 34.269531 L 775.730469 775.730469 L 34.269531 775.730469 Z M 34.269531 34.269531 "/></clipPath><clipPath id="b6708ae272"><path d="M 405 34.269531 C 200.25 34.269531 34.269531 200.25 34.269531 405 C 34.269531 609.75 200.25 775.730469 405 775.730469 C 609.75 775.730469 775.730469 609.75 775.730469 405 C 775.730469 200.25 609.75 34.269531 405 34.269531 Z M 405 34.269531 "/></clipPath><clipPath id="45a28fb562"><path d="M 0.269531 0.269531 L 741.730469 0.269531 L 741.730469 741.730469 L 0.269531 741.730469 Z M 0.269531 0.269531 "/></clipPath><clipPath id="2eaec16b5b"><path d="M 371 0.269531 C 166.25 0.269531 0.269531 166.25 0.269531 371 C 0.269531 575.75 166.25 741.730469 371 741.730469 C 575.75 741.730469 741.730469 575.75 741.730469 371 C 741.730469 166.25 575.75 0.269531 371 0.269531 Z M 371 0.269531 "/></clipPath><clipPath id="f39275af00"><rect x="0" width="742" y="0" height="742"/></clipPath><clipPath id="101d82a0fb"><path d="M 238.445312 337 L 296 337 L 296 360 L 238.445312 360 Z M 238.445312 337 "/></clipPath><clipPath id="5fcd2b3014"><path d="M 337 239.007812 L 360 239.007812 L 360 297 L 337 297 Z M 337 239.007812 "/></clipPath></defs><g id="2747c9d85d"><g clip-rule="nonzero" clip-path="url(#7461ec5913)"><path style="fill:none;stroke-width:30;stroke-linecap:butt;stroke-linejoin:miter;stroke:#ffffff;stroke-opacity:1;stroke-miterlimit:4;" d="M 540.000023 -0.0000266667 C 241.765632 -0.0000266667 -0.00000466667 241.76561 -0.00000466667 540.000001 C -0.00000466667 838.234391 241.765632 1080.000028 540.000023 1080.000028 C 838.234413 1080.000028 1080.00005 838.234391 1080.00005 540.000001 C 1080.00005 241.76561 838.234413 -0.0000266667 540.000023 -0.0000266667 Z M 540.000023 -0.0000266667 " transform="matrix(0.75,0,0,0.75,0.0000035,0.00002)"/></g><g clip-rule="nonzero" clip-path="url(#9b75252150)"><g clip-rule="nonzero" clip-path="url(#b6708ae272)"><g transform="matrix(1,0,0,1,34,34)"><g clip-path="url(#f39275af00)"><g clip-rule="nonzero" clip-path="url(#45a28fb562)"><g clip-rule="nonzero" clip-path="url(#2eaec16b5b)"><path style=" stroke:none;fill-rule:nonzero;fill:#ffffff;fill-opacity:1;" d="M 0.269531 0.269531 L 741.730469 0.269531 L 741.730469 741.730469 L 0.269531 741.730469 Z M 0.269531 0.269531 "/></g></g></g></g></g></g><path style=" stroke:none;fill-rule:nonzero;fill:#fa5719;fill-opacity:1;" d="M 567.148438 519.800781 L 501.085938 453.730469 L 548.214844 426.5 C 551.898438 424.371094 554.042969 420.332031 553.738281 416.085938 C 553.433594 411.847656 550.730469 408.144531 546.78125 406.574219 L 336.597656 322.738281 C 332.476562 321.089844 327.769531 322.0625 324.632812 325.195312 C 321.496094 328.328125 320.527344 333.039062 322.171875 337.160156 L 406 547.363281 C 407.574219 551.308594 411.269531 554.015625 415.515625 554.324219 C 419.753906 554.628906 423.800781 552.488281 425.929688 548.804688 L 453.148438 501.667969 L 519.210938 567.734375 C 521.296875 569.824219 524.117188 570.992188 527.066406 570.992188 C 530.007812 570.992188 532.828125 569.824219 534.914062 567.734375 L 567.148438 535.496094 C 571.488281 531.164062 571.488281 524.132812 567.148438 519.800781 Z M 527.066406 544.191406 L 458.621094 475.742188 C 456.527344 473.648438 453.691406 472.492188 450.773438 472.492188 C 450.289062 472.492188 449.808594 472.523438 449.320312 472.582031 C 445.898438 473.035156 442.878906 475.050781 441.15625 478.042969 L 418.144531 517.886719 L 352.363281 352.933594 L 517.296875 418.722656 L 477.453125 441.738281 C 474.460938 443.464844 472.445312 446.484375 472 449.90625 C 471.546875 453.328125 472.714844 456.761719 475.152344 459.207031 L 543.597656 527.648438 Z M 527.066406 544.191406 "/><path style=" stroke:none;fill-rule:nonzero;fill:#fa5719;fill-opacity:1;" d="M 287.179688 272.035156 C 282.839844 267.707031 275.816406 267.707031 271.476562 272.035156 C 267.136719 276.378906 267.136719 283.40625 271.476562 287.742188 L 296.148438 312.414062 C 298.3125 314.578125 301.152344 315.664062 303.996094 315.664062 C 306.835938 315.664062 309.675781 314.578125 311.84375 312.414062 C 316.183594 308.078125 316.183594 301.046875 311.84375 296.710938 Z M 287.179688 272.035156 "/><g clip-rule="nonzero" clip-path="url(#101d82a0fb)"><path style=" stroke:none;fill-rule:nonzero;fill:#fa5719;fill-opacity:1;" d="M 295.535156 348.789062 C 295.535156 342.660156 290.5625 337.695312 284.433594 337.695312 L 249.546875 337.695312 C 243.417969 337.695312 238.445312 342.660156 238.445312 348.789062 C 238.445312 354.925781 243.417969 359.898438 249.546875 359.898438 L 284.433594 359.898438 C 290.5625 359.886719 295.535156 354.925781 295.535156 348.789062 Z M 295.535156 348.789062 "/></g><path style=" stroke:none;fill-rule:nonzero;fill:#fa5719;fill-opacity:1;" d="M 291.039062 383.054688 L 266.367188 407.730469 C 262.027344 412.066406 262.027344 419.09375 266.367188 423.429688 C 268.535156 425.59375 271.375 426.679688 274.21875 426.679688 C 277.054688 426.679688 279.898438 425.59375 282.066406 423.429688 L 306.734375 398.757812 C 311.074219 394.425781 311.074219 387.394531 306.734375 383.054688 C 302.402344 378.722656 295.371094 378.722656 291.039062 383.054688 Z M 291.039062 383.054688 "/><g clip-rule="nonzero" clip-path="url(#5fcd2b3014)"><path style=" stroke:none;fill-rule:nonzero;fill:#fa5719;fill-opacity:1;" d="M 348.222656 296.105469 C 354.351562 296.105469 359.324219 291.125 359.324219 284.996094 L 359.324219 250.109375 C 359.324219 243.980469 354.355469 239.007812 348.222656 239.007812 C 342.09375 239.007812 337.121094 243.980469 337.121094 250.109375 L 337.121094 285 C 337.121094 291.125 342.09375 296.105469 348.222656 296.105469 Z M 348.222656 296.105469 "/></g><path style=" stroke:none;fill-rule:nonzero;fill:#fa5719;fill-opacity:1;" d="M 390.332031 310.550781 C 393.175781 310.550781 396.019531 309.464844 398.183594 307.304688 L 422.851562 282.628906 C 427.1875 278.300781 427.1875 271.269531 422.851562 266.929688 C 418.515625 262.597656 411.484375 262.597656 407.152344 266.929688 L 382.480469 291.59375 C 378.148438 295.933594 378.148438 302.964844 382.480469 307.304688 C 384.648438 309.464844 387.492188 310.550781 390.332031 310.550781 Z M 390.332031 310.550781 "/></g></svg>