<svg width="110" height="110" viewBox="0 0 110 110" fill="none" xmlns="http://www.w3.org/2000/svg">
<g clip-path="url(#clip0_10361_26244)">
<path d="M55 108.619C84.6128 108.619 108.619 84.6129 108.619 55C108.619 25.3872 84.6128 1.38123 55 1.38123C25.3871 1.38123 1.38116 25.3872 1.38116 55C1.38116 84.6129 25.3871 108.619 55 108.619Z" stroke="white" stroke-width="2.74385" stroke-miterlimit="10"/>
<path d="M54.9999 105.541C82.9128 105.541 105.541 82.9128 105.541 55C105.541 27.0872 82.9128 4.45935 54.9999 4.45935C27.0871 4.45935 4.45929 27.0872 4.45929 55C4.45929 82.9128 27.0871 105.541 54.9999 105.541Z" fill="white"/>
<path d="M67.94 56.4838H75.1223C75.955 56.4838 76.6298 55.809 76.6298 54.9763C76.6298 54.1436 75.955 53.4688 75.1223 53.4688H67.94C67.0797 50.2052 63.7411 48.2597 60.4775 49.116C58.3504 49.6764 56.6851 51.3378 56.1247 53.4688H34.8777C34.045 53.4688 33.3702 54.1436 33.3702 54.9763C33.3702 55.809 34.045 56.4838 34.8777 56.4838H56.1247C57.6756 62.5414 66.397 62.5414 67.9361 56.4838H67.94ZM58.9542 54.9724C59.0529 53.2675 60.5091 51.9692 62.2139 52.0639C63.7806 52.1547 65.0316 53.4057 65.1224 54.9724C65.0237 56.6772 63.5675 57.9755 61.8627 57.8808C60.296 57.79 59.045 56.5391 58.9542 54.9724Z" fill="url(#paint0_linear_10361_26244)"/>
<path d="M55 76.6062C57.7861 76.6022 60.2131 74.7159 60.9077 72.0166H75.1223C75.955 72.0166 76.6298 71.3418 76.6298 70.5091C76.6298 69.6764 75.955 69.0016 75.1223 69.0016H60.9077C60.0474 65.738 56.7088 63.7924 53.4452 64.6488C51.3181 65.2092 49.6527 66.8706 49.0924 69.0016H34.8777C34.045 69.0016 33.3702 69.6764 33.3702 70.5091C33.3702 71.3418 34.045 72.0166 34.8777 72.0166H49.0924C49.7869 74.7119 52.2139 76.5983 55 76.6062ZM51.9219 70.5683C51.9219 68.8674 53.3031 67.4901 55.004 67.4901C56.7048 67.4901 58.0781 68.8674 58.0821 70.5683C58.0703 72.2691 56.6851 73.6385 54.9842 73.6267C53.2834 73.6148 51.914 72.2297 51.9258 70.5288V70.5683H51.9219Z" fill="url(#paint1_linear_10361_26244)"/>
<path d="M49.9685 40.9511H75.1224C75.9551 40.9511 76.6299 40.2762 76.6299 39.4436C76.6299 38.6109 75.9551 37.9361 75.1224 37.9361H49.9685C49.1003 34.6764 45.7538 32.7387 42.4941 33.6109C40.3828 34.1752 38.7293 35.8248 38.1689 37.9361H34.8777C34.045 37.9361 33.3702 38.6109 33.3702 39.4436C33.3702 40.2762 34.045 40.9511 34.8777 40.9511H38.1571C39.0174 44.2147 42.356 46.1602 45.6196 45.3039C47.7467 44.7435 49.412 43.0821 49.9724 40.9511H49.9685ZM40.9748 39.4396C41.0734 37.7348 42.5296 36.4365 44.2345 36.5312C45.8011 36.6219 47.0521 37.8729 47.1429 39.4396C47.0442 41.1444 45.588 42.4428 43.8832 42.3481C42.3165 42.2573 41.0656 41.0063 40.9748 39.4396Z" fill="url(#paint2_linear_10361_26244)"/>
</g>
<defs>
<linearGradient id="paint0_linear_10361_26244" x1="55" y1="48.9108" x2="55" y2="61.026" gradientUnits="userSpaceOnUse">
<stop stop-color="#E50C7E"/>
<stop offset="1" stop-color="#E97635"/>
</linearGradient>
<linearGradient id="paint1_linear_10361_26244" x1="109.704" y1="64.4436" x2="109.704" y2="76.6062" gradientUnits="userSpaceOnUse">
<stop stop-color="#E50C7E"/>
<stop offset="1" stop-color="#E97635"/>
</linearGradient>
<linearGradient id="paint2_linear_10361_26244" x1="109.704" y1="33.3938" x2="109.704" y2="45.5012" gradientUnits="userSpaceOnUse">
<stop stop-color="#E50C7E"/>
<stop offset="1" stop-color="#E97635"/>
</linearGradient>
<clipPath id="clip0_10361_26244">
<rect width="110" height="110" fill="white"/>
</clipPath>
</defs>
</svg>
