<svg xmlns="http://www.w3.org/2000/svg" xmlns:xlink="http://www.w3.org/1999/xlink" width="1080" zoomAndPan="magnify" viewBox="0 0 810 809.999993" height="1080" preserveAspectRatio="xMidYMid meet" version="1.2"><defs><clipPath id="93cf4814cd"><path d="M 405 0 C 181.324219 0 0 181.324219 0 405 C 0 628.675781 181.324219 810 405 810 C 628.675781 810 810 628.675781 810 405 C 810 181.324219 628.675781 0 405 0 Z M 405 0 "/></clipPath><clipPath id="2cf44ff9ef"><path d="M 34.269531 34.269531 L 775.730469 34.269531 L 775.730469 775.730469 L 34.269531 775.730469 Z M 34.269531 34.269531 "/></clipPath><clipPath id="63a9701884"><path d="M 405 34.269531 C 200.25 34.269531 34.269531 200.25 34.269531 405 C 34.269531 609.75 200.25 775.730469 405 775.730469 C 609.75 775.730469 775.730469 609.75 775.730469 405 C 775.730469 200.25 609.75 34.269531 405 34.269531 Z M 405 34.269531 "/></clipPath><clipPath id="2928926931"><path d="M 0.269531 0.269531 L 741.730469 0.269531 L 741.730469 741.730469 L 0.269531 741.730469 Z M 0.269531 0.269531 "/></clipPath><clipPath id="7141dc2fa8"><path d="M 371 0.269531 C 166.25 0.269531 0.269531 166.25 0.269531 371 C 0.269531 575.75 166.25 741.730469 371 741.730469 C 575.75 741.730469 741.730469 575.75 741.730469 371 C 741.730469 166.25 575.75 0.269531 371 0.269531 Z M 371 0.269531 "/></clipPath><clipPath id="783be7e1f6"><rect x="0" width="742" y="0" height="742"/></clipPath><clipPath id="c15c3de482"><path d="M 238.445312 259.265625 L 571.445312 259.265625 L 571.445312 551 L 238.445312 551 Z M 238.445312 259.265625 "/></clipPath></defs><g id="0128aeb1f9"><g clip-rule="nonzero" clip-path="url(#93cf4814cd)"><path style="fill:none;stroke-width:30;stroke-linecap:butt;stroke-linejoin:miter;stroke:#ffffff;stroke-opacity:1;stroke-miterlimit:4;" d="M 540.000023 -0.0000266667 C 241.765632 -0.0000266667 -0.00000466667 241.76561 -0.00000466667 540.000001 C -0.00000466667 838.234391 241.765632 1080.000028 540.000023 1080.000028 C 838.234413 1080.000028 1080.00005 838.234391 1080.00005 540.000001 C 1080.00005 241.76561 838.234413 -0.0000266667 540.000023 -0.0000266667 Z M 540.000023 -0.0000266667 " transform="matrix(0.75,0,0,0.75,0.0000035,0.00002)"/></g><g clip-rule="nonzero" clip-path="url(#2cf44ff9ef)"><g clip-rule="nonzero" clip-path="url(#63a9701884)"><g transform="matrix(1,0,0,1,34,34)"><g clip-path="url(#783be7e1f6)"><g clip-rule="nonzero" clip-path="url(#2928926931)"><g clip-rule="nonzero" clip-path="url(#7141dc2fa8)"><path style=" stroke:none;fill-rule:nonzero;fill:#ffffff;fill-opacity:1;" d="M 0.269531 0.269531 L 741.730469 0.269531 L 741.730469 741.730469 L 0.269531 741.730469 Z M 0.269531 0.269531 "/></g></g></g></g></g></g><g clip-rule="nonzero" clip-path="url(#c15c3de482)"><path style=" stroke:none;fill-rule:nonzero;fill:#fa5719;fill-opacity:1;" d="M 415.359375 545.472656 C 415.359375 548.355469 413.019531 550.695312 410.136719 550.695312 C 402.363281 550.695312 398.625 546.632812 395.894531 543.667969 C 393.652344 541.230469 392.527344 540.007812 389.339844 540.007812 C 386.148438 540.007812 385.023438 541.230469 382.78125 543.667969 C 380.050781 546.632812 376.3125 550.695312 368.542969 550.695312 C 360.769531 550.695312 357.03125 546.632812 354.300781 543.667969 C 352.058594 541.230469 350.933594 540.007812 347.746094 540.007812 C 344.554688 540.007812 343.429688 541.230469 341.1875 543.667969 C 338.457031 546.632812 334.71875 550.695312 326.949219 550.695312 C 319.179688 550.695312 315.4375 546.632812 312.707031 543.667969 C 310.464844 541.230469 309.339844 540.007812 306.152344 540.007812 C 302.964844 540.007812 301.835938 541.230469 299.59375 543.667969 C 296.863281 546.632812 293.125 550.695312 285.355469 550.695312 C 277.585938 550.695312 273.84375 546.632812 271.113281 543.667969 C 268.871094 541.230469 267.746094 540.007812 264.558594 540.007812 C 261.367188 540.007812 260.242188 541.230469 258 543.667969 C 255.269531 546.632812 251.53125 550.695312 243.761719 550.695312 C 240.878906 550.695312 238.539062 548.355469 238.539062 545.472656 C 238.539062 542.589844 240.878906 540.25 243.761719 540.25 C 246.949219 540.25 248.074219 539.027344 250.316406 536.59375 C 253.046875 533.625 256.789062 529.566406 264.558594 529.566406 C 272.328125 529.566406 276.066406 533.625 278.796875 536.59375 C 281.039062 539.027344 282.164062 540.25 285.355469 540.25 C 288.542969 540.25 289.671875 539.027344 291.910156 536.59375 C 294.640625 533.625 298.382812 529.566406 306.152344 529.566406 C 313.921875 529.566406 317.664062 533.625 320.394531 536.59375 C 322.632812 539.027344 323.761719 540.25 326.949219 540.25 C 330.136719 540.25 331.261719 539.027344 333.503906 536.59375 C 336.234375 533.625 339.976562 529.566406 347.746094 529.566406 C 355.515625 529.566406 359.253906 533.625 361.988281 536.59375 C 364.226562 539.027344 365.351562 540.25 368.542969 540.25 C 371.730469 540.25 372.855469 539.027344 375.097656 536.59375 C 377.828125 533.625 381.570312 529.566406 389.339844 529.566406 C 397.109375 529.566406 400.847656 533.625 403.578125 536.59375 C 405.820312 539.027344 406.945312 540.25 410.136719 540.25 C 413.019531 540.25 415.359375 542.589844 415.359375 545.472656 Z M 571.457031 496.460938 L 571.457031 529.453125 C 571.457031 535.238281 566.753906 539.941406 560.96875 539.941406 L 557.089844 539.941406 C 554.921875 546.191406 548.976562 550.695312 541.996094 550.695312 C 535.015625 550.695312 529.074219 546.191406 526.902344 539.941406 L 498.515625 539.941406 C 496.34375 546.191406 490.398438 550.695312 483.421875 550.695312 C 477.519531 550.695312 472.355469 547.472656 469.589844 542.699219 C 466.828125 547.472656 461.664062 550.695312 455.761719 550.695312 C 448.78125 550.695312 442.839844 546.195312 440.667969 539.941406 L 439.792969 539.941406 C 434.007812 539.941406 429.304688 535.238281 429.304688 529.453125 L 429.304688 494.667969 C 421.328125 496.617188 413.125 497.605469 404.832031 497.605469 C 400.207031 497.605469 395.578125 497.296875 391.011719 496.683594 L 388.425781 505.023438 C 388.726562 505.007812 389.023438 504.992188 389.339844 504.992188 C 397.109375 504.992188 400.847656 509.054688 403.578125 512.019531 C 405.820312 514.457031 406.945312 515.679688 410.136719 515.679688 C 413.019531 515.679688 415.359375 518.015625 415.359375 520.898438 C 415.359375 523.785156 413.019531 526.121094 410.136719 526.121094 C 402.367188 526.121094 398.625 522.058594 395.894531 519.09375 C 393.652344 516.660156 392.527344 515.4375 389.339844 515.4375 C 386.148438 515.4375 385.023438 516.660156 382.78125 519.09375 C 380.050781 522.058594 376.3125 526.121094 368.542969 526.121094 C 360.769531 526.121094 357.03125 522.058594 354.300781 519.09375 C 352.058594 516.660156 350.933594 515.4375 347.746094 515.4375 C 344.554688 515.4375 343.429688 516.660156 341.191406 519.09375 C 338.460938 522.058594 334.71875 526.121094 326.949219 526.121094 C 319.179688 526.121094 315.4375 522.058594 312.707031 519.09375 C 310.46875 516.660156 309.339844 515.4375 306.152344 515.4375 C 302.964844 515.4375 301.839844 516.660156 299.597656 519.09375 C 296.867188 522.058594 293.125 526.121094 285.355469 526.121094 C 277.585938 526.121094 273.847656 522.058594 271.117188 519.09375 C 268.875 516.660156 267.75 515.4375 264.558594 515.4375 C 261.371094 515.4375 260.242188 516.660156 258.003906 519.09375 C 255.273438 522.058594 251.53125 526.121094 243.761719 526.121094 C 240.878906 526.121094 238.539062 523.785156 238.539062 520.898438 C 238.539062 518.015625 240.878906 515.679688 243.761719 515.679688 C 246.949219 515.679688 248.078125 514.457031 250.316406 512.019531 C 252.621094 509.519531 255.652344 506.246094 261.207031 505.28125 L 254.523438 483.734375 C 254.03125 482.148438 254.324219 480.425781 255.308594 479.089844 C 256.292969 477.753906 257.851562 476.964844 259.511719 476.964844 L 266.539062 476.964844 L 266.539062 465.425781 C 266.539062 461.148438 269.882812 457.644531 274.089844 457.367188 L 274.089844 448.242188 C 274.089844 444.285156 277.308594 441.066406 281.265625 441.066406 L 284.796875 441.066406 L 284.796875 430.367188 C 284.796875 427.484375 287.136719 425.144531 290.019531 425.144531 C 292.902344 425.144531 295.242188 427.484375 295.242188 430.367188 L 295.242188 441.066406 L 298.769531 441.066406 C 302.726562 441.066406 305.945312 444.285156 305.945312 448.242188 L 305.945312 457.367188 C 310.15625 457.644531 313.496094 461.148438 313.496094 465.425781 L 313.496094 476.964844 L 343.050781 476.964844 C 331.976562 468.617188 322.621094 458.070312 315.683594 446.023438 C 306.761719 430.515625 302.042969 412.808594 302.042969 394.816406 C 302.042969 338.136719 348.152344 292.027344 404.832031 292.027344 C 416.292969 292.027344 427.683594 293.960938 438.445312 297.671875 L 435.605469 292.75 C 430.460938 283.839844 433.523438 272.402344 442.4375 267.253906 C 451.351562 262.109375 462.789062 265.171875 467.933594 274.085938 L 477.3125 290.332031 L 495.730469 289.414062 C 494.230469 283.898438 496.539062 277.835938 501.714844 274.847656 C 504.695312 273.125 508.171875 272.671875 511.507812 273.566406 C 514.84375 274.457031 517.628906 276.589844 519.347656 279.570312 L 524.210938 287.996094 L 541.246094 287.144531 C 543.65625 287.019531 545.832031 288.574219 546.515625 290.886719 C 547.195312 293.199219 546.203125 295.679688 544.117188 296.882812 L 496.851562 324.171875 L 518.453125 361.589844 L 541.019531 361.589844 C 542.882812 361.589844 544.609375 362.585938 545.542969 364.199219 L 554.269531 379.324219 C 555.171875 380.882812 555.203125 382.792969 554.363281 384.382812 C 553.515625 385.972656 551.914062 387.015625 550.121094 387.144531 L 513.171875 389.773438 L 507.566406 398.0625 C 507.003906 416.5 501.648438 434.042969 491.910156 449.46875 L 516.449219 449.46875 C 522.234375 449.46875 526.9375 454.175781 526.9375 459.960938 L 526.9375 462.484375 L 539.257812 462.484375 C 543.089844 462.484375 546.480469 463.980469 549.0625 466.808594 L 567.980469 487.496094 C 570.253906 489.988281 571.457031 493.085938 571.457031 496.460938 Z M 539.257812 472.929688 L 526.9375 472.929688 L 526.9375 494.652344 L 560.355469 494.652344 C 560.324219 494.617188 560.304688 494.582031 560.269531 494.542969 L 541.355469 473.855469 C 540.761719 473.207031 540.136719 472.929688 539.257812 472.929688 Z M 439.792969 459.914062 L 439.761719 506.523438 L 516.492188 506.523438 L 516.492188 459.960938 Z M 494.378906 417.558594 L 492.421875 420.453125 C 491.445312 421.894531 489.824219 422.75 488.09375 422.75 C 488.035156 422.75 487.972656 422.75 487.910156 422.75 C 486.109375 422.683594 484.472656 421.699219 483.570312 420.140625 L 474.84375 405.019531 C 473.910156 403.402344 473.910156 401.414062 474.84375 399.796875 L 486.125 380.253906 L 464.519531 342.835938 L 438.28125 357.988281 C 438.917969 359.273438 439.738281 360.621094 440.722656 361.992188 C 445.234375 368.273438 449.640625 370.757812 453.898438 373.160156 C 459.125 376.105469 464.527344 379.15625 468.160156 387.71875 C 471.796875 396.296875 467.238281 403.015625 463.574219 408.414062 C 460.472656 412.988281 457.542969 417.304688 457.886719 423.179688 C 458.300781 430.207031 463.453125 439.046875 473.195312 449.46875 L 479.269531 449.46875 C 486.40625 439.777344 491.496094 429 494.378906 417.558594 Z M 425.878906 338.582031 L 428.878906 333.933594 L 427.953125 332.332031 C 427.515625 331.574219 426.828125 331.292969 426.457031 331.195312 C 426.085938 331.09375 425.351562 330.992188 424.59375 331.433594 C 423.4375 332.097656 423.023438 333.640625 423.691406 334.796875 Z M 506.960938 288.855469 L 512.488281 288.578125 L 510.300781 284.789062 C 509.863281 284.03125 509.175781 283.75 508.804688 283.652344 C 508.433594 283.554688 507.695312 283.449219 506.9375 283.890625 C 505.78125 284.554688 505.367188 286.097656 506.035156 287.253906 Z M 444.648438 287.527344 L 455.625 306.539062 C 456.601562 308.234375 456.550781 310.335938 455.488281 311.980469 L 430.765625 350.265625 L 463.820312 331.183594 C 465.019531 330.488281 466.445312 330.300781 467.785156 330.660156 C 469.121094 331.019531 470.261719 331.894531 470.953125 333.09375 L 496.675781 377.644531 C 497.609375 379.261719 497.609375 381.25 496.675781 382.867188 L 485.394531 402.40625 L 488.445312 407.691406 L 505.941406 381.820312 C 506.839844 380.492188 508.296875 379.648438 509.898438 379.535156 L 541.050781 377.316406 L 538.003906 372.035156 L 515.4375 372.035156 C 513.574219 372.035156 511.847656 371.039062 510.914062 369.425781 L 485.195312 324.875 C 483.75 322.375 484.609375 319.179688 487.105469 317.738281 L 520.160156 298.65625 L 474.644531 300.921875 C 472.6875 301.023438 470.839844 300.015625 469.863281 298.316406 L 458.886719 279.308594 C 456.621094 275.382812 451.582031 274.035156 447.65625 276.300781 C 443.730469 278.566406 442.382812 283.601562 444.648438 287.527344 Z M 314.703125 374.675781 C 327.277344 374.570312 332.324219 379.777344 338.464844 386.136719 C 342.554688 390.367188 347.1875 395.164062 355.726562 400.101562 C 365.007812 405.464844 365.0625 412.433594 365.105469 417.523438 C 365.136719 421.21875 365.160156 424.414062 368.085938 428.238281 C 376.203125 438.003906 377.242188 446.160156 378.003906 452.121094 C 378.546875 456.355469 378.886719 458.472656 380.714844 460.261719 C 381.148438 460.027344 381.738281 459.441406 381.910156 458.898438 C 383.289062 452.09375 385.3125 449.5 387.804688 446.824219 C 389.367188 445.148438 390.84375 443.566406 392.34375 437.042969 C 392.523438 420.527344 403.027344 417.261719 408.703125 415.496094 C 409.289062 415.3125 409.992188 415.09375 410.570312 414.886719 C 410.101562 413.726562 408.910156 411.445312 405.894531 407.332031 C 404.386719 405.28125 403.117188 403.261719 401.886719 401.308594 C 398.476562 395.894531 396.386719 392.816406 393.125 392.503906 C 384.710938 391.699219 380.105469 388.855469 376.742188 386.777344 C 373.015625 384.476562 371.617188 383.613281 365.378906 386.03125 C 352.953125 390.835938 346.707031 385.644531 340.117188 375.042969 C 335.566406 367.726562 337.664062 362.304688 339.320312 359.722656 C 342.792969 354.308594 350.5 351.503906 358.960938 352.574219 C 359.117188 352.59375 359.371094 352.636719 359.71875 352.699219 C 370.679688 354.707031 381.402344 350.898438 389.925781 341.980469 C 393.59375 337.421875 394.285156 332.769531 392.046875 327.757812 C 388.324219 319.429688 376.710938 311.71875 366.683594 310.726562 C 340.660156 322.574219 321.070312 346.160156 314.703125 374.675781 Z M 353.117188 471.324219 L 358.050781 464.980469 C 359.039062 463.707031 360.5625 462.964844 362.171875 462.964844 L 369.96875 462.964844 C 368.472656 459.863281 368.050781 456.617188 367.644531 453.441406 C 366.945312 447.96875 366.222656 442.304688 360 434.847656 C 359.957031 434.796875 359.914062 434.746094 359.875 434.695312 C 354.746094 428.054688 354.699219 422.015625 354.660156 417.605469 C 354.625 413.054688 354.613281 411.519531 350.5 409.140625 C 340.691406 403.472656 335.292969 397.882812 330.953125 393.390625 C 325.359375 387.601562 322.453125 384.601562 312.988281 385.164062 C 312.65625 388.335938 312.484375 391.554688 312.484375 394.816406 C 312.484375 425.832031 327.59375 454.097656 353.117188 471.324219 Z M 284.535156 451.511719 L 284.535156 457.339844 L 295.5 457.339844 L 295.5 451.511719 Z M 276.984375 476.964844 L 303.050781 476.964844 L 303.050781 467.785156 L 276.984375 467.785156 Z M 375.097656 512.019531 C 375.207031 511.902344 375.320312 511.78125 375.433594 511.65625 L 387.296875 473.410156 L 364.730469 473.410156 L 355.410156 485.390625 C 354.421875 486.664062 352.898438 487.40625 351.289062 487.40625 L 266.597656 487.40625 L 272.628906 506.863281 C 275.375 508.308594 277.25 510.339844 278.796875 512.019531 C 281.039062 514.453125 282.164062 515.675781 285.355469 515.675781 C 288.542969 515.675781 289.667969 514.457031 291.910156 512.019531 C 294.640625 509.054688 298.378906 504.992188 306.152344 504.992188 C 313.921875 504.992188 317.660156 509.054688 320.390625 512.019531 C 322.632812 514.453125 323.757812 515.675781 326.949219 515.675781 C 330.136719 515.675781 331.261719 514.457031 333.503906 512.019531 C 336.234375 509.054688 339.972656 504.992188 347.746094 504.992188 C 355.515625 504.992188 359.253906 509.054688 361.984375 512.019531 C 364.226562 514.453125 365.351562 515.675781 368.539062 515.675781 C 371.730469 515.675781 372.855469 514.457031 375.097656 512.019531 Z M 429.304688 483.878906 L 429.304688 459.960938 C 429.304688 454.175781 434.007812 449.46875 439.792969 449.46875 L 459.382812 449.46875 C 451.84375 440.003906 447.914062 431.539062 447.460938 423.792969 C 446.90625 414.378906 451.355469 407.820312 454.933594 402.550781 C 458.582031 397.171875 459.839844 394.847656 458.542969 391.792969 C 456.300781 386.503906 453.304688 384.816406 448.765625 382.257812 C 444.011719 379.574219 438.097656 376.238281 432.242188 368.085938 C 431.0625 366.445312 430.066406 364.820312 429.230469 363.214844 L 417.257812 370.125 C 415.167969 371.332031 412.527344 370.949219 410.863281 369.203125 C 409.199219 367.453125 408.949219 364.796875 410.257812 362.769531 L 419.511719 348.445312 L 414.644531 340.019531 C 412.925781 337.039062 412.46875 333.5625 413.363281 330.226562 C 414.257812 326.890625 416.390625 324.105469 419.371094 322.386719 C 422.347656 320.667969 425.824219 320.210938 429.160156 321.105469 C 431.40625 321.707031 433.390625 322.882812 434.980469 324.484375 L 443.675781 311.019531 C 431.578125 305.417969 418.257812 302.46875 404.832031 302.46875 C 397.289062 302.46875 389.957031 303.386719 382.933594 305.101562 C 391.175781 309.417969 398.292969 316.132812 401.582031 323.496094 C 405.449219 332.144531 404.136719 341.109375 397.890625 348.738281 C 397.8125 348.835938 397.726562 348.929688 397.640625 349.023438 C 386.585938 360.691406 372.449219 365.648438 357.839844 362.972656 L 357.59375 362.929688 C 352.996094 362.359375 349.167969 363.714844 348.113281 365.359375 C 347.390625 366.484375 348.191406 368.246094 348.984375 369.527344 C 354.824219 378.914062 356.53125 378.253906 361.609375 376.289062 C 371.898438 372.304688 376.644531 374.441406 382.230469 377.890625 C 385.132812 379.679688 388.128906 381.53125 394.121094 382.105469 C 402.652344 382.925781 406.941406 389.734375 410.726562 395.742188 C 411.859375 397.542969 413.03125 399.402344 414.316406 401.152344 C 419.425781 408.113281 422.496094 413.753906 420.886719 418.640625 C 419.417969 423.097656 415.199219 424.410156 411.804688 425.46875 C 406.542969 427.105469 402.742188 428.285156 402.785156 437.609375 C 402.789062 437.996094 402.746094 438.382812 402.664062 438.761719 C 400.667969 447.78125 398.214844 450.972656 395.449219 453.941406 C 393.992188 455.503906 393.03125 456.539062 392.121094 461.113281 C 392.101562 461.195312 392.085938 461.28125 392.0625 461.363281 C 391.925781 461.90625 391.75 462.441406 391.53125 462.964844 L 394.386719 462.964844 C 396.042969 462.964844 397.605469 463.753906 398.589844 465.089844 C 399.574219 466.425781 399.863281 468.148438 399.371094 469.734375 L 394.15625 486.546875 C 397.691406 486.953125 401.261719 487.164062 404.832031 487.164062 C 413.152344 487.160156 421.367188 486.054688 429.304688 483.878906 Z M 439.746094 529.453125 L 440.679688 529.460938 C 442.859375 523.230469 448.796875 518.746094 455.761719 518.746094 C 461.664062 518.746094 466.824219 521.964844 469.589844 526.738281 C 472.355469 521.964844 477.519531 518.746094 483.421875 518.746094 C 490.398438 518.746094 496.34375 523.246094 498.515625 529.496094 L 516.492188 529.496094 L 516.492188 516.96875 L 439.753906 516.96875 Z M 461.292969 534.722656 C 461.292969 531.671875 458.8125 529.191406 455.761719 529.191406 C 452.710938 529.191406 450.230469 531.671875 450.230469 534.722656 C 450.230469 537.769531 452.710938 540.25 455.761719 540.25 C 458.8125 540.25 461.292969 537.769531 461.292969 534.722656 Z M 488.949219 534.722656 C 488.949219 531.671875 486.46875 529.191406 483.421875 529.191406 C 480.371094 529.191406 477.890625 531.671875 477.890625 534.722656 C 477.890625 537.769531 480.371094 540.25 483.421875 540.25 C 486.46875 540.25 488.949219 537.769531 488.949219 534.722656 Z M 547.527344 534.722656 C 547.527344 531.671875 545.046875 529.191406 541.996094 529.191406 C 538.945312 529.191406 536.464844 531.671875 536.464844 534.722656 C 536.464844 537.769531 538.945312 540.25 541.996094 540.25 C 545.046875 540.25 547.527344 537.769531 547.527344 534.722656 Z M 560.96875 529.5 L 561 505.097656 L 526.9375 505.097656 L 526.9375 529.394531 C 529.136719 523.199219 535.054688 518.746094 541.996094 518.746094 C 548.976562 518.746094 554.921875 523.25 557.089844 529.5 Z M 274.472656 400.039062 C 277.359375 400.039062 279.695312 397.699219 279.695312 394.816406 C 279.695312 325.816406 335.832031 269.683594 404.828125 269.683594 C 407.714844 269.683594 410.050781 267.34375 410.050781 264.460938 C 410.050781 261.574219 407.714844 259.238281 404.828125 259.238281 C 330.070312 259.238281 269.25 320.058594 269.25 394.816406 C 269.25 397.699219 271.589844 400.039062 274.472656 400.039062 Z M 274.472656 400.039062 "/></g></g></svg>