<svg width="110" height="110" viewBox="0 0 110 110" fill="none" xmlns="http://www.w3.org/2000/svg">
<g clip-path="url(#clip0_10361_26252)">
<path d="M55.5519 107.745C84.9266 107.745 108.739 83.9323 108.739 54.5577C108.739 25.183 84.9266 1.37012 55.5519 1.37012C26.1772 1.37012 2.36437 25.183 2.36437 54.5577C2.36437 83.9323 26.1772 107.745 55.5519 107.745Z" stroke="white" stroke-width="2.73477" stroke-miterlimit="10"/>
<path d="M55.5519 104.692C83.2402 104.692 105.686 82.246 105.686 54.5576C105.686 26.8693 83.2402 4.42346 55.5519 4.42346C27.8636 4.42346 5.41772 26.8693 5.41772 54.5576C5.41772 82.246 27.8636 104.692 55.5519 104.692Z" fill="white"/>
<path d="M73.8996 58.016C73.3124 57.4954 72.4121 57.5502 71.8914 58.1374C71.3708 58.7246 71.4256 59.6249 72.0128 60.1456C72.1419 60.2591 72.1889 60.3452 72.1968 60.3139C72.0637 60.7171 70.3373 61.731 67.2331 61.731C66.0626 61.7466 64.896 61.5744 63.7804 61.2142C63.1893 61.1046 62.6451 60.815 62.2224 60.3843C62.2654 60.2513 62.8252 59.6132 64.6064 59.2061C65.3697 59.0299 65.8473 58.2705 65.675 57.5071C65.5028 56.7438 64.7395 56.2662 63.9761 56.4384L63.6786 56.5246L55.3601 50.8523C56.2448 50.2769 56.7968 49.31 56.8437 48.2569C56.8437 47.5484 56.5541 46.2214 54.6046 45.1801C53.9195 44.8004 53.0583 45.047 52.6786 45.732C52.2989 46.4171 52.5455 47.2783 53.2306 47.658C53.2462 47.6658 53.258 47.6737 53.2736 47.6815C53.5398 47.8224 53.7786 48.0064 53.9822 48.2256C53.8608 48.6093 52.3106 49.5997 49.3512 49.6427H48.6427C45.6871 49.5644 44.1252 48.5779 44.0039 48.2256C44.1879 47.9555 44.4462 47.748 44.7476 47.6228C45.5071 47.431 45.9651 46.6559 45.7693 45.8964C45.5775 45.137 44.8024 44.679 44.043 44.8747C43.8355 44.9256 43.6437 45.0274 43.4832 45.1644C41.5338 46.2057 41.2441 47.5406 41.2441 48.2413C41.2441 50.6292 44.2701 52.3751 48.6035 52.4964H49.5234C50.4551 52.4769 51.3829 52.3634 52.295 52.1637L60.6839 57.8986C59.901 58.4701 59.4274 59.3705 59.3921 60.3374C59.4078 61.1477 59.7484 61.915 60.3434 62.463L47.3469 68.9808C46.654 69.3448 46.3839 70.1982 46.7441 70.895C46.9516 71.2943 47.3391 71.5722 47.7854 71.6427C47.8676 71.7132 47.9576 71.7758 48.0555 71.8267C48.353 71.9676 48.6231 72.1634 48.8501 72.4021C48.7288 72.7779 47.0847 73.8192 44.0352 73.8192H43.6242C40.6373 73.7683 38.9932 72.7505 38.8718 72.4021C38.8718 72.3317 39.0832 72.0694 39.6665 71.7719C40.3711 71.4313 40.6647 70.5819 40.3242 69.8772C39.9836 69.1726 39.1341 68.879 38.4295 69.2196C38.406 69.2313 38.3825 69.2431 38.359 69.2548C36.3391 70.3548 36.0338 71.7288 36.0338 72.4374C36.0338 74.8683 39.1341 76.6142 43.5067 76.6925H44.137C48.5761 76.6142 51.6686 74.8644 51.6686 72.4374C51.6569 71.6819 51.3555 70.9616 50.8309 70.4174L63.432 64.115C64.6612 64.4477 65.9295 64.616 67.2056 64.6121C71.0928 64.6121 75.0035 63.152 75.0035 60.3569C74.9996 59.4527 74.5964 58.5954 73.8957 58.016H73.8996Z" fill="url(#paint0_linear_10361_26252)"/>
<path d="M49.0263 47.0904C49.406 47.0904 49.774 46.9377 50.0402 46.6637C51.0736 45.6068 54.4637 41.9544 54.4637 39.4374C54.4637 36.4349 52.0288 34 49.0263 34C46.0238 34 43.5889 36.4349 43.5889 39.4374C43.5889 41.9623 46.979 45.6068 48.0124 46.6637C48.2786 46.9377 48.6466 47.0904 49.0263 47.0904ZM49.0263 36.9868C50.4199 36.9477 51.5864 38.0438 51.6295 39.4413C51.6295 40.1929 50.416 41.9779 49.0263 43.5829C47.6092 41.9818 46.4231 40.1929 46.4231 39.4413C46.4662 38.0477 47.6288 36.9477 49.0263 36.9868Z" fill="url(#paint1_linear_10361_26252)"/>
<path d="M69.1512 59.6171C69.5309 59.6171 69.8989 59.4644 70.1651 59.1904C71.1985 58.1334 74.5886 54.4811 74.5886 51.964C74.5886 48.9615 72.1537 46.5267 69.1512 46.5267C66.1487 46.5267 63.7138 48.9615 63.7138 51.964C63.7138 54.4889 67.1039 58.1334 68.1373 59.1904C68.4035 59.4644 68.7715 59.6171 69.1512 59.6171ZM69.1512 49.5135C70.5448 49.4744 71.7113 50.5704 71.7544 51.968C71.7544 52.7196 70.5409 54.5046 69.1512 56.1096C67.7341 54.5085 66.548 52.7196 66.548 51.968C66.591 50.5744 67.7537 49.4744 69.1512 49.5135Z" fill="url(#paint2_linear_10361_26252)"/>
<path d="M43.4832 70.8911C43.863 70.8911 44.2309 70.7384 44.4971 70.4644C45.5306 69.4075 48.9206 65.7551 48.9206 63.2381C48.8776 60.2747 46.4427 57.9103 43.4832 57.9495C40.5356 57.9181 38.1124 60.2708 38.0576 63.2185C38.0576 65.7356 41.4477 69.3879 42.4811 70.4448C42.7395 70.7228 43.0996 70.8833 43.4793 70.8911H43.4832ZM43.4832 60.7875C44.8768 60.7406 46.0473 61.8249 46.0982 63.2185C46.0982 63.9701 44.8847 65.7551 43.495 67.3601C42.1249 65.7708 40.8918 63.9583 40.8918 63.2185C40.9466 61.8366 42.0975 60.7562 43.4793 60.7875H43.4832Z" fill="url(#paint3_linear_10361_26252)"/>
</g>
<defs>
<linearGradient id="paint0_linear_10361_26252" x1="36.0377" y1="60.7641" x2="75.0074" y2="60.7641" gradientUnits="userSpaceOnUse">
<stop stop-color="#E50C7E"/>
<stop offset="1" stop-color="#E97635"/>
</linearGradient>
<linearGradient id="paint1_linear_10361_26252" x1="43.5889" y1="40.5452" x2="54.4676" y2="40.5452" gradientUnits="userSpaceOnUse">
<stop stop-color="#E50C7E"/>
<stop offset="1" stop-color="#E97635"/>
</linearGradient>
<linearGradient id="paint2_linear_10361_26252" x1="63.7099" y1="53.0719" x2="74.5886" y2="53.0719" gradientUnits="userSpaceOnUse">
<stop stop-color="#E50C7E"/>
<stop offset="1" stop-color="#E97635"/>
</linearGradient>
<linearGradient id="paint3_linear_10361_26252" x1="38.0576" y1="64.4203" x2="48.9206" y2="64.4203" gradientUnits="userSpaceOnUse">
<stop stop-color="#E50C7E"/>
<stop offset="1" stop-color="#E97635"/>
</linearGradient>
<clipPath id="clip0_10361_26252">
<rect width="110" height="109.217" fill="white"/>
</clipPath>
</defs>
</svg>
