<svg xmlns="http://www.w3.org/2000/svg" xmlns:xlink="http://www.w3.org/1999/xlink" width="1080" zoomAndPan="magnify" viewBox="0 0 810 809.999993" height="1080" preserveAspectRatio="xMidYMid meet" version="1.2"><defs><clipPath id="d2391e2c38"><path d="M 405 0 C 181.324219 0 0 181.324219 0 405 C 0 628.675781 181.324219 810 405 810 C 628.675781 810 810 628.675781 810 405 C 810 181.324219 628.675781 0 405 0 Z M 405 0 "/></clipPath><clipPath id="1fe6d0ee96"><path d="M 34.269531 34.269531 L 775.730469 34.269531 L 775.730469 775.730469 L 34.269531 775.730469 Z M 34.269531 34.269531 "/></clipPath><clipPath id="a03a635979"><path d="M 405 34.269531 C 200.25 34.269531 34.269531 200.25 34.269531 405 C 34.269531 609.75 200.25 775.730469 405 775.730469 C 609.75 775.730469 775.730469 609.75 775.730469 405 C 775.730469 200.25 609.75 34.269531 405 34.269531 Z M 405 34.269531 "/></clipPath><clipPath id="44b950ac36"><path d="M 0.269531 0.269531 L 741.730469 0.269531 L 741.730469 741.730469 L 0.269531 741.730469 Z M 0.269531 0.269531 "/></clipPath><clipPath id="a0df6b05ad"><path d="M 371 0.269531 C 166.25 0.269531 0.269531 166.25 0.269531 371 C 0.269531 575.75 166.25 741.730469 371 741.730469 C 575.75 741.730469 741.730469 575.75 741.730469 371 C 741.730469 166.25 575.75 0.269531 371 0.269531 Z M 371 0.269531 "/></clipPath><clipPath id="3d886b50ec"><rect x="0" width="742" y="0" height="742"/></clipPath><clipPath id="fce3b5778b"><path d="M 238.445312 271.757812 L 571.445312 271.757812 L 571.445312 361 L 238.445312 361 Z M 238.445312 271.757812 "/></clipPath><clipPath id="aea86fcf5c"><path d="M 238.445312 449 L 571.445312 449 L 571.445312 538.007812 L 238.445312 538.007812 Z M 238.445312 449 "/></clipPath><clipPath id="3572f581b4"><path d="M 238.445312 360 L 571.445312 360 L 571.445312 450 L 238.445312 450 Z M 238.445312 360 "/></clipPath></defs><g id="b2081866e6"><g clip-rule="nonzero" clip-path="url(#d2391e2c38)"><path style="fill:none;stroke-width:30;stroke-linecap:butt;stroke-linejoin:miter;stroke:#ffffff;stroke-opacity:1;stroke-miterlimit:4;" d="M 540.000023 -0.0000266667 C 241.765632 -0.0000266667 -0.00000466667 241.76561 -0.00000466667 540.000001 C -0.00000466667 838.234391 241.765632 1080.000028 540.000023 1080.000028 C 838.234413 1080.000028 1080.00005 838.234391 1080.00005 540.000001 C 1080.00005 241.76561 838.234413 -0.0000266667 540.000023 -0.0000266667 Z M 540.000023 -0.0000266667 " transform="matrix(0.75,0,0,0.75,0.0000035,0.00002)"/></g><g clip-rule="nonzero" clip-path="url(#1fe6d0ee96)"><g clip-rule="nonzero" clip-path="url(#a03a635979)"><g transform="matrix(1,0,0,1,34,34)"><g clip-path="url(#3d886b50ec)"><g clip-rule="nonzero" clip-path="url(#44b950ac36)"><g clip-rule="nonzero" clip-path="url(#a0df6b05ad)"><path style=" stroke:none;fill-rule:nonzero;fill:#ffffff;fill-opacity:1;" d="M 0.269531 0.269531 L 741.730469 0.269531 L 741.730469 741.730469 L 0.269531 741.730469 Z M 0.269531 0.269531 "/></g></g></g></g></g></g><g clip-rule="nonzero" clip-path="url(#fce3b5778b)"><path style=" stroke:none;fill-rule:nonzero;fill:#fa5719;fill-opacity:1;" d="M 560.445312 305.066406 L 359.007812 305.066406 C 358.707031 303.886719 358.359375 302.71875 357.960938 301.570312 C 357.566406 300.417969 357.121094 299.285156 356.628906 298.171875 C 356.140625 297.054688 355.605469 295.964844 355.023438 294.894531 C 354.445312 293.824219 353.820312 292.777344 353.152344 291.757812 C 352.484375 290.742188 351.777344 289.75 351.03125 288.789062 C 350.28125 287.828125 349.492188 286.902344 348.667969 286.007812 C 347.84375 285.113281 346.980469 284.253906 346.085938 283.429688 C 345.1875 282.605469 344.261719 281.816406 343.296875 281.070312 C 342.335938 280.324219 341.347656 279.617188 340.328125 278.953125 C 339.308594 278.285156 338.261719 277.664062 337.191406 277.085938 C 336.117188 276.503906 335.027344 275.972656 333.910156 275.484375 C 332.796875 274.992188 331.660156 274.550781 330.507812 274.15625 C 329.359375 273.761719 328.191406 273.414062 327.011719 273.117188 C 325.832031 272.816406 324.640625 272.570312 323.4375 272.367188 C 322.238281 272.167969 321.03125 272.015625 319.816406 271.917969 C 318.601562 271.816406 317.386719 271.765625 316.167969 271.765625 C 314.953125 271.765625 313.734375 271.816406 312.523438 271.917969 C 311.308594 272.015625 310.101562 272.167969 308.902344 272.367188 C 307.699219 272.570312 306.507812 272.816406 305.328125 273.117188 C 304.148438 273.414062 302.980469 273.761719 301.828125 274.15625 C 300.675781 274.550781 299.542969 274.992188 298.429688 275.484375 C 297.3125 275.972656 296.21875 276.503906 295.148438 277.085938 C 294.078125 277.664062 293.03125 278.285156 292.011719 278.953125 C 290.992188 279.617188 290 280.324219 289.039062 281.070312 C 288.078125 281.816406 287.148438 282.605469 286.253906 283.429688 C 285.355469 284.253906 284.496094 285.113281 283.671875 286.007812 C 282.84375 286.902344 282.058594 287.828125 281.308594 288.789062 C 280.5625 289.75 279.851562 290.742188 279.1875 291.757812 C 278.519531 292.777344 277.894531 293.824219 277.316406 294.894531 C 276.734375 295.964844 276.199219 297.054688 275.707031 298.171875 C 275.21875 299.285156 274.773438 300.417969 274.378906 301.570312 C 273.980469 302.71875 273.632812 303.886719 273.332031 305.066406 L 249.546875 305.066406 C 248.820312 305.066406 248.097656 305.136719 247.382812 305.28125 C 246.667969 305.421875 245.972656 305.632812 245.300781 305.910156 C 244.625 306.191406 243.984375 306.53125 243.378906 306.9375 C 242.773438 307.34375 242.210938 307.804688 241.695312 308.320312 C 241.179688 308.835938 240.722656 309.394531 240.316406 310 C 239.910156 310.605469 239.570312 311.246094 239.289062 311.921875 C 239.011719 312.59375 238.800781 313.289062 238.660156 314.003906 C 238.515625 314.71875 238.445312 315.441406 238.445312 316.171875 C 238.445312 316.898438 238.515625 317.621094 238.660156 318.335938 C 238.800781 319.050781 239.011719 319.746094 239.289062 320.417969 C 239.570312 321.09375 239.910156 321.734375 240.316406 322.339844 C 240.722656 322.945312 241.179688 323.503906 241.695312 324.019531 C 242.210938 324.535156 242.773438 324.996094 243.378906 325.402344 C 243.984375 325.808594 244.625 326.148438 245.300781 326.429688 C 245.972656 326.707031 246.667969 326.917969 247.382812 327.058594 C 248.097656 327.203125 248.820312 327.273438 249.546875 327.273438 L 273.332031 327.273438 C 273.632812 328.453125 273.980469 329.621094 274.378906 330.769531 C 274.773438 331.921875 275.21875 333.054688 275.707031 334.167969 C 276.199219 335.285156 276.734375 336.375 277.316406 337.445312 C 277.894531 338.515625 278.519531 339.5625 279.1875 340.582031 C 279.851562 341.601562 280.5625 342.589844 281.308594 343.550781 C 282.058594 344.511719 282.84375 345.4375 283.671875 346.332031 C 284.496094 347.226562 285.355469 348.089844 286.253906 348.914062 C 287.148438 349.734375 288.078125 350.523438 289.039062 351.269531 C 290 352.015625 290.992188 352.722656 292.011719 353.386719 C 293.03125 354.054688 294.078125 354.675781 295.148438 355.253906 C 296.21875 355.835938 297.3125 356.367188 298.429688 356.855469 C 299.542969 357.347656 300.675781 357.789062 301.828125 358.183594 C 302.980469 358.578125 304.148438 358.925781 305.328125 359.222656 C 306.507812 359.523438 307.699219 359.773438 308.902344 359.972656 C 310.101562 360.171875 311.308594 360.324219 312.523438 360.421875 C 313.734375 360.523438 314.953125 360.574219 316.167969 360.574219 C 317.386719 360.574219 318.601562 360.523438 319.816406 360.421875 C 321.03125 360.324219 322.238281 360.171875 323.4375 359.972656 C 324.640625 359.773438 325.832031 359.523438 327.011719 359.222656 C 328.191406 358.925781 329.359375 358.578125 330.507812 358.183594 C 331.660156 357.789062 332.796875 357.347656 333.910156 356.855469 C 335.027344 356.367188 336.117188 355.835938 337.191406 355.253906 C 338.261719 354.675781 339.308594 354.054688 340.328125 353.386719 C 341.347656 352.722656 342.335938 352.015625 343.296875 351.269531 C 344.261719 350.523438 345.1875 349.734375 346.085938 348.914062 C 346.980469 348.089844 347.84375 347.226562 348.667969 346.332031 C 349.492188 345.4375 350.28125 344.511719 351.03125 343.550781 C 351.777344 342.589844 352.484375 341.601562 353.152344 340.582031 C 353.820312 339.5625 354.445312 338.515625 355.023438 337.445312 C 355.605469 336.375 356.140625 335.285156 356.628906 334.167969 C 357.121094 333.054688 357.566406 331.921875 357.960938 330.769531 C 358.359375 329.621094 358.707031 328.453125 359.007812 327.273438 L 560.445312 327.273438 C 561.175781 327.273438 561.898438 327.203125 562.613281 327.058594 C 563.328125 326.917969 564.023438 326.707031 564.695312 326.429688 C 565.371094 326.148438 566.007812 325.808594 566.617188 325.402344 C 567.222656 324.996094 567.78125 324.535156 568.296875 324.019531 C 568.8125 323.503906 569.273438 322.945312 569.679688 322.339844 C 570.085938 321.734375 570.425781 321.09375 570.707031 320.417969 C 570.984375 319.746094 571.195312 319.050781 571.335938 318.335938 C 571.480469 317.621094 571.550781 316.898438 571.550781 316.171875 C 571.550781 315.441406 571.480469 314.71875 571.335938 314.003906 C 571.195312 313.289062 570.984375 312.59375 570.707031 311.921875 C 570.425781 311.246094 570.085938 310.605469 569.679688 310 C 569.273438 309.394531 568.8125 308.835938 568.296875 308.320312 C 567.78125 307.804688 567.222656 307.34375 566.617188 306.9375 C 566.007812 306.53125 565.371094 306.191406 564.695312 305.910156 C 564.023438 305.632812 563.328125 305.421875 562.613281 305.28125 C 561.898438 305.136719 561.175781 305.066406 560.445312 305.066406 Z M 316.167969 338.378906 C 315.441406 338.378906 314.714844 338.339844 313.992188 338.269531 C 313.269531 338.199219 312.550781 338.09375 311.835938 337.949219 C 311.125 337.808594 310.417969 337.632812 309.722656 337.421875 C 309.027344 337.210938 308.34375 336.964844 307.671875 336.6875 C 307 336.410156 306.34375 336.097656 305.703125 335.753906 C 305.058594 335.410156 304.4375 335.039062 303.832031 334.632812 C 303.226562 334.230469 302.644531 333.796875 302.082031 333.335938 C 301.519531 332.875 300.980469 332.386719 300.46875 331.871094 C 299.953125 331.359375 299.464844 330.820312 299.003906 330.257812 C 298.542969 329.695312 298.109375 329.113281 297.707031 328.507812 C 297.300781 327.902344 296.925781 327.28125 296.585938 326.636719 C 296.242188 325.996094 295.929688 325.339844 295.652344 324.667969 C 295.375 323.996094 295.128906 323.3125 294.917969 322.617188 C 294.707031 321.921875 294.53125 321.214844 294.390625 320.503906 C 294.246094 319.789062 294.140625 319.070312 294.070312 318.347656 C 294 317.621094 293.960938 316.898438 293.960938 316.171875 C 293.960938 315.441406 294 314.71875 294.070312 313.992188 C 294.140625 313.269531 294.246094 312.550781 294.390625 311.835938 C 294.53125 311.125 294.707031 310.417969 294.917969 309.722656 C 295.128906 309.027344 295.375 308.34375 295.652344 307.671875 C 295.929688 307 296.242188 306.34375 296.585938 305.703125 C 296.925781 305.058594 297.300781 304.4375 297.707031 303.832031 C 298.109375 303.226562 298.542969 302.644531 299.003906 302.082031 C 299.464844 301.519531 299.953125 300.980469 300.46875 300.46875 C 300.980469 299.953125 301.519531 299.464844 302.082031 299.003906 C 302.644531 298.542969 303.226562 298.109375 303.832031 297.707031 C 304.4375 297.300781 305.058594 296.929688 305.703125 296.585938 C 306.34375 296.242188 307 295.933594 307.671875 295.652344 C 308.34375 295.375 309.027344 295.128906 309.722656 294.917969 C 310.417969 294.707031 311.125 294.53125 311.835938 294.390625 C 312.550781 294.246094 313.269531 294.140625 313.992188 294.070312 C 314.714844 294 315.441406 293.964844 316.167969 293.964844 C 316.898438 293.964844 317.621094 294 318.347656 294.070312 C 319.070312 294.140625 319.789062 294.246094 320.503906 294.390625 C 321.214844 294.53125 321.921875 294.707031 322.617188 294.917969 C 323.3125 295.128906 323.996094 295.375 324.667969 295.652344 C 325.339844 295.933594 325.996094 296.242188 326.636719 296.585938 C 327.28125 296.929688 327.902344 297.300781 328.507812 297.707031 C 329.113281 298.109375 329.695312 298.542969 330.257812 299.003906 C 330.820312 299.464844 331.359375 299.953125 331.871094 300.46875 C 332.386719 300.980469 332.875 301.519531 333.335938 302.082031 C 333.796875 302.644531 334.230469 303.226562 334.632812 303.832031 C 335.039062 304.4375 335.410156 305.058594 335.753906 305.703125 C 336.097656 306.34375 336.40625 307 336.6875 307.671875 C 336.964844 308.34375 337.210938 309.027344 337.421875 309.722656 C 337.632812 310.417969 337.808594 311.125 337.949219 311.835938 C 338.09375 312.550781 338.199219 313.269531 338.269531 313.992188 C 338.339844 314.71875 338.375 315.441406 338.375 316.171875 C 338.375 316.898438 338.339844 317.621094 338.269531 318.347656 C 338.199219 319.070312 338.09375 319.789062 337.949219 320.503906 C 337.808594 321.214844 337.632812 321.921875 337.421875 322.617188 C 337.210938 323.3125 336.964844 323.996094 336.6875 324.667969 C 336.40625 325.339844 336.097656 325.996094 335.753906 326.636719 C 335.410156 327.28125 335.039062 327.902344 334.632812 328.507812 C 334.230469 329.113281 333.796875 329.695312 333.335938 330.257812 C 332.875 330.820312 332.386719 331.359375 331.871094 331.871094 C 331.359375 332.386719 330.820312 332.875 330.257812 333.335938 C 329.695312 333.796875 329.113281 334.230469 328.507812 334.632812 C 327.902344 335.039062 327.28125 335.410156 326.636719 335.753906 C 325.996094 336.097656 325.339844 336.410156 324.667969 336.6875 C 323.996094 336.964844 323.3125 337.210938 322.617188 337.421875 C 321.921875 337.632812 321.214844 337.808594 320.503906 337.949219 C 319.789062 338.09375 319.070312 338.199219 318.347656 338.269531 C 317.621094 338.339844 316.898438 338.378906 316.167969 338.378906 Z M 316.167969 338.378906 "/></g><g clip-rule="nonzero" clip-path="url(#aea86fcf5c)"><path style=" stroke:none;fill-rule:nonzero;fill:#fa5719;fill-opacity:1;" d="M 560.445312 482.722656 L 414.523438 482.722656 C 414.222656 481.542969 413.875 480.375 413.480469 479.226562 C 413.082031 478.074219 412.640625 476.941406 412.148438 475.828125 C 411.65625 474.710938 411.121094 473.621094 410.542969 472.550781 C 409.960938 471.480469 409.335938 470.433594 408.671875 469.414062 C 408.003906 468.398438 407.296875 467.40625 406.546875 466.445312 C 405.796875 465.484375 405.011719 464.558594 404.1875 463.664062 C 403.359375 462.769531 402.5 461.910156 401.601562 461.085938 C 400.707031 460.261719 399.777344 459.472656 398.816406 458.726562 C 397.855469 457.980469 396.863281 457.273438 395.84375 456.609375 C 394.824219 455.941406 393.777344 455.320312 392.707031 454.742188 C 391.636719 454.160156 390.542969 453.628906 389.429688 453.140625 C 388.3125 452.648438 387.179688 452.207031 386.027344 451.8125 C 384.875 451.417969 383.710938 451.070312 382.527344 450.773438 C 381.347656 450.472656 380.15625 450.222656 378.957031 450.023438 C 377.753906 449.824219 376.546875 449.671875 375.335938 449.574219 C 374.121094 449.472656 372.90625 449.421875 371.6875 449.421875 C 370.46875 449.421875 369.253906 449.472656 368.039062 449.574219 C 366.828125 449.671875 365.621094 449.824219 364.417969 450.023438 C 363.21875 450.222656 362.027344 450.472656 360.84375 450.773438 C 359.664062 451.070312 358.5 451.417969 357.347656 451.8125 C 356.195312 452.207031 355.0625 452.648438 353.945312 453.140625 C 352.832031 453.628906 351.738281 454.160156 350.667969 454.742188 C 349.59375 455.320312 348.550781 455.941406 347.53125 456.609375 C 346.511719 457.273438 345.519531 457.980469 344.558594 458.726562 C 343.597656 459.472656 342.667969 460.261719 341.769531 461.085938 C 340.875 461.90625 340.015625 462.769531 339.1875 463.664062 C 338.363281 464.558594 337.574219 465.484375 336.828125 466.445312 C 336.078125 467.40625 335.371094 468.398438 334.703125 469.414062 C 334.035156 470.433594 333.414062 471.480469 332.832031 472.550781 C 332.25 473.621094 331.714844 474.710938 331.226562 475.828125 C 330.734375 476.941406 330.292969 478.074219 329.894531 479.226562 C 329.5 480.375 329.148438 481.542969 328.851562 482.722656 L 249.546875 482.722656 C 248.820312 482.722656 248.097656 482.792969 247.382812 482.9375 C 246.667969 483.078125 245.972656 483.289062 245.300781 483.566406 C 244.625 483.847656 243.984375 484.1875 243.378906 484.59375 C 242.773438 485 242.210938 485.460938 241.695312 485.976562 C 241.179688 486.492188 240.722656 487.050781 240.316406 487.65625 C 239.910156 488.261719 239.570312 488.902344 239.289062 489.578125 C 239.011719 490.25 238.800781 490.945312 238.660156 491.660156 C 238.515625 492.375 238.445312 493.097656 238.445312 493.828125 C 238.445312 494.554688 238.515625 495.277344 238.660156 495.992188 C 238.800781 496.707031 239.011719 497.402344 239.289062 498.074219 C 239.570312 498.75 239.910156 499.390625 240.316406 499.996094 C 240.722656 500.601562 241.179688 501.160156 241.695312 501.675781 C 242.210938 502.191406 242.773438 502.652344 243.378906 503.058594 C 243.984375 503.464844 244.625 503.804688 245.300781 504.085938 C 245.972656 504.363281 246.667969 504.574219 247.382812 504.714844 C 248.097656 504.859375 248.820312 504.929688 249.546875 504.929688 L 328.851562 504.929688 C 329.148438 506.109375 329.5 507.277344 329.894531 508.425781 C 330.292969 509.578125 330.734375 510.710938 331.226562 511.824219 C 331.714844 512.941406 332.25 514.03125 332.832031 515.101562 C 333.414062 516.171875 334.035156 517.21875 334.703125 518.238281 C 335.371094 519.257812 336.078125 520.246094 336.828125 521.207031 C 337.574219 522.167969 338.363281 523.09375 339.1875 523.988281 C 340.015625 524.882812 340.875 525.746094 341.769531 526.570312 C 342.667969 527.390625 343.597656 528.179688 344.558594 528.925781 C 345.519531 529.671875 346.511719 530.378906 347.53125 531.042969 C 348.550781 531.710938 349.59375 532.332031 350.667969 532.910156 C 351.738281 533.492188 352.832031 534.023438 353.945312 534.511719 C 355.0625 535.003906 356.195312 535.445312 357.347656 535.839844 C 358.5 536.234375 359.664062 536.582031 360.84375 536.878906 C 362.027344 537.179688 363.21875 537.429688 364.417969 537.628906 C 365.621094 537.828125 366.828125 537.980469 368.039062 538.078125 C 369.253906 538.179688 370.46875 538.230469 371.6875 538.230469 C 372.90625 538.230469 374.121094 538.179688 375.335938 538.078125 C 376.546875 537.980469 377.753906 537.828125 378.957031 537.628906 C 380.15625 537.429688 381.347656 537.179688 382.527344 536.878906 C 383.710938 536.582031 384.875 536.234375 386.027344 535.839844 C 387.179688 535.445312 388.3125 535.003906 389.429688 534.511719 C 390.542969 534.023438 391.636719 533.492188 392.707031 532.910156 C 393.777344 532.332031 394.824219 531.710938 395.84375 531.042969 C 396.863281 530.378906 397.855469 529.671875 398.816406 528.925781 C 399.777344 528.179688 400.707031 527.390625 401.601562 526.570312 C 402.5 525.746094 403.359375 524.882812 404.1875 523.988281 C 405.011719 523.09375 405.796875 522.167969 406.546875 521.207031 C 407.296875 520.246094 408.003906 519.257812 408.671875 518.238281 C 409.335938 517.21875 409.960938 516.171875 410.542969 515.101562 C 411.121094 514.03125 411.65625 512.941406 412.148438 511.824219 C 412.640625 510.710938 413.082031 509.578125 413.480469 508.425781 C 413.875 507.277344 414.222656 506.109375 414.523438 504.929688 L 560.445312 504.929688 C 561.175781 504.929688 561.898438 504.859375 562.613281 504.714844 C 563.328125 504.574219 564.023438 504.363281 564.695312 504.085938 C 565.371094 503.804688 566.007812 503.464844 566.617188 503.058594 C 567.222656 502.652344 567.78125 502.191406 568.296875 501.675781 C 568.8125 501.160156 569.273438 500.601562 569.679688 499.996094 C 570.085938 499.390625 570.425781 498.75 570.707031 498.074219 C 570.984375 497.402344 571.195312 496.707031 571.335938 495.992188 C 571.480469 495.277344 571.550781 494.554688 571.550781 493.828125 C 571.550781 493.097656 571.480469 492.375 571.335938 491.660156 C 571.195312 490.945312 570.984375 490.25 570.707031 489.578125 C 570.425781 488.902344 570.085938 488.261719 569.679688 487.65625 C 569.273438 487.050781 568.8125 486.492188 568.296875 485.976562 C 567.78125 485.460938 567.222656 485 566.617188 484.59375 C 566.007812 484.1875 565.371094 483.847656 564.695312 483.566406 C 564.023438 483.289062 563.328125 483.078125 562.613281 482.9375 C 561.898438 482.792969 561.175781 482.722656 560.445312 482.722656 Z M 371.6875 516.035156 C 370.960938 516.035156 370.234375 515.996094 369.511719 515.925781 C 368.785156 515.855469 368.066406 515.75 367.355469 515.605469 C 366.640625 515.464844 365.9375 515.289062 365.242188 515.078125 C 364.542969 514.867188 363.859375 514.621094 363.1875 514.34375 C 362.515625 514.066406 361.859375 513.753906 361.21875 513.410156 C 360.578125 513.066406 359.953125 512.695312 359.347656 512.289062 C 358.746094 511.886719 358.160156 511.453125 357.597656 510.992188 C 357.035156 510.53125 356.5 510.042969 355.984375 509.527344 C 355.46875 509.015625 354.980469 508.476562 354.519531 507.914062 C 354.058594 507.351562 353.625 506.769531 353.222656 506.164062 C 352.820312 505.558594 352.445312 504.9375 352.101562 504.292969 C 351.757812 503.652344 351.449219 502.996094 351.171875 502.324219 C 350.890625 501.652344 350.648438 500.96875 350.4375 500.273438 C 350.226562 499.578125 350.046875 498.871094 349.90625 498.160156 C 349.765625 497.445312 349.660156 496.726562 349.585938 496.003906 C 349.515625 495.277344 349.480469 494.554688 349.480469 493.828125 C 349.480469 493.097656 349.515625 492.375 349.585938 491.648438 C 349.660156 490.925781 349.765625 490.207031 349.90625 489.492188 C 350.046875 488.78125 350.226562 488.074219 350.4375 487.378906 C 350.648438 486.683594 350.890625 486 351.171875 485.328125 C 351.449219 484.65625 351.757812 484 352.101562 483.359375 C 352.445312 482.714844 352.820312 482.09375 353.222656 481.488281 C 353.625 480.882812 354.058594 480.300781 354.519531 479.738281 C 354.980469 479.175781 355.46875 478.636719 355.984375 478.125 C 356.5 477.609375 357.035156 477.121094 357.597656 476.660156 C 358.160156 476.199219 358.746094 475.765625 359.347656 475.363281 C 359.953125 474.957031 360.578125 474.585938 361.21875 474.242188 C 361.859375 473.898438 362.515625 473.589844 363.1875 473.308594 C 363.859375 473.03125 364.542969 472.785156 365.242188 472.574219 C 365.9375 472.363281 366.640625 472.1875 367.355469 472.046875 C 368.066406 471.902344 368.785156 471.796875 369.511719 471.726562 C 370.234375 471.65625 370.960938 471.621094 371.6875 471.621094 C 372.414062 471.621094 373.140625 471.65625 373.863281 471.726562 C 374.585938 471.796875 375.304688 471.902344 376.019531 472.046875 C 376.734375 472.1875 377.4375 472.363281 378.132812 472.574219 C 378.828125 472.785156 379.511719 473.03125 380.183594 473.308594 C 380.855469 473.589844 381.515625 473.898438 382.15625 474.242188 C 382.796875 474.585938 383.421875 474.957031 384.023438 475.363281 C 384.628906 475.765625 385.214844 476.199219 385.773438 476.660156 C 386.335938 477.121094 386.875 477.609375 387.390625 478.125 C 387.902344 478.636719 388.390625 479.175781 388.851562 479.738281 C 389.316406 480.300781 389.746094 480.882812 390.152344 481.488281 C 390.554688 482.09375 390.929688 482.714844 391.273438 483.359375 C 391.613281 484 391.925781 484.65625 392.203125 485.328125 C 392.480469 486 392.726562 486.683594 392.9375 487.378906 C 393.148438 488.074219 393.324219 488.78125 393.46875 489.492188 C 393.609375 490.207031 393.714844 490.925781 393.789062 491.648438 C 393.859375 492.375 393.894531 493.097656 393.894531 493.828125 C 393.894531 494.554688 393.859375 495.277344 393.789062 496.003906 C 393.714844 496.726562 393.609375 497.445312 393.46875 498.160156 C 393.324219 498.871094 393.148438 499.578125 392.9375 500.273438 C 392.726562 500.96875 392.480469 501.652344 392.203125 502.324219 C 391.925781 502.996094 391.613281 503.652344 391.273438 504.292969 C 390.929688 504.9375 390.554688 505.558594 390.152344 506.164062 C 389.746094 506.769531 389.316406 507.351562 388.851562 507.914062 C 388.390625 508.476562 387.902344 509.015625 387.390625 509.527344 C 386.875 510.042969 386.335938 510.53125 385.773438 510.992188 C 385.214844 511.453125 384.628906 511.886719 384.023438 512.289062 C 383.421875 512.695312 382.796875 513.066406 382.15625 513.410156 C 381.515625 513.753906 380.855469 514.066406 380.183594 514.34375 C 379.511719 514.621094 378.828125 514.867188 378.132812 515.078125 C 377.4375 515.289062 376.734375 515.464844 376.019531 515.605469 C 375.304688 515.75 374.585938 515.855469 373.863281 515.925781 C 373.140625 515.996094 372.414062 516.035156 371.6875 516.035156 Z M 371.6875 516.035156 "/></g><g clip-rule="nonzero" clip-path="url(#3572f581b4)"><path style=" stroke:none;fill-rule:nonzero;fill:#fa5719;fill-opacity:1;" d="M 560.445312 393.894531 L 547.765625 393.894531 C 547.464844 392.714844 547.117188 391.546875 546.722656 390.398438 C 546.324219 389.246094 545.882812 388.113281 545.390625 387 C 544.898438 385.882812 544.363281 384.792969 543.785156 383.722656 C 543.203125 382.652344 542.578125 381.605469 541.914062 380.585938 C 541.246094 379.570312 540.539062 378.578125 539.789062 377.617188 C 539.039062 376.65625 538.253906 375.730469 537.429688 374.835938 C 536.601562 373.941406 535.742188 373.082031 534.84375 372.257812 C 533.949219 371.433594 533.019531 370.644531 532.058594 369.898438 C 531.097656 369.152344 530.105469 368.445312 529.085938 367.78125 C 528.066406 367.113281 527.019531 366.492188 525.949219 365.914062 C 524.878906 365.332031 523.785156 364.800781 522.671875 364.3125 C 521.554688 363.820312 520.421875 363.378906 519.269531 362.984375 C 518.117188 362.589844 516.953125 362.242188 515.769531 361.945312 C 514.589844 361.644531 513.398438 361.398438 512.199219 361.195312 C 510.996094 360.996094 509.789062 360.84375 508.578125 360.746094 C 507.363281 360.644531 506.148438 360.59375 504.929688 360.59375 C 503.710938 360.59375 502.496094 360.644531 501.28125 360.746094 C 500.070312 360.84375 498.863281 360.996094 497.660156 361.195312 C 496.460938 361.398438 495.269531 361.644531 494.085938 361.945312 C 492.90625 362.242188 491.742188 362.589844 490.589844 362.984375 C 489.4375 363.378906 488.304688 363.820312 487.1875 364.3125 C 486.074219 364.800781 484.980469 365.332031 483.910156 365.914062 C 482.835938 366.492188 481.792969 367.113281 480.773438 367.78125 C 479.753906 368.445312 478.761719 369.152344 477.800781 369.898438 C 476.839844 370.644531 475.910156 371.433594 475.011719 372.257812 C 474.117188 373.082031 473.257812 373.941406 472.429688 374.835938 C 471.605469 375.730469 470.816406 376.65625 470.070312 377.617188 C 469.320312 378.578125 468.613281 379.570312 467.945312 380.585938 C 467.277344 381.605469 466.65625 382.652344 466.074219 383.722656 C 465.492188 384.792969 464.957031 385.882812 464.46875 387 C 463.976562 388.113281 463.535156 389.246094 463.136719 390.398438 C 462.742188 391.546875 462.390625 392.714844 462.09375 393.894531 L 249.546875 393.894531 C 248.820312 393.894531 248.097656 393.964844 247.382812 394.109375 C 246.667969 394.25 245.972656 394.460938 245.300781 394.738281 C 244.625 395.019531 243.984375 395.359375 243.378906 395.765625 C 242.773438 396.171875 242.210938 396.632812 241.695312 397.148438 C 241.179688 397.664062 240.722656 398.222656 240.316406 398.828125 C 239.910156 399.433594 239.570312 400.074219 239.289062 400.75 C 239.011719 401.421875 238.800781 402.117188 238.660156 402.832031 C 238.515625 403.546875 238.445312 404.269531 238.445312 405 C 238.445312 405.726562 238.515625 406.449219 238.660156 407.164062 C 238.800781 407.878906 239.011719 408.574219 239.289062 409.246094 C 239.570312 409.921875 239.910156 410.5625 240.316406 411.167969 C 240.722656 411.773438 241.179688 412.332031 241.695312 412.847656 C 242.210938 413.363281 242.773438 413.824219 243.378906 414.230469 C 243.984375 414.636719 244.625 414.976562 245.300781 415.257812 C 245.972656 415.535156 246.667969 415.746094 247.382812 415.886719 C 248.097656 416.03125 248.820312 416.101562 249.546875 416.101562 L 462.09375 416.101562 C 462.390625 417.28125 462.742188 418.449219 463.136719 419.597656 C 463.535156 420.75 463.976562 421.882812 464.46875 422.996094 C 464.957031 424.113281 465.492188 425.203125 466.074219 426.273438 C 466.65625 427.34375 467.277344 428.390625 467.945312 429.410156 C 468.613281 430.429688 469.320312 431.417969 470.070312 432.378906 C 470.816406 433.339844 471.605469 434.265625 472.429688 435.160156 C 473.257812 436.054688 474.117188 436.917969 475.011719 437.742188 C 475.910156 438.5625 476.839844 439.351562 477.800781 440.097656 C 478.761719 440.84375 479.753906 441.550781 480.773438 442.214844 C 481.792969 442.882812 482.835938 443.503906 483.910156 444.082031 C 484.980469 444.664062 486.074219 445.195312 487.1875 445.683594 C 488.304688 446.175781 489.4375 446.617188 490.589844 447.011719 C 491.742188 447.40625 492.90625 447.753906 494.085938 448.050781 C 495.269531 448.351562 496.460938 448.601562 497.660156 448.800781 C 498.863281 449 500.070312 449.152344 501.28125 449.25 C 502.496094 449.351562 503.710938 449.402344 504.929688 449.402344 C 506.148438 449.402344 507.363281 449.351562 508.578125 449.25 C 509.789062 449.152344 510.996094 449 512.199219 448.800781 C 513.398438 448.601562 514.589844 448.351562 515.769531 448.050781 C 516.953125 447.753906 518.117188 447.40625 519.269531 447.011719 C 520.421875 446.617188 521.554688 446.175781 522.671875 445.683594 C 523.785156 445.195312 524.878906 444.664062 525.949219 444.082031 C 527.019531 443.503906 528.066406 442.882812 529.085938 442.214844 C 530.105469 441.550781 531.097656 440.84375 532.058594 440.097656 C 533.019531 439.351562 533.949219 438.5625 534.84375 437.738281 C 535.742188 436.917969 536.601562 436.054688 537.429688 435.160156 C 538.253906 434.265625 539.039062 433.339844 539.789062 432.378906 C 540.539062 431.417969 541.246094 430.429688 541.914062 429.410156 C 542.578125 428.390625 543.203125 427.34375 543.785156 426.273438 C 544.363281 425.203125 544.898438 424.113281 545.390625 422.996094 C 545.882812 421.882812 546.324219 420.75 546.722656 419.597656 C 547.117188 418.449219 547.464844 417.28125 547.765625 416.101562 L 560.445312 416.101562 C 561.175781 416.101562 561.898438 416.03125 562.613281 415.886719 C 563.328125 415.746094 564.023438 415.535156 564.695312 415.257812 C 565.371094 414.976562 566.007812 414.636719 566.617188 414.230469 C 567.222656 413.824219 567.78125 413.363281 568.296875 412.847656 C 568.8125 412.332031 569.273438 411.773438 569.679688 411.167969 C 570.085938 410.5625 570.425781 409.921875 570.707031 409.246094 C 570.984375 408.574219 571.195312 407.878906 571.335938 407.164062 C 571.480469 406.449219 571.550781 405.726562 571.550781 405 C 571.550781 404.269531 571.480469 403.546875 571.335938 402.832031 C 571.195312 402.117188 570.984375 401.421875 570.707031 400.75 C 570.425781 400.074219 570.085938 399.433594 569.679688 398.828125 C 569.273438 398.222656 568.8125 397.664062 568.296875 397.148438 C 567.78125 396.632812 567.222656 396.171875 566.617188 395.765625 C 566.007812 395.359375 565.371094 395.019531 564.695312 394.738281 C 564.023438 394.460938 563.328125 394.25 562.613281 394.109375 C 561.898438 393.964844 561.175781 393.894531 560.445312 393.894531 Z M 504.929688 427.207031 C 504.203125 427.207031 503.476562 427.167969 502.753906 427.097656 C 502.027344 427.027344 501.308594 426.921875 500.597656 426.777344 C 499.882812 426.636719 499.179688 426.460938 498.484375 426.25 C 497.785156 426.039062 497.101562 425.792969 496.429688 425.515625 C 495.757812 425.238281 495.101562 424.925781 494.460938 424.582031 C 493.820312 424.238281 493.195312 423.867188 492.589844 423.460938 C 491.988281 423.058594 491.402344 422.625 490.839844 422.164062 C 490.277344 421.703125 489.742188 421.214844 489.226562 420.699219 C 488.710938 420.1875 488.222656 419.648438 487.761719 419.085938 C 487.300781 418.523438 486.867188 417.941406 486.464844 417.335938 C 486.0625 416.730469 485.6875 416.109375 485.34375 415.464844 C 485 414.824219 484.691406 414.167969 484.414062 413.496094 C 484.132812 412.824219 483.890625 412.140625 483.679688 411.445312 C 483.46875 410.75 483.289062 410.042969 483.148438 409.332031 C 483.007812 408.617188 482.902344 407.898438 482.828125 407.175781 C 482.757812 406.449219 482.722656 405.726562 482.722656 405 C 482.722656 404.269531 482.757812 403.546875 482.828125 402.820312 C 482.902344 402.097656 483.007812 401.378906 483.148438 400.664062 C 483.289062 399.953125 483.46875 399.246094 483.679688 398.550781 C 483.890625 397.855469 484.132812 397.171875 484.414062 396.5 C 484.691406 395.828125 485 395.171875 485.34375 394.53125 C 485.6875 393.886719 486.0625 393.265625 486.464844 392.660156 C 486.867188 392.054688 487.300781 391.472656 487.761719 390.910156 C 488.222656 390.347656 488.710938 389.808594 489.226562 389.296875 C 489.742188 388.78125 490.277344 388.292969 490.839844 387.832031 C 491.402344 387.371094 491.988281 386.9375 492.589844 386.535156 C 493.195312 386.128906 493.820312 385.757812 494.460938 385.414062 C 495.101562 385.070312 495.757812 384.761719 496.429688 384.480469 C 497.101562 384.203125 497.785156 383.957031 498.484375 383.746094 C 499.179688 383.535156 499.882812 383.359375 500.597656 383.21875 C 501.308594 383.074219 502.027344 382.96875 502.753906 382.898438 C 503.476562 382.828125 504.203125 382.792969 504.929688 382.792969 C 505.65625 382.792969 506.382812 382.828125 507.105469 382.898438 C 507.828125 382.96875 508.546875 383.074219 509.261719 383.21875 C 509.976562 383.359375 510.679688 383.535156 511.375 383.746094 C 512.070312 383.957031 512.753906 384.203125 513.425781 384.480469 C 514.097656 384.761719 514.757812 385.070312 515.398438 385.414062 C 516.039062 385.757812 516.664062 386.128906 517.265625 386.535156 C 517.871094 386.9375 518.457031 387.371094 519.015625 387.832031 C 519.578125 388.292969 520.117188 388.78125 520.632812 389.296875 C 521.144531 389.808594 521.632812 390.347656 522.09375 390.910156 C 522.558594 391.472656 522.988281 392.054688 523.394531 392.660156 C 523.796875 393.265625 524.171875 393.886719 524.515625 394.53125 C 524.855469 395.171875 525.167969 395.828125 525.445312 396.5 C 525.722656 397.171875 525.96875 397.855469 526.179688 398.550781 C 526.390625 399.246094 526.566406 399.953125 526.710938 400.664062 C 526.851562 401.378906 526.957031 402.097656 527.03125 402.820312 C 527.101562 403.546875 527.136719 404.269531 527.136719 405 C 527.136719 405.726562 527.101562 406.449219 527.03125 407.175781 C 526.957031 407.898438 526.851562 408.617188 526.710938 409.332031 C 526.566406 410.042969 526.390625 410.75 526.179688 411.445312 C 525.96875 412.140625 525.722656 412.824219 525.445312 413.496094 C 525.167969 414.167969 524.855469 414.824219 524.515625 415.464844 C 524.171875 416.109375 523.796875 416.730469 523.394531 417.335938 C 522.988281 417.941406 522.558594 418.523438 522.09375 419.085938 C 521.632812 419.648438 521.144531 420.1875 520.632812 420.699219 C 520.117188 421.214844 519.578125 421.703125 519.015625 422.164062 C 518.457031 422.625 517.871094 423.058594 517.265625 423.460938 C 516.664062 423.867188 516.039062 424.238281 515.398438 424.582031 C 514.757812 424.925781 514.097656 425.238281 513.425781 425.515625 C 512.753906 425.792969 512.070312 426.039062 511.375 426.25 C 510.679688 426.460938 509.976562 426.636719 509.261719 426.777344 C 508.546875 426.921875 507.828125 427.027344 507.105469 427.097656 C 506.382812 427.167969 505.65625 427.207031 504.929688 427.207031 Z M 504.929688 427.207031 "/></g></g></svg>