<svg width="110" height="110" viewBox="0 0 110 110" fill="none" xmlns="http://www.w3.org/2000/svg">
<g clip-path="url(#clip0_10361_26268)">
<path d="M55.5519 108.518C84.9265 108.518 108.739 84.534 108.739 54.9488C108.739 25.3635 84.9265 1.37994 55.5519 1.37994C26.1772 1.37994 2.36432 25.3635 2.36432 54.9488C2.36432 84.534 26.1772 108.518 55.5519 108.518Z" stroke="white" stroke-width="2.73477" stroke-miterlimit="10"/>
<path d="M55.552 105.442C83.2403 105.442 105.686 82.8356 105.686 54.9487C105.686 27.0619 83.2403 4.4552 55.552 4.4552C27.8636 4.4552 5.41779 27.0619 5.41779 54.9487C5.41779 82.8356 27.8636 105.442 55.552 105.442Z" fill="white"/>
<path d="M75.6769 40.6369V64.971C75.6769 67.6756 73.4964 69.852 70.8306 69.852H55.2192V76.6057H62.9779C63.4751 76.6057 63.8704 77.0039 63.8704 77.5047C63.8704 78.0054 63.4751 78.4036 62.9779 78.4036H46.1569C45.6598 78.4036 45.2644 78.0054 45.2644 77.5047C45.2644 77.0039 45.6598 76.6057 46.1569 76.6057H53.4381V69.852H37.8267C35.1608 69.852 32.9804 67.6756 32.9804 64.971V40.6369C32.9804 37.9441 35.1608 35.7559 37.8267 35.7559H70.8267C73.5121 35.7559 75.6808 37.952 75.6808 40.6369H75.6769ZM73.8918 64.971V62.3452H34.7615V64.971C34.7615 66.6781 36.1395 68.066 37.8345 68.066H70.8345C72.5178 68.0541 73.8957 66.69 73.8957 64.971H73.8918ZM73.8918 60.5591V40.633C73.8918 38.9258 72.5139 37.538 70.8188 37.538H37.8188C36.1238 37.538 34.7459 38.9258 34.7459 40.633V60.5473H73.8879V60.5591H73.8918ZM69.8911 49.0072V57.8781C69.8911 58.3158 69.5349 58.6746 69.1003 58.6746H54.3971C53.9626 58.6746 53.6064 58.3158 53.6064 57.8781V44.2366C53.6064 43.7989 53.9626 43.4401 54.3971 43.4401H55.2192V42.3638C55.2192 41.9262 55.5754 41.5674 56.0099 41.5674H57.6932V39.9391C57.6932 39.5014 58.0494 39.1427 58.484 39.1427C58.9185 39.1427 59.2747 39.5014 59.2747 39.9391V41.5674H61.9993C62.4338 41.5674 62.79 41.9262 62.79 42.3638V43.4401H63.6121C64.0466 43.4401 64.4028 43.7989 64.4028 44.2366V48.2186H69.0886C69.5231 48.2068 69.8793 48.5695 69.8793 49.0072H69.8911ZM68.3057 57.0778V56.0093C68.1765 56.2971 67.8986 56.4785 67.5815 56.4785H65.1035C64.806 56.4785 64.5281 56.309 64.3989 56.0409V57.0778H68.3018H68.3057ZM68.3057 55.3509V53.8054C68.1765 54.0932 67.8986 54.2746 67.5815 54.2746H65.1035C64.806 54.2746 64.5281 54.105 64.3989 53.8369V55.3154C64.5359 55.0473 64.806 54.8778 65.1035 54.8778H67.5815C67.8868 54.8896 68.1765 55.0789 68.3057 55.3548V55.3509ZM68.3057 53.1667V51.7197C68.1765 52.0075 67.8986 52.1889 67.5815 52.1889H65.1035C64.806 52.1889 64.5281 52.0194 64.3989 51.7513V53.1272C64.5359 52.8591 64.806 52.6896 65.1035 52.6896H67.5815C67.8868 52.7014 68.1765 52.8907 68.3057 53.1667ZM68.3057 51.0731V49.8075H64.4107V51.0455C64.5477 50.7774 64.8178 50.6079 65.1153 50.6079H67.5932C67.8907 50.6079 68.1765 50.7971 68.3057 51.0771V51.0731ZM62.8253 57.0778V45.033H55.1879V57.0778H56.3662V54.5151C56.3662 54.0774 56.7224 53.7186 57.1569 53.7186H60.8405C61.2751 53.7186 61.6313 54.0774 61.6313 54.5151V57.0778H62.8213H62.8253ZM61.2124 43.4401V43.1602H56.8046V43.4401H61.2124ZM60.0537 57.0778V55.3115H57.9438V57.0778H60.0537ZM61.7448 47.1108C62.1793 47.1108 62.5356 47.4695 62.5356 47.9072C62.5356 48.3448 62.1793 48.7036 61.7448 48.7036H56.2057C55.7712 48.7036 55.4149 48.3448 55.4149 47.9072C55.4149 47.4695 55.7712 47.1108 56.2057 47.1108H61.7448ZM61.7448 49.6065C62.1793 49.6065 62.5356 49.9652 62.5356 50.4029C62.5356 50.8405 62.1793 51.1993 61.7448 51.1993H56.2057C55.7712 51.1993 55.4149 50.8405 55.4149 50.4029C55.4149 49.9652 55.7712 49.6065 56.2057 49.6065H61.7448ZM48.9872 54.1839C49.4217 54.1839 49.7779 54.5427 49.7779 54.9803C49.7779 55.4179 49.4217 55.7767 48.9872 55.7767H39.5843C39.1498 55.7767 38.7936 55.4179 38.7936 54.9803C38.7936 54.5427 39.1498 54.1839 39.5843 54.1839H48.9872ZM44.3523 42.0011C47.4252 42.0011 49.911 44.5165 49.911 47.5996C49.911 50.6828 47.4252 53.1982 44.3523 53.1982C42.8256 53.1982 41.3615 52.5595 40.3203 51.4437C38.4295 49.429 38.2886 46.3341 39.9836 44.1498C41.0327 42.7936 42.6494 42.005 44.3523 42.005V42.0011ZM47.48 50.0638C48.8384 48.3172 48.5292 45.8136 46.795 44.4455C45.0608 43.0774 42.5751 43.3889 41.2167 45.1355C40.6726 45.8452 40.3751 46.7126 40.3751 47.6115C40.3751 48.8495 40.9388 50.0047 41.9018 50.7656C43.6242 52.1219 46.1334 51.8143 47.48 50.0677V50.0638ZM46.8655 46.0029C47.1434 46.3419 47.0925 46.8505 46.748 47.1305L44.0939 49.3147C43.7573 49.5828 43.2719 49.5434 42.9939 49.2161L41.843 47.8677L41.8313 47.8559C41.5534 47.5169 41.5925 47.0161 41.9292 46.7283C42.2658 46.4484 42.763 46.4878 43.0487 46.8269L43.6907 47.5839L45.7615 45.8885C46.0904 45.6086 46.5836 45.6599 46.8615 45.9989L46.8655 46.0029ZM45.1235 57.1803C45.558 57.1803 45.9142 57.5391 45.9142 57.9767C45.9142 58.4143 45.558 58.7731 45.1235 58.7731H39.5843C39.1498 58.7731 38.7936 58.4143 38.7936 57.9767C38.7936 57.5391 39.1498 57.1803 39.5843 57.1803H45.1235Z" fill="url(#paint0_linear_10361_26268)"/>
</g>
<defs>
<linearGradient id="paint0_linear_10361_26268" x1="32.9765" y1="57.0778" x2="75.6729" y2="57.0778" gradientUnits="userSpaceOnUse">
<stop stop-color="#E50C7E"/>
<stop offset="1" stop-color="#E97635"/>
</linearGradient>
<clipPath id="clip0_10361_26268">
<rect width="110" height="110" fill="white"/>
</clipPath>
</defs>
</svg>
