<svg width="110" height="110" viewBox="0 0 110 110" fill="none" xmlns="http://www.w3.org/2000/svg">
<g clip-path="url(#clip0_10361_26230)">
<path d="M55.1787 108.01C84.1841 108.01 107.698 84.3724 107.698 55.2139C107.698 26.0554 84.1841 2.41772 55.1787 2.41772C26.1732 2.41772 2.6597 26.0554 2.6597 55.2139C2.6597 84.3724 26.1732 108.01 55.1787 108.01Z" stroke="white" stroke-width="3.70192" stroke-miterlimit="10"/>
<path d="M55.1787 104.979C82.519 104.979 104.683 82.6985 104.683 55.2139C104.683 27.7293 82.519 5.44861 55.1787 5.44861C27.8384 5.44861 5.67467 27.7293 5.67467 55.2139C5.67467 82.6985 27.8384 104.979 55.1787 104.979Z" fill="white"/>
<path d="M75.6537 52.5327C75.6537 52.8591 75.6459 53.1816 75.6305 53.5042" stroke="url(#paint0_linear_10361_26230)" stroke-width="1.05769" stroke-miterlimit="10"/>
<path d="M75.4526 55.4121C74.0611 65.2431 65.6539 72.8049 55.4879 72.8049C44.3517 72.8049 35.3222 63.7277 35.3222 52.5327C35.3222 41.3378 44.3517 32.2606 55.4879 32.2606C64.3589 32.2606 71.8926 38.0193 74.5906 46.0162" stroke="url(#paint1_linear_10361_26230)" stroke-width="1.05769" stroke-miterlimit="10" stroke-dasharray="2.61 2.61"/>
<path d="M74.8728 46.9294C74.9617 47.2403 75.0429 47.5551 75.1163 47.8698" stroke="url(#paint2_linear_10361_26230)" stroke-width="1.05769" stroke-miterlimit="10"/>
<path d="M75.6536 52.5327C74.5597 50.4499 72.828 47.9164 71.1505 46.4282L74.9695 47.2714L78.4406 45.4645C77.1998 47.3413 76.1755 50.2362 75.6536 52.5327Z" fill="url(#paint3_linear_10361_26230)"/>
<path d="M49.3961 44.3648L49.3265 44.2055L49.4115 44.1122L49.8522 43.677C50.2078 43.3118 50.2078 42.7289 49.8522 42.3636C49.6782 42.1888 49.4424 42.0877 49.1989 42.0877C48.9554 42.0877 48.7157 42.1888 48.5457 42.3636L48.4104 42.4996L48.364 42.3986L47.4518 40.7005L47.3667 40.5567L47.9311 39.9894C48.2906 39.628 48.2906 39.0452 47.9311 38.6838C47.761 38.5128 47.5252 38.4157 47.2856 38.4157C47.0459 38.4157 46.8101 38.5128 46.64 38.6838L46.5473 38.7771L46.4622 38.8703L46.3772 38.7188L45.1982 36.5622L45.349 36.3951L45.434 36.3018C49.025 32.3267 49.6821 30.1895 48.9902 29.4939C48.2983 28.7984 46.153 29.4939 42.1794 33.0844L42.0866 33.1699L39.2572 31.6428L39.1103 31.565L39.1953 31.4718L39.2881 31.3785C39.6437 31.021 39.6437 30.4382 39.2881 30.0807C38.9286 29.7232 38.3526 29.7232 37.9932 30.0807L37.4288 30.648L37.2819 30.5703L35.585 29.6843L35.4266 29.5833L35.5618 29.4473C35.817 29.0781 35.7783 28.5808 35.4613 28.2621C35.1444 27.9435 34.6496 27.9007 34.2824 28.1533L33.7567 28.6818L33.6253 28.6041L31.4104 27.3878L29.126 27.9396L36.0296 34.8718L38.2212 37.0634L38.1362 37.1489C36.4277 38.9985 34.8274 40.9453 33.347 42.9854L33.2774 43.0864L33.1344 43.0475L28.8361 40.7005L27.862 40.9376L31.9013 44.9632L31.9941 45.0643C31.9941 45.0643 31.9554 45.1342 31.9322 45.1731C31.4529 46.0746 31.279 46.7002 31.5071 46.9294C31.7351 47.1587 32.3768 46.9994 33.2813 46.5175L33.3895 46.4631L33.5364 46.3854L37.425 50.314L37.6607 49.3347L35.4227 45.208L35.5232 45.1381C37.5564 43.6693 39.4968 42.08 41.3367 40.378L41.4218 40.2925L41.4836 40.2381L43.1496 41.9051L44.6726 43.4322L47.4866 46.2533L50.0532 48.8296L50.6021 46.537L49.3999 44.357L49.3961 44.3648Z" fill="url(#paint4_linear_10361_26230)" stroke="white" stroke-width="1.05769" stroke-miterlimit="10"/>
<path d="M79.5615 39.6358C80.2109 39.6358 80.7366 40.1643 80.7366 40.8171V41.9984H84.2579C84.9073 41.9984 85.433 42.5268 85.433 43.1796V46.3349L78.7111 44.4037C78.4985 44.3415 78.2782 44.3415 78.0656 44.4037L71.3437 46.3349V43.1796C71.3437 42.5268 71.8694 41.9984 72.5188 41.9984H76.0401V40.8171C76.0401 40.1643 76.5658 39.6358 77.2152 39.6358H79.5654H79.5615Z" fill="url(#paint5_linear_10361_26230)" stroke="white" stroke-width="1.05769" stroke-miterlimit="10"/>
<path d="M77.8685 44.6251C78.0386 44.5746 78.2202 44.5746 78.3903 44.6251L85.0426 46.5369C85.3016 46.6107 85.5181 46.7934 85.6341 47.0343C85.7539 47.2752 85.7616 47.5589 85.665 47.8114L83.8134 52.1208C83.8946 52.1558 83.9758 52.1946 84.057 52.2335L86.1597 53.2904C86.6275 53.5274 86.8207 54.0987 86.5849 54.5727C86.3491 55.0429 85.7809 55.2372 85.3094 55.0002L83.2066 53.9432C82.4026 53.5391 81.4594 53.5391 80.6554 53.9432L80.2534 54.1453C78.916 54.8175 77.3428 54.8175 76.0015 54.1453L75.5995 53.9432C74.7955 53.5391 73.8524 53.5391 73.0484 53.9432L70.9456 55.0002C70.4779 55.2372 69.9058 55.0468 69.67 54.5727C69.4342 54.1025 69.6275 53.5274 70.0952 53.2904L72.198 52.2335C72.2791 52.1946 72.3603 52.1558 72.4415 52.1208L70.59 47.8114C70.4895 47.5589 70.5011 47.2791 70.6209 47.0343C70.7407 46.7934 70.9533 46.6107 71.2123 46.5369L77.8646 44.6251H77.8685Z" fill="url(#paint6_linear_10361_26230)" stroke="white" stroke-width="1.05769" stroke-miterlimit="10"/>
<path d="M69.6777 56.6594C69.442 56.1892 69.6352 55.6141 70.1029 55.3771L72.2057 54.3202C73.5431 53.6479 75.1163 53.6479 76.4576 54.3202L76.8596 54.5222C77.6636 54.9263 78.6068 54.9263 79.4108 54.5222L79.8128 54.3202C81.1502 53.6479 82.7234 53.6479 84.0647 54.3202L86.1675 55.3771C86.6352 55.6141 86.8285 56.1853 86.5927 56.6594C86.3569 57.1296 85.7887 57.3239 85.3171 57.0868L83.2143 56.0299C82.4103 55.6258 81.4672 55.6258 80.6632 56.0299L80.2612 56.232C78.9237 56.9042 77.3505 56.9042 76.0092 56.232L75.6072 56.0299C74.8032 55.6258 73.8601 55.6258 73.0561 56.0299L70.9533 57.0868C70.4856 57.3239 69.9135 57.1335 69.6777 56.6594Z" fill="url(#paint7_linear_10361_26230)" stroke="white" stroke-width="1.05769" stroke-miterlimit="10"/>
<path d="M66.137 69.8634C65.9979 69.5175 65.6654 69.2922 65.2982 69.2922H61.6802V67.4736C61.6802 66.9723 61.2744 66.5643 60.7757 66.5643H45.5461C45.0475 66.5643 44.6416 66.9723 44.6416 67.4736V69.2922H39.9761C38.8088 69.2922 38.8088 71.1107 39.9761 71.1107H44.6416V72.9293H38.1671C36.9998 72.9293 36.9998 74.7478 38.1671 74.7478H44.6416V80.2034C44.6416 80.7047 45.0475 81.1127 45.5461 81.1127H47.4904C47.8383 82.1697 48.8278 82.9313 49.9952 82.9313C51.1625 82.9313 52.1521 82.1697 52.4999 81.1127H60.1534C60.5013 82.1697 61.4908 82.9313 62.6582 82.9313C63.8255 82.9313 64.8151 82.1697 65.163 81.1127H67.1072C67.6059 81.1127 68.0117 80.7047 68.0117 80.2034V74.7478C68.0117 74.6312 67.9885 74.5185 67.946 74.4097L66.137 69.8634ZM49.9913 81.1127C49.5313 81.1127 49.1603 80.7397 49.1603 80.2773C49.1603 79.8149 49.5352 79.4418 49.9913 79.4418C50.4474 79.4418 50.8224 79.8149 50.8224 80.2773C50.8224 80.7397 50.4474 81.1127 49.9913 81.1127ZM59.8712 79.2942H52.4458C52.0554 78.3149 51.1045 77.6194 49.9952 77.6194C48.8858 77.6194 47.9349 78.3149 47.5445 79.2942H46.4506V74.7478H49.0211C50.1884 74.7478 50.1884 72.9293 49.0211 72.9293H46.4506V71.1107H52.6352C53.8026 71.1107 53.8026 69.2922 52.6352 69.2922H46.4506V68.3829H59.8712V79.2942ZM62.6543 81.1127C62.1943 81.1127 61.8233 80.7397 61.8233 80.2773C61.8233 79.8149 62.1982 79.4418 62.6543 79.4418C63.1104 79.4418 63.4854 79.8149 63.4854 80.2773C63.4854 80.7397 63.1104 81.1127 62.6543 81.1127ZM66.2027 79.2942H65.1088C64.7184 78.3149 63.7675 77.6194 62.6582 77.6194C62.3142 77.6194 61.9856 77.6893 61.6802 77.8098V71.1107H64.6875L65.0509 72.02H63.4931C62.9945 72.02 62.5886 72.428 62.5886 72.9293V74.7478C62.5886 75.2491 62.9945 75.6571 63.4931 75.6571H66.2066V79.2942H66.2027Z" fill="url(#paint8_linear_10361_26230)"/>
</g>
<defs>
<linearGradient id="paint0_linear_10361_26230" x1="34.9335" y1="53.0262" x2="76.0402" y2="53.0262" gradientUnits="userSpaceOnUse">
<stop stop-color="#E50C7E"/>
<stop offset="1" stop-color="#E97635"/>
</linearGradient>
<linearGradient id="paint1_linear_10361_26230" x1="34.9318" y1="52.5327" x2="76.0401" y2="52.5327" gradientUnits="userSpaceOnUse">
<stop stop-color="#E50C7E"/>
<stop offset="1" stop-color="#E97635"/>
</linearGradient>
<linearGradient id="paint2_linear_10361_26230" x1="-28.6662" y1="47.3919" x2="-28.2796" y2="47.3919" gradientUnits="userSpaceOnUse">
<stop stop-color="#E50C7E"/>
<stop offset="1" stop-color="#E97635"/>
</linearGradient>
<linearGradient id="paint3_linear_10361_26230" x1="-28.6653" y1="48.9967" x2="-28.2787" y2="48.9967" gradientUnits="userSpaceOnUse">
<stop stop-color="#E50C7E"/>
<stop offset="1" stop-color="#E97635"/>
</linearGradient>
<linearGradient id="paint4_linear_10361_26230" x1="27.8659" y1="38.8587" x2="50.5982" y2="38.8587" gradientUnits="userSpaceOnUse">
<stop stop-color="#E50C7E"/>
<stop offset="1" stop-color="#E97635"/>
</linearGradient>
<linearGradient id="paint5_linear_10361_26230" x1="71.8114" y1="41.6486" x2="85.3948" y2="46.4414" gradientUnits="userSpaceOnUse">
<stop stop-color="#E50C7E"/>
<stop offset="1" stop-color="#E97635"/>
</linearGradient>
<linearGradient id="paint6_linear_10361_26230" x1="70.2228" y1="48.1495" x2="86.7937" y2="53.9932" gradientUnits="userSpaceOnUse">
<stop stop-color="#E50C7E"/>
<stop offset="1" stop-color="#E97635"/>
</linearGradient>
<linearGradient id="paint7_linear_10361_26230" x1="70.5359" y1="53.3565" x2="85.853" y2="58.7575" gradientUnits="userSpaceOnUse">
<stop stop-color="#E50C7E"/>
<stop offset="1" stop-color="#E97635"/>
</linearGradient>
<linearGradient id="paint8_linear_10361_26230" x1="37.2897" y1="74.7478" x2="68.0117" y2="74.7478" gradientUnits="userSpaceOnUse">
<stop stop-color="#E50C7E"/>
<stop offset="1" stop-color="#E97635"/>
</linearGradient>
<clipPath id="clip0_10361_26230">
<rect width="110" height="110" fill="white"/>
</clipPath>
</defs>
</svg>
