<svg width="18" height="18" viewBox="0 0 18 18" fill="none" xmlns="http://www.w3.org/2000/svg">
<path d="M0.5 9C0.5 4.30558 4.30558 0.5 9 0.5C13.6944 0.5 17.5 4.30558 17.5 9C17.5 13.6944 13.6944 17.5 9 17.5C4.30558 17.5 0.5 13.6944 0.5 9Z" stroke="#FF6720"/>
<path d="M9.74344 5.356C9.56744 5.356 9.41944 5.3 9.29944 5.188C9.18744 5.068 9.13144 4.92 9.13144 4.744C9.13144 4.504 9.21944 4.3 9.39544 4.132C9.57144 3.956 9.77544 3.868 10.0074 3.868C10.1914 3.868 10.3394 3.924 10.4514 4.036C10.5634 4.148 10.6194 4.296 10.6194 4.48C10.6194 4.72 10.5314 4.928 10.3554 5.104C10.1794 5.272 9.97544 5.356 9.74344 5.356ZM10.0914 6.424L8.92744 13H7.83544L8.99944 6.424H10.0914Z" fill="#FF6720"/>
</svg>
