<svg width="1440" height="766" viewBox="0 0 1440 766" fill="none" xmlns="http://www.w3.org/2000/svg">
<path d="M1573 141.862C1573 141.862 1489.48 26.8376 1363.16 19.7068C1236.85 12.576 1165.59 126.072 1086.19 134.946C1006.78 143.821 962.606 78.6447 898.078 92.5058C833.55 106.367 806.457 187.363 748.653 170.63C690.85 153.897 725.707 94.757 756.801 122.853C787.895 150.95 713.321 258.51 713.321 258.51" stroke="#FF6720" stroke-width="2"/>
<path d="M171.159 950.471C171.159 950.471 246.413 798.357 207.311 742.991C168.21 687.625 59.7175 761.889 41.24 649.849C22.7625 537.808 -153 548.413 -153 548.413" stroke="#FF6720" stroke-width="2"/>
</svg>
