<svg width="14" height="18" viewBox="0 0 14 18" fill="none" xmlns="http://www.w3.org/2000/svg">
<path d="M2.83203 0.666992C2.16899 0.666992 1.53311 0.930384 1.06426 1.39923C0.595423 1.86807 0.332031 2.50395 0.332031 3.16699V14.8337C0.332031 15.4967 0.595423 16.1326 1.06426 16.6014C1.5331 17.0703 2.16899 17.3337 2.83203 17.3337H11.1654C11.8284 17.3337 12.4643 17.0703 12.9331 16.6014C13.402 16.1326 13.6654 15.4967 13.6654 14.8337V14.0003C13.6654 13.5401 13.2923 13.167 12.832 13.167C12.3718 13.167 11.9987 13.5401 11.9987 14.0003V14.8337C11.9987 15.0547 11.9109 15.2666 11.7546 15.4229C11.5983 15.5792 11.3864 15.667 11.1654 15.667H2.83203C2.61102 15.667 2.39906 15.5792 2.24278 15.4229C2.0865 15.2666 1.9987 15.0547 1.9987 14.8337V3.16699C1.9987 2.94598 2.0865 2.73402 2.24278 2.57774C2.39906 2.42146 2.61102 2.33366 2.83203 2.33366H11.1654C11.3864 2.33366 11.5983 2.42146 11.7546 2.57774C11.9109 2.73402 11.9987 2.94598 11.9987 3.16699V4.00033C11.9987 4.46056 12.3718 4.83366 12.832 4.83366C13.2923 4.83366 13.6654 4.46056 13.6654 4.00033V3.16699C13.6654 2.50395 13.402 1.86807 12.9331 1.39923C12.4643 0.930384 11.8284 0.666992 11.1654 0.666992H2.83203Z" fill="black"/>
<path d="M10.9213 5.91107C10.5958 5.58563 10.0682 5.58563 9.74278 5.91107C9.41734 6.23651 9.41734 6.76414 9.74278 7.08958L10.8202 8.16699H6.9987C6.53846 8.16699 6.16536 8.54009 6.16536 9.00033C6.16536 9.46056 6.53846 9.83366 6.9987 9.83366H10.8202L9.74278 10.9111C9.41734 11.2365 9.41734 11.7641 9.74278 12.0896C10.0682 12.415 10.5958 12.415 10.9213 12.0896L13.4213 9.58958C13.7467 9.26414 13.7467 8.73651 13.4213 8.41107L10.9213 5.91107Z" fill="black"/>
</svg>
