<svg width="19" height="20" viewBox="0 0 19 20" fill="none" xmlns="http://www.w3.org/2000/svg">
    <path fill-rule="evenodd" clip-rule="evenodd"
        d="M6.15062 12.8505C9.515 16.2149 12.6326 16.5833 13.5479 16.6174C14.6539 16.6577 15.7826 15.7547 16.2709 14.8298C15.4921 13.9163 14.478 13.2075 13.3676 12.4393C12.7122 13.0938 11.9046 14.31 10.8292 13.8743C10.2176 13.6284 8.70737 12.9328 7.38787 11.6124C6.06837 10.292 5.37275 8.78266 5.12512 8.17191C4.68937 7.09478 5.90912 6.28541 6.5645 5.63003C5.79625 4.50128 5.09975 3.46091 4.188 2.72153C3.25 3.21153 2.34175 4.33153 2.38287 5.45241C2.417 6.36766 2.78537 9.48528 6.15062 12.8505ZM13.4831 18.3665C12.2231 18.3202 8.65225 17.8267 4.9125 14.0878C1.17362 10.348 0.680997 6.77803 0.633747 5.51716C0.563747 3.59566 2.0355 1.72928 3.73562 1.00041C3.94035 0.912004 4.16455 0.878346 4.38621 0.902737C4.60787 0.927127 4.81939 1.00873 5 1.13953C6.407 2.16591 7.37737 3.72078 8.21125 4.93878C8.38472 5.19205 8.46418 5.498 8.4359 5.80367C8.40762 6.10935 8.27337 6.39552 8.05637 6.61266L6.86987 7.80003C7.1455 8.40816 7.70637 9.45641 8.62512 10.3752C9.54387 11.2939 10.5921 11.8548 11.2011 12.1304L12.3867 10.9439C12.6045 10.726 12.8919 10.5916 13.1987 10.5642C13.5055 10.5369 13.8122 10.6183 14.065 10.7943C15.3075 11.6553 16.767 12.6117 17.831 13.974C17.9724 14.156 18.0624 14.3725 18.0915 14.6011C18.1206 14.8297 18.0877 15.0619 17.9964 15.2734C17.264 16.9823 15.4107 18.4374 13.4831 18.3665Z"
        fill="white" />
</svg>
    