<?xml version="1.0" encoding="UTF-8"?>
<svg version="1.1" xmlns="http://www.w3.org/2000/svg" width="121" height="120">
<path d="M0 0 C3.36849825 2.02880939 4.76203807 3.12439251 5.8046875 6.9609375 C6.02648388 17.73038403 2.37868516 23.81232271 -4 32 C-4.76183594 32.98871094 -5.52367188 33.97742187 -6.30859375 34.99609375 C-7.64334327 36.68351103 -8.99510739 38.35775535 -10.37109375 40.01171875 C-13.93212435 44.35839639 -14.17074581 46.38890653 -13.6875 51.9375 C-13.53861328 53.77634766 -13.53861328 53.77634766 -13.38671875 55.65234375 C-13.0906863 58.21496805 -12.72289333 60.5347484 -12 63 C-11.401875 62.773125 -10.80375 62.54625 -10.1875 62.3125 C-9.1046875 62.1578125 -9.1046875 62.1578125 -8 62 C-6.25 63.4375 -6.25 63.4375 -5 65 C-6.09990667 67.56644889 -6.8221246 68.87182508 -9.125 70.53125 C-11.68839611 73.90638821 -11.13948594 76.02104477 -10.640625 80.10546875 C-10.51171875 80.97816406 -10.3828125 81.85085937 -10.25 82.75 C-10.1365625 83.63816406 -10.023125 84.52632813 -9.90625 85.44140625 C-9.62372375 87.63098468 -9.32109378 89.81580084 -9 92 C-8.34 91.34 -7.68 90.68 -7 90 C-5 90.1875 -5 90.1875 -3 91 C-2.01 92.485 -2.01 92.485 -1 94 C-1.51691406 94.29648438 -2.03382812 94.59296875 -2.56640625 94.8984375 C-5.13333388 96.79726068 -6.46414106 98.16208742 -8 101 C-8.49602063 105.75288082 -7.88347931 110.48113364 -7.3671875 115.2109375 C-7.24601562 116.46132812 -7.12484375 117.71171875 -7 119 C-8.8503199 120.8503199 -11.42472082 120.29140132 -13.89453125 120.42578125 C-16.92354729 119.81323441 -17.9711745 118.30218253 -20 116 C-21.52050781 113.3371582 -21.52050781 113.3371582 -22.953125 110.30078125 C-23.48655518 109.18098877 -24.01998535 108.06119629 -24.56958008 106.9074707 C-25.12411865 105.72113037 -25.67865723 104.53479004 -26.25 103.3125 C-26.82697224 102.09364079 -27.40469414 100.87513618 -27.9831543 99.65698242 C-29.66513339 96.10919218 -31.33270368 92.55471467 -33 89 C-33.8756264 87.14551415 -34.75185271 85.29131133 -35.62890625 83.4375 C-37.42854667 79.62929094 -39.21820676 75.81659034 -41 72 C-41.53625 72.52207031 -42.0725 73.04414062 -42.625 73.58203125 C-50.14105701 80.64069663 -58.37668433 86.38020236 -67 92 C-67.92167969 92.60070312 -68.84335938 93.20140625 -69.79296875 93.8203125 C-72 95 -72 95 -75 95 C-74.34 101.93 -73.68 108.86 -73 116 C-74.98 116.495 -74.98 116.495 -77 117 C-79.47723955 113.01354989 -81.6129627 108.89287729 -83.6875 104.6875 C-84.16799805 103.71973633 -84.16799805 103.71973633 -84.65820312 102.73242188 C-85.44064447 101.15586095 -86.2205807 99.57805715 -87 98 C-87.928125 98.66 -88.85625 99.32 -89.8125 100 C-93 102 -93 102 -96 102 C-95.46292236 98.13304097 -94.41445371 96.02939501 -92 93 C-93.12019531 92.44570312 -94.24039063 91.89140625 -95.39453125 91.3203125 C-96.86724038 90.58864809 -98.33989372 89.85687139 -99.8125 89.125 C-100.55048828 88.76019531 -101.28847656 88.39539063 -102.04882812 88.01953125 C-102.76103516 87.66503906 -103.47324219 87.31054688 -104.20703125 86.9453125 C-104.8616333 86.62062988 -105.51623535 86.29594727 -106.19067383 85.96142578 C-108 85 -108 85 -111 83 C-110.67 81.68 -110.34 80.36 -110 79 C-103.07 79.66 -96.14 80.32 -89 81 C-88.34 79.02 -87.68 77.04 -87 75 C-82.64168311 66.94737572 -76.90148928 59.95458189 -71 53 C-69.33025781 51.0025459 -67.66524141 49.00121117 -66 47 C-73.64358611 43.07138664 -81.33486206 39.27882517 -89.15625 35.71484375 C-89.77941101 35.42990555 -90.40257202 35.14496735 -91.0446167 34.85139465 C-94.19187378 33.41298441 -97.34300178 31.98430344 -100.50097656 30.56958008 C-101.67112305 30.0361499 -102.84126953 29.50271973 -104.046875 28.953125 C-105.09713867 28.48036133 -106.14740234 28.00759766 -107.22949219 27.52050781 C-110.05165618 25.9716501 -111.92161685 24.44578805 -114 22 C-114.5703362 19.17971367 -114.23884896 16.91395726 -114 14 C-113.67 13.67 -113.34 13.34 -113 13 C-110.9539736 13.19827472 -108.90821895 13.40023139 -106.86474609 13.62329102 C-99.316619 14.59383511 -99.316619 14.59383511 -92.25 12.51171875 C-90.56135108 10.75622748 -89.21015886 9.10988567 -88 7 C-86.68 7.99 -85.36 8.98 -84 10 C-84.875 13.875 -84.875 13.875 -86 15 C-83.77149723 15.33774332 -81.54216533 15.6700187 -79.3125 16 C-77.45044922 16.2784375 -77.45044922 16.2784375 -75.55078125 16.5625 C-70.08455442 17.54825053 -70.08455442 17.54825053 -65.19921875 15.6875 C-64.70035156 15.130625 -64.20148438 14.57375 -63.6875 14 C-62.91986328 13.1646875 -62.91986328 13.1646875 -62.13671875 12.3125 C-61.76160156 11.879375 -61.38648438 11.44625 -61 11 C-59.0625 11.75 -59.0625 11.75 -57 13 C-56.1875 15.0625 -56.1875 15.0625 -56 17 C-56.495 17.495 -56.495 17.495 -57 18 C-55.12612523 18.3396019 -53.25083303 18.67138691 -51.375 19 C-50.33085938 19.185625 -49.28671875 19.37125 -48.2109375 19.5625 C-47.15132813 19.706875 -46.09171875 19.85125 -45 20 C-43.56914062 20.21849609 -43.56914062 20.21849609 -42.109375 20.44140625 C-37.33565042 19.76372927 -34.51491519 16.95685835 -30.875 13.9375 C-29.36425354 12.74026477 -27.84991624 11.54754679 -26.33203125 10.359375 C-25.22529053 9.4921582 -25.22529053 9.4921582 -24.09619141 8.60742188 C-17.08446997 3.23062547 -9.26906085 -2.61846953 0 0 Z M-38.7421875 26.92578125 C-40.77163463 28.79020413 -42.84034156 30.58774554 -44.9375 32.375 C-53.86001572 40.18220126 -61.65105223 48.7121232 -69 58 C-70.01707031 59.21623047 -70.01707031 59.21623047 -71.0546875 60.45703125 C-76.42434265 66.92360039 -80.74000823 73.77160972 -85 81 C-83.31665418 81.95041299 -83.31665418 81.95041299 -81 82 C-78.83962882 80.46367002 -76.9961376 78.97146777 -75.0625 77.1875 C-71.59530897 74.04304121 -68.54025148 71.44652579 -64 70 C-66.58122421 75.6820455 -70.11297413 79.78720681 -74.234375 84.4140625 C-76.27273298 86.80387773 -76.27273298 86.80387773 -75.765625 89.3359375 C-75.51296875 89.88507813 -75.2603125 90.43421875 -75 91 C-54.48255728 78.37148283 -34.75311191 62.64564936 -19.625 43.75 C-17.3353913 40.89577692 -15.04605463 38.05401374 -12.671875 35.26953125 C-2.49044944 23.48868118 -2.49044944 23.48868118 2 9 C-0.1255155 6.04089856 -0.1255155 6.04089856 -3 4 C-15.83011156 4 -29.86001247 18.74332741 -38.7421875 26.92578125 Z M-108 19 C-105.87132659 21.323065 -103.89629641 22.72917339 -101.06689453 24.10058594 C-99.89019699 24.67567902 -99.89019699 24.67567902 -98.68972778 25.26239014 C-97.84594574 25.66564514 -97.0021637 26.06890015 -96.1328125 26.484375 C-94.82520462 27.11415253 -94.82520462 27.11415253 -93.49118042 27.75665283 C-91.64859105 28.64083368 -89.80431649 29.52151002 -87.95849609 30.39892578 C-85.13566019 31.74491699 -82.32375693 33.11209112 -79.51171875 34.48046875 C-77.71938089 35.33725851 -75.92643161 36.19277066 -74.1328125 37.046875 C-73.29307892 37.45822693 -72.45334534 37.86957886 -71.58816528 38.293396 C-67.05390458 40.43863834 -67.05390458 40.43863834 -62.13745117 40.9309082 C-59.79886301 39.9124003 -58.43214599 38.89405087 -56.66796875 37.05859375 C-56.09755859 36.47529297 -55.52714844 35.89199219 -54.93945312 35.29101562 C-54.36130859 34.67935547 -53.78316406 34.06769531 -53.1875 33.4375 C-52.59001953 32.82197266 -51.99253906 32.20644531 -51.37695312 31.57226562 C-49.9087379 30.05706751 -48.45310447 28.52969562 -47 27 C-50.13973976 25.20570677 -52.78036223 24.61097599 -56.36352539 24.22216797 C-57.4346608 24.10219452 -58.5057962 23.98222107 -59.60939026 23.85861206 C-60.76051804 23.73769196 -61.91164581 23.61677185 -63.09765625 23.4921875 C-64.28346786 23.36184113 -65.46927948 23.23149475 -66.69102478 23.09719849 C-70.48077402 22.68261258 -74.27159812 22.27889542 -78.0625 21.875 C-80.62051573 21.59572015 -83.17845949 21.31578013 -85.73632812 21.03515625 C-90.41243847 20.52600626 -95.08853846 20.01686735 -99.76586914 19.51904297 C-100.70644669 19.41848602 -101.64702423 19.31792908 -102.61610413 19.21432495 C-105.09907293 18.95522792 -105.09907293 18.95522792 -108 19 Z M-21 53 C-23.38263825 55.17920414 -25.72510466 57.39741518 -28.0625 59.625 C-28.73861328 60.24246094 -29.41472656 60.85992187 -30.11132812 61.49609375 C-31.06362305 62.41455078 -31.06362305 62.41455078 -32.03515625 63.3515625 C-32.6269165 63.90666504 -33.21867676 64.46176758 -33.82836914 65.03369141 C-35.26324634 67.02803943 -35.26324634 67.02803943 -34.85375977 69.85302734 C-33.96344017 73.13476014 -32.79961441 75.9468637 -31.3046875 79 C-30.48230591 80.69322388 -30.48230591 80.69322388 -29.64331055 82.4206543 C-29.05976807 83.60183838 -28.47622559 84.78302246 -27.875 86 C-27.28038822 87.21690218 -26.68639525 88.43410691 -26.09301758 89.65161133 C-24.4061179 93.10641877 -22.70492681 96.55404943 -21 100 C-20.57154785 100.8667334 -20.1430957 101.7334668 -19.70166016 102.62646484 C-17.81911111 106.42686585 -15.9218182 110.21925947 -14 114 C-12.92229343 110.76688028 -13.03966665 109.11398501 -13.40551758 105.76586914 C-13.51926224 104.69788589 -13.6330069 103.62990265 -13.75019836 102.52955627 C-13.88032822 101.37640427 -14.01045807 100.22325226 -14.14453125 99.03515625 C-14.33930305 97.25787392 -14.33930305 97.25787392 -14.53800964 95.44468689 C-14.81478108 92.93679979 -15.09492831 90.4292833 -15.37817383 87.92211914 C-15.81023452 84.08263207 -16.2270948 80.24170268 -16.64257812 76.40039062 C-16.91314347 73.96604351 -17.1845983 71.53179506 -17.45703125 69.09765625 C-17.58108841 67.94652847 -17.70514557 66.7954007 -17.83296204 65.60939026 C-17.95616318 64.53825485 -18.07936432 63.46711945 -18.20629883 62.36352539 C-18.31146317 61.42215225 -18.4166275 60.48077911 -18.52497864 59.51087952 C-18.99700039 57.01585539 -19.74704391 55.19477031 -21 53 Z M-86 88 C-85.73323796 89.98491642 -85.73323796 89.98491642 -85 92 C-84.01 92.33 -83.02 92.66 -82 93 C-82 91.35 -82 89.7 -82 88 C-83.32 88 -84.64 88 -86 88 Z " fill="#FFFFFF" transform="translate(116,0)"/>
</svg>
