<svg width="13" height="14" viewBox="0 0 13 14" fill="none" xmlns="http://www.w3.org/2000/svg">
    <path fill-rule="evenodd" clip-rule="evenodd"
        d="M6.35352 0.75C6.55243 0.75 6.74319 0.829018 6.88385 0.96967C7.0245 1.11032 7.10352 1.30109 7.10352 1.5V6.25H11.8535C12.0524 6.25 12.2432 6.32902 12.3838 6.46967C12.5245 6.61032 12.6035 6.80109 12.6035 7C12.6035 7.19891 12.5245 7.38968 12.3838 7.53033C12.2432 7.67098 12.0524 7.75 11.8535 7.75H7.10352V12.5C7.10352 12.6989 7.0245 12.8897 6.88385 13.0303C6.74319 13.171 6.55243 13.25 6.35352 13.25C6.1546 13.25 5.96384 13.171 5.82319 13.0303C5.68253 12.8897 5.60352 12.6989 5.60352 12.5V7.75H0.853516C0.654603 7.75 0.463838 7.67098 0.323186 7.53033C0.182533 7.38968 0.103516 7.19891 0.103516 7C0.103516 6.80109 0.182533 6.61032 0.323186 6.46967C0.463838 6.32902 0.654603 6.25 0.853516 6.25H5.60352V1.5C5.60352 1.30109 5.68253 1.11032 5.82319 0.96967C5.96384 0.829018 6.1546 0.75 6.35352 0.75Z"
        fill="white" />
</svg>
    