<svg width="375" height="510" viewBox="0 0 375 510" fill="none" xmlns="http://www.w3.org/2000/svg">
    <path
        d="M583.316 49.3325C583.316 49.3325 550.932 4.73222 501.954 1.96729C452.976 -0.797638 425.348 43.2097 394.558 46.6509C363.769 50.092 346.641 24.8202 321.62 30.1948C296.6 35.5694 286.094 66.9754 263.681 60.4871C241.268 53.9987 254.784 31.0677 266.841 41.9619C278.897 52.8561 249.982 94.5622 249.982 94.5622"
        stroke="#FF6720" stroke-width="2" />
    <path
        d="M107.733 509.534C107.733 509.534 96.2918 460.257 76.8105 454.9C57.3293 449.543 46.3859 487.174 20.9341 464.86C-4.51768 442.546 -43.0002 478.239 -43.0002 478.239"
        stroke="#FF6720" stroke-width="2" />
</svg>
    