<svg width="16" height="16" viewBox="0 0 16 16" fill="none" xmlns="http://www.w3.org/2000/svg">
<path d="M6.66603 13.9999H9.3327C9.3327 14.3535 9.19222 14.6927 8.94217 14.9427C8.69212 15.1928 8.35298 15.3333 7.99936 15.3333C7.64574 15.3333 7.3066 15.1928 7.05655 14.9427C6.8065 14.6927 6.66603 14.3535 6.66603 13.9999ZM13.9994 12.6666V13.3333H1.99936V12.6666L3.3327 11.3333V7.33325C3.3327 5.26659 4.68603 3.44659 6.66603 2.85992V2.66659C6.66603 2.31296 6.8065 1.97382 7.05655 1.72378C7.3066 1.47373 7.64574 1.33325 7.99936 1.33325C8.35298 1.33325 8.69212 1.47373 8.94217 1.72378C9.19222 1.97382 9.3327 2.31296 9.3327 2.66659V2.85992C11.3127 3.44659 12.666 5.26659 12.666 7.33325V11.3333L13.9994 12.6666ZM11.3327 7.33325C11.3327 6.4492 10.9815 5.60135 10.3564 4.97623C9.73126 4.35111 8.88342 3.99992 7.99936 3.99992C7.11531 3.99992 6.26746 4.35111 5.64234 4.97623C5.01722 5.60135 4.66603 6.4492 4.66603 7.33325V11.9999H11.3327V7.33325ZM13.166 2.12659L12.2194 3.07325C12.7832 3.6302 13.2309 4.29353 13.5364 5.0248C13.842 5.75607 13.9993 6.54072 13.9994 7.33325H15.3327C15.3327 5.37992 14.5594 3.49992 13.166 2.12659ZM0.666028 7.33325H1.99936C1.99936 5.73325 2.63936 4.19992 3.77936 3.07325L2.8327 2.12659C2.14462 2.80763 1.59874 3.61863 1.22679 4.51246C0.854838 5.40629 0.664226 6.36512 0.666028 7.33325Z" fill="#FF6720"/>
</svg>
