<svg width="1440" height="120" viewBox="0 0 1440 120" fill="none" xmlns="http://www.w3.org/2000/svg">
<g clip-path="url(#clip0_4427_18760)">
<path d="M1784.82 -70C1784.82 -70 1733.12 47.4399 1623.05 77.8721C1512.97 108.304 1428.42 21.7935 1356.67 29.1402C1284.92 36.4869 1258.41 102.43 1198.83 102.533C1139.25 102.637 1099.87 36.3584 1052.07 62.1685C1004.27 87.9785 1046.33 133.491 1068.39 102.761C1090.45 72.0311 1004.1 -8.60904 1004.1 -8.60904" stroke="#FF6720" stroke-width="1.56891"/>
<path d="M-683.684 -70C-683.684 -70 -631.984 47.4399 -521.909 77.8721C-411.834 108.304 -327.281 21.7935 -255.53 29.1402C-183.779 36.4869 -157.265 102.43 -97.6873 102.533C-38.11 102.637 1.27268 36.3584 49.0702 62.1685C96.8678 87.9785 54.8133 133.491 32.751 102.761C10.6887 72.0311 97.0363 -8.60904 97.0363 -8.60904" stroke="#FF6720" stroke-width="1.56891"/>
</g>
<defs>
<clipPath id="clip0_4427_18760">
<rect width="1440" height="120" fill="white"/>
</clipPath>
</defs>
</svg>
