<svg width="16" height="16" viewBox="0 0 16 16" fill="none" xmlns="http://www.w3.org/2000/svg">
<path d="M1.08108 1.55962L1.62934 1.01135L14.5637 13.9457L14.0154 14.494L11.4363 11.9071C10.3784 12.3473 9.22008 12.5944 8 12.5944C4.47876 12.5944 1.43629 10.548 0 7.57506C0.749035 6.03066 1.92278 4.74108 3.3668 3.85305L1.08108 1.55962ZM8 11.8222C8.99614 11.8222 9.95367 11.6446 10.834 11.3125L9.96911 10.4399C9.4054 10.826 8.73359 11.05 8 11.05C6.0695 11.05 4.5251 9.50556 4.5251 7.57506C4.5251 6.84147 4.74903 6.16965 5.13513 5.60595L3.93822 4.41676C2.64529 5.17002 1.5826 6.26207 0.864865 7.57506C2.23938 10.1079 4.9112 11.8222 8 11.8222ZM15.1351 7.57506C13.7606 5.04224 11.0888 3.32795 8 3.32795C7.11197 3.32795 6.2471 3.47467 5.44401 3.73722L4.8417 3.1349C5.82239 2.75653 6.88803 2.55575 8 2.55575C11.5212 2.55575 14.5637 4.60209 16 7.57506C15.2983 9.03129 14.2114 10.2677 12.8571 11.1503L12.3012 10.5866C13.4826 9.84533 14.4633 8.81058 15.1351 7.57506ZM8 4.10016C9.9305 4.10016 11.4749 5.64456 11.4749 7.57506C11.4749 8.20826 11.305 8.79514 11.0116 9.30479L10.4402 8.73336C10.61 8.37815 10.7027 7.99205 10.7027 7.57506C10.7027 6.85826 10.418 6.17081 9.9111 5.66396C9.40424 5.1571 8.7168 4.87236 8 4.87236C7.58301 4.87236 7.19691 4.96502 6.8417 5.1349L6.27027 4.56348C6.77992 4.27004 7.36679 4.10016 8 4.10016ZM5.2973 7.57506C5.2973 8.29186 5.58205 8.9793 6.0889 9.48616C6.59576 9.99301 7.2832 10.2778 8 10.2778C8.51737 10.2778 8.99614 10.131 9.4054 9.89166L5.6834 6.16965C5.44402 6.57892 5.2973 7.05768 5.2973 7.57506Z" fill="#FF6720"/>
</svg>
