<svg width="25" height="24" viewBox="0 0 25 24" fill="none" xmlns="http://www.w3.org/2000/svg">
<path d="M11.5489 1.42705C11.8483 0.505743 13.1517 0.50574 13.4511 1.42705L15.5309 7.82827C15.6648 8.24029 16.0488 8.51925 16.482 8.51925L23.2126 8.51925C24.1814 8.51925 24.5841 9.75887 23.8004 10.3283L18.3552 14.2844C18.0047 14.5391 17.8581 14.9905 17.9919 15.4025L20.0718 21.8037C20.3712 22.725 19.3167 23.4911 18.533 22.9217L13.0878 18.9656C12.7373 18.7109 12.2627 18.7109 11.9122 18.9656L6.46701 22.9217C5.6833 23.4911 4.62882 22.725 4.92817 21.8037L7.00805 15.4025C7.14193 14.9905 6.99527 14.5391 6.64478 14.2844L1.19958 10.3283C0.415862 9.75887 0.81864 8.51925 1.78736 8.51925L8.51801 8.51925C8.95123 8.51925 9.33519 8.24029 9.46906 7.82827L11.5489 1.42705Z" fill="#e5e7eb"/>
<path d="M12.0245 1.58156C12.1741 1.1209 12.8259 1.12091 12.9755 1.58156L15.0554 7.98278C15.2562 8.60081 15.8322 9.01925 16.482 9.01925L23.2126 9.01925C23.697 9.01925 23.8984 9.63906 23.5065 9.92376L18.0613 13.8799C17.5356 14.2619 17.3156 14.939 17.5164 15.557L19.5963 21.9582C19.746 22.4189 19.2187 22.8019 18.8269 22.5172L13.3817 18.561C12.8559 18.1791 12.1441 18.1791 11.6183 18.5611L6.17312 22.5172C5.78126 22.8019 5.25402 22.4189 5.4037 21.9582L7.48358 15.557C7.68439 14.9389 7.46441 14.2619 6.93867 13.8799L1.49347 9.92376C1.10162 9.63906 1.303 9.01925 1.78736 9.01925L8.51801 9.01925C9.16784 9.01925 9.74378 8.60081 9.94459 7.98278L12.0245 1.58156Z" stroke="#e5e7eb"/>
</svg>
