<svg width="28" height="28" viewBox="0 0 28 28" fill="none" xmlns="http://www.w3.org/2000/svg">
<path d="M26.0399 12.6689L25.3148 9.80319C25.5131 9.76158 25.6618 9.58781 25.6618 9.37962V8.91758C25.6618 7.91439 24.8358 7.09827 23.8205 7.09827H20.5178V6.14523C20.5178 5.65158 20.1114 5.25 19.6117 5.25H2.7766C2.27697 5.25 1.87053 5.65158 1.87053 6.14523V14.0001C1.87053 14.2393 2.06681 14.4333 2.30897 14.4333C2.55107 14.4333 2.7474 14.2393 2.7474 14.0001V6.14523C2.7474 6.12929 2.76047 6.11637 2.7766 6.11637H19.6117C19.6278 6.11637 19.6409 6.12929 19.6409 6.14523V14.0002C19.6409 14.2394 19.8372 14.4334 20.0793 14.4334C20.3214 14.4334 20.5178 14.2395 20.5178 14.0002V13.5091H25.6895C25.6899 13.5091 25.6903 13.5092 25.6907 13.5092C25.6911 13.5092 25.6915 13.5092 25.6919 13.5092C26.3283 13.5096 26.8686 13.9223 27.0542 14.491H25.691C25.4489 14.491 25.2526 14.685 25.2526 14.9242V15.8483C25.2526 16.5967 25.8688 17.2056 26.6262 17.2056H27.1231V19.1115H25.9768C25.6002 18.0371 24.5665 17.2633 23.3528 17.2633C22.139 17.2633 21.1053 18.0371 20.7287 19.1115H20.5176V15.8482C20.5176 15.609 20.3214 15.4151 20.0792 15.4151C19.8371 15.4151 19.6408 15.609 19.6408 15.8482V19.1114H10.5447C10.1681 18.037 9.13447 17.2632 7.92068 17.2632C6.70689 17.2632 5.67318 18.037 5.29666 19.1114H2.7766C2.76047 19.1114 2.7474 19.0985 2.7474 19.0825V18.1295H4.64719C4.88929 18.1295 5.08562 17.9356 5.08562 17.6964C5.08562 17.4571 4.88935 17.2632 4.64719 17.2632H0.438431C0.196329 17.2632 0 17.4571 0 17.6964C0 17.9356 0.196274 18.1295 0.438431 18.1295H1.87059V19.0825C1.87059 19.5762 2.27703 19.9778 2.77665 19.9778H5.14485C5.14474 19.9874 5.14408 19.9969 5.14408 20.0066C5.14408 21.5193 6.3897 22.75 7.92068 22.75C9.45166 22.75 10.6973 21.5193 10.6973 20.0066C10.6973 19.9969 10.6966 19.9874 10.6965 19.9778H20.5769C20.5768 19.9874 20.5762 19.9969 20.5762 20.0066C20.5762 21.5193 21.8218 22.75 23.3528 22.75C24.8837 22.75 26.1294 21.5193 26.1294 20.0066C26.1294 19.9969 26.1287 19.9874 26.1286 19.9778H27.5616C27.8037 19.9778 28 19.7838 28 19.5446V14.9241C28.0001 13.7834 27.1482 12.8356 26.0399 12.6689ZM20.5178 7.96459H23.8205C24.3523 7.96459 24.785 8.3921 24.785 8.91758V8.94643H20.5178V7.96459ZM20.5178 12.6428V9.81275H24.4135L25.1296 12.6428H20.5178ZM7.92068 21.8838C6.87314 21.8838 6.02089 21.0418 6.02089 20.0067C6.02089 18.9717 6.87314 18.1296 7.92068 18.1296C8.96822 18.1296 9.82047 18.9717 9.82047 20.0067C9.82047 21.0418 8.96822 21.8838 7.92068 21.8838ZM23.3529 21.8838C22.3053 21.8838 21.4531 21.0418 21.4531 20.0067C21.4531 18.9717 22.3053 18.1296 23.3529 18.1296C24.4004 18.1296 25.2527 18.9717 25.2527 20.0067C25.2527 21.0418 24.4004 21.8838 23.3529 21.8838ZM27.1232 16.3392H26.6264C26.3524 16.3392 26.1295 16.119 26.1295 15.8482V15.3573H27.1232V16.3392H27.1232Z" fill="white"/>
<path d="M7.91974 19.1113C7.42011 19.1113 7.01367 19.5129 7.01367 20.0066C7.01367 20.5002 7.42011 20.9018 7.91974 20.9018C8.41936 20.9018 8.8258 20.5002 8.8258 20.0066C8.8258 19.5129 8.41936 19.1113 7.91974 19.1113Z" fill="white"/>
<path d="M23.3514 19.1113C22.8518 19.1113 22.4453 19.5129 22.4453 20.0066C22.4453 20.5002 22.8518 20.9018 23.3514 20.9018C23.851 20.9018 24.2574 20.5002 24.2574 20.0066C24.2574 19.5129 23.851 19.1113 23.3514 19.1113Z" fill="white"/>
<path d="M18.2081 17.2632H11.6611C11.419 17.2632 11.2227 17.4571 11.2227 17.6964C11.2227 17.9356 11.4189 18.1296 11.6611 18.1296H18.2081C18.4502 18.1296 18.6465 17.9356 18.6465 17.6964C18.6465 17.4571 18.4502 17.2632 18.2081 17.2632Z" fill="white"/>
<path d="M6.98569 15.415H1.37398C1.13188 15.415 0.935547 15.609 0.935547 15.8482C0.935547 16.0875 1.13182 16.2814 1.37398 16.2814H6.98569C7.22779 16.2814 7.42412 16.0875 7.42412 15.8482C7.42412 15.609 7.22779 15.415 6.98569 15.415Z" fill="white"/>
</svg>
