<svg width="109" height="21" viewBox="0 0 109 21" fill="none" xmlns="http://www.w3.org/2000/svg">
    <path d="M9.39817 3.58808L11.1535 7.75034C11.196 7.85136 11.2654 7.93891 11.3542 8.00357C11.443 8.06823 11.5479 8.10753 11.6575 8.11725L16.1505 8.5037C16.2697 8.51324 16.3834 8.55774 16.4772 8.63159C16.571 8.70543 16.6407 8.8053 16.6774 8.91855C16.7141 9.0318 16.7163 9.15334 16.6835 9.2678C16.6508 9.38226 16.5847 9.48449 16.4936 9.56156L13.0849 12.5201C13.0021 12.5925 12.9405 12.6859 12.9067 12.7904C12.8729 12.8948 12.8681 13.0064 12.893 13.1133L13.9146 17.5147C13.9416 17.6296 13.934 17.7499 13.8928 17.8606C13.8515 17.9713 13.7784 18.0675 13.6826 18.1371C13.5869 18.2068 13.4726 18.2469 13.3541 18.2524C13.2356 18.2579 13.118 18.2285 13.0161 18.168L9.15485 15.8373C9.06103 15.7805 8.95334 15.7505 8.84353 15.7505C8.73373 15.7505 8.62603 15.7805 8.53221 15.8373L4.67092 18.168C4.56904 18.2285 4.45151 18.2579 4.333 18.2524C4.21448 18.2469 4.10021 18.2068 4.00442 18.1371C3.90863 18.0675 3.83556 17.9713 3.79431 17.8606C3.75307 17.7499 3.74547 17.6296 3.77247 17.5147L4.79409 13.1133C4.81892 13.0064 4.81419 12.8948 4.78039 12.7904C4.7466 12.6859 4.68501 12.5925 4.60215 12.5201L1.19349 9.56156C1.10236 9.48449 1.03625 9.38226 1.00353 9.2678C0.970811 9.15334 0.97295 9.0318 1.00968 8.91855C1.0464 8.8053 1.11607 8.70543 1.20985 8.63159C1.30364 8.55774 1.41733 8.51324 1.53654 8.5037L6.02955 8.11725C6.13917 8.10753 6.24404 8.06823 6.33286 8.00357C6.42168 7.93891 6.49107 7.85136 6.53356 7.75034L8.2889 3.58808C8.33578 3.48047 8.41326 3.38885 8.51181 3.32448C8.61035 3.26012 8.72566 3.22583 8.84353 3.22583C8.96141 3.22583 9.07672 3.26012 9.17526 3.32448C9.2738 3.38885 9.35128 3.48047 9.39817 3.58808Z" fill="#1EA76F"/>
    <path d="M37.3898 5.66819V7.53016H33.6827V16.7394H31.3678V7.53016H27.6438V5.66819H37.3898ZM37.949 16.7394V8.35211H39.9452L40.0962 9.99602C40.3198 9.4145 40.6441 8.96718 41.0691 8.65405C41.5052 8.34093 42.0476 8.18437 42.6962 8.18437C42.8863 8.18437 43.0597 8.20114 43.2162 8.23469C43.3728 8.26824 43.5014 8.31297 43.602 8.36889L43.3337 10.298C43.2218 10.2532 43.082 10.2197 42.9143 10.1973C42.7577 10.1749 42.5508 10.1638 42.2936 10.1638C41.9581 10.1638 41.6338 10.2476 41.3207 10.4154C41.0076 10.5719 40.7504 10.818 40.5491 11.1535C40.3478 11.4778 40.2471 11.8915 40.2471 12.3948V16.7394H37.949ZM47.9446 16.9071C47.3854 16.9071 46.8822 16.8065 46.4348 16.6052C45.9875 16.4039 45.6297 16.0852 45.3613 15.649C45.1041 15.2017 44.9755 14.6258 44.9755 13.9213V8.35211H47.2736V13.3677C47.2736 14.0163 47.4078 14.4692 47.6762 14.7264C47.9446 14.9725 48.3304 15.0955 48.8336 15.0955C49.0685 15.0955 49.2977 15.0563 49.5214 14.9781C49.745 14.8886 49.9407 14.7544 50.1085 14.5755C50.2874 14.3965 50.4272 14.1673 50.5278 13.8877C50.6285 13.5969 50.6788 13.2559 50.6788 12.8645V8.35211H52.9769V16.7394H50.9304L50.8466 15.28C50.567 15.8391 50.1812 16.2529 49.6891 16.5213C49.2082 16.7785 48.6267 16.9071 47.9446 16.9071ZM58.7501 16.9071C57.9002 16.9071 57.123 16.7562 56.4185 16.4542C55.7251 16.1523 55.1604 15.7273 54.7242 15.1793L56.0494 13.8374C56.3178 14.24 56.6757 14.5699 57.123 14.8271C57.5703 15.0843 58.1015 15.2129 58.7166 15.2129C59.1527 15.2129 59.4994 15.1514 59.7566 15.0284C60.025 14.8942 60.1592 14.6873 60.1592 14.4077C60.1592 14.2288 60.0977 14.0778 59.9747 13.9548C59.8516 13.8206 59.6056 13.7144 59.2366 13.6361L57.7604 13.3341C56.7875 13.1329 56.0941 12.8309 55.6804 12.4283C55.2778 12.0146 55.0765 11.4834 55.0765 10.8347C55.0765 10.3762 55.2107 9.94569 55.4791 9.5431C55.7587 9.14051 56.1724 8.81621 56.7204 8.57018C57.2684 8.31297 57.9505 8.18437 58.7669 8.18437C59.6056 8.18437 60.3325 8.31856 60.9476 8.58695C61.5738 8.84416 62.0659 9.22998 62.4237 9.7444L61.0482 11.0864C60.8022 10.695 60.4779 10.3986 60.0753 10.1973C59.6839 9.98483 59.2701 9.87859 58.834 9.87859C58.5209 9.87859 58.2525 9.91214 58.0288 9.97924C57.8051 10.0463 57.6374 10.1414 57.5256 10.2644C57.4137 10.3762 57.3578 10.5216 57.3578 10.7005C57.3578 10.8795 57.4361 11.036 57.5927 11.1702C57.7492 11.2932 58.0344 11.3995 58.4482 11.4889L60.1592 11.8412C60.9867 12.009 61.5794 12.2941 61.9373 12.6967C62.2951 13.0881 62.4741 13.5634 62.4741 14.1226C62.4741 14.6593 62.3287 15.1402 62.0379 15.5652C61.7583 15.9789 61.339 16.3088 60.7798 16.5549C60.2319 16.7897 59.5553 16.9071 58.7501 16.9071ZM67.2758 5.78561V14.0051C67.2758 14.4077 67.3764 14.7041 67.5777 14.8942C67.7902 15.0731 68.0754 15.1626 68.4332 15.1626C68.7128 15.1626 68.9588 15.1234 69.1713 15.0452C69.3838 14.9557 69.5739 14.8383 69.7416 14.6929L70.1107 16.2194C69.8423 16.4318 69.5068 16.5996 69.1042 16.7226C68.7016 16.8456 68.2766 16.9071 67.8293 16.9071C67.2702 16.9071 66.7725 16.8233 66.3364 16.6555C65.9114 16.4878 65.5759 16.2194 65.3299 15.8503C65.0951 15.4813 64.9777 14.9892 64.9777 14.3742V6.42304L67.2758 5.78561ZM69.9597 8.35211V10.0631H63.4344V8.35211H69.9597ZM71.5145 20.262V8.35211H73.5778L73.7287 11.0193L73.4436 10.7173C73.5442 10.2253 73.7287 9.78913 73.9971 9.40891C74.2767 9.02868 74.629 8.73233 75.0539 8.51986C75.4789 8.2962 75.9541 8.18437 76.4797 8.18437C77.1619 8.18437 77.7714 8.3577 78.3082 8.70438C78.845 9.05105 79.2643 9.5487 79.5663 10.1973C79.8794 10.8347 80.0359 11.612 80.0359 12.529C80.0359 13.446 79.8794 14.2344 79.5663 14.8942C79.2531 15.5428 78.8226 16.0404 78.2746 16.3871C77.7378 16.7338 77.1228 16.9071 76.4294 16.9071C75.6913 16.9071 75.0763 16.7002 74.5842 16.2865C74.1034 15.8727 73.7735 15.3527 73.5945 14.7264L73.8126 14.3742V20.262H71.5145ZM75.7584 15.1458C76.3735 15.1458 76.8544 14.9277 77.2011 14.4916C77.5589 14.0443 77.7378 13.3957 77.7378 12.5457C77.7378 11.6958 77.5645 11.0528 77.2178 10.6167C76.8823 10.1694 76.4071 9.94569 75.792 9.94569C75.4006 9.94569 75.0539 10.0519 74.752 10.2644C74.4612 10.4657 74.232 10.7621 74.0642 11.1535C73.8965 11.5337 73.8126 11.9978 73.8126 12.5457C73.8126 13.0825 73.8909 13.5466 74.0474 13.938C74.204 14.3294 74.4277 14.6314 74.7184 14.8439C75.0204 15.0452 75.367 15.1458 75.7584 15.1458ZM83.1888 7.14434C82.7079 7.14434 82.35 7.0437 82.1152 6.8424C81.8804 6.62993 81.7629 6.32239 81.7629 5.9198C81.7629 5.50603 81.8804 5.1985 82.1152 4.9972C82.35 4.78473 82.7079 4.67849 83.1888 4.67849C83.6696 4.67849 84.0275 4.78473 84.2623 4.9972C84.4972 5.1985 84.6146 5.50603 84.6146 5.9198C84.6146 6.32239 84.4972 6.62993 84.2623 6.8424C84.0275 7.0437 83.6696 7.14434 83.1888 7.14434ZM84.3294 8.35211V16.7394H82.0313V8.35211H84.3294ZM89.0301 4.67849V14.1561C89.0301 14.5475 89.0972 14.8215 89.2314 14.9781C89.3656 15.1346 89.5893 15.2129 89.9024 15.2129C90.0925 15.2129 90.2491 15.2017 90.3721 15.1793C90.4951 15.1458 90.6517 15.1011 90.8418 15.0452L90.6405 16.5549C90.4504 16.6667 90.2099 16.7506 89.9192 16.8065C89.6396 16.8736 89.36 16.9071 89.0804 16.9071C88.2641 16.9071 87.6658 16.7114 87.2856 16.32C86.9165 15.9174 86.732 15.28 86.732 14.4077V4.67849H89.0301ZM95.9469 8.18437C96.7968 8.18437 97.5404 8.3577 98.1779 8.70438C98.8265 9.05105 99.3297 9.5487 99.6876 10.1973C100.057 10.8459 100.241 11.6287 100.241 12.5457C100.241 13.4516 100.057 14.2344 99.6876 14.8942C99.3297 15.5428 98.8265 16.0404 98.1779 16.3871C97.5404 16.7338 96.7968 16.9071 95.9469 16.9071C95.1081 16.9071 94.3645 16.7338 93.7158 16.3871C93.0672 16.0404 92.5584 15.5428 92.1894 14.8942C91.8315 14.2344 91.6526 13.4516 91.6526 12.5457C91.6526 11.6287 91.8315 10.8459 92.1894 10.1973C92.5584 9.5487 93.0672 9.05105 93.7158 8.70438C94.3645 8.3577 95.1081 8.18437 95.9469 8.18437ZM95.9469 9.89537C95.5219 9.89537 95.1585 9.99602 94.8565 10.1973C94.5658 10.3874 94.3421 10.6782 94.1855 11.0696C94.029 11.461 93.9507 11.953 93.9507 12.5457C93.9507 13.1384 94.029 13.6305 94.1855 14.0219C94.3421 14.4133 94.5658 14.7097 94.8565 14.911C95.1585 15.1011 95.5219 15.1961 95.9469 15.1961C96.3606 15.1961 96.7129 15.1011 97.0037 14.911C97.3056 14.7097 97.5348 14.4133 97.6914 14.0219C97.848 13.6305 97.9263 13.1384 97.9263 12.5457C97.9263 11.953 97.848 11.461 97.6914 11.0696C97.5348 10.6782 97.3056 10.3874 97.0037 10.1973C96.7129 9.99602 96.3606 9.89537 95.9469 9.89537ZM105.051 5.78561V14.0051C105.051 14.4077 105.152 14.7041 105.353 14.8942C105.566 15.0731 105.851 15.1626 106.209 15.1626C106.488 15.1626 106.734 15.1234 106.947 15.0452C107.159 14.9557 107.349 14.8383 107.517 14.6929L107.886 16.2194C107.618 16.4318 107.282 16.5996 106.88 16.7226C106.477 16.8456 106.052 16.9071 105.605 16.9071C105.046 16.9071 104.548 16.8233 104.112 16.6555C103.687 16.4878 103.351 16.2194 103.105 15.8503C102.871 15.4813 102.753 14.9892 102.753 14.3742V6.42304L105.051 5.78561ZM107.735 8.35211V10.0631H101.21V8.35211H107.735Z" fill="black"/>
</svg>
