<svg width="52" height="52" viewBox="0 0 52 52" fill="none" xmlns="http://www.w3.org/2000/svg">
<rect width="52" height="52" rx="26" fill="#FF3EB5"/>
<path d="M33.0854 18.9101C32.164 17.984 31.0665 17.2497 29.8569 16.7501C28.6473 16.2505 27.3499 15.9955 26.0402 16.0001C20.5528 16.0001 16.0804 20.45 16.0804 25.91C16.0804 27.66 16.5427 29.36 17.407 30.86L16 36L21.2764 34.62C22.7337 35.41 24.3719 35.83 26.0402 35.83C31.5276 35.83 36 31.38 36 25.92C36 23.27 34.9648 20.78 33.0854 18.9101ZM26.0402 34.15C24.5528 34.15 23.0955 33.75 21.8191 33L21.5176 32.82L18.3819 33.64L19.2161 30.6L19.0151 30.29C18.1887 28.977 17.7499 27.4593 17.7487 25.91C17.7487 21.37 21.4673 17.6701 26.0301 17.6701C28.2412 17.6701 30.3216 18.5301 31.8794 20.09C32.6507 20.854 33.262 21.7627 33.6778 22.7635C34.0936 23.7642 34.3056 24.8371 34.3015 25.92C34.3216 30.46 30.603 34.15 26.0402 34.15ZM30.5829 27.99C30.3317 27.87 29.1055 27.27 28.8844 27.18C28.6533 27.1 28.4925 27.06 28.3216 27.3C28.1508 27.55 27.6784 28.11 27.5377 28.27C27.397 28.44 27.2462 28.46 26.995 28.33C26.7437 28.21 25.9397 27.94 24.995 27.1C24.2513 26.44 23.7588 25.63 23.608 25.38C23.4673 25.13 23.5879 25 23.7186 24.87C23.8291 24.76 23.9698 24.58 24.0905 24.44C24.2111 24.3 24.2613 24.19 24.3417 24.03C24.4221 23.86 24.3819 23.72 24.3216 23.6C24.2613 23.48 23.7588 22.26 23.5578 21.76C23.3568 21.28 23.1457 21.34 22.995 21.33H22.5126C22.3417 21.33 22.0804 21.39 21.8492 21.64C21.6281 21.89 20.9849 22.49 20.9849 23.71C20.9849 24.93 21.8794 26.11 22 26.27C22.1206 26.44 23.7588 28.94 26.2513 30.01C26.8442 30.27 27.3065 30.42 27.6683 30.53C28.2613 30.72 28.804 30.69 29.2362 30.63C29.7186 30.56 30.7136 30.03 30.9146 29.45C31.1256 28.87 31.1256 28.38 31.0553 28.27C30.9849 28.16 30.8342 28.11 30.5829 27.99Z" fill="#FCFCFC"/>
</svg>
